<svg width="75" height="59" viewBox="0 0 75 59" fill="none" xmlns="http://www.w3.org/2000/svg">
<path d="M37.5391 36.3203C37.5391 39.9661 37.1094 43.1953 36.25 46.0078C35.4167 48.7943 34.2057 51.125 32.6172 53C31.0547 54.9271 29.1276 56.3854 26.8359 57.375C24.5703 58.3385 21.9922 58.8203 19.1016 58.8203C16.237 58.8203 13.6589 58.3385 11.3672 57.375C9.07552 56.3854 7.13542 54.9271 5.54688 53C3.93229 51.125 2.69531 48.7943 1.83594 46.0078C1.0026 43.1953 0.585938 39.9661 0.585938 36.3203V22.8438C0.585938 19.1979 1.0026 15.9818 1.83594 13.1953C2.69531 10.3828 3.91927 8.01302 5.50781 6.08594C7.09635 4.1849 9.02344 2.7526 11.2891 1.78906C13.5807 0.799479 16.1589 0.304688 19.0234 0.304688C21.9141 0.304688 24.4922 0.799479 26.7578 1.78906C29.0495 2.7526 31.0026 4.1849 32.6172 6.08594C34.1797 8.01302 35.3906 10.3828 36.25 13.1953C37.1094 15.9818 37.5391 19.1979 37.5391 22.8438V36.3203ZM9.96094 33L28.0469 19.2891C27.9427 17.2578 27.6562 15.5 27.1875 14.0156C26.7448 12.5312 26.1068 11.3203 25.2734 10.3828C24.5443 9.54948 23.6458 8.92448 22.5781 8.50781C21.5365 8.09115 20.3516 7.88281 19.0234 7.88281C17.5911 7.88281 16.3281 8.13021 15.2344 8.625C14.1406 9.11979 13.2292 9.84896 12.5 10.8125C11.6406 11.9062 11.0026 13.3255 10.5859 15.0703C10.1693 16.7891 9.96094 18.8203 9.96094 21.1641V28.8203C9.96094 29.8099 9.96094 30.5651 9.96094 31.0859C9.96094 31.6068 9.96094 32.2448 9.96094 33ZM28.125 37.8828V30.6953C28.125 30.0443 28.125 29.3672 28.125 28.6641C28.125 27.9609 28.125 27.2318 28.125 26.4766L10.0391 40.1094C10.1693 41.9062 10.4427 43.4948 10.8594 44.875C11.3021 46.2552 11.888 47.401 12.6172 48.3125C13.3464 49.3021 14.2448 50.0443 15.3125 50.5391C16.4062 51.0339 17.6693 51.2812 19.1016 51.2812C20.5078 51.2812 21.7448 51.0469 22.8125 50.5781C23.8802 50.0833 24.7917 49.3672 25.5469 48.4297C26.4062 47.3359 27.0443 45.9036 27.4609 44.1328C27.9036 42.362 28.125 40.2786 28.125 37.8828ZM74.375 58H64.9609V12.6875L50.3906 18.0391V9.79688L73.7891 1.125H74.375V58Z" fill="#1E4798"/>
</svg>
