<svg width="86" height="59" viewBox="0 0 86 59" fill="none" xmlns="http://www.w3.org/2000/svg">
<path d="M37.5391 36.3203C37.5391 39.9661 37.1094 43.1953 36.25 46.0078C35.4167 48.7943 34.2057 51.125 32.6172 53C31.0547 54.9271 29.1276 56.3854 26.8359 57.375C24.5703 58.3385 21.9922 58.8203 19.1016 58.8203C16.237 58.8203 13.6589 58.3385 11.3672 57.375C9.07552 56.3854 7.13542 54.9271 5.54688 53C3.93229 51.125 2.69531 48.7943 1.83594 46.0078C1.0026 43.1953 0.585938 39.9661 0.585938 36.3203V22.8438C0.585938 19.1979 1.0026 15.9818 1.83594 13.1953C2.69531 10.3828 3.91927 8.01302 5.50781 6.08594C7.09635 4.1849 9.02344 2.7526 11.2891 1.78906C13.5807 0.799479 16.1589 0.304688 19.0234 0.304688C21.9141 0.304688 24.4922 0.799479 26.7578 1.78906C29.0495 2.7526 31.0026 4.1849 32.6172 6.08594C34.1797 8.01302 35.3906 10.3828 36.25 13.1953C37.1094 15.9818 37.5391 19.1979 37.5391 22.8438V36.3203ZM9.96094 33L28.0469 19.2891C27.9427 17.2578 27.6562 15.5 27.1875 14.0156C26.7448 12.5312 26.1068 11.3203 25.2734 10.3828C24.5443 9.54948 23.6458 8.92448 22.5781 8.50781C21.5365 8.09115 20.3516 7.88281 19.0234 7.88281C17.5911 7.88281 16.3281 8.13021 15.2344 8.625C14.1406 9.11979 13.2292 9.84896 12.5 10.8125C11.6406 11.9062 11.0026 13.3255 10.5859 15.0703C10.1693 16.7891 9.96094 18.8203 9.96094 21.1641V28.8203C9.96094 29.8099 9.96094 30.5651 9.96094 31.0859C9.96094 31.6068 9.96094 32.2448 9.96094 33ZM28.125 37.8828V30.6953C28.125 30.0443 28.125 29.3672 28.125 28.6641C28.125 27.9609 28.125 27.2318 28.125 26.4766L10.0391 40.1094C10.1693 41.9062 10.4427 43.4948 10.8594 44.875C11.3021 46.2552 11.888 47.401 12.6172 48.3125C13.3464 49.3021 14.2448 50.0443 15.3125 50.5391C16.4062 51.0339 17.6693 51.2812 19.1016 51.2812C20.5078 51.2812 21.7448 51.0469 22.8125 50.5781C23.8802 50.0833 24.7917 49.3672 25.5469 48.4297C26.4062 47.3359 27.0443 45.9036 27.4609 44.1328C27.9036 42.362 28.125 40.2786 28.125 37.8828ZM85.3125 58H47.1484V51.5156L65.6641 31.3594C67.2005 29.6667 68.4896 28.1562 69.5312 26.8281C70.5729 25.474 71.4193 24.237 72.0703 23.1172C72.6953 21.9974 73.138 20.9557 73.3984 19.9922C73.6849 19.0026 73.8281 18.013 73.8281 17.0234C73.8281 15.6953 73.6328 14.4844 73.2422 13.3906C72.8516 12.2969 72.2786 11.3594 71.5234 10.5781C70.7682 9.79688 69.8568 9.1849 68.7891 8.74219C67.7474 8.29948 66.5755 8.07812 65.2734 8.07812C63.6068 8.07812 62.1615 8.3125 60.9375 8.78125C59.7135 9.25 58.6979 9.91406 57.8906 10.7734C57.0573 11.6849 56.4323 12.7917 56.0156 14.0938C55.599 15.3698 55.3906 16.8281 55.3906 18.4688H46.0156C46.0156 15.9948 46.4714 13.6641 47.3828 11.4766C48.2943 9.26302 49.5964 7.33594 51.2891 5.69531C52.9557 4.05469 54.987 2.7526 57.3828 1.78906C59.8047 0.825521 62.5 0.34375 65.4688 0.34375C68.2552 0.34375 70.7422 0.747396 72.9297 1.55469C75.1432 2.36198 77.0052 3.48177 78.5156 4.91406C80 6.34635 81.1328 8.0651 81.9141 10.0703C82.6953 12.0495 83.0859 14.237 83.0859 16.6328C83.0859 18.4297 82.7865 20.1745 82.1875 21.8672C81.6146 23.5339 80.8203 25.1875 79.8047 26.8281C78.763 28.4688 77.526 30.1224 76.0938 31.7891C74.6875 33.4557 73.151 35.1745 71.4844 36.9453L58.8281 50.4609H85.3125V58Z" fill="#1E4798"/>
</svg>
