<svg width="85" height="59" viewBox="0 0 85 59" fill="none" xmlns="http://www.w3.org/2000/svg">
<path d="M37.5391 36.3203C37.5391 39.9661 37.1094 43.1953 36.25 46.0078C35.4167 48.7943 34.2057 51.125 32.6172 53C31.0547 54.9271 29.1276 56.3854 26.8359 57.375C24.5703 58.3385 21.9922 58.8203 19.1016 58.8203C16.237 58.8203 13.6589 58.3385 11.3672 57.375C9.07552 56.3854 7.13542 54.9271 5.54688 53C3.93229 51.125 2.69531 48.7943 1.83594 46.0078C1.0026 43.1953 0.585938 39.9661 0.585938 36.3203V22.8438C0.585938 19.1979 1.0026 15.9818 1.83594 13.1953C2.69531 10.3828 3.91927 8.01302 5.50781 6.08594C7.09635 4.1849 9.02344 2.7526 11.2891 1.78906C13.5807 0.799479 16.1589 0.304688 19.0234 0.304688C21.9141 0.304688 24.4922 0.799479 26.7578 1.78906C29.0495 2.7526 31.0026 4.1849 32.6172 6.08594C34.1797 8.01302 35.3906 10.3828 36.25 13.1953C37.1094 15.9818 37.5391 19.1979 37.5391 22.8438V36.3203ZM9.96094 33L28.0469 19.2891C27.9427 17.2578 27.6562 15.5 27.1875 14.0156C26.7448 12.5312 26.1068 11.3203 25.2734 10.3828C24.5443 9.54948 23.6458 8.92448 22.5781 8.50781C21.5365 8.09115 20.3516 7.88281 19.0234 7.88281C17.5911 7.88281 16.3281 8.13021 15.2344 8.625C14.1406 9.11979 13.2292 9.84896 12.5 10.8125C11.6406 11.9062 11.0026 13.3255 10.5859 15.0703C10.1693 16.7891 9.96094 18.8203 9.96094 21.1641V28.8203C9.96094 29.8099 9.96094 30.5651 9.96094 31.0859C9.96094 31.6068 9.96094 32.2448 9.96094 33ZM28.125 37.8828V30.6953C28.125 30.0443 28.125 29.3672 28.125 28.6641C28.125 27.9609 28.125 27.2318 28.125 26.4766L10.0391 40.1094C10.1693 41.9062 10.4427 43.4948 10.8594 44.875C11.3021 46.2552 11.888 47.401 12.6172 48.3125C13.3464 49.3021 14.2448 50.0443 15.3125 50.5391C16.4062 51.0339 17.6693 51.2812 19.1016 51.2812C20.5078 51.2812 21.7448 51.0469 22.8125 50.5781C23.8802 50.0833 24.7917 49.3672 25.5469 48.4297C26.4062 47.3359 27.0443 45.9036 27.4609 44.1328C27.9036 42.362 28.125 40.2786 28.125 37.8828ZM58.9844 25.3438H64.5703C66.237 25.3438 67.6953 25.1224 68.9453 24.6797C70.1953 24.2109 71.224 23.5599 72.0312 22.7266C72.7865 21.9974 73.3594 21.099 73.75 20.0312C74.1667 18.9375 74.375 17.7656 74.375 16.5156C74.375 15.1615 74.1797 13.9505 73.7891 12.8828C73.4245 11.8151 72.8776 10.9036 72.1484 10.1484C71.4193 9.44531 70.4948 8.89844 69.375 8.50781C68.2812 8.11719 67.0182 7.92188 65.5859 7.92188C64.3099 7.92188 63.125 8.11719 62.0312 8.50781C60.9635 8.8724 60.0391 9.40625 59.2578 10.1094C58.4505 10.8125 57.8125 11.6589 57.3438 12.6484C56.901 13.638 56.6797 14.7448 56.6797 15.9688H47.3438C47.3438 13.7031 47.7995 11.6198 48.7109 9.71875C49.6224 7.81771 50.8854 6.16406 52.5 4.75781C54.1146 3.3776 56.0156 2.29688 58.2031 1.51562C60.4167 0.734375 62.8385 0.34375 65.4688 0.34375C68.151 0.34375 70.612 0.695312 72.8516 1.39844C75.1172 2.07552 77.0443 3.09115 78.6328 4.44531C80.2474 5.82552 81.4974 7.51823 82.3828 9.52344C83.2682 11.5286 83.7109 13.8594 83.7109 16.5156C83.7109 17.6875 83.5286 18.8594 83.1641 20.0312C82.8255 21.2031 82.3047 22.3359 81.6016 23.4297C80.8984 24.4974 80.013 25.5 78.9453 26.4375C77.8776 27.375 76.6276 28.1693 75.1953 28.8203C76.888 29.3932 78.3203 30.1484 79.4922 31.0859C80.6901 31.9974 81.6667 33.026 82.4219 34.1719C83.1771 35.3438 83.724 36.6068 84.0625 37.9609C84.401 39.2891 84.5703 40.6693 84.5703 42.1016C84.5703 44.7578 84.0755 47.1276 83.0859 49.2109C82.1224 51.2682 80.7943 53 79.1016 54.4062C77.3828 55.8385 75.3516 56.9323 73.0078 57.6875C70.6901 58.4167 68.1771 58.7812 65.4688 58.7812C63.0208 58.7812 60.6641 58.4427 58.3984 57.7656C56.1328 57.0885 54.1406 56.0729 52.4219 54.7188C50.7031 53.3646 49.3229 51.6979 48.2812 49.7188C47.2656 47.7135 46.7578 45.3828 46.7578 42.7266H56.0938C56.0938 43.9766 56.3151 45.1354 56.7578 46.2031C57.2266 47.2448 57.8906 48.1302 58.75 48.8594C59.5833 49.6146 60.5729 50.2005 61.7188 50.6172C62.8906 51.0339 64.1797 51.2422 65.5859 51.2422C67.0964 51.2422 68.4505 51.0469 69.6484 50.6562C70.8724 50.2396 71.901 49.6276 72.7344 48.8203C73.5417 48.0651 74.1536 47.1276 74.5703 46.0078C75.013 44.862 75.2344 43.5599 75.2344 42.1016C75.2344 40.4609 74.987 39.0547 74.4922 37.8828C73.9974 36.7109 73.2812 35.7344 72.3438 34.9531C71.4062 34.1979 70.2734 33.638 68.9453 33.2734C67.6432 32.8828 66.1849 32.6875 64.5703 32.6875H58.9844V25.3438Z" fill="#1E4798"/>
</svg>
