<svg width="100" height="73" viewBox="0 0 100 73" fill="none" xmlns="http://www.w3.org/2000/svg">
<path d="M100 1.66893e-06L100 27.4075C100 40.3968 96.8819 50.6584 90.6456 58.1922C84.3215 65.726 75.1427 70.6619 63.1094 73V59.4911C72.0685 56.72 78.0852 51.9573 81.1594 45.2028C82.7404 41.6524 83.3992 37.9721 83.1357 34.1619L62.4506 34.1619V1.66893e-06H100ZM0.658755 59.4911C9.53008 56.8066 15.5029 51.9573 18.5771 44.9431C20.3338 41.2195 21.0364 37.6257 20.6851 34.1619L-2.14577e-06 34.1619L-2.14577e-06 1.66893e-06H37.5494V27.4075C37.5494 40.57 34.3434 50.8749 27.9315 58.3221C21.4317 65.7693 12.3408 70.6619 0.658755 73V59.4911Z" fill="#E34511"/>
</svg>
