<svg width="100" height="73" viewBox="0 0 100 73" fill="none" xmlns="http://www.w3.org/2000/svg">
<path d="M0 73V45.5925C0 32.6032 3.11814 22.3416 9.35441 14.8078C15.6785 7.27402 24.8573 2.33808 36.8906 0V13.5089C27.9315 16.28 21.9148 21.0427 18.8406 27.7972C17.2596 31.3476 16.6008 35.0279 16.8643 38.8381H37.5494V73H0ZM99.3412 13.5089C90.4699 16.1934 84.4971 21.0427 81.4229 28.0569C79.6662 31.7805 78.9636 35.3743 79.3149 38.8381H100V73H62.4506V45.5925C62.4506 32.43 65.6566 22.1251 72.0685 14.6779C78.5683 7.23072 87.6592 2.33808 99.3412 0V13.5089Z" fill="#E34511"/>
</svg>
