<svg width="105" height="104" viewBox="0 0 105 104" fill="none" xmlns="http://www.w3.org/2000/svg">
<path d="M33.4657 65.6296C28.9654 62.6352 22.791 62.6007 18.8003 58.9526C15.1422 55.6086 14.3776 50.2251 13.8353 45.2981C13.0245 37.9336 12.951 30.0262 19.7908 25.272C22.8616 23.1374 26.5775 22.1544 30.2536 21.4674C43.9869 18.8997 58.1381 19.9451 71.9847 21.8095C75.3765 22.2659 78.8151 22.7866 81.9245 24.2166C91.3547 28.5541 92.5303 43.599 90.6952 52.5739C89.9007 56.4596 87.9664 60.2303 84.7805 62.5926C78.8583 66.9843 70.7029 65.3663 68.0721 73.4354C66.9281 76.9446 66.6292 80.776 64.7818 83.9718C62.1312 88.5556 55.9183 90.1899 50.9767 90.1345C44.8905 90.0662 41.118 87.8604 40.8005 81.4116C40.5046 75.4071 38.4879 68.9864 33.4902 65.6447C33.4815 65.6401 33.4733 65.6348 33.4657 65.6296Z" fill="#1E4798" fill-opacity="0.8"/>
<path d="M88.7757 35.7862C86.0528 29.1349 80.9057 23.574 74.4348 20.4226C66.943 16.7739 58.4309 16.0898 50.2177 15.9719C45.6788 15.9065 41.1371 16.0671 36.614 16.4517C33.0149 16.7576 29.4018 17.1638 25.8984 18.0726C22.7698 18.8846 19.6557 20.1057 17.0595 22.0652C14.2198 24.2085 12.2095 27.1188 11.3088 30.5755C10.271 34.5587 10.4631 38.8179 10.5022 42.898C10.5424 47.1035 10.7496 51.354 11.7361 55.458C12.6081 59.0851 14.096 62.9201 16.8832 65.5163C19.8285 68.2603 23.6512 68.5592 27.4651 68.9619C29.1356 69.1382 30.885 69.3822 32.4102 70.1276C33.7188 70.7673 34.8384 71.6837 35.7723 72.798C37.5876 74.9647 38.5583 77.819 38.5671 80.6359C38.5706 81.8232 38.3622 82.9421 37.9174 84.0161C37.7271 84.1761 37.5491 84.3564 37.388 84.5619C36.879 85.2092 36.7926 86.006 37.388 86.6504C37.6892 86.9767 38.0411 87.2142 38.4211 87.3975C38.3733 87.4518 38.3219 87.5014 38.2763 87.5592C38.0925 87.7921 37.9425 88.0863 37.8497 88.3962C37.3489 88.9782 37.0442 89.6903 37.2438 90.5139C37.5 91.5721 38.3872 92.2195 39.3498 92.6047C39.5149 92.6707 39.686 92.7273 39.8553 92.7862C39.8109 92.8481 39.7671 92.91 39.728 92.9748C39.6276 93.0279 39.5249 93.0699 39.4256 93.1277C38.1327 93.8772 37.0383 95.2658 37.9238 96.7799C38.6394 98.0033 40.1284 98.301 41.4015 98.5701C42.5309 98.8089 43.6814 99.0044 44.8441 99.1567C45.091 100.134 45.7529 101.064 46.5182 101.671C48.1105 102.933 50.1488 103.582 52.1772 103.571C55.506 103.553 58.4905 101.563 59.5849 98.5555C60.8515 98.4721 62.1637 98.3028 63.3305 97.858C64.833 97.2854 66.0704 95.9341 65.6495 94.2163C65.489 93.5614 65.0793 92.9958 64.523 92.6193C64.4424 92.5026 64.3537 92.3876 64.2481 92.2784C65.0752 91.8698 65.834 91.3246 66.0774 90.372C66.43 88.9951 65.3921 87.8365 64.2119 87.331C64.0607 87.2662 63.9013 87.2171 63.7449 87.1617C64.7436 86.39 65.4669 85.2238 64.7641 84.0226C64.7226 83.9519 64.673 83.8965 64.6263 83.8358C64.6514 83.7185 64.6648 83.5982 64.6549 83.4739C64.3928 80.2402 64.188 76.8565 65.3793 73.8201C65.8253 72.6836 66.6582 71.4993 67.7269 70.772C69.2994 69.7009 71.2175 69.353 73.0258 68.8779C79.7611 67.1093 85.2981 62.3194 88.2638 56.0359C91.2857 49.6362 91.459 42.34 88.7757 35.7862ZM49.7974 82.2102C49.0573 82.2312 48.3172 82.2645 47.577 82.303C47.5163 80.2431 47.4194 78.1873 47.2291 76.1263C46.9431 73.0309 46.51 69.9554 45.9549 66.8968C44.8325 60.7143 43.2016 54.6286 41.1032 48.7058C40.5324 47.0942 39.9487 45.4733 39.3153 43.8745C39.7601 43.6515 40.192 43.4052 40.6018 43.125C41.0022 42.8513 41.3881 42.5408 41.757 42.2075C42.7206 43.0252 43.8653 43.6311 45.0776 43.927C47.4498 44.5061 49.878 43.85 51.7843 42.3843C53.5629 43.8033 55.9981 44.4547 58.1881 43.6463C58.9621 43.3609 59.6684 42.9213 60.2859 42.3797C60.8982 42.9896 61.6413 43.4554 62.4497 43.8039C61.967 44.5358 61.5006 45.2777 61.0658 46.0371C58.0667 51.2735 56.1772 57.0807 55.0443 62.9895C53.8314 69.3133 53.4111 75.748 53.1251 82.1746C52.0161 82.1687 50.9065 82.1792 49.7974 82.2102ZM41.8293 39.1197C41.6023 38.745 41.4172 38.3475 41.2853 37.933C41.0676 37.2495 41.0449 36.4434 41.4295 35.8072C41.6875 35.3805 42.0809 35.2825 42.3675 35.7459C42.9693 36.7201 42.4726 38.0813 41.8293 39.1197ZM51.475 38.2196C51.3285 37.6231 51.2993 36.5818 51.8789 36.1679C52.3254 35.8486 52.5332 36.4691 52.5858 36.8363C52.7054 37.6756 52.3961 38.5272 51.8952 39.2726C51.7131 38.9405 51.566 38.5897 51.475 38.2196ZM86.6791 51.8339C84.7797 57.6685 80.287 62.9749 74.471 65.1358C71.0336 66.4129 67.121 66.5804 64.464 69.4242C62.1502 71.9009 61.4317 75.3348 61.2992 78.621C61.2461 79.9338 61.2928 81.2482 61.3815 82.5586C59.8488 82.3736 58.2815 82.3147 56.7732 82.2563C56.4382 82.2434 56.1026 82.2353 55.7669 82.2248C56.1755 72.2791 56.9658 62.2447 60.6817 52.9178C61.8497 49.9859 63.3077 47.1496 65.088 44.5382C65.2841 44.5679 65.4803 44.5948 65.6752 44.6164C68.1892 44.889 71.2437 44.6625 73.1518 42.8017C74.8358 41.1597 74.8773 38.2389 73.1197 36.6034C72.187 35.7354 70.9221 35.5159 69.7407 35.9835C68.3486 36.5345 67.2717 37.7982 66.2794 38.8763C65.3752 39.8581 64.5323 40.8971 63.7356 41.9699C63.135 41.7469 62.5793 41.4516 62.1106 41.0622C61.9699 40.9449 61.8386 40.8078 61.7154 40.6589C62.1006 40.0174 62.3977 39.3228 62.5623 38.5926C62.818 37.4614 62.7993 36.2934 62.459 35.1821C62.2471 34.4898 61.4807 34.1822 60.8463 34.526C58.728 35.6724 58.222 38.4146 59.0607 40.5305C57.9967 41.5806 56.4749 42.131 54.8657 41.6582C54.3065 41.4936 53.7783 41.2204 53.3055 40.8725C54.3824 39.4629 55.0542 37.6429 54.5394 35.9543C54.2055 34.8604 53.3201 33.9656 52.1217 33.9575C50.9327 33.9493 50.0402 34.8213 49.606 35.8597C48.9114 37.5221 49.3684 39.3929 50.3648 40.8585C50.2819 40.9192 50.1996 40.977 50.1173 41.0307C48.5454 42.0639 46.653 42.3464 44.8803 41.674C44.2599 41.4382 43.6738 41.0903 43.1555 40.6583C43.7964 39.7693 44.2756 38.773 44.4788 37.699C44.6825 36.6209 44.585 35.3828 43.9272 34.4694C43.2664 33.5524 42.0751 33.1473 41.0092 33.571C38.7497 34.4693 38.7923 37.539 39.6142 39.3894C39.8313 39.8791 40.1121 40.3402 40.4296 40.7757C39.8652 41.2823 39.2377 41.7142 38.5641 42.0645C38.3423 41.5543 38.1205 41.0447 37.8806 40.5439C36.8095 38.3084 35.2411 36.0564 32.8205 35.1715C30.8873 34.4647 28.4276 34.7764 26.8924 36.2029C24.9983 37.9628 25.3299 40.841 26.8954 42.6949C28.619 44.7355 31.6297 45.3349 34.1799 45.2053C35.3409 45.1464 36.5083 44.9345 37.625 44.5714C37.73 44.8347 37.8345 45.0974 37.939 45.3583C38.87 47.6837 39.714 50.0425 40.4821 52.4269C42.0173 57.1928 43.2524 62.0574 44.1933 66.975C45.1407 71.9271 45.6391 76.9026 46.1937 81.9061C46.2112 82.0642 46.2199 82.223 46.2351 82.3812C45.101 82.4559 43.968 82.5493 42.838 82.6585C41.8778 82.7513 40.8166 82.8225 39.8372 83.0828C40.4197 81.0609 40.5142 78.9093 40.0321 76.846C39.3719 74.0214 37.7989 71.365 35.5213 69.5515C32.6985 67.3036 29.3014 66.9231 25.8272 66.5419C24.0545 66.3475 22.1995 66.1298 20.5768 65.3395C19.0452 64.5941 17.8089 63.4016 16.8627 61.9961C14.7223 58.8172 13.7417 54.8924 13.2596 51.1346C12.7366 47.0592 12.7698 42.9231 12.7973 38.822C12.823 35.0449 12.9735 31.0518 14.9581 27.7177C16.5131 25.1056 18.988 23.2699 21.7051 21.9934C24.588 20.6386 27.768 19.909 30.9042 19.4367C34.8944 18.8355 38.9657 18.6114 42.995 18.483C47.4037 18.3429 51.831 18.3925 56.2316 18.7112C60.1745 18.9966 64.1039 19.5611 67.8968 20.7022C74.7127 22.7533 80.6133 26.9291 84.2766 33.0971C87.6329 38.7502 88.732 45.527 86.6791 51.8339ZM66.598 42.4929C67.1771 41.7598 67.7754 41.0418 68.4145 40.3583C68.8359 39.9077 69.2685 39.4658 69.7156 39.0403C70.0821 38.6918 70.4925 38.2045 71.0213 38.1192C71.1293 38.1017 71.368 38.1595 71.4819 38.2401C71.7591 38.4362 71.9272 38.7461 72.0376 39.0567C72.7228 40.9893 70.6776 42.002 69.1004 42.3067C68.3375 42.455 67.4736 42.5221 66.598 42.4929ZM36.872 42.7556C36.8346 42.7672 36.7978 42.7812 36.7605 42.7929C34.9691 43.3299 33.026 43.4426 31.2019 42.9955C29.3854 42.5501 27.2269 41.1311 27.5205 38.9627C27.733 37.3931 29.386 36.7312 30.7945 36.7516C32.6185 36.7779 34.0766 37.9844 35.0794 39.4255C35.7985 40.4593 36.3647 41.594 36.872 42.7556Z" fill="#202020"/>
<path d="M44.5896 84.8959C43.8571 84.8661 43.1263 84.8579 42.3932 84.855C41.6594 84.8521 40.9292 84.8993 40.1967 84.9373C39.6159 84.9676 39.6072 85.849 40.1967 85.8473C40.9298 85.8449 41.6612 85.8519 42.3932 85.8082C43.1269 85.765 43.8577 85.7159 44.5896 85.6465C45.0642 85.6015 45.0805 84.9157 44.5896 84.8959Z" fill="#F2F2F2"/>
<path d="M59.2278 84.7365C55.4227 84.7049 51.614 84.7972 47.8095 84.869C47.2841 84.8789 47.283 85.6762 47.8095 85.6861C51.614 85.7579 55.4227 85.8502 59.2278 85.8186C59.9242 85.8122 59.9253 84.7417 59.2278 84.7365Z" fill="#F2F2F2"/>
<path d="M59.5209 88.5247C53.2281 88.9181 46.9259 89.2473 40.6412 89.7586C40.1077 89.8018 40.0925 90.6207 40.6412 90.6021C46.9376 90.3843 53.2298 89.9827 59.5209 89.6465C60.2401 89.6074 60.2418 88.4791 59.5209 88.5247Z" fill="#F2F2F2"/>
<path d="M62.1575 93.6553C55.0119 93.904 47.875 94.4311 40.7848 95.3597C40.2075 95.4356 40.1912 96.3509 40.7848 96.2826C47.8832 95.4636 55.0125 94.9371 62.1575 94.8297C62.9134 94.8181 62.9134 93.6291 62.1575 93.6553Z" fill="#F2F2F2"/>
<path d="M49.4202 99.2892C49.3145 99.2945 49.2095 99.2898 49.105 99.2764C48.9701 99.2571 48.8405 99.2168 48.7133 99.169C48.5971 99.1147 48.4845 99.0546 48.3823 98.9763C48.3923 98.9839 48.4022 98.9915 48.4115 98.9991C48.3199 98.9256 48.2253 98.8742 48.1033 98.8742C47.9919 98.8742 47.8588 98.9238 47.7817 99.0073C47.6177 99.1859 47.5984 99.4742 47.7817 99.6505C48.2119 100.065 48.8189 100.322 49.4202 100.251C49.5521 100.236 49.663 100.208 49.7605 100.11C49.8439 100.027 49.907 99.8898 49.9017 99.7702C49.8906 99.5198 49.6898 99.2764 49.4202 99.2892Z" fill="#F2F2F2"/>
<path d="M21.1008 53.0591C20.6338 49.3386 20.098 45.6402 19.8721 41.8935C19.7606 40.0466 19.6701 38.1987 19.6398 36.3483C19.6246 35.4249 19.6596 34.498 19.6269 33.5757C19.5925 32.5992 19.4314 31.6472 19.4857 30.6677C19.5301 29.8663 18.3037 29.878 18.2447 30.6677C18.1747 31.6028 17.9301 32.507 17.8192 33.4374C17.7042 34.3982 17.6978 35.3823 17.6651 36.3489C17.6015 38.2424 17.5852 40.1389 17.654 42.0324C17.7912 45.8183 18.0661 49.6497 18.8022 53.3702C19.0543 54.6444 21.266 54.3753 21.1008 53.0591Z" fill="#F2F2F2"/>
<path d="M17.4485 11.3146C17.2664 11.1232 17.0697 10.9486 16.8625 10.7864C16.3669 10.3982 15.8801 9.99488 15.3571 9.64407C14.9153 9.34756 14.4652 9.06036 14.0333 8.74925C13.5879 8.42822 13.1502 8.10018 12.6791 7.81592C12.3593 7.62329 11.939 7.72019 11.7166 8.00796C11.4714 8.32549 11.5427 8.68971 11.775 8.98798C12.1094 9.41642 12.4812 9.80926 12.849 10.2097C13.2155 10.6089 13.5611 11.028 13.9142 11.4395C14.2569 11.8394 14.6328 12.2059 15.004 12.5795C15.5334 13.1124 16.158 13.6675 16.957 13.6383C17.4853 13.6185 18.0503 13.1743 18.0013 12.5941C17.9581 12.0909 17.8011 11.6853 17.4485 11.3146Z" fill="#202020"/>
<path d="M31.7676 6.34028C31.6333 6.06419 31.495 5.78868 31.3526 5.51726C31.059 4.95691 30.749 4.40473 30.4473 3.84905C30.1525 3.30621 29.8449 2.78437 29.4882 2.2783C29.2822 1.98587 29.0423 1.69694 28.7691 1.46346C28.3378 1.09456 27.6245 0.934634 27.255 1.47164C26.8184 2.1067 27.0665 2.95307 27.2801 3.63834C27.3251 3.78309 27.3677 3.92842 27.4155 4.07201C27.4587 4.22669 27.5171 4.37555 27.5912 4.51855C27.5229 4.35628 27.5194 4.34927 27.5819 4.49695C27.6846 4.74327 27.7885 4.9896 27.8918 5.23592C28.1504 5.85231 28.3991 6.47395 28.6693 7.08508C28.9974 7.82755 29.333 8.72176 30.236 8.90446C30.8249 9.02354 31.5259 8.83267 31.823 8.2589C32.1604 7.60924 32.0787 6.97768 31.7676 6.34028Z" fill="#202020"/>
<path d="M48.2601 5.4338C48.218 5.17814 48.1725 4.92307 48.1334 4.66682C48.1165 4.55709 48.1013 4.44736 48.085 4.33762C48.0803 4.30552 48.078 4.28509 48.0751 4.26699C48.0704 4.23139 48.0657 4.19636 48.0616 4.16075C48.0313 3.9191 48.0062 3.67686 47.9782 3.43521C47.9192 2.93264 47.8567 2.43067 47.813 1.92635C47.7622 1.34673 47.6618 0.498628 47.102 0.174091C46.8464 -0.0576377 46.394 -0.0494737 46.1167 0.147817C45.5161 0.439667 45.3859 1.34557 45.3393 1.92635C45.2978 2.44643 45.2604 2.96942 45.2529 3.49125C45.2453 4.01132 45.2616 4.53315 45.2844 5.05264C45.2961 5.3118 45.3071 5.57214 45.3276 5.83072C45.3667 6.32744 45.4612 6.65257 45.6615 7.10494C45.8873 7.61568 46.5796 7.85324 47.0822 7.78553C47.5836 7.7184 48.1889 7.31215 48.2677 6.76405C48.3015 6.52765 48.3506 6.29126 48.3441 6.05252C48.3395 5.84706 48.2933 5.63635 48.2601 5.4338Z" fill="#202020"/>
<path d="M61.7013 1.50082C61.2944 1.40801 60.9897 1.62573 60.8403 1.98938C60.5251 2.75811 60.2228 3.53736 59.935 4.31718C59.792 4.70476 59.6583 5.09641 59.5352 5.49099C59.4488 5.7665 59.4038 6.04259 59.377 6.33152C59.3513 6.60819 59.4155 6.88313 59.4616 7.15571C59.5387 7.61275 60.0838 7.99097 60.5327 7.97113C61.0645 7.9472 61.4088 7.63085 61.6038 7.15571C61.626 7.10143 61.6482 7.04656 61.6709 6.99228C61.577 7.21409 61.5997 7.15978 61.7392 6.82883C61.7626 6.74361 61.7725 6.65489 61.7853 6.56792C61.8285 6.27257 61.849 6.01108 61.8501 5.71631C61.8519 5.33749 61.863 4.95925 61.8828 4.58101C61.8927 4.39306 61.905 4.2051 61.9196 4.01715C61.9272 3.91617 61.9359 3.81577 61.9447 3.71479C61.9447 3.71713 61.9569 3.57821 61.9575 3.55369C62.0089 3.15444 62.1046 2.75402 62.1904 2.36119C62.2686 2.00514 62.0836 1.58779 61.7013 1.50082Z" fill="#202020"/>
<path d="M76.463 6.18797C76.0743 6.58314 75.6849 6.99173 75.3231 7.41083C74.8398 7.97001 74.6973 8.20875 74.2771 8.73992C73.879 9.24365 73.499 9.75673 73.1388 10.2879C72.8114 10.7712 72.5528 11.2574 72.31 11.7874C72.0864 12.2754 72.1372 12.8153 72.5843 13.1603C73.0104 13.4895 73.5889 13.4416 73.9817 13.0768C74.4592 12.6332 74.8649 12.1762 75.2408 11.6403C75.5811 11.1553 75.8956 10.6597 76.1764 10.1379C76.7473 9.0767 77.2464 8.00329 77.5995 6.84873C77.7997 6.19557 76.9323 5.71051 76.463 6.18797Z" fill="#202020"/>
<path d="M88.9996 11.0128C88.5606 10.6095 87.9717 10.6328 87.5321 11.0128C86.6776 11.7512 85.8313 12.4989 84.9855 13.2478C84.5751 13.6108 84.1555 13.9663 83.7544 14.3393C83.3254 14.738 82.9554 15.1763 82.5795 15.6234C82.2182 16.0536 82.1329 16.6251 82.4919 17.0903C82.7983 17.4872 83.4888 17.716 83.933 17.3781C84.4356 16.9951 84.9347 16.6192 85.397 16.1867C85.8196 15.7915 86.2124 15.3614 86.6163 14.9469C87.4143 14.128 88.2122 13.3091 89.0002 12.4808C89.3743 12.0868 89.4198 11.398 88.9996 11.0128Z" fill="#202020"/>
<path d="M98.6714 23.5221C98.5021 23.1205 98.0316 22.8554 97.5956 22.9938C96.7317 23.2687 95.8673 23.5646 95.0256 23.902C94.53 24.1005 94.0397 24.3065 93.5663 24.554C93.2885 24.6994 93.0212 24.8488 92.7824 25.0554C92.6126 25.2025 92.462 25.3712 92.309 25.5352C91.9746 25.8942 91.8503 26.4872 92.1304 26.9209C92.3873 27.3196 92.94 27.6295 93.4222 27.4463C93.7012 27.34 94.0035 27.256 94.2685 27.1188C94.4728 27.0132 94.659 26.8766 94.8493 26.7476C95.2182 26.4966 95.5824 26.2398 95.9531 25.9923C96.7055 25.4891 97.4789 25.0443 98.299 24.6603C98.7081 24.4688 98.8331 23.9055 98.6714 23.5221Z" fill="#202020"/>
<path d="M104.875 37.4224C104.574 36.956 104.08 36.8807 103.6 37.0879C103.164 37.2758 102.849 37.4089 102.375 37.6015C101.923 37.7854 101.462 37.9459 101.002 38.1064C100.542 38.267 100.073 38.4065 99.6156 38.574C99.0961 38.7643 98.6338 39.0193 98.1587 39.2978C97.76 39.5312 97.603 40.0326 97.7804 40.4529C97.9719 40.9059 98.4085 41.0629 98.872 40.9887C99.113 40.9502 99.3594 40.921 99.5981 40.8691C99.8923 40.8049 100.179 40.6846 100.456 40.5667C100.918 40.3683 101.378 40.1599 101.835 39.9492C102.738 39.5336 103.643 39.1227 104.54 38.6971C104.982 38.4876 105.131 37.8198 104.875 37.4224Z" fill="#202020"/>
<path d="M9.84745 22.6149C9.50482 22.2834 9.15635 21.9956 8.73609 21.7668C8.33392 21.5485 7.89615 21.3827 7.46947 21.2181C6.71241 20.9257 5.92791 20.6963 5.14634 20.478C4.71031 20.3566 4.18498 20.628 4.08167 21.0827C3.97718 21.5415 4.21943 22.0172 4.68639 22.1474C4.88601 22.2028 5.08446 22.2612 5.28175 22.3248C5.38098 22.3569 5.4773 22.3925 5.57419 22.4317C5.59637 22.4404 5.63606 22.4573 5.667 22.4702C6.02714 22.6254 6.38145 22.7924 6.72933 22.9739C7.07313 23.1531 7.40175 23.3586 7.74438 23.5401C8.15122 23.7555 8.5639 23.9178 8.99292 24.0829C9.33847 24.216 9.81711 23.9971 9.98521 23.679C10.1662 23.3376 10.1364 22.8939 9.84745 22.6149Z" fill="#202020"/>
<path d="M7.01728 28.853C6.96299 28.6143 6.72952 28.2781 6.49779 28.1771C6.34078 28.1088 6.15224 28.002 5.99464 27.9629C5.81253 27.9179 5.61874 27.9069 5.43312 27.8847C5.2405 27.8619 5.04729 27.8432 4.85409 27.8263C4.42449 27.7878 3.99604 27.7749 3.56469 27.7738C3.14617 27.7726 2.72766 27.7819 2.30974 27.8018C2.01672 27.8152 1.73537 27.8386 1.46687 27.9652C1.1686 28.1065 0.920528 28.4153 1.02384 28.7649C1.17852 29.2867 1.7453 29.3953 2.20701 29.4834C2.60101 29.5587 2.99267 29.6434 3.38258 29.7367C3.76082 29.8278 4.13789 29.9259 4.51496 30.0199C4.98834 30.1383 5.43311 30.2813 5.92692 30.2837C6.40439 30.286 6.90813 29.9329 7.01728 29.4537C7.06281 29.2552 7.06281 29.0515 7.01728 28.853Z" fill="#202020"/>
<path d="M6.31457 43.972C5.8657 43.6615 5.32636 43.6358 4.79986 43.6877C4.47299 43.7315 4.40704 43.7403 4.60141 43.7146C4.53487 43.7234 4.46891 43.7321 4.40295 43.7403C4.30372 43.7531 4.20392 43.7648 4.10469 43.777C3.83152 43.8115 3.56009 43.8558 3.28808 43.9002C3.07912 43.9341 2.86958 43.9662 2.66003 43.9965C2.43764 44.0292 2.31331 44.0461 2.16388 44.0654C1.7156 44.1232 1.27081 44.1168 0.819614 44.1121C0.391178 44.1074 -0.019154 44.4921 0.000691817 44.931C0.0205376 45.3787 0.360242 45.7453 0.819614 45.75C1.28716 45.7552 1.74828 45.7494 2.21408 45.7914C2.64485 45.8299 3.07621 45.8626 3.50815 45.8883C4.48176 45.9467 5.75656 46.0587 6.48443 45.29C6.87726 44.8744 6.76343 44.2825 6.31457 43.972Z" fill="#202020"/>
</svg>
