<svg width="37" height="27" viewBox="0 0 37 27" fill="none" xmlns="http://www.w3.org/2000/svg">
<path d="M37 0V10.137C37 14.9413 35.8463 18.7367 33.5389 21.5231C31.1989 24.3096 27.8028 26.1352 23.3505 27V22.0036C26.6653 20.9786 28.8915 19.2171 30.029 16.7189C30.614 15.4057 30.8577 14.0445 30.7602 12.6352L23.1067 12.6352L23.1067 0H37ZM0.24374 22.0036C3.52613 21.0107 5.73606 19.2171 6.87352 16.6228C7.52349 15.2456 7.78349 13.9164 7.65349 12.6352L0 12.6352V0H13.8933V10.137C13.8933 15.0053 12.7071 18.8167 10.3347 21.5712C7.92973 24.3256 4.56609 26.1352 0.24374 27V22.0036Z" fill="#1E4798"/>
</svg>
