<svg width="256" height="102" viewBox="0 0 256 102" fill="none" xmlns="http://www.w3.org/2000/svg">
<path d="M177.431 13.7676H1.84676V59.7402H177.431V13.7676Z" fill="white"/>
<path d="M178.643 60.9456H0.69014V12.562H178.643V60.9456ZM3.05844 58.5346H176.275V14.973H3.05844V58.5346Z" fill="#00EA1C"/>
<path d="M13.5781 41.7129H21.8396V44.6718H10.1633V29.7129H21.6193V32.617H13.5781V35.6307H21.1787V38.4252H13.5781V41.7129Z" fill="black"/>
<path d="M34.342 29.7129H37.8118V44.617H34.6725L27.898 35.4115L27.9531 39.4115V44.617H24.4833V29.7129H27.6226L34.3971 38.9732L34.342 34.9732V29.7129Z" fill="black"/>
<path d="M47.5054 35.7949H54.5552V42.4798C52.958 44.1784 50.81 45.0003 48.1112 45.0003C45.6878 45.0003 43.8152 44.288 42.3832 42.8633C40.9512 41.4387 40.2352 39.5757 40.2352 37.1647C40.2352 34.8633 41.0063 32.9455 42.4934 31.5209C43.9804 30.0962 45.9632 29.3291 48.3866 29.3291C50.6447 29.3291 52.5724 30.151 54.1146 31.7401L52.0217 33.8223C51.0303 32.8359 49.8186 32.3428 48.3866 32.3428C46.9546 32.3428 45.798 32.7812 44.9718 33.6579C44.1457 34.5346 43.7051 35.6853 43.7051 37.1647C43.7051 38.5894 44.1457 39.7949 44.9718 40.6716C45.798 41.5483 46.8995 41.9866 48.2214 41.9866C49.6534 41.9866 50.7549 41.6031 51.581 40.8907V38.5894H47.5054V35.7949Z" fill="black"/>
<path d="M60.5585 41.7129H68.82V44.6718H57.1438V29.7129H68.5997V32.617H60.5585V35.6307H68.1591V38.4252H60.5585V41.7129Z" fill="black"/>
<path d="M81.3225 29.7129H84.7923V44.617H81.6529L74.8785 35.4115L74.9336 39.4115V44.617H71.4637V29.7129H74.6031L81.3775 38.9732L81.3225 34.9732V29.7129Z" fill="black"/>
<path d="M97.9556 29.7129H101.425V44.617H97.9556V38.6444H91.6218V44.617H88.0969V29.7129H91.6218V35.4663H97.9556V29.7129Z" fill="black"/>
<path d="M108.09 41.7129H116.351V44.6718H104.675V29.7129H116.131V32.617H108.09V35.6307H115.69V38.4252H108.09V41.7129Z" fill="black"/>
<path d="M118.94 44.617V29.7129H122.465V44.617H118.94Z" fill="black"/>
<path d="M135.132 44.617L131.332 39.6855H129.294V44.617H125.769V29.7129H133.04C134.692 29.7129 135.959 30.1512 136.95 31.0828C137.941 32.0143 138.437 33.2197 138.437 34.754C138.437 35.9047 138.162 36.8362 137.556 37.6581C136.95 38.48 136.124 39.028 135.022 39.3567L139.263 44.5622H135.132V44.617ZM134.361 36.343C134.747 35.9595 134.967 35.4663 134.967 34.8088C134.967 34.1512 134.747 33.6033 134.361 33.2745C133.976 32.891 133.37 32.7266 132.654 32.7266H129.239V36.9458H132.654C133.425 36.891 133.976 36.7266 134.361 36.343Z" fill="black"/>
<path d="M152.812 44.617L151.711 41.9321H144.33L143.229 44.617H139.484L146.203 29.7129H149.948L156.612 44.617H152.812ZM148.075 33.0554L145.597 38.9184H150.499L148.075 33.0554Z" fill="black"/>
<path d="M163.497 44.9454C160.908 44.9454 158.76 44.2331 156.998 42.8632L158.815 40.3427C160.137 41.3838 161.679 41.8769 163.442 41.8769C164.323 41.8769 165.039 41.7126 165.535 41.4386C166.03 41.1646 166.306 40.7263 166.306 40.2331C166.306 39.74 166.086 39.3564 165.59 39.0824C165.094 38.8084 164.323 38.6441 163.277 38.5345C161.239 38.3153 159.752 37.8221 158.815 37.1098C157.879 36.3975 157.383 35.3564 157.383 33.9865C157.383 32.6167 157.934 31.5208 159.091 30.6441C160.247 29.8221 161.679 29.3838 163.552 29.3838C165.755 29.3838 167.628 29.9317 169.225 31.0824L167.573 33.5482C166.416 32.7263 165.094 32.3427 163.717 32.3427C162.836 32.3427 162.175 32.5071 161.624 32.7811C161.129 33.055 160.853 33.4386 160.853 33.9317C160.853 34.4249 161.074 34.7537 161.514 35.0276C161.955 35.3016 162.726 35.466 163.772 35.6304C167.793 36.1235 169.831 37.6578 169.831 40.3427C169.831 41.7673 169.225 42.918 168.068 43.7947C166.912 44.5619 165.37 44.9454 163.497 44.9454Z" fill="black"/>
<path d="M177.431 100.397H136.95L125.604 88.5069L136.95 60.1234L163.442 50.6987L177.431 60.1234V100.397Z" fill="#00EA1C"/>
<path d="M178.643 101.603H136.454L124.172 88.7809L136.014 59.2467L163.552 49.4385L178.588 59.5755V101.603H178.643ZM137.501 99.2467H176.275V60.7809L163.332 52.0686L137.941 61.1097L126.981 88.233L137.501 99.2467Z" fill="#00EA1C"/>
<path d="M164.764 49.5483H124.282V89.8223H164.764V49.5483Z" fill="black"/>
<path d="M165.92 90.9729H123.071V48.3428H165.92V90.9729ZM125.494 88.6167H163.607V50.6989H125.494V88.6167Z" fill="white"/>
<path d="M148.02 75.9593H151.435V80.0689H139.263V75.9593H143.063V64.288L139.649 65.3291V61.1099L147.58 58.3154H148.075V75.9593H148.02Z" fill="white"/>
<path d="M188.337 0.397461L177.431 13.7673V58.7536L243.193 58.644L255.31 48.7262L188.337 0.397461Z" fill="#00EA1C"/>
<path d="M242.036 59.7402H177.431V100.398H242.036V59.7402Z" fill="white"/>
<path d="M243.248 101.603H176.275V58.5894H243.248V101.603ZM178.643 99.2469H240.88V60.9455H178.643V99.2469Z" fill="#00EA1C"/>
<path d="M198.14 71.3018C200.453 71.3018 202.326 71.9593 203.758 73.3292C205.135 74.699 205.851 76.5072 205.851 78.7538C205.851 81.0004 205.135 82.8086 203.758 84.1785C202.381 85.5483 200.509 86.2059 198.14 86.2059H191.972V71.3018H198.14ZM198.14 83.1374C199.407 83.1374 200.398 82.7538 201.169 81.9319C201.941 81.11 202.326 80.0689 202.326 78.699C202.326 77.3839 201.941 76.2881 201.169 75.4661C200.398 74.6442 199.407 74.2607 198.14 74.2607H195.497V83.0826H198.14V83.1374Z" fill="black"/>
<path d="M208.219 86.2059V71.3018H211.744V86.2059H208.219Z" fill="black"/>
<path d="M226.615 86.2059L225.513 83.5209H218.133L217.032 86.2059H213.286L220.006 71.3018H223.751L230.415 86.2059H226.615ZM221.823 74.6442L219.345 80.5072H224.247L221.823 74.6442Z" fill="black"/>
<path d="M254.153 1.54834H189.548V47.5209H254.153V1.54834Z" fill="white"/>
<path d="M255.31 48.7262H188.337V0.397461H255.31V48.7262ZM190.705 46.3701H252.942V2.75363H190.705V46.3701Z" fill="#00EA1C"/>
<path d="M207.668 17.1099C209.431 17.1099 210.808 17.603 211.854 18.5345C212.901 19.5208 213.396 20.7811 213.396 22.4249C213.396 24.0688 212.901 25.3838 211.854 26.3153C210.808 27.3016 209.431 27.74 207.668 27.74H204.033V31.9592H200.508V17.1099H207.668ZM207.503 24.7811C208.219 24.7811 208.825 24.5619 209.266 24.1784C209.706 23.74 209.927 23.1921 209.927 22.5345C209.927 21.877 209.706 21.2742 209.266 20.8907C208.825 20.4523 208.219 20.2879 207.503 20.2879H203.978V24.8359H207.503V24.7811Z" fill="black"/>
<path d="M228.487 30.2603C227 31.685 225.073 32.3973 222.649 32.3973C220.226 32.3973 218.243 31.685 216.756 30.2603C215.269 28.8357 214.553 26.9179 214.553 24.5617C214.553 22.2055 215.269 20.2877 216.756 18.8631C218.243 17.4384 220.171 16.7261 222.649 16.7261C225.073 16.7261 227.055 17.4384 228.487 18.8631C229.975 20.2877 230.691 22.2055 230.691 24.5617C230.691 26.9179 229.975 28.8357 228.487 30.2603ZM219.345 28.0137C220.171 28.8905 221.272 29.3288 222.649 29.3288C224.026 29.3288 225.128 28.8905 225.954 28.0137C226.78 27.137 227.221 26.0411 227.221 24.6165C227.221 23.1918 226.78 22.0411 225.954 21.2192C225.128 20.3425 224.026 19.9042 222.649 19.9042C221.272 19.9042 220.171 20.3425 219.345 21.2192C218.519 22.0959 218.078 23.1918 218.078 24.6165C218.078 25.9863 218.519 27.137 219.345 28.0137Z" fill="black"/>
<path d="M242.477 32.014L238.677 27.0825H236.639V32.014H233.114V17.1099H240.439C242.091 17.1099 243.358 17.5482 244.35 18.4797C245.341 19.4112 245.837 20.6167 245.837 22.151C245.837 23.3016 245.561 24.2332 244.955 25.0551C244.35 25.877 243.523 26.4249 242.422 26.7537L246.663 31.9592H242.477V32.014ZM241.761 23.74C242.146 23.3564 242.367 22.8633 242.367 22.2058C242.367 21.5482 242.146 21.0003 241.761 20.6715C241.375 20.2879 240.77 20.1236 240.054 20.1236H236.584V24.3427H239.999C240.77 24.2879 241.32 24.1236 241.761 23.74Z" fill="black"/>
<path d="M7.02397 66.2056C8.07043 66.2056 8.89658 66.4795 9.50242 67.0823C10.1083 67.685 10.4387 68.4521 10.4387 69.4384C10.4387 70.4247 10.1083 71.1919 9.50242 71.7946C8.89658 72.3973 8.07043 72.6713 7.02397 72.6713H4.54551V75.3562H2.72798V66.2604H7.02397V66.2056ZM6.91381 71.0823C7.4095 71.0823 7.85012 70.9179 8.1255 70.6439C8.40089 70.3699 8.56612 69.9864 8.56612 69.4932C8.56612 69.0001 8.40089 68.6165 8.1255 68.3425C7.85012 68.0686 7.4095 67.9042 6.91381 67.9042H4.49044V71.0823H6.91381Z" fill="black"/>
<path d="M16.4972 68.8907H17.9842V75.3565H16.4972L16.387 74.5894C15.8362 75.1921 15.0652 75.5209 14.1289 75.5209C13.1926 75.5209 12.4766 75.1921 11.8707 74.5894C11.2649 73.9866 10.9895 73.1647 10.9895 72.1784C10.9895 71.1921 11.2649 70.3702 11.8707 69.7674C12.4766 69.1647 13.1926 68.8359 14.1289 68.8359C15.0652 68.8359 15.8362 69.1647 16.387 69.7674L16.4972 68.8907ZM14.5144 73.9866C15.0652 73.9866 15.4507 73.8222 15.7812 73.4387C16.1116 73.1099 16.2769 72.6716 16.2769 72.1236C16.2769 71.5757 16.1116 71.1373 15.7812 70.8085C15.4507 70.4798 15.0101 70.3154 14.5144 70.3154C14.0187 70.3154 13.5781 70.4798 13.2476 70.8085C12.9172 71.1373 12.7519 71.5757 12.7519 72.1236C12.7519 72.6716 12.9172 73.1099 13.2476 73.4387C13.5781 73.8222 13.9636 73.9866 14.5144 73.9866Z" fill="black"/>
<path d="M23.1614 68.7812C23.8224 68.7812 24.3731 69.0004 24.8137 69.384L24.0427 70.6991C23.7122 70.4799 23.3818 70.3703 22.9962 70.3703C22.5005 70.3703 22.115 70.5347 21.8396 70.8634C21.5642 71.1922 21.399 71.6306 21.399 72.2333V75.3566H19.6365V68.9456H21.1236L21.2888 69.7676C21.7845 69.11 22.3904 68.7812 23.1614 68.7812Z" fill="black"/>
<path d="M30.5417 68.8907H32.0288V75.3565H30.5417L30.4316 74.5894C29.8808 75.1921 29.1097 75.5209 28.1734 75.5209C27.2371 75.5209 26.5211 75.1921 25.9153 74.5894C25.3094 73.9866 25.0341 73.1647 25.0341 72.1784C25.0341 71.1921 25.3094 70.3702 25.9153 69.7674C26.5211 69.1647 27.2371 68.8359 28.1734 68.8359C29.1097 68.8359 29.8808 69.1647 30.4316 69.7674L30.5417 68.8907ZM28.5039 73.9866C29.0547 73.9866 29.4402 73.8222 29.7707 73.4387C30.1011 73.1099 30.2663 72.6716 30.2663 72.1236C30.2663 71.5757 30.1011 71.1373 29.7707 70.8085C29.4402 70.4798 28.9996 70.3154 28.5039 70.3154C28.0082 70.3154 27.5676 70.4798 27.2371 70.8085C26.9067 71.1373 26.7414 71.5757 26.7414 72.1236C26.7414 72.6716 26.9067 73.1099 27.2371 73.4387C27.5676 73.8222 28.0082 73.9866 28.5039 73.9866Z" fill="black"/>
<path d="M39.8497 68.7812C41.0063 68.7812 41.8875 69.11 42.4934 69.8223C43.0992 70.5347 43.3195 71.4662 43.1543 72.6717H38.1423C38.1974 73.0552 38.4177 73.384 38.7482 73.658C39.0786 73.8771 39.5192 74.0415 40.0149 74.0415C40.786 74.0415 41.3919 73.8223 41.8325 73.4388L42.8238 74.4251C42.1078 75.1374 41.1715 75.521 39.9599 75.521C38.8583 75.521 37.9771 75.1922 37.3713 74.5895C36.7103 73.9867 36.3799 73.1648 36.3799 72.1237C36.3799 71.1374 36.7103 70.3155 37.3162 69.7128C38.0322 69.11 38.8583 68.7812 39.8497 68.7812ZM39.9048 70.2059C39.4642 70.2059 39.0786 70.3155 38.7482 70.5895C38.4728 70.8086 38.2525 71.1374 38.1974 71.5758H41.502C41.4469 71.1374 41.2817 70.8086 41.0063 70.5895C40.786 70.3155 40.4005 70.2059 39.9048 70.2059Z" fill="black"/>
<path d="M48.1663 72.0686L50.4244 75.3563H48.3866L47.6706 74.2604L47.0097 73.1645L46.3487 74.2604L45.5777 75.3563H43.5949L45.8531 72.0686L43.7601 68.9453H45.798L46.5691 70.096L47.0647 70.9179L47.5604 70.096L48.3315 68.9453H50.3143L48.1663 72.0686Z" fill="black"/>
<path d="M55.161 68.7812C56.0973 68.7812 56.8133 69.11 57.4192 69.7128C58.025 70.3155 58.3004 71.1374 58.3004 72.1237C58.3004 73.11 58.025 73.9319 57.4192 74.5347C56.8133 75.1374 56.0973 75.4662 55.161 75.4662C54.2798 75.4662 53.5638 75.1922 53.0681 74.6443V78.2059H51.3057V68.8908H52.7927L52.9029 69.658C53.4537 69.0552 54.2247 68.7812 55.161 68.7812ZM54.8306 73.9867C55.3263 73.9867 55.7669 73.8223 56.0973 73.4388C56.4278 73.11 56.593 72.6717 56.593 72.1237C56.593 71.5758 56.4278 71.1374 56.0973 70.8086C55.7669 70.4799 55.3263 70.3155 54.8306 70.3155C54.2798 70.3155 53.8943 70.4799 53.5638 70.8086C53.2333 71.1374 53.0681 71.5758 53.0681 72.1237C53.0681 72.6717 53.2333 73.11 53.5638 73.4388C53.8943 73.8223 54.2798 73.9867 54.8306 73.9867Z" fill="black"/>
<path d="M62.5964 68.7812C63.753 68.7812 64.6342 69.11 65.2401 69.8223C65.8459 70.5347 66.0662 71.4662 65.901 72.6717H60.9441C60.9992 73.0552 61.2195 73.384 61.5499 73.658C61.8804 73.8771 62.321 74.0415 62.8167 74.0415C63.5878 74.0415 64.1936 73.8223 64.6342 73.4388L65.6256 74.4251C64.9096 75.1374 63.9733 75.521 62.7616 75.521C61.6601 75.521 60.7788 75.1922 60.173 74.5895C59.5121 73.9867 59.1816 73.1648 59.1816 72.1237C59.1816 71.1374 59.5121 70.3155 60.1179 69.7128C60.7788 69.11 61.605 68.7812 62.5964 68.7812ZM62.6515 70.2059C62.2108 70.2059 61.8253 70.3155 61.4948 70.5895C61.2195 70.8086 60.9992 71.1374 60.9441 71.5758H64.2487C64.1936 71.1374 64.0284 70.8086 63.753 70.5895C63.5327 70.3155 63.1471 70.2059 62.6515 70.2059Z" fill="black"/>
<path d="M70.6927 68.7812C71.3536 68.7812 71.9044 69.0004 72.345 69.384L71.5739 70.6991C71.2434 70.4799 70.913 70.3703 70.5274 70.3703C70.0317 70.3703 69.6462 70.5347 69.3708 70.8634C69.0954 71.1922 68.9302 71.6306 68.9302 72.2333V75.3566H67.1678V68.9456H68.6548L68.8201 69.7676C69.3708 69.11 69.9767 68.7812 70.6927 68.7812Z" fill="black"/>
<path d="M74.7683 67.8495C74.548 68.0139 74.3277 68.1235 73.9973 68.1235C73.6668 68.1235 73.4465 68.0139 73.2262 67.8495C73.0059 67.6851 72.9508 67.4112 72.9508 67.1372C72.9508 66.8632 73.061 66.5892 73.2262 66.4249C73.4465 66.2605 73.6668 66.1509 73.9973 66.1509C74.3277 66.1509 74.548 66.2605 74.7683 66.4249C74.9886 66.5892 75.0988 66.8632 75.0988 67.1372C75.0988 67.4112 74.9886 67.6303 74.7683 67.8495ZM73.116 75.3564V68.9454H74.8785V75.3564H73.116Z" fill="black"/>
<path d="M84.2966 68.7812C85.1228 68.7812 85.7837 69.0004 86.2794 69.4936C86.7751 69.9867 86.9954 70.6443 86.9954 71.521V75.3566H85.2329V71.7402C85.2329 71.3018 85.1228 70.9182 84.9025 70.6991C84.6822 70.4251 84.4068 70.3155 84.0212 70.3155C83.5806 70.3155 83.2502 70.4799 83.0299 70.7539C82.7545 71.0278 82.6443 71.4114 82.6443 71.8497V75.4114H80.9369V71.7949C80.9369 71.3566 80.8268 70.973 80.6065 70.7539C80.3862 70.4799 80.1108 70.3703 79.7252 70.3703C79.2846 70.3703 78.9542 70.5347 78.7339 70.8086C78.4585 71.0826 78.3483 71.4662 78.3483 71.9045V75.4662H76.5859V69.0552H78.0729L78.1831 69.8223C78.6237 69.2196 79.2296 68.9456 80.0006 68.9456C80.4412 68.9456 80.8268 69.0552 81.2123 69.2196C81.5428 69.384 81.8182 69.658 82.0385 69.9867C82.5342 69.1648 83.3052 68.7812 84.2966 68.7812Z" fill="black"/>
<path d="M91.5667 68.7812C92.7233 68.7812 93.6046 69.11 94.2104 69.8223C94.8163 70.5347 95.0366 71.4662 94.8713 72.6717H89.9144C89.9695 73.0552 90.1898 73.384 90.5203 73.658C90.8507 73.8771 91.2914 74.0415 91.787 74.0415C92.5581 74.0415 93.164 73.8223 93.6046 73.4388L94.596 74.4251C93.88 75.1374 92.9437 75.521 91.732 75.521C90.6304 75.521 89.7492 75.1922 89.1434 74.5895C88.4824 73.9867 88.152 73.1648 88.152 72.1237C88.152 71.1374 88.4824 70.3155 89.0883 69.7128C89.7492 69.11 90.5754 68.7812 91.5667 68.7812ZM91.6218 70.2059C91.1812 70.2059 90.7957 70.3155 90.4652 70.5895C90.1898 70.8086 89.9695 71.1374 89.9144 71.5758H93.219C93.164 71.1374 92.9987 70.8086 92.7233 70.5895C92.503 70.3155 92.1175 70.2059 91.6218 70.2059Z" fill="black"/>
<path d="M99.9384 68.7812C100.765 68.7812 101.425 69.0552 101.921 69.6032C102.417 70.1511 102.637 70.8634 102.637 71.7949V75.4114H100.875V71.9045C100.875 71.4114 100.765 71.0278 100.489 70.7539C100.214 70.4799 99.8833 70.3703 99.4427 70.3703C98.947 70.3703 98.6166 70.5347 98.2861 70.8634C98.0107 71.1922 97.8455 71.5758 97.8455 72.0689V75.4662H96.083V69.0552H97.5701L97.6803 69.8223C98.3412 69.0552 99.0572 68.7812 99.9384 68.7812Z" fill="black"/>
<path d="M108.145 73.7676L108.585 75.0826C108.09 75.3018 107.594 75.4114 106.988 75.4114C106.272 75.4114 105.777 75.1922 105.391 74.8087C105.005 74.4251 104.785 73.8223 104.785 73.0004V70.2607H103.629V68.8361H104.785V67.1922L106.493 67.0278V68.8361H108.255V70.2607H106.493V73.0004C106.493 73.6032 106.768 73.8771 107.319 73.8771C107.594 73.9319 107.869 73.8771 108.145 73.7676Z" fill="black"/>
<path d="M114.644 68.8907H116.131V75.3565H114.644L114.534 74.5894C113.983 75.1921 113.212 75.5209 112.276 75.5209C111.339 75.5209 110.623 75.1921 110.017 74.5894C109.412 73.9866 109.136 73.1647 109.136 72.1784C109.136 71.1921 109.412 70.3702 110.017 69.7674C110.623 69.1647 111.339 68.8359 112.276 68.8359C113.212 68.8359 113.983 69.1647 114.534 69.7674L114.644 68.8907ZM112.661 73.9866C113.212 73.9866 113.597 73.8222 113.928 73.4387C114.258 73.1099 114.424 72.6716 114.424 72.1236C114.424 71.5757 114.258 71.1373 113.928 70.8085C113.597 70.4798 113.157 70.3154 112.661 70.3154C112.165 70.3154 111.725 70.4798 111.394 70.8085C111.064 71.1373 110.899 71.5757 110.899 72.1236C110.899 72.6716 111.064 73.1099 111.394 73.4387C111.725 73.8222 112.165 73.9866 112.661 73.9866Z" fill="black"/>
<path d="M121.308 68.7812C121.969 68.7812 122.52 69.0004 122.96 69.384L122.189 70.6991C121.859 70.4799 121.528 70.3703 121.143 70.3703C120.647 70.3703 120.262 70.5347 119.986 70.8634C119.711 71.1922 119.546 71.6306 119.546 72.2333V75.3566H117.783V68.9456H119.27L119.436 69.7676C119.986 69.11 120.592 68.7812 121.308 68.7812Z" fill="black"/>
<path d="M6.4732 86.8085L6.91381 88.1235C6.41812 88.3427 5.92243 88.4523 5.31659 88.4523C4.60059 88.4523 4.1049 88.2331 3.71936 87.8496C3.33383 87.466 3.11352 86.8633 3.11352 86.0413V83.3016H1.95691V81.9318H3.11352V80.2879L4.8209 80.1235V81.9318H6.58335V83.3564H4.8209V86.0961C4.8209 86.6989 5.09628 86.9728 5.64705 86.9728C5.92243 86.9728 6.19782 86.9181 6.4732 86.8085Z" fill="black"/>
<path d="M13.523 87.5757C12.8621 88.1784 12.0359 88.5072 10.9895 88.5072C9.94303 88.5072 9.0618 88.1784 8.45596 87.5757C7.79504 86.9729 7.51965 86.151 7.51965 85.1647C7.51965 84.1784 7.85011 83.3565 8.45596 82.7538C9.11688 82.151 9.94303 81.8223 10.9895 81.8223C12.0359 81.8223 12.9172 82.151 13.523 82.7538C14.1839 83.3565 14.4593 84.1784 14.4593 85.1647C14.4593 86.151 14.1839 86.9182 13.523 87.5757ZM9.72272 86.4798C10.0532 86.8086 10.4938 87.0277 10.9895 87.0277C11.4852 87.0277 11.9258 86.8634 12.2563 86.4798C12.5867 86.151 12.7519 85.7127 12.7519 85.1647C12.7519 84.6168 12.5867 84.1784 12.2563 83.8497C11.9258 83.5209 11.4852 83.3017 10.9895 83.3017C10.4938 83.3017 10.0532 83.4661 9.72272 83.8497C9.39226 84.1784 9.22703 84.6168 9.22703 85.1647C9.22703 85.7127 9.39226 86.0962 9.72272 86.4798Z" fill="black"/>
<path d="M20.6279 79.2466H22.3904V88.3425H20.9033L20.7931 87.5753C20.2424 88.1781 19.5264 88.5069 18.535 88.5069C17.5987 88.5069 16.8827 88.1781 16.2769 87.5753C15.671 86.9726 15.3956 86.1507 15.3956 85.1644C15.3956 84.1781 15.671 83.3562 16.2769 82.7534C16.8827 82.1507 17.5987 81.8219 18.535 81.8219C19.4162 81.8219 20.1322 82.0959 20.6279 82.589V79.2466ZM18.8655 86.9726C19.4162 86.9726 19.8018 86.8082 20.1322 86.4247C20.4627 86.0959 20.6279 85.6575 20.6279 85.1096C20.6279 84.5616 20.4627 84.1233 20.1322 83.7945C19.8018 83.4658 19.3612 83.3014 18.8655 83.3014C18.3698 83.3014 17.9292 83.4658 17.5987 83.7945C17.2682 84.1233 17.103 84.5616 17.103 85.1096C17.103 85.6575 17.2682 86.0959 17.5987 86.4247C17.9292 86.8082 18.3698 86.9726 18.8655 86.9726Z" fill="black"/>
<path d="M29.1648 81.9319H30.6519V88.3428H29.1648L29.0547 87.5757C28.5039 88.1784 27.7328 88.5072 26.7965 88.5072C25.8602 88.5072 25.1442 88.1784 24.5384 87.5757C23.9325 86.9729 23.6571 86.151 23.6571 85.1647C23.6571 84.1784 23.9325 83.3565 24.5384 82.7538C25.1442 82.151 25.8602 81.8223 26.7965 81.8223C27.7328 81.8223 28.5039 82.151 29.0547 82.7538L29.1648 81.9319ZM27.182 86.9729C27.6777 86.9729 28.1183 86.8086 28.4488 86.425C28.7793 86.0962 28.9445 85.6579 28.9445 85.1099C28.9445 84.562 28.7793 84.1236 28.4488 83.7949C28.1183 83.4661 27.6777 83.3017 27.182 83.3017C26.6864 83.3017 26.2457 83.4661 25.9153 83.7949C25.5848 84.1236 25.4196 84.562 25.4196 85.1099C25.4196 85.6579 25.5848 86.0962 25.9153 86.425C26.2457 86.8086 26.6313 86.9729 27.182 86.9729Z" fill="black"/>
<path d="M40.6208 81.9319H42.1078V88.3428H40.6208L40.5106 87.5757C39.9599 88.1784 39.1888 88.5072 38.2525 88.5072C37.3162 88.5072 36.6002 88.1784 35.9943 87.5757C35.3885 86.9729 35.1131 86.151 35.1131 85.1647C35.1131 84.1784 35.3885 83.3565 35.9943 82.7538C36.6002 82.151 37.3162 81.8223 38.2525 81.8223C39.1888 81.8223 39.9599 82.151 40.5106 82.7538L40.6208 81.9319ZM38.5829 86.9729C39.1337 86.9729 39.5192 86.8086 39.8497 86.425C40.1802 86.0962 40.3454 85.6579 40.3454 85.1099C40.3454 84.562 40.1802 84.1236 39.8497 83.7949C39.5192 83.4661 39.0786 83.3017 38.5829 83.3017C38.0872 83.3017 37.6466 83.4661 37.3162 83.7949C36.9857 84.1236 36.8205 84.562 36.8205 85.1099C36.8205 85.6579 36.9857 86.0962 37.3162 86.425C37.6466 86.8086 38.0872 86.9729 38.5829 86.9729Z" fill="black"/>
<path d="M51.3607 81.9316H53.2333L50.4795 88.3426H48.662L45.9081 81.9316H47.7807L48.6069 84.0138L49.5432 86.5344L50.4795 84.0138L51.3607 81.9316Z" fill="black"/>
<path d="M55.8219 80.8358C55.6016 81.0002 55.3813 81.1098 55.0509 81.1098C54.7204 81.1098 54.5001 81.0002 54.2798 80.8358C54.0595 80.6715 54.0044 80.3975 54.0044 80.1235C54.0044 79.8495 54.1146 79.5756 54.2798 79.4112C54.5001 79.2468 54.7204 79.1372 55.0509 79.1372C55.3813 79.1372 55.6016 79.2468 55.8219 79.4112C56.0423 79.5756 56.1524 79.8495 56.1524 80.1235C56.0973 80.3975 55.9872 80.6715 55.8219 80.8358ZM54.1696 88.3427V81.9317H55.9321V88.3427H54.1696Z" fill="black"/>
<path d="M62.4312 79.2466H64.1936V88.3425H62.7065L62.5964 87.5753C62.0456 88.1781 61.3296 88.5069 60.3382 88.5069C59.4019 88.5069 58.6859 88.1781 58.0801 87.5753C57.4743 86.9726 57.1989 86.1507 57.1989 85.1644C57.1989 84.1781 57.4743 83.3562 58.0801 82.7534C58.6859 82.1507 59.4019 81.8219 60.3382 81.8219C61.2195 81.8219 61.9355 82.0959 62.4312 82.589V79.2466ZM60.6687 86.9726C61.2195 86.9726 61.605 86.8082 61.9355 86.4247C62.2659 86.0959 62.4312 85.6575 62.4312 85.1096C62.4312 84.5616 62.2659 84.1233 61.9355 83.7945C61.605 83.4658 61.1644 83.3014 60.6687 83.3014C60.173 83.3014 59.7324 83.4658 59.4019 83.7945C59.0715 84.1233 58.9062 84.5616 58.9062 85.1096C58.9062 85.6575 59.0715 86.0959 59.4019 86.4247C59.7324 86.8082 60.173 86.9726 60.6687 86.9726Z" fill="black"/>
<path d="M70.968 81.9319H72.4551V88.3428H70.968L70.8579 87.5757C70.3071 88.1784 69.536 88.5072 68.5997 88.5072C67.6634 88.5072 66.9474 88.1784 66.3416 87.5757C65.7358 86.9729 65.4604 86.151 65.4604 85.1647C65.4604 84.1784 65.7358 83.3565 66.3416 82.7538C66.9474 82.151 67.6634 81.8223 68.5997 81.8223C69.536 81.8223 70.3071 82.151 70.8579 82.7538L70.968 81.9319ZM68.9302 86.9729C69.481 86.9729 69.8665 86.8086 70.197 86.425C70.5274 86.0962 70.6927 85.6579 70.6927 85.1099C70.6927 84.562 70.5274 84.1236 70.197 83.7949C69.8665 83.4661 69.4259 83.3017 68.9302 83.3017C68.4345 83.3017 67.9939 83.4661 67.6634 83.7949C67.333 84.1236 67.1678 84.562 67.1678 85.1099C67.1678 85.6579 67.333 86.0962 67.6634 86.425C67.9939 86.8086 68.4345 86.9729 68.9302 86.9729Z" fill="black"/>
</svg>
