<svg width="130" height="128" viewBox="0 0 130 128" fill="none" xmlns="http://www.w3.org/2000/svg">
<path d="M98.0903 1.69496C95.9096 3.32348 93.7839 5.02574 91.7218 6.8021C89.678 8.56254 87.6959 10.3947 85.7799 12.2934C83.855 14.2006 81.9969 16.1753 80.2099 18.2124C78.4231 20.2493 76.7091 22.3494 75.0672 24.5049C73.4325 26.6506 71.8729 28.8535 70.3929 31.1086C70.2046 31.3957 70.0175 31.6835 69.8317 31.9722C69.5328 32.4363 70.273 32.8658 70.5704 32.404C72.0242 30.1464 73.556 27.9392 75.1633 25.7881C76.7636 23.6468 78.4408 21.563 80.187 19.5389C81.9411 17.5057 83.7657 15.5333 85.6562 13.6264C87.5466 11.7195 89.5033 9.87812 91.5216 8.1069C93.5308 6.34372 95.6003 4.64847 97.7286 3.03124C97.9923 2.83088 98.2568 2.6319 98.522 2.43376C98.7068 2.29569 98.8014 2.06385 98.6755 1.84844C98.569 1.66639 98.2766 1.55603 98.0903 1.69496Z" fill="#1E4798"/>
<path d="M52.884 62.3847C52.9612 62.2237 53.0452 62.0697 53.1388 61.9176C53.4288 61.4464 52.6966 61.0243 52.4001 61.4857C51.4664 62.9389 50.4525 64.3342 49.6631 65.8759C48.9109 67.345 48.0592 69.2948 48.7277 70.9454C49.0084 71.6386 49.5944 72.2627 50.3151 72.5011C50.9528 72.7119 51.6695 72.6048 52.3006 72.4246C54.055 71.9238 55.6555 70.8467 57.1298 69.8051C57.9901 69.1973 58.827 68.5571 59.6535 67.9045C60.1925 67.479 60.8375 66.9475 61.3158 66.5783C61.1012 66.4551 60.8866 66.3321 60.6721 66.2089C60.5385 68.8457 58.7139 70.9778 57.4416 73.1632C55.9831 75.6683 54.6162 78.2639 53.5877 80.9778C53.1679 82.0859 52.6378 83.3364 52.7288 84.5494C52.8142 85.6865 53.561 86.5456 54.7293 86.6375C55.94 86.7326 57.0467 86.0744 57.8991 85.2767C58.9103 84.3304 59.7247 83.1643 60.5855 82.0855C62.8052 79.3035 65.0249 76.5212 67.2445 73.7392C67.0206 73.5663 66.7966 73.3935 66.5726 73.2207C65.4795 74.944 64.8209 76.8875 63.832 78.666C62.8007 80.5205 61.356 82.1511 60.0563 83.8193C59.3979 84.6642 58.7175 85.5062 58.1278 86.4014C57.6243 87.166 57.2501 88.1065 57.523 89.027C57.8176 90.0208 58.926 90.7457 59.8986 90.9742C61.8943 91.4426 63.8422 90.198 65.3192 88.9971C67.2704 87.4107 68.8999 85.4413 70.4256 83.4547C71.7725 81.7007 72.9823 79.8527 74.2878 78.0698C74.5734 77.6797 73.9335 77.1858 73.6159 77.5514C72.0107 79.4003 70.4638 81.3144 69.1637 83.3934C68.549 84.3766 67.9671 85.4001 67.5174 86.4705C67.1367 87.3768 66.8536 88.3837 66.9537 89.3759C67.1857 91.6746 69.5205 92.5705 71.5389 91.9178C73.595 91.2529 75.2338 89.501 76.4734 87.8009C77.9483 85.7782 78.9821 83.478 79.9965 81.202C80.2176 80.7061 79.5664 80.3012 79.2579 80.7701C77.626 83.2514 75.961 85.8381 75.4836 88.8253C75.4407 89.0936 75.5937 89.3684 75.8962 89.3668C76.5872 89.3632 77.1722 89.7107 77.8114 89.9221C78.42 90.1231 79.0177 90.1051 79.6405 89.985C80.8767 89.7467 82.0343 89.1485 83.0638 88.44C85.3167 86.8897 87.1417 84.7985 88.891 82.72C90.9673 80.2531 92.9274 77.7158 94.7251 75.0373C96.6823 72.1209 98.4371 69.0774 100.376 66.1497C102.333 63.1957 104.324 60.2714 106.2 57.2643C108.075 54.2586 109.935 51.2439 111.74 48.1956C113.544 45.1476 115.293 42.0663 116.941 38.9309C118.552 35.8675 120.099 32.7674 121.666 29.6818C123.203 26.6564 124.686 23.5954 125.888 20.4192C127.129 17.1383 127.951 13.7143 129.017 10.3748C129.29 9.52049 129.571 8.6691 129.861 7.82062C129.581 7.78263 129.301 7.74482 129.021 7.70684C129.014 7.80419 129.007 7.90154 129 7.99907C128.959 8.5483 129.815 8.54573 129.855 7.99907C129.862 7.90172 129.869 7.80436 129.877 7.70684C129.913 7.20295 129.185 7.15881 129.036 7.59306C127.9 10.916 127.011 14.3075 125.948 17.652C124.922 20.8847 123.533 23.9869 122.04 27.0275C120.561 30.0373 118.995 33.0035 117.489 35.9993C115.911 39.1372 114.221 42.2181 112.465 45.2599C108.981 51.2971 105.327 57.262 101.432 63.0431C100.442 64.5121 99.449 65.9798 98.4939 67.472C97.5686 68.9174 96.6957 70.3955 95.7794 71.8468C93.9601 74.7288 92.0353 77.5519 89.8852 80.1992C88.1943 82.2811 86.4691 84.393 84.4864 86.2059C83.522 87.0878 82.4783 87.9021 81.3085 88.4946C80.7571 88.774 80.1772 88.9939 79.5729 89.1268C78.9034 89.2739 78.3497 89.2271 77.7129 88.9767C77.1139 88.7413 76.552 88.5078 75.8962 88.5112C76.0337 88.6917 76.1711 88.8722 76.3087 89.0527C76.7753 86.1329 78.4019 83.6266 79.9969 81.2018C79.7507 81.0579 79.5045 80.914 79.2583 80.77C77.6953 84.2768 75.9692 88.2894 72.6104 90.4533C71.7518 91.0065 70.7185 91.4231 69.6796 91.2532C68.7504 91.1011 68.0273 90.4882 67.8394 89.5521C67.6641 88.6782 67.927 87.7405 68.247 86.9312C68.6395 85.9384 69.1886 84.9906 69.7443 84.0816C71.0385 81.9641 72.5972 80.0269 74.2214 78.1561C73.9975 77.9833 73.7735 77.8105 73.5495 77.6376C71.0967 80.9874 68.8768 84.5105 65.8461 87.392C64.5511 88.6232 62.8492 90.106 60.9683 90.2128C60.1785 90.2576 59.4349 89.9975 58.84 89.4746C58.1722 88.8876 58.1824 88.0954 58.5701 87.3326C59.0265 86.4352 59.7287 85.6311 60.3412 84.8373C61.7238 83.0454 63.2899 81.3111 64.4291 79.3485C65.4993 77.5045 66.1676 75.4566 67.3121 73.6522C67.5669 73.2507 66.9472 72.7493 66.6404 73.1338C64.8023 75.4378 62.964 77.7419 61.1259 80.0457C60.2139 81.1886 59.3139 82.3425 58.3879 83.474C57.6919 84.3247 56.8857 85.2651 55.8132 85.6336C55.2619 85.8232 54.5491 85.9065 54.0545 85.5293C53.6853 85.2476 53.5787 84.772 53.5771 84.3309C53.5728 83.1693 54.1113 81.9753 54.5254 80.9139C55.5297 78.3398 56.8443 75.8586 58.2476 73.4813C59.6032 71.1852 61.3876 68.9841 61.5283 66.2089C61.5433 65.9105 61.1423 65.6407 60.8846 65.8395C58.3896 67.7659 55.9734 69.9389 53.0659 71.2349C51.9792 71.7193 50.5687 72.1734 49.7421 71.0334C48.8209 69.763 49.6509 67.8436 50.2467 66.6194C51.0563 64.9556 52.143 63.4681 53.1395 61.9172C52.8932 61.7733 52.647 61.6294 52.4008 61.4854C52.3072 61.6373 52.2232 61.7915 52.146 61.9525C51.9086 62.4469 52.6458 62.8815 52.884 62.3847Z" fill="#1E4798"/>
<path d="M27.0747 7.54157C28.3178 8.40648 29.5238 9.32511 30.79 10.1565C32.0925 11.0118 33.4826 11.7191 34.8454 12.4714C37.667 14.0291 40.4795 15.6082 43.2486 17.2578C48.6072 20.4498 53.8274 23.8595 59.2374 26.967C64.368 29.914 69.5568 32.7763 74.463 36.0924C76.9522 37.7748 79.3638 39.5725 81.6439 41.5301C82.6845 42.4236 83.5648 43.5982 84.1941 44.8128C84.4253 45.2588 84.7776 45.9591 84.5836 46.4418C84.529 46.5775 84.3522 46.6858 84.1384 46.7368C83.5614 46.8742 83.0091 46.6978 82.4908 46.4463C79.8817 45.1796 77.3941 43.6539 74.636 42.7149C73.9544 42.4829 73.2609 42.2927 72.5556 42.1477C72.1349 42.0613 71.8469 42.5377 72.1395 42.8626C73.1379 43.9715 74.5542 44.5195 75.6705 45.4796C76.9094 46.5448 78.1417 47.626 79.351 48.7246C81.3279 50.5205 83.1408 52.4604 84.3969 54.8348C84.9281 55.8391 85.4231 56.9577 85.5181 58.1038C85.5773 58.8191 85.4495 60.1085 84.5709 60.311C83.7744 60.4944 82.8421 59.7814 82.2474 59.3497C81.45 58.7709 80.7335 58.0933 79.9846 57.4555C78.7563 56.4095 77.3356 55.5616 76.0146 54.6383C74.2974 53.4382 72.585 52.2313 70.8771 51.018C70.7332 51.2643 70.5893 51.5105 70.4453 51.7567C73.2917 53.1273 76.2353 54.5081 78.661 56.569C80.316 57.9753 81.8795 59.6765 82.9042 61.6022C83.3489 62.4377 83.7643 63.4606 83.5775 64.4257C83.4988 64.8321 83.315 65.2718 82.9143 65.4515C82.5097 65.6328 82.022 65.544 81.6114 65.4323C80.6055 65.1587 79.6934 64.6043 78.803 64.0789C77.39 63.2451 75.98 62.4074 74.5874 61.5396C71.2727 59.4741 68.0401 57.2763 64.933 54.9092C64.7891 55.1554 64.6452 55.4016 64.5011 55.6478C67.5924 57.9898 71.2288 59.4875 74.0524 62.1953C75.8852 63.953 77.979 65.6513 79.1806 67.9358C79.6076 68.7477 80.0132 69.9558 79.3084 70.7417C78.6601 71.4647 77.3881 71.3609 76.5263 71.2522C74.2151 70.9607 71.9097 70.0381 69.8329 69.0091C65.7341 66.9782 61.6729 64.8721 57.5641 62.861C55.6734 61.9355 53.8334 60.9921 52.0913 59.8028C50.4152 58.6585 48.8283 57.3925 47.2302 56.1435C43.8197 53.4779 40.2179 51.1323 36.5658 48.8151C32.8844 46.4793 29.298 43.9958 25.5617 41.7465C21.7968 39.4801 17.8461 37.5418 14.1223 35.204C12.3123 34.0678 10.4408 33.1149 8.53492 32.1521C6.77859 31.2648 5.12286 30.2356 3.17866 29.8009C2.27064 29.5978 1.34225 29.5061 0.413012 29.4873C-0.137756 29.4761 -0.137585 30.3316 0.413012 30.3428C2.41744 30.3833 4.29902 30.8687 6.07109 31.8082C7.97371 32.8169 9.93349 33.7329 11.8098 34.7893C12.7813 35.3363 13.7059 35.9618 14.6586 36.5403C15.6263 37.128 16.6058 37.6957 17.5921 38.2516C19.5424 39.351 21.5285 40.3868 23.4679 41.5053C27.3439 43.7407 31.0196 46.2832 34.7848 48.6945C38.5536 51.1082 42.3645 53.4482 45.9086 56.1904C47.5354 57.4492 49.1344 58.7457 50.8069 59.9443C52.5283 61.1779 54.326 62.235 56.2302 63.1598C60.4456 65.207 64.613 67.35 68.8027 69.4485C71.0566 70.5774 73.4527 71.6102 75.9535 72.0258C77.0364 72.2058 78.2736 72.3182 79.2892 71.8081C80.2874 71.3068 80.6572 70.1947 80.4975 69.1385C80.3013 67.8402 79.4865 66.6854 78.6849 65.6845C77.7998 64.5794 76.7852 63.5836 75.7538 62.6167C74.656 61.5875 73.5766 60.5498 72.3527 59.6675C70.7591 58.5185 69.0293 57.5814 67.3593 56.5519C66.5273 56.0389 65.7125 55.4998 64.9332 54.9094C64.4939 54.5766 64.0691 55.3188 64.5013 55.648C67.4808 57.9178 70.5755 60.0319 73.7475 62.023C75.2509 62.9668 76.7744 63.8763 78.3035 64.7775C79.2668 65.3452 80.2535 65.9391 81.338 66.2442C82.3221 66.521 83.4375 66.4769 84.0506 65.5435C84.641 64.6444 84.5338 63.4443 84.2106 62.4719C83.4533 60.1936 81.693 58.2167 79.9731 56.5986C77.3584 54.1387 74.0793 52.56 70.877 51.0179C70.3777 50.7775 69.9963 51.4376 70.4451 51.7565C72.0391 52.8888 73.6371 54.0157 75.2391 55.1366C76.0632 55.713 76.8882 56.2879 77.7143 56.8613C78.2464 57.2307 78.8035 57.5754 79.3 57.9927C80.0994 58.6645 80.8594 59.3786 81.6988 60.0023C82.4566 60.5652 83.4061 61.2089 84.3933 61.1868C85.4065 61.1642 86.0733 60.2788 86.2901 59.3576C86.5618 58.203 86.2465 56.9682 85.822 55.8911C84.852 53.4302 83.2255 51.3067 81.3642 49.4528C79.9885 48.0828 78.4958 46.8388 77.0408 45.5555C76.3467 44.9433 75.663 44.3737 74.8803 43.8759C74.122 43.3933 73.3511 42.9317 72.744 42.2574C72.6052 42.4958 72.4665 42.7341 72.3279 42.9724C75.3425 43.592 78.0337 45.1086 80.7369 46.5128C81.8407 47.0862 82.9999 47.8489 84.2976 47.5762C84.9699 47.4349 85.4432 46.9514 85.482 46.2551C85.5219 45.5401 85.1735 44.815 84.8392 44.2052C84.4474 43.4909 83.9654 42.8256 83.4543 42.1926C82.9968 41.6259 82.5079 41.1434 81.9529 40.6724C80.7696 39.6682 79.5517 38.7047 78.3085 37.7758C73.4154 34.1198 68.1223 31.0561 62.8256 28.0322C60.141 26.4995 57.4527 24.9726 54.8055 23.3756C51.9996 21.6829 49.2442 19.9076 46.4507 18.1947C43.6034 16.4488 40.7147 14.7775 37.8037 13.1408C36.3387 12.3171 34.869 11.5015 33.3915 10.7002C31.9966 9.94363 30.6871 9.07736 29.3989 8.15222C28.7696 7.70018 28.1425 7.24488 27.5066 6.80242C27.0537 6.4876 26.6256 7.22897 27.0747 7.54157Z" fill="#1E4798"/>
<path d="M11.2359 91.6231C12.2779 88.3414 13.4812 85.1121 14.8175 81.939C16.15 78.7749 17.6163 75.667 19.1776 72.6097C20.7795 69.4727 22.4845 66.3892 24.2603 63.3476C26.0772 60.2356 27.9675 57.1671 29.9002 54.126C30.297 53.5017 30.7253 52.8896 31.0923 52.2473C31.3181 51.8519 31.5226 51.4442 31.7363 51.0421C32.0041 50.5382 32.278 50.0366 32.5808 49.5527C32.8454 49.1299 33.0722 48.7762 33.4286 48.4469C33.46 48.418 33.492 48.3902 33.5246 48.3629C33.4504 48.425 33.5549 48.3418 33.5732 48.33C33.6078 48.3078 33.6435 48.2886 33.6793 48.2686C33.7388 48.2354 33.596 48.2948 33.7067 48.2599C34.2301 48.0953 34.0066 47.269 33.4793 47.435C33.0633 47.5659 32.741 47.8922 32.4743 48.2238C32.1209 48.6628 31.8201 49.1397 31.5387 49.6271C31.0404 50.49 30.6272 51.4026 30.089 52.2419C28.1167 55.3172 26.1826 58.4173 24.3193 61.5601C22.4918 64.6426 20.7324 67.7664 19.0755 70.9442C17.4649 74.0336 15.9502 77.1737 14.5646 80.3707C13.1756 83.5758 11.9112 86.8355 10.8138 90.1523C10.6769 90.566 10.5428 90.9806 10.4108 91.3958C10.2439 91.9216 11.0696 92.1468 11.2359 91.6231Z" fill="#1E4798"/>
<path d="M47.1533 19.9909C47.1539 19.6693 47.4699 19.2865 47.6921 19.0035C47.9103 18.7258 48.1279 18.454 48.2983 18.1441C48.4984 17.7803 48.7093 17.4224 48.9247 17.0675C49.2343 16.5577 49.5552 16.0546 49.8882 15.5598C50.2544 15.0157 50.6797 14.4194 51.0501 13.9472C51.4503 13.4373 51.8714 12.9413 52.3317 12.4845C52.5373 12.2804 52.7519 12.0867 52.9762 11.9033C52.9853 11.8959 53.0826 11.8201 53.0055 11.8793C53.034 11.8574 53.0629 11.8358 53.092 11.8145C53.1393 11.7799 53.187 11.746 53.2354 11.713C53.3449 11.6386 53.4577 11.5684 53.5742 11.5054C53.6197 11.4808 53.6659 11.4572 53.7128 11.435C53.74 11.422 53.7675 11.4096 53.7951 11.3975C53.7848 11.4019 53.7044 11.4327 53.7745 11.4069C53.8798 11.3679 53.9843 11.3357 54.0936 11.3107C54.1193 11.3049 54.1457 11.3022 54.1713 11.2969C54.1609 11.2991 54.0651 11.301 54.1345 11.3025C54.1845 11.3036 54.2351 11.2953 54.2855 11.2964C54.3258 11.2972 54.4581 11.3213 54.3188 11.2929C54.3669 11.3027 54.4143 11.3101 54.4615 11.3236C54.5354 11.3448 54.571 11.3679 54.5089 11.3357C54.5501 11.3571 54.5915 11.3766 54.6311 11.4009C54.6574 11.4172 54.7691 11.5089 54.673 11.4254C54.7188 11.4652 54.764 11.5048 54.8061 11.5489C54.8853 11.6319 54.9556 11.7322 55.0277 11.8737C55.0841 11.9847 55.1421 12.1635 55.1789 12.3389C55.214 12.506 55.228 12.6669 55.2316 12.8698C55.2357 13.1023 55.2217 13.3355 55.194 13.5663C55.1411 14.0049 55.028 14.4658 54.8993 14.8994C54.6627 15.6965 54.3664 16.4297 53.9795 17.1601C53.722 17.6462 54.4595 18.0789 54.7182 17.592C56.0621 15.0624 57.1962 12.3183 59.2812 10.285C59.8965 9.68495 60.5318 9.10287 61.203 8.56562C61.9334 7.98098 62.8185 7.35646 63.6867 7.07894C63.7885 7.04643 63.8916 7.01786 63.996 6.99493C64.0429 6.98467 64.0901 6.97611 64.1373 6.96756C64.2337 6.94993 64.1254 6.96294 64.2215 6.95746C64.3175 6.95199 64.4123 6.94685 64.5085 6.95216C64.5327 6.95353 64.6433 6.96584 64.599 6.95917C64.5644 6.95404 64.6905 6.97885 64.7206 6.98672C64.7615 6.9975 64.801 7.01119 64.8412 7.02402C64.9389 7.05533 64.824 7.01016 64.8886 7.04404C64.9319 7.06679 64.9747 7.08938 65.0159 7.11555C65.049 7.13643 65.1453 7.21445 65.07 7.15029C65.1292 7.20059 65.1809 7.25586 65.2351 7.31112C65.308 7.38538 65.2124 7.27228 65.2543 7.33319C65.2808 7.37186 65.3068 7.41036 65.3306 7.45074C65.3492 7.48257 65.367 7.5149 65.3836 7.54792C65.3941 7.56863 65.4461 7.69473 65.4067 7.59292C65.4391 7.67642 65.4673 7.76128 65.4902 7.84803C65.5113 7.92776 65.5275 8.00835 65.5419 8.08945C65.5462 8.11324 65.5496 8.13736 65.5532 8.16131C65.5508 8.14489 65.5434 8.07388 65.552 8.15772C65.5571 8.20802 65.5621 8.25833 65.5655 8.30863C65.5795 8.5095 65.5783 8.7114 65.5672 8.91244C65.5551 9.13247 65.5279 9.36756 65.5044 9.51916C65.3518 10.5016 65.0548 11.4606 64.7175 12.3938C64.4005 13.2708 64.0886 14.0103 63.7081 14.8426C63.2552 15.8331 62.7673 16.807 62.2676 17.7745C61.8947 18.4966 61.4766 19.209 61.1488 19.9528C60.8817 20.5587 60.7362 21.2059 60.5018 21.8236C60.4113 22.0621 60.2996 22.3134 60.1382 22.5126C60.3622 22.5415 60.5862 22.5703 60.8101 22.5992C60.7848 22.5651 60.7643 22.5306 60.7432 22.4938C60.7823 22.5622 60.7503 22.5147 60.7369 22.4656C60.7256 22.4236 60.7232 22.3518 60.7277 22.4375C60.7253 22.3925 60.7248 22.348 60.7256 22.303C60.7261 22.2797 60.7289 22.2563 60.7311 22.233C60.7294 22.2503 60.7142 22.3201 60.7318 22.2387C60.7412 22.195 60.7499 22.1516 60.7614 22.1083C60.7852 22.018 60.8344 21.8775 60.8553 21.8272C61.0163 21.4393 61.3115 20.9944 61.5782 20.6223C61.8424 20.2537 62.0614 19.9851 62.342 19.6227C62.6671 19.203 62.9431 18.7493 63.2377 18.3078C64.6951 16.1241 66.2934 14.0391 68.2668 12.2928C68.7675 11.8499 69.2871 11.4283 69.8252 11.0315C70.352 10.6431 70.9047 10.2167 71.5085 9.96829C71.6222 9.92158 71.7401 9.88257 71.8592 9.85195C71.9094 9.83911 71.9598 9.82885 72.0105 9.81841C72.1054 9.79908 72.0071 9.81071 72.0998 9.80729C72.1443 9.80558 72.1882 9.8025 72.2329 9.80318C72.2634 9.8037 72.3949 9.81687 72.2964 9.80216C72.3352 9.80798 72.3735 9.81585 72.4115 9.8256C72.4379 9.83244 72.5778 9.88582 72.4762 9.84014C72.5426 9.87008 72.6044 9.9067 72.6637 9.94862C72.5944 9.89968 72.6555 9.94263 72.6834 9.97086C72.7164 10.0044 72.7483 10.0381 72.7789 10.074C72.7234 10.0088 72.777 10.0721 72.7967 10.104C72.817 10.1367 72.8372 10.1692 72.8555 10.203C72.8771 10.2427 72.8969 10.2835 72.9151 10.3249C72.8788 10.2427 72.9248 10.356 72.9354 10.387C72.963 10.4689 72.9856 10.5528 73.004 10.6373C73.0152 10.6879 73.0241 10.7388 73.033 10.7897C73.0357 10.8048 73.0451 10.8731 73.0347 10.7945C73.0383 10.8214 73.0413 10.8483 73.0437 10.8753C73.0632 11.0893 73.0679 11.3036 73.0574 11.5181C73.0355 11.9657 72.9573 12.3851 72.8191 12.8551C72.4069 14.255 71.6258 15.529 70.9011 16.7837C70.0918 18.1845 69.3745 19.6344 68.5832 21.0451C68.1914 21.7433 67.7727 22.4248 67.3715 23.1173C67.1098 23.5688 66.885 24.0621 66.5367 24.4556C66.4778 24.522 66.3656 24.6363 66.323 24.6693C66.2737 24.7075 66.2176 24.7422 66.162 24.7699C66.1106 24.7954 66.137 24.7836 66.0525 24.8055C66.233 24.9431 66.4135 25.0805 66.594 25.218C66.601 24.8396 66.7023 24.4248 66.8653 24.0453C67.0498 23.6162 67.3314 23.1677 67.6197 22.7739C68.2658 21.8912 69.066 21.118 69.8769 20.3886C70.6634 19.6811 71.4871 19.0176 72.3044 18.3465C73.1414 17.6595 73.9451 16.9344 74.8281 16.3053C75.8759 15.5588 77.0322 14.8773 78.3112 14.6342C78.5997 14.5792 78.8931 14.5567 79.1869 14.5638C79.2504 14.5654 79.3142 14.568 79.3775 14.5729C79.3919 14.5741 79.5104 14.5892 79.4418 14.5784C79.3722 14.5674 79.4824 14.5873 79.499 14.5911C79.5347 14.5991 79.5698 14.6094 79.6051 14.6191C79.6242 14.6244 79.7178 14.659 79.6523 14.6331C79.5878 14.6076 79.675 14.6439 79.6926 14.6538C79.7173 14.6679 79.7416 14.6833 79.7666 14.6968C79.8367 14.7348 79.7962 14.7206 79.7763 14.6999C79.8111 14.736 79.8497 14.7707 79.8855 14.806C79.9493 14.8686 79.88 14.795 79.8838 14.8024C79.898 14.8299 79.9192 14.8554 79.9349 14.8824C79.9491 14.9069 79.9608 14.9326 79.9746 14.957C80.0174 15.033 79.9733 14.9504 79.9755 14.957C79.9952 15.0188 80.0169 15.0787 80.0321 15.142C80.0395 15.1726 80.0453 15.2034 80.0516 15.2344C80.0621 15.2854 80.0627 15.3271 80.0552 15.2445C80.0621 15.3175 80.0689 15.3901 80.0713 15.4635C80.0759 15.6123 80.0686 15.7614 80.0538 15.9095C80.0499 15.9491 80.0453 15.9884 80.0405 16.0278C80.0516 15.9381 80.039 16.035 80.0335 16.0697C80.0193 16.1592 80.0027 16.2485 79.9844 16.3373C79.9081 16.7063 79.8006 17.0689 79.6771 17.4248C79.6095 17.6197 79.5368 17.8127 79.4598 18.0041C79.3818 18.1985 79.341 18.2931 79.2451 18.506C78.9082 19.252 78.5206 19.9767 78.0862 20.6705C77.9043 20.9612 77.7135 21.2468 77.5089 21.5221C77.4867 21.5519 77.4643 21.5815 77.4418 21.6111C77.4128 21.6496 77.4603 21.5873 77.4615 21.5858C77.449 21.6017 77.4367 21.6176 77.4242 21.6333C77.3794 21.6891 77.3346 21.7451 77.2882 21.7996C77.2109 21.8908 77.1311 21.98 77.0458 22.0638C77.0138 22.0953 76.9806 22.1252 76.9475 22.1555C76.9316 22.1701 76.9126 22.1822 76.8976 22.1976C76.8515 22.2447 76.9918 22.1283 76.9167 22.1815C76.7285 22.3148 76.6394 22.555 76.7633 22.7669C76.8721 22.953 77.159 23.0545 77.3484 22.9203C77.8314 22.5783 78.187 22.0592 78.5157 21.5767C78.9835 20.8902 79.3943 20.1632 79.7585 19.4171C80.1414 18.6329 80.4862 17.8176 80.7121 16.9733C80.8915 16.302 81.0349 15.5357 80.8407 14.8511C80.6472 14.1686 80.0997 13.7836 79.409 13.7202C78.0552 13.5958 76.6858 14.1618 75.5389 14.8265C74.3744 15.5015 73.331 16.3589 72.3114 17.2316C71.5379 17.8938 70.7342 18.5198 69.9602 19.1815C69.0544 19.9559 68.1686 20.7669 67.4007 21.6807C66.7168 22.4946 66.0605 23.4278 65.8275 24.4838C65.7744 24.7242 65.7433 24.972 65.7387 25.2182C65.7334 25.5005 66.0158 25.6986 66.2802 25.6307C66.8835 25.4754 67.2917 24.9301 67.6062 24.4284C67.9607 23.8626 68.2826 23.2713 68.6219 22.696C69.5075 21.1943 70.2827 19.6366 71.129 18.1138C71.9338 16.6656 72.8318 15.2657 73.428 13.7125C73.8048 12.7314 74.0245 11.6517 73.8645 10.6019C73.7322 9.73389 73.1758 8.9636 72.2334 8.94803C71.6674 8.93879 71.1086 9.18209 70.6268 9.45671C69.965 9.83398 69.3513 10.3131 68.7522 10.7817C66.5124 12.5338 64.6878 14.6976 63.0758 17.0277C62.6633 17.624 62.2736 18.235 61.8686 18.836C61.8328 18.8891 61.7952 18.9406 61.757 18.9917C61.7481 19.0035 61.6723 19.1029 61.7041 19.0615C61.731 19.0266 61.6451 19.1372 61.6283 19.1587C61.475 19.3545 61.3214 19.5497 61.1701 19.7471C60.8545 20.1591 60.5467 20.5819 60.2958 21.0374C60.0712 21.4453 59.8479 21.9269 59.8708 22.4048C59.8812 22.6252 59.9391 22.8517 60.0722 23.031C60.2187 23.2283 60.5532 23.3532 60.7441 23.1176C61.1825 22.5763 61.3879 21.912 61.5914 21.2559C61.6848 20.9546 61.7733 20.6471 61.9 20.3578C62.0672 19.9767 62.2785 19.6109 62.4702 19.2417C63.0923 18.0433 63.7151 16.8453 64.2869 15.6218C65.1025 13.8769 65.8805 12.0552 66.2571 10.1582C66.4284 9.29519 66.5611 8.31171 66.267 7.45878C65.9741 6.60945 65.2325 6.05782 64.3194 6.09598C63.2959 6.13858 62.3319 6.70577 61.5118 7.27485C60.6704 7.85881 59.8913 8.53089 59.1462 9.23206C58.2048 10.118 57.381 11.0869 56.6786 12.1744C55.8589 13.4437 55.1936 14.8032 54.5072 16.1467C54.334 16.4858 54.1592 16.8239 53.9804 17.1601C54.2266 17.304 54.4728 17.4479 54.719 17.592C55.0983 16.8759 55.4121 16.1178 55.6578 15.3458C55.9248 14.5069 56.132 13.6012 56.0825 12.7156C56.0404 11.9592 55.7894 11.1795 55.15 10.721C54.7385 10.4258 54.2143 10.3818 53.7357 10.5184C53.1911 10.6737 52.7149 11.0125 52.2851 11.3699C51.7799 11.7902 51.3297 12.2756 50.9062 12.7767C49.9893 13.8618 49.1793 15.0386 48.4284 16.2432C48.142 16.7028 47.8631 17.1675 47.6001 17.6409C47.4293 17.9482 47.2274 18.2192 47.0115 18.4966C46.6732 18.931 46.2996 19.4131 46.2987 19.9911C46.2968 20.5415 47.1523 20.5424 47.1533 19.9909Z" fill="#1E4798"/>
<path d="M52.6056 83.7352C50.0487 86.8102 48.4335 90.5145 46.9862 94.207C46.2584 96.0637 45.5728 97.9371 44.8268 99.7869C44.4734 100.663 44.1052 101.533 43.709 102.391C43.2195 103.451 42.8095 104.541 42.4007 105.633C42.1749 106.237 41.948 106.841 41.6926 107.433C41.4381 108.023 41.1408 108.589 40.8576 109.165C40.6158 109.657 40.4198 110.142 40.2854 110.673C40.1819 111.081 40.0919 111.597 39.8069 111.901C39.4306 112.302 40.0343 112.909 40.4119 112.506C41.0308 111.846 41.0111 110.893 41.3581 110.104C41.5839 109.59 41.8544 109.097 42.0998 108.592C42.3607 108.056 42.5905 107.503 42.81 106.948C43.2337 105.877 43.6079 104.787 44.0489 103.722C44.4392 102.781 44.886 101.863 45.2795 100.922C46.8124 97.256 48.0333 93.4598 49.7669 89.8787C50.715 87.9204 51.8162 86.017 53.2106 84.3402C53.3583 84.1628 53.3845 83.9092 53.2106 83.7352C53.0585 83.5832 52.754 83.5567 52.6056 83.7352Z" fill="#1E4798"/>
<path d="M80.7973 126.721C80.4402 124.311 79.7279 121.975 79.0365 119.645C78.3625 117.373 77.7815 115.08 77.1859 112.787C76.8849 111.628 76.5754 110.471 76.2353 109.323C75.8985 108.187 75.5038 107.072 75.133 105.946C74.4059 103.739 73.8373 101.484 73.111 99.2765C72.3079 96.8364 71.1127 94.5392 70.5483 92.0219C70.4278 91.4849 69.6029 91.7122 69.7234 92.2492C69.971 93.3533 70.326 94.426 70.7394 95.4784C71.1637 96.5587 71.6339 97.6178 72.0182 98.7141C72.7827 100.895 73.3536 103.137 74.0419 105.342C74.3927 106.466 74.7997 107.57 75.1503 108.694C75.5066 109.836 75.8269 110.989 76.1333 112.145C76.7424 114.443 77.2985 116.756 77.9661 119.039C78.7294 121.649 79.5731 124.251 79.9728 126.948C80.0066 127.177 80.2956 127.303 80.4989 127.247C80.7436 127.18 80.8312 126.95 80.7973 126.721Z" fill="#1E4798"/>
<path d="M121.633 114.371C119.943 111.545 118.253 108.72 116.564 105.894C114.881 103.08 113.199 100.267 111.516 97.4532C109.826 94.6275 108.136 91.8018 106.447 88.976C105.605 87.5693 104.764 86.1625 103.923 84.7557C103.126 83.4235 102.355 82.072 101.489 80.7831C99.8917 78.4061 98.0522 76.1683 96.745 73.6076C96.588 73.2998 96.4403 72.9875 96.3022 72.6706C96.2098 72.4588 95.8996 72.4104 95.7171 72.5172C95.4984 72.645 95.471 72.8898 95.5636 73.1023C96.7122 75.7376 98.5255 78.0148 100.161 80.3557C101.014 81.5777 101.783 82.8445 102.548 84.1233C103.389 85.5301 104.23 86.9369 105.071 88.3437C106.761 91.1694 108.451 93.9951 110.141 96.821C111.831 99.6467 113.52 102.472 115.21 105.298C116.893 108.112 118.575 110.925 120.258 113.739C120.47 114.093 120.682 114.448 120.894 114.803C121.177 115.275 121.917 114.845 121.633 114.371Z" fill="#1E4798"/>
<path d="M31.8966 10.6704C32.5265 11.1993 33.1945 11.6823 33.9054 12.0969C34.236 12.2897 34.5792 12.4435 34.8689 12.6966C35.0225 12.8309 35.1805 12.9623 35.3591 13.0622C35.5252 13.155 35.7044 13.2229 35.869 13.3185C36.1591 13.4872 36.3819 13.7593 36.6273 13.9839C36.9058 14.2391 37.2155 14.4706 37.5784 14.5895C37.7754 14.654 37.9935 14.6569 38.1843 14.7399C38.3381 14.8068 38.476 14.9159 38.6112 15.0136C38.9354 15.248 39.2826 15.4152 39.6458 15.5801C39.9925 15.7375 40.3249 15.9116 40.6206 16.154C40.9285 16.4065 41.1903 16.7126 41.5166 16.9421C41.6554 17.0398 41.8049 17.1202 41.9517 17.2049C42.029 17.2494 42.106 17.2944 42.1803 17.3438C42.2058 17.3608 42.2303 17.3808 42.2564 17.3965C42.2737 17.4114 42.291 17.4261 42.3083 17.441C42.2734 17.3799 42.2655 17.3709 42.2848 17.4136C42.2703 17.594 42.5598 17.7948 42.6895 17.8611C42.8827 17.9598 43.0981 18.0075 43.301 18.0813C44.0644 18.3586 44.8212 18.6276 45.5679 18.9491C45.9346 19.107 46.3277 19.2228 46.6845 19.3998C46.9742 19.5435 47.2236 19.7351 47.4613 19.9522C47.9872 20.433 48.5727 21.1496 49.3256 21.2285C49.4623 21.2428 49.5918 21.2194 49.7088 21.2979C49.836 21.3831 49.9342 21.5275 50.0348 21.641C50.2795 21.9165 50.5866 22.136 50.9031 22.3218C51.5603 22.7074 52.2558 22.9939 52.8824 23.4348C53.5712 23.9195 54.2228 24.3972 55.0093 24.7161C55.7745 25.0265 56.5754 25.2149 57.308 25.6042C57.6639 25.7934 58.0101 26.0006 58.3668 26.1881C58.7317 26.3799 59.1135 26.537 59.482 26.7216C60.2049 27.0835 60.9567 27.4869 61.5831 28.0024C62.1905 28.5024 62.7173 29.1026 63.3856 29.5269C63.7147 29.7359 64.094 29.8478 64.4206 30.0601C64.5798 30.1636 64.7201 30.2918 64.8831 30.3901C65.0581 30.4957 65.2445 30.5801 65.4286 30.668C66.0974 30.9876 66.616 31.4718 67.202 31.9134C67.4973 32.136 67.8079 32.3225 68.1525 32.4589C68.5143 32.6023 68.8442 32.7891 69.1936 32.9597C69.3659 33.0439 69.5421 33.112 69.7028 33.2186C69.841 33.3103 69.9694 33.4153 70.1165 33.4932C70.4106 33.6489 70.7323 33.7305 71.047 33.8318C71.3392 33.9257 71.581 34.0513 71.7799 34.2903C71.9279 34.4679 72.232 34.4431 72.3849 34.2903C72.5607 34.1145 72.5333 33.8634 72.3849 33.6853C72.1481 33.401 71.8388 33.2174 71.4975 33.0849C71.2213 32.9778 70.9255 32.9226 70.6534 32.8057C70.3362 32.6695 70.0794 32.4284 69.7628 32.2854C69.3854 32.1148 69.0359 31.8915 68.6509 31.7362C68.3232 31.6039 68.0279 31.4614 67.7394 31.2528C67.466 31.0552 67.2143 30.829 66.9495 30.6204C66.6473 30.3826 66.3383 30.1641 65.9929 29.9932C65.6209 29.8091 65.2848 29.6306 64.9479 29.3875C64.6304 29.1582 64.2547 29.0438 63.9179 28.8489C63.5911 28.6598 63.3069 28.409 63.0294 28.1554C62.4253 27.6033 61.8305 27.0915 61.1311 26.661C60.4111 26.2179 59.6494 25.8848 58.8993 25.5013C58.17 25.1283 57.4858 24.6785 56.7088 24.4047C55.9225 24.1277 55.1233 23.9098 54.4108 23.4622C53.7447 23.0436 53.1483 22.5247 52.4486 22.1586C51.8257 21.8324 51.1177 21.5736 50.64 21.0358C50.3922 20.7569 50.1361 20.4701 49.7484 20.4058C49.587 20.3791 49.4152 20.4077 49.2659 20.3379C49.1016 20.2611 48.9521 20.1466 48.8136 20.0308C48.2815 19.5849 47.8237 19.0406 47.2053 18.7065C46.8563 18.5179 46.4708 18.4082 46.1058 18.2553C45.7171 18.0924 45.335 17.9144 44.943 17.7594C44.5605 17.6083 44.1649 17.4949 43.7801 17.3498C43.6042 17.2834 43.4288 17.2191 43.2493 17.1631C43.2113 17.1513 43.1735 17.1356 43.1349 17.1264C43.1119 17.1211 42.9942 17.0897 43.0794 17.1246C43.1143 17.1388 43.103 17.1773 43.082 17.1127C43.0526 17.0225 43.0112 16.9489 42.949 16.8777C42.7066 16.6004 42.3379 16.4563 42.034 16.2603C41.7243 16.0606 41.4838 15.7572 41.1973 15.525C40.8784 15.2667 40.5454 15.0564 40.1731 14.8841C39.8251 14.7229 39.4704 14.5766 39.1551 14.3549C38.8177 14.1176 38.5154 13.9196 38.1039 13.8332C37.7516 13.7593 37.4971 13.6205 37.2321 13.3779C36.9655 13.1341 36.7216 12.8612 36.4221 12.6554C36.1136 12.4432 35.7591 12.3404 35.4736 12.0906C35.1615 11.8175 34.8261 11.6363 34.4682 11.4327C34.1181 11.2335 33.7766 11.019 33.4459 10.789C33.1194 10.5621 32.8058 10.3199 32.5014 10.0644C32.3246 9.91607 32.0699 9.89109 31.8964 10.0644C31.7439 10.2181 31.7188 10.5212 31.8966 10.6704Z" fill="#1E4798"/>
<path d="M33.087 47.7597C33.5153 47.6733 33.6467 47.3088 33.5931 46.9186C33.5455 46.5723 33.0902 46.5451 32.8783 46.7298C32.6211 46.9538 32.4902 47.2953 32.3961 47.6144C32.2953 47.9563 32.2166 48.3062 32.1449 48.6549C32.0594 49.0708 31.9702 49.4813 31.7818 49.8646C31.5909 50.2531 31.3579 50.6184 31.1409 50.9924C30.7097 51.7357 30.4346 52.5558 30.0021 53.2975C29.6113 53.9677 29.0886 54.5563 28.5837 55.1413C28.0712 55.735 27.5543 56.3295 27.1151 56.9806C26.6557 57.6615 26.3761 58.4125 26.0391 59.1561C25.7013 59.9011 25.233 60.5661 24.8113 61.2642C24.6039 61.6074 24.3938 61.9495 24.1572 62.2735C23.9269 62.5889 23.6459 62.8618 23.4134 63.1761C23.191 63.4765 23.0147 63.8028 22.7552 64.0742C22.4706 64.3715 22.2355 64.6657 22.022 65.0185C21.5696 65.766 21.115 66.5151 20.7471 67.309C20.3576 68.1501 19.977 68.9955 19.5955 69.8402C19.2314 70.6466 18.9155 71.5018 18.4419 72.2513C18.2142 72.6119 17.9605 72.9552 17.7336 73.3163C17.5123 73.6686 17.3356 74.0426 17.1636 74.4205C16.8131 75.1913 16.4774 75.9604 16.0245 76.6782C15.5714 77.396 15.3666 78.2376 14.9902 78.994C14.5833 79.8115 14.1232 80.6006 13.6628 81.3889C13.2155 82.1546 12.7746 82.9249 12.4043 83.7312C12.0442 84.5156 11.6192 85.3906 11.6176 86.2697C11.6173 86.4498 11.6387 86.636 11.6096 86.8148C11.5732 87.0372 11.4743 87.2561 11.4068 87.471C11.2751 87.8907 11.1574 88.315 11.0588 88.7438C10.9635 89.1589 10.905 89.5763 10.7541 89.9764C10.6316 90.3013 10.5134 90.6019 10.4759 90.9487C10.4605 91.0916 10.4617 91.1166 10.43 91.2428C10.4278 91.2521 10.4051 91.3234 10.4287 91.2617C10.4155 91.2961 10.4056 91.2832 10.4196 91.2865C10.4408 91.2914 10.3975 91.2822 10.4131 91.2911C10.3927 91.2793 10.5387 91.2502 10.4013 91.2709C10.1727 91.3055 10.0466 91.5934 10.1026 91.797C10.1698 92.0415 10.3994 92.1303 10.6287 92.0958C10.9541 92.0467 11.1704 91.7717 11.2549 91.4701C11.2941 91.3301 11.3071 91.1821 11.3223 91.038C11.3242 91.0201 11.3442 90.856 11.3309 90.9383C11.343 90.864 11.3632 90.7942 11.3863 90.7224C11.5097 90.3394 11.6809 89.9808 11.7571 89.5832C11.8426 89.1352 11.9444 88.6914 12.0673 88.2522C12.1843 87.8335 12.3736 87.4131 12.4444 86.9849C12.5128 86.5715 12.4336 86.1561 12.538 85.747C12.75 84.9151 13.15 84.103 13.5458 83.3454C14.385 81.7393 15.4533 80.2396 16.1182 78.5462C16.2674 78.1662 16.3992 77.7784 16.5879 77.4155C16.7812 77.0435 17.0245 76.7008 17.2169 76.3271C17.607 75.5686 17.8934 74.7554 18.3141 74.013C18.7325 73.2747 19.2736 72.6269 19.6242 71.8482C20.0029 71.0073 20.3815 70.1663 20.7625 69.3266C21.1415 68.4914 21.502 67.644 21.9452 66.8402C22.1587 66.453 22.3849 66.0731 22.6132 65.6946C22.8188 65.3538 23.0077 65.0416 23.2863 64.7555C23.578 64.4557 23.7949 64.1219 24.0307 63.7792C24.2439 63.4695 24.5106 63.2067 24.7408 62.9104C25.239 62.2691 25.6158 61.5499 26.0584 60.8715C26.5274 60.1529 26.8602 59.3972 27.1986 58.611C27.504 57.9013 27.9277 57.2619 28.4129 56.6628C28.9019 56.0592 29.4299 55.4884 29.916 54.8824C30.1687 54.5672 30.4189 54.2457 30.6353 53.904C30.8733 53.5283 31.0603 53.1238 31.2419 52.7188C31.4174 52.3272 31.5909 51.935 31.8019 51.5608C32.014 51.1844 32.2491 50.821 32.4491 50.4377C32.8396 49.6897 32.9529 48.8819 33.1587 48.074C33.2235 47.8194 33.2851 47.5078 33.4836 47.335C33.2453 47.2721 33.0069 47.2091 32.7687 47.1463C32.7532 47.0806 32.7778 47.0315 32.8425 46.999C32.9381 46.9285 32.944 46.9071 32.8601 46.935C32.6336 46.9807 32.5032 47.2496 32.5614 47.4611C32.6257 47.6969 32.8598 47.8056 33.087 47.7597Z" fill="#1E4798"/>
<path d="M53.5364 83.7455C53.5364 83.5069 53.5368 83.2684 53.5357 83.0297C53.2505 83.0297 52.9655 83.0297 52.6802 83.0297C52.7326 83.4602 52.5047 83.8734 52.3319 84.2535C52.105 84.7525 51.8331 85.2278 51.5929 85.7202C51.1087 86.7129 50.5701 87.6896 49.987 88.6284C49.6946 89.0992 49.3079 89.4514 48.9125 89.8334C48.5133 90.2191 48.2294 90.6314 47.9767 91.123C47.7194 91.6236 47.4427 92.1085 47.2121 92.623C46.9854 93.1286 46.7653 93.6373 46.5412 94.1441C46.3018 94.6849 46.0656 95.2278 45.8532 95.78C45.6493 96.3104 45.4898 96.8538 45.306 97.391C45.1136 97.9535 44.8764 98.503 44.7026 99.0714C44.5421 99.5963 44.4483 100.138 44.3128 100.669C44.2469 100.928 44.1787 101.194 44.062 101.435C43.9415 101.683 43.817 101.926 43.7453 102.194C43.6069 102.712 43.5134 103.249 43.4019 103.774C43.283 104.332 43.157 104.887 42.923 105.41C42.7086 105.89 42.4531 106.349 42.1958 106.806C41.6858 107.713 41.2238 108.613 40.9314 109.614C40.8198 109.996 40.6999 110.407 40.5404 110.746C40.4985 110.835 40.4537 110.923 40.4039 111.008C40.3671 111.07 40.2968 111.176 40.2904 111.184C40.2684 111.212 40.2448 111.238 40.2201 111.264C40.2083 111.276 40.1161 111.362 40.1436 111.34C40.1885 111.304 40.0879 111.376 40.0918 111.374C40.0702 111.387 40.048 111.399 40.0252 111.409C40.0702 111.391 40.0695 111.39 40.0232 111.406C39.5018 111.576 39.7248 112.402 40.2506 112.231C40.9996 111.988 41.3287 111.154 41.5607 110.472C41.6745 110.137 41.7657 109.796 41.8688 109.458C42.0001 109.029 42.1871 108.623 42.3927 108.224C42.9038 107.235 43.5317 106.299 43.9058 105.243C44.103 104.687 44.197 104.101 44.3299 103.528C44.449 103.015 44.501 102.468 44.7375 101.992C44.9958 101.472 45.1367 100.926 45.2633 100.362C45.3911 99.7929 45.537 99.2423 45.7403 98.695C46.1535 97.5822 46.4832 96.4406 46.9445 95.3459C47.3851 94.3007 47.82 93.2304 48.349 92.2266C48.4794 91.9792 48.6209 91.7383 48.7486 91.4893C48.8646 91.2628 48.9789 91.028 49.14 90.8292C49.4957 90.3904 49.9709 90.0629 50.3264 89.6228C50.7193 89.1365 50.9915 88.5786 51.3091 88.0441C51.6353 87.495 51.9538 86.9439 52.2289 86.367C52.5071 85.7835 52.8258 85.2211 53.094 84.6329C53.319 84.1396 53.6035 83.5893 53.5354 83.0295C53.5075 82.8002 53.3588 82.6017 53.1076 82.6017C52.8763 82.6017 52.679 82.7975 52.6799 83.0295C52.6809 83.2682 52.6806 83.5067 52.6806 83.7454C52.6808 84.2961 53.5362 84.297 53.5364 83.7455Z" fill="#1E4798"/>
<path d="M48.9339 71.2699C49.2111 71.5508 49.512 71.8201 49.8773 71.9791C50.2649 72.1474 50.6541 72.157 51.0692 72.1726C51.5209 72.1895 51.9704 72.2537 52.4217 72.1955C52.8726 72.1375 53.2131 71.9216 53.5566 71.636C53.6841 71.5301 53.8061 71.4163 53.9418 71.3205C54.0063 71.275 54.1103 71.1908 54.1896 71.1747C54.2412 71.1643 54.3271 71.1924 54.3877 71.1886C54.6442 71.173 54.8421 71.0259 55.0367 70.8734C55.2043 70.7422 55.3857 70.6539 55.5861 70.5822C56.047 70.4171 56.5209 70.3043 56.9514 70.0629C57.1455 69.9543 57.3306 69.8302 57.5279 69.7272C57.7269 69.6234 57.9404 69.5602 58.1503 69.4827C58.5411 69.3383 58.8999 69.1357 59.1685 68.8103C59.3778 68.5569 59.5427 68.2753 59.714 67.9961C59.8712 67.7397 60.0221 67.4937 60.2323 67.3289C60.3298 67.2524 60.4099 67.2136 60.538 67.1844C60.5871 67.1732 60.62 67.1731 60.7007 67.1705C60.7521 67.169 60.8681 67.1915 60.9156 67.1693C60.7827 67.2314 60.6562 67.0021 60.5991 66.9296C60.6078 66.9405 60.6188 67.0447 60.6032 66.9409C60.614 67.0131 60.6236 67.0867 60.6311 67.159C60.6538 67.3804 60.6449 67.6061 60.5976 67.8238C60.4945 68.2965 60.2321 68.6993 59.9943 69.1132C59.7648 69.5125 59.6031 69.9606 59.3189 70.3268C59.019 70.7133 58.7589 71.0982 58.5312 71.5327C58.3047 71.9647 58.0685 72.3823 57.81 72.7961C57.5648 73.1884 57.405 73.6064 57.1971 74.0162C57.0031 74.3986 56.7399 74.7298 56.4631 75.0546C56.1432 75.43 55.8287 75.8088 55.5375 76.2074C55.2386 76.6165 54.9641 77.045 54.7364 77.4979C54.5032 77.9617 54.2576 78.4398 54.0711 78.9242C53.9043 79.3575 53.8361 79.8199 53.6983 80.2622C53.5628 80.6974 53.3775 81.1151 53.2062 81.5367C52.8779 82.3446 52.5786 83.2216 52.7877 84.1002C52.8974 84.5614 53.1568 84.9328 53.4533 85.2925C53.7212 85.6174 54.0066 85.931 54.3381 86.1926C54.7075 86.4842 55.1277 86.7088 55.6098 86.7158C56.1029 86.723 56.5209 86.478 56.7713 86.0612C56.8544 85.923 56.9244 85.7875 57.0301 85.6649C57.1949 85.4738 57.378 85.2997 57.5599 85.1253C57.9123 84.7872 58.1981 84.4004 58.5281 84.0426C58.8267 83.7187 59.185 83.4603 59.4777 83.1286C59.7658 82.8021 60.0174 82.4447 60.2653 82.0873C60.8598 81.2307 61.4276 80.3573 62.0023 79.4874C62.1409 79.2775 62.2723 79.0557 62.4271 78.8573C62.5655 78.6797 62.7385 78.5281 62.9055 78.3782C63.2539 78.0656 63.5464 77.7256 63.8524 77.3725C64.1992 76.9719 64.5582 76.5857 64.8771 76.1619C65.1608 75.7848 65.4568 75.4406 65.7969 75.1129C66.1186 74.8031 66.4261 74.4807 66.6437 74.0868C66.9103 73.6047 66.1716 73.1727 65.9051 73.655C65.699 74.0276 65.3969 74.3089 65.094 74.6022C64.7453 74.9398 64.4528 75.3117 64.1617 75.6991C63.8556 76.1065 63.4994 76.4732 63.168 76.8598C62.8672 77.2106 62.5676 77.5302 62.2256 77.8409C61.8649 78.1686 61.5998 78.5482 61.3319 78.9525C61.0443 79.3866 60.7611 79.8238 60.4745 80.2587C59.971 81.0232 59.4799 81.8352 58.8729 82.5237C58.5803 82.8557 58.2218 83.1139 57.9233 83.4378C57.611 83.7765 57.3431 84.1478 57.0098 84.4681C56.6867 84.7785 56.3425 85.0895 56.1173 85.4819C56.0472 85.604 56.0005 85.7325 55.8783 85.8005C55.7134 85.8922 55.5147 85.8696 55.3422 85.8097C54.9884 85.6868 54.697 85.3941 54.4452 85.1284C54.175 84.8433 53.878 84.5318 53.7117 84.1718C53.3727 83.4383 53.7014 82.5894 53.9791 81.8934C54.1406 81.4888 54.3186 81.0901 54.4612 80.6781C54.6108 80.2461 54.6845 79.7945 54.823 79.3598C54.9679 78.9048 55.2141 78.4641 55.423 78.0353C55.6393 77.5909 55.8985 77.1697 56.1844 76.7669C56.705 76.0334 57.3891 75.407 57.8396 74.6256C58.0716 74.2234 58.2145 73.7811 58.4544 73.3814C58.6982 72.9752 58.9495 72.5808 59.1682 72.1597C59.3776 71.7566 59.5855 71.3463 59.8726 70.9918C60.1799 70.6125 60.3845 70.2019 60.6087 69.7717C60.8321 69.3428 61.1004 68.9448 61.2821 68.4941C61.4592 68.0546 61.5357 67.5635 61.4782 67.0918C61.4365 66.7499 61.3894 66.3555 60.9387 66.3169C60.6155 66.2892 60.2812 66.3366 59.9886 66.4787C59.3901 66.7696 59.0823 67.4104 58.7422 67.9449C58.5767 68.205 58.4323 68.4062 58.1344 68.5644C57.76 68.7634 57.3386 68.8476 56.9665 69.0599C56.7731 69.1701 56.587 69.2932 56.3889 69.3948C56.1765 69.5038 55.9433 69.5681 55.7164 69.6396C55.4896 69.7111 55.2652 69.7866 55.0467 69.881C54.8228 69.9779 54.652 70.1043 54.4573 70.2486C54.4216 70.2751 54.3649 70.3242 54.3316 70.3341C54.2424 70.3603 54.1194 70.3194 54.0215 70.3396C53.8191 70.3813 53.6277 70.4951 53.4622 70.6161C53.1671 70.832 52.896 71.1597 52.5504 71.2974C52.205 71.4351 51.764 71.3607 51.4047 71.3364C51.0405 71.3118 50.6546 71.3522 50.3047 71.2331C50.0219 71.1369 49.7608 70.8893 49.5389 70.6645C49.1514 70.2725 48.5465 70.8775 48.9339 71.2699Z" fill="#1E4798"/>
<path d="M58.0289 88.0303C58.0825 88.0412 58.1358 88.0524 58.1894 88.0633C58.0898 87.9637 57.9902 87.8641 57.8906 87.7646C57.9485 87.9425 57.9514 88.1254 57.9791 88.3094C58.0044 88.477 58.0559 88.6358 58.1175 88.7937C58.2558 89.1479 58.4397 89.4504 58.74 89.6903C59.2822 90.1239 60.1002 90.4188 60.8007 90.3617C61.1311 90.3347 61.4754 90.1962 61.7787 90.1541C62.099 90.1098 62.3854 90.0712 62.6554 89.8756C62.9554 89.6583 63.2358 89.4805 63.5934 89.3724C63.9229 89.2728 64.2624 89.2102 64.593 89.1144C64.9728 89.0042 65.3283 88.8598 65.632 88.6016C65.8856 88.386 66.068 88.1032 66.2788 87.8487C66.5247 87.5521 66.8082 87.2879 67.057 86.9931C67.3104 86.6928 67.5307 86.3662 67.7852 86.0671C68.2706 85.4968 68.8588 85.029 69.4075 84.5233C69.6847 84.2678 69.9588 84.0031 70.1915 83.7058C70.4182 83.4161 70.5944 83.0946 70.8047 82.7936C70.9087 82.6448 71.0299 82.4975 71.1741 82.3859C71.3206 82.2725 71.4896 82.1948 71.6291 82.0702C71.7873 81.9287 71.9025 81.7436 71.9461 81.5352C71.9846 81.3523 71.956 81.1607 71.9932 80.9801C72.0637 80.6374 72.3581 80.2833 72.579 80.0218C72.8618 79.687 73.178 79.3822 73.4879 79.0729C73.2863 78.8712 73.0846 78.6696 72.8829 78.4679C72.7734 78.5774 72.6637 78.6871 72.5542 78.7966C72.1644 79.1863 72.7691 79.7915 73.1592 79.4016C73.2687 79.2921 73.3784 79.1824 73.4879 79.0729C73.8777 78.6831 73.2733 78.0783 72.8829 78.4679C72.367 78.9829 71.8315 79.4959 71.4557 80.1276C71.2622 80.453 71.1426 80.7642 71.1269 81.1446C71.1223 81.2549 71.1348 81.3444 71.0684 81.4247C70.9803 81.5311 70.8191 81.5894 70.7084 81.6714C70.1436 82.0895 69.9071 82.7396 69.4602 83.2551C68.9835 83.805 68.4074 84.2586 67.8746 84.7508C67.6137 84.9921 67.361 85.2431 67.1339 85.5168C66.8982 85.8009 66.6899 86.1058 66.4518 86.3881C66.2098 86.6748 65.9354 86.932 65.6943 87.2186C65.4941 87.4568 65.3229 87.7216 65.0951 87.9357C64.6383 88.365 63.8764 88.3841 63.303 88.5669C62.9395 88.6827 62.5983 88.8473 62.2954 89.0802C62.1945 89.1577 62.0799 89.2381 61.9917 89.2622C61.9589 89.2713 61.866 89.2887 61.867 89.2885C61.8497 89.2911 61.7223 89.3057 61.6692 89.3127C61.3238 89.3585 60.9846 89.5194 60.6354 89.511C60.3126 89.5035 59.9558 89.4052 59.6655 89.2663C59.3604 89.1202 59.1049 88.9299 58.9638 88.6153C58.8986 88.47 58.8384 88.307 58.8137 88.149C58.7817 87.9434 58.7805 87.7368 58.7153 87.537C58.671 87.4006 58.5648 87.2687 58.4166 87.2383C58.3631 87.2273 58.3097 87.2162 58.2561 87.2052C58.0301 87.1587 57.794 87.2709 57.73 87.504C57.672 87.7158 57.8015 87.9836 58.0289 88.0303Z" fill="#1E4798"/>
<path d="M16.3008 37.6489C16.7939 37.9345 17.1611 38.3848 17.6567 38.6707C18.1238 38.9402 18.4606 39.3561 18.9005 39.6621C19.12 39.8147 19.3643 39.9178 19.6068 40.0272C19.8903 40.155 20.1575 40.3103 20.4309 40.4578C20.9348 40.7295 21.4577 40.9739 22.0129 41.1202C22.6054 41.2762 23.2002 41.4179 23.7841 41.6045C24.0668 41.6949 24.3549 41.7863 24.6275 41.9043C24.8715 42.01 25.0522 42.2012 25.2849 42.3252C25.5266 42.4542 25.7906 42.5115 26.0474 42.6003C26.3357 42.7003 26.6086 42.8544 26.8716 43.0076C27.3702 43.2977 27.8507 43.6088 28.2882 43.9859C28.7113 44.3507 29.1106 44.7425 29.5483 45.0903C30.044 45.4842 30.591 45.8019 31.1178 46.1515C32.1986 46.8686 33.2718 47.5911 34.3659 48.288C34.9037 48.6306 35.4218 49.0027 35.9387 49.3757C36.4501 49.7449 36.9844 50.0895 37.4846 50.4733C37.9703 50.8461 38.4063 51.2788 38.8927 51.651C39.3829 52.0259 39.9164 52.3366 40.4223 52.6889C40.912 53.0297 41.304 53.4831 41.7884 53.8298C41.9833 53.9692 42.2016 54.0284 42.4115 54.1346C42.6887 54.275 42.9524 54.4399 43.2333 54.5756C43.7521 54.8262 44.2844 55.0701 44.7654 55.39C45.1832 55.668 45.414 56.0848 45.7641 56.4293C46.1564 56.8154 46.6794 56.9515 47.1186 57.2634C47.5531 57.572 47.8381 58.0542 48.2149 58.4243C48.4021 58.6082 48.6081 58.7795 48.8555 58.8731C49.1094 58.9692 49.3053 59.0447 49.5127 59.229C49.9301 59.6002 50.297 59.9192 50.8175 60.1411C51.3347 60.3616 51.875 60.5134 52.4044 60.7008C52.9819 60.9052 53.4408 61.2264 53.9636 61.5323C54.473 61.8304 55.0231 62.0743 55.553 62.3339C56.132 62.6176 56.7799 62.718 57.3559 63.0022C57.8804 63.2611 58.3262 63.6474 58.8538 63.9065C59.3955 64.1725 59.8958 64.5113 60.4108 64.8239C60.9339 65.1415 61.4896 65.38 62.0317 65.6604C62.5742 65.941 63.1024 66.2497 63.6544 66.5123C64.7838 67.0497 65.995 67.3938 67.1184 67.9468C68.1856 68.4721 69.1259 69.294 70.2665 69.6652C70.7764 69.8311 71.3164 69.8174 71.8214 70.0077C72.3814 70.2185 72.8978 70.4498 73.4813 70.5941C74.031 70.7299 74.3568 71.1306 74.8275 71.4104C75.3676 71.7313 75.9444 71.7257 76.5405 71.8448C76.8244 71.9014 77.0949 72.0094 77.3786 72.0689C77.6747 72.131 77.976 72.1606 78.2782 72.1694C78.829 72.1855 78.8285 71.33 78.2782 71.3139C77.6741 71.2962 77.1419 71.0695 76.5523 70.9843C75.9629 70.8991 75.4592 70.8504 74.9743 70.4724C74.7683 70.3117 74.5696 70.1288 74.34 70.0019C74.0811 69.8585 73.7942 69.7887 73.5083 69.7227C72.9243 69.5877 72.4116 69.2889 71.8433 69.1106C71.3439 68.9539 70.8125 68.9766 70.3219 68.778C69.7756 68.5569 69.2734 68.2211 68.7754 67.9102C67.7202 67.2516 66.6086 66.7727 65.4497 66.3282C64.8688 66.1054 64.2917 65.8847 63.7375 65.6005C63.1934 65.3216 62.6651 65.0128 62.1145 64.7466C61.5813 64.4887 61.0672 64.2269 60.5638 63.9131C60.0329 63.5822 59.4884 63.2991 58.9423 62.9978C58.4384 62.7197 58.0146 62.3448 57.4756 62.125C56.8929 61.8872 56.2906 61.7515 55.7282 61.4608C55.1851 61.18 54.6147 60.9547 54.1057 60.6116C53.6262 60.2886 53.13 60.0494 52.5837 59.8591C52.0593 59.6764 51.5145 59.5357 51.0115 59.2969C50.5276 59.0671 50.2099 58.6563 49.778 58.3531C49.5619 58.2013 49.3157 58.1649 49.0907 58.045C48.8675 57.926 48.6875 57.6875 48.5244 57.4991C48.1636 57.0817 47.8248 56.6676 47.3356 56.3926C46.8753 56.1339 46.4693 55.9741 46.1304 55.5539C45.7925 55.1351 45.4528 54.7983 44.9866 54.5195C44.4983 54.2274 43.9781 53.995 43.4696 53.7415C43.2166 53.6154 42.9792 53.453 42.7219 53.3378C42.4764 53.228 42.275 53.1436 42.0669 52.9662C41.6036 52.571 41.1764 52.1648 40.668 51.8236C40.171 51.4901 39.6529 51.1858 39.1913 50.8025C38.7071 50.4004 38.2501 49.9667 37.7352 49.6022C37.233 49.2467 36.7285 48.8949 36.2292 48.5353C35.184 47.7826 34.0824 47.123 33.0153 46.4034C32.4773 46.0406 31.9435 45.6719 31.4016 45.3152C30.8974 44.9832 30.378 44.6818 29.916 44.2905C29.4906 43.9301 29.0932 43.5376 28.6603 43.1858C28.2077 42.8181 27.716 42.5021 27.209 42.2147C26.9529 42.0696 26.6884 41.9356 26.4145 41.8271C26.1547 41.7243 25.8678 41.6846 25.6286 41.5352C25.4341 41.4138 25.2732 41.261 25.0624 41.1648C24.7575 41.0257 24.4345 40.9179 24.1164 40.8136C23.5526 40.6284 22.9781 40.4801 22.4029 40.336C21.8206 40.1902 21.2964 39.9558 20.7707 39.6692C20.3069 39.4164 19.7578 39.2346 19.3316 38.9231C19.1196 38.7681 18.9379 38.5725 18.7407 38.3999C18.5086 38.1968 18.2626 38.0394 17.9989 37.8821C17.5397 37.6082 17.1979 37.1796 16.7319 36.9098C16.2551 36.6338 15.8239 37.3727 16.3008 37.6489Z" fill="#1E4798"/>
<path d="M74.1896 44.2316C74.5361 44.4077 74.8811 44.581 75.1969 44.8092C75.5271 45.0481 75.8389 45.3118 76.1583 45.5645C76.4947 45.8305 76.8398 46.0819 77.1936 46.324C77.5148 46.5437 77.8495 46.7481 78.1249 47.0253C78.3848 47.2869 78.6244 47.5583 78.9104 47.7929C79.2135 48.0413 79.5293 48.2743 79.8248 48.532C80.098 48.7702 80.3468 49.0222 80.5381 49.3314C80.7506 49.6751 80.947 50.0156 81.1956 50.3356C81.6449 50.9139 82.1529 51.4474 82.5725 52.0488C82.7884 52.3583 82.9776 52.6837 83.1284 53.03C83.2789 53.376 83.4059 53.7345 83.6136 54.052C84.0655 54.7427 84.6067 55.3676 85.1468 55.9878C85.5758 56.4804 85.8653 57.1436 85.9597 57.7883C86.0129 58.151 86.0034 58.541 85.9874 58.9068C85.972 59.2637 85.9098 59.6184 85.7212 59.9272C85.3963 60.4593 84.6748 60.6696 84.0857 60.6655C83.5351 60.6616 83.5346 61.5171 84.0857 61.521C84.7593 61.5258 85.4837 61.309 86.0119 60.8849C86.633 60.3861 86.8277 59.5655 86.8462 58.8058C86.8652 58.0294 86.793 57.2925 86.4871 56.5721C86.3322 56.2077 86.1373 55.8705 85.8939 55.5579C85.6381 55.2293 85.3371 54.9395 85.0808 54.6101C84.8312 54.2893 84.5745 53.961 84.3524 53.6205C84.1242 53.2708 83.9941 52.8726 83.8213 52.4954C83.4832 51.7571 82.9571 51.1261 82.4387 50.5089C82.1933 50.2168 81.9399 49.9282 81.7177 49.6178C81.4824 49.2891 81.3135 48.9189 81.0692 48.596C80.5657 47.9304 79.8393 47.5164 79.2407 46.9512C78.9012 46.6309 78.6158 46.2798 78.2334 46.0054C77.8234 45.7113 77.3967 45.4411 76.9931 45.1379C76.5958 44.8394 76.2173 44.5163 75.8219 44.2152C75.4443 43.9277 75.0433 43.7075 74.6213 43.4931C74.1316 43.244 73.6982 43.982 74.1896 44.2316Z" fill="#1E4798"/>
<path d="M69.258 32.8519C69.8179 33.0012 70.209 32.5529 70.4674 32.1209C70.5808 31.9313 70.6764 31.7313 70.7923 31.5431C70.8147 31.5067 70.8378 31.4706 70.8629 31.4358C70.8925 31.3949 70.8472 31.4577 70.8451 31.46C70.8691 31.4345 70.8936 31.4097 70.9182 31.3847C71.0498 31.2521 71.1884 31.1265 71.3261 31.0007C71.9003 30.4767 72.3601 29.8932 72.8136 29.2641C73.0306 28.9631 73.2029 28.6674 73.3644 28.334C73.5174 28.0181 73.7232 27.77 73.9554 27.51C74.2042 27.2312 74.4533 26.9513 74.6632 26.6415C74.8595 26.3521 75.0319 26.056 75.258 25.787C75.7182 25.2395 76.2348 24.7455 76.6729 24.1785C77.1175 23.6033 77.5053 22.9868 77.9507 22.4124C78.3898 21.8461 78.9162 21.3571 79.3536 20.7883C79.7917 20.2186 80.1004 19.5913 80.4655 18.9767C80.8358 18.3534 81.2931 17.8511 81.7922 17.3313C82.0484 17.0645 82.2833 16.7795 82.5054 16.4838C82.6125 16.3411 82.7165 16.196 82.8187 16.0499C82.901 15.9322 82.9776 15.7635 83.0844 15.6665C83.1947 15.566 83.3573 15.6042 83.4834 15.5354C83.6362 15.4521 83.7804 15.3096 83.8918 15.1768C84.099 14.9295 84.2513 14.6207 84.5071 14.4174C84.782 14.199 85.0881 14.0231 85.361 13.7979C85.6427 13.5655 85.9108 13.3173 86.1765 13.067C86.7351 12.541 87.3073 12.0441 87.9 11.5568C89.0718 10.5935 90.2548 9.64686 91.2417 8.48732C91.4812 8.20586 91.7062 7.91362 91.9644 7.64825C92.2132 7.39245 92.4794 7.15446 92.7388 6.90979C93.0086 6.65519 93.2615 6.38417 93.5491 6.14873C93.8253 5.92271 94.1263 5.72749 94.4236 5.53107C95.062 5.10914 95.6677 4.64477 96.2896 4.19992C96.9482 3.72888 97.6148 3.2693 98.2737 2.79912C98.5945 2.57019 98.9131 2.33853 99.2284 2.10224C99.019 1.94124 98.8096 1.78023 98.6 1.61922C98.5937 1.65824 98.5873 1.69707 98.581 1.73609C98.544 1.96382 98.64 2.19634 98.8797 2.26222C99.0839 2.31834 99.3687 2.19275 99.4059 1.96348C99.4122 1.92447 99.4185 1.88563 99.4249 1.84662C99.4529 1.67364 99.4204 1.50818 99.2716 1.39697C99.1465 1.30355 98.9335 1.26094 98.7964 1.3636C97.6352 2.23364 96.4257 3.0361 95.2574 3.89622C94.7112 4.2983 94.1528 4.67437 93.5945 5.05849C93.0369 5.4421 92.5705 5.89551 92.0791 6.35628C91.5895 6.81534 91.1409 7.28261 90.7092 7.79659C90.2909 8.29483 89.8426 8.76741 89.3635 9.20748C88.3226 10.1637 87.1625 10.9843 86.1243 11.9427C85.5898 12.4361 85.0804 12.9751 84.4891 13.4023C84.2003 13.6109 83.8973 13.7746 83.6685 14.0559C83.4692 14.3011 83.3154 14.6127 83.0514 14.7968C83.1234 14.7773 83.1952 14.7578 83.2673 14.7384C82.8264 14.774 82.5201 14.9687 82.2751 15.3333C82.0561 15.6595 81.8309 15.984 81.5799 16.2865C81.0765 16.8934 80.4898 17.4055 80.0381 18.0583C79.6034 18.6867 79.3024 19.3925 78.864 20.0186C78.4267 20.6429 77.864 21.1545 77.3916 21.749C76.9009 22.3665 76.4829 23.0367 76.0005 23.6602C75.5331 24.2645 74.963 24.779 74.4919 25.3799C74.2385 25.7032 74.0461 26.0659 73.7951 26.3891C73.5666 26.6834 73.3016 26.9479 73.0633 27.2341C72.7979 27.5529 72.641 27.8972 72.4519 28.2613C72.2701 28.6117 72.0096 28.9272 71.7763 29.2446C71.516 29.5984 71.233 29.9225 70.9108 30.2215C70.6297 30.4826 70.3094 30.7263 70.0937 31.0474C69.9431 31.2716 69.8336 31.5216 69.6907 31.7507C69.6115 31.8776 69.597 31.8973 69.5018 31.9975C69.4933 32.0066 69.429 32.0556 69.4714 32.0261C69.5145 31.9962 69.4325 32.0461 69.4228 32.0501C69.509 32.0145 69.4461 32.0376 69.4284 32.0388C69.4555 32.0371 69.5692 32.0497 69.4847 32.0272C68.9529 31.8848 68.7257 32.7098 69.258 32.8519Z" fill="#1E4798"/>
<path d="M54.1171 19.0804C54.1173 18.6008 54.3788 18.1725 54.5102 17.721C54.657 17.2163 54.7672 16.697 54.9701 16.2102C55.3455 15.309 56.0122 14.5724 56.6576 13.8572C56.9803 13.4996 57.3045 13.1607 57.6575 12.8327C58.0502 12.4677 58.3046 12.0405 58.5575 11.5741C58.6735 11.3602 58.7976 11.152 58.9043 10.9332C59.02 10.696 59.1249 10.4363 59.2862 10.2255C59.4096 10.0645 59.5759 9.93856 59.7169 9.79415C59.884 9.62288 60.0153 9.41928 60.167 9.23466C60.7154 8.56754 61.3671 8.02499 62.1208 7.60426C62.4976 7.39398 62.8947 7.18455 63.303 7.04254C63.6523 6.92088 63.8869 6.96914 64.2722 7.10003C64.6397 7.22476 65.0511 7.35736 65.3483 7.6176C65.6662 7.89598 65.7806 8.33656 65.821 8.74292C65.8441 8.97579 65.8472 9.20951 65.8467 9.4434C65.8462 9.69765 65.867 9.96303 65.8308 10.2152C65.768 10.6527 65.5929 11.0735 65.3864 11.4601C65.2482 11.719 65.0981 11.9722 64.9751 12.239C64.8569 12.4955 64.7821 12.7608 64.6998 13.0298C64.5388 13.5565 64.1519 13.9378 63.9038 14.4207C63.6335 14.947 63.4106 15.5042 63.1801 16.0487C63.0815 16.2817 63.0242 16.5274 62.9325 16.7625C62.8126 17.0701 62.7178 17.3068 62.7636 17.6454C62.7946 17.8745 63.0886 17.9994 63.2898 17.9441C63.537 17.8762 63.6196 17.6478 63.5885 17.418C63.5822 17.3711 63.6516 17.2428 63.6712 17.1944C63.717 17.0806 63.7677 16.9697 63.8065 16.8534C63.8857 16.6166 63.9612 16.3869 64.0623 16.1582C64.2837 15.657 64.4717 15.135 64.7462 14.6592C64.8651 14.453 65.0158 14.2689 65.1496 14.0727C65.3069 13.8422 65.4182 13.592 65.5031 13.3265C65.5808 13.0837 65.6354 12.8327 65.7464 12.6021C65.8628 12.3603 65.9986 12.1285 66.1249 11.8918C66.3663 11.4396 66.5675 10.9556 66.6544 10.4476C66.7427 9.93155 66.7254 9.36418 66.6849 8.84319C66.6459 8.34323 66.5497 7.81642 66.2703 7.38953C65.98 6.9457 65.5387 6.68357 65.0595 6.48527C64.6396 6.31143 64.1916 6.13229 63.7326 6.11176C63.2968 6.09226 62.8957 6.27875 62.5094 6.45549C61.6392 6.85347 60.8198 7.34607 60.1282 8.01387C59.7928 8.33776 59.5162 8.6998 59.2262 9.0627C59.0694 9.25878 58.8624 9.40764 58.6988 9.59773C58.5165 9.80973 58.3842 10.0527 58.2617 10.3023C58.0271 10.7799 57.7828 11.2661 57.4979 11.7159C57.2325 12.1348 56.8089 12.4121 56.4797 12.7757C55.6983 13.6384 54.8486 14.5049 54.3312 15.5607C54.0523 16.13 53.8961 16.7363 53.7274 17.3441C53.5654 17.9272 53.2618 18.462 53.2615 19.0807C53.2615 19.6308 54.117 19.6318 54.1171 19.0804Z" fill="#1E4798"/>
<path d="M76.6883 86.0689C76.6825 86.9897 76.561 87.933 76.7032 88.8482C76.8067 89.5143 77.2081 89.9308 77.8873 89.9854C78.5705 90.0403 79.3449 90.1315 80.0114 89.9284C80.3968 89.8108 80.7485 89.5824 81.0995 89.3901C81.5061 89.1677 81.9283 89.0157 82.3482 88.8256C83.1195 88.4766 83.8732 87.9135 84.4113 87.2582C84.6493 86.9685 84.8617 86.6592 85.0827 86.3567C85.3543 85.9851 85.6715 85.6632 85.9805 85.3234C86.5768 84.6679 87.1371 83.9767 87.7734 83.3585C88.3815 82.7675 89.1085 82.3437 89.7438 81.7863C90.0095 81.5531 90.3345 81.3881 90.5856 81.1387C90.8816 80.8447 91.0808 80.4389 91.2823 80.0782C91.6747 79.3758 92.0254 78.6447 92.4908 77.9858C92.7175 77.665 93.005 77.3935 93.2221 77.0663C93.4598 76.708 93.6341 76.3599 93.9382 76.0478C94.2066 75.7723 94.4345 75.4707 94.654 75.1553C94.9268 74.7633 95.2255 74.4146 95.5294 74.0481C96.0502 73.42 96.2259 72.6106 96.8203 72.0227C97.0992 71.7467 97.3081 71.4758 97.4411 71.1035C97.5749 70.7285 97.6977 70.4369 97.92 70.1046C98.1225 69.8018 98.2096 69.4882 98.315 69.1436C98.442 68.7283 98.6237 68.3355 98.8297 67.9539C99.2332 67.2073 99.7232 66.5129 100.18 65.7989C100.388 65.4735 100.603 65.1477 100.746 64.7872C100.889 64.424 100.91 64.0419 101.02 63.671C101.27 62.8213 101.855 61.9778 102.359 61.259C102.857 60.5503 103.503 59.9568 103.972 59.2281C104.189 58.8912 104.365 58.525 104.618 58.2131C104.893 57.875 105.19 57.5691 105.435 57.2057C105.92 56.4874 106.338 55.7363 106.849 55.0339C107.389 54.2917 107.953 53.5676 108.489 52.8231C109.003 52.1105 109.429 51.3477 109.921 50.6233C110.39 49.9333 110.975 49.3226 111.475 48.6541C112.059 47.8736 112.637 47.0903 113.176 46.2775C113.612 45.6192 114.214 45.0679 114.562 44.3515C114.727 44.0113 114.805 43.6426 114.951 43.2963C115.122 42.8913 115.299 42.487 115.47 42.081C115.637 41.6863 115.916 41.3993 116.191 41.0799C116.482 40.7427 116.734 40.3703 116.973 39.9955C117.196 39.6457 117.381 39.2765 117.617 38.9345C117.882 38.5485 118.178 38.1846 118.439 37.7956C118.663 37.4622 118.843 37.1167 118.996 36.7458C119.181 36.2973 119.425 35.911 119.667 35.493C119.868 35.1443 120.003 34.7833 120.119 34.3993C120.236 34.0138 120.409 33.718 120.619 33.3779C121.084 32.6274 121.394 31.7954 121.857 31.0415C122.766 29.5581 123.516 27.9289 124.134 26.3007C124.462 25.4395 124.753 24.5533 125.004 23.667C125.258 22.773 125.395 21.8554 125.625 20.9561C125.856 20.0569 125.891 19.1121 126.072 18.2012C126.253 17.2932 126.412 16.3786 126.668 15.4877C126.935 14.5588 127.292 13.6573 127.583 12.7356C127.709 12.338 127.886 11.9771 128.042 11.592C128.201 11.1976 128.241 10.7709 128.389 10.3743C128.694 9.56086 129.315 8.79382 129.887 8.15322C130.252 7.74344 129.649 7.13621 129.282 7.54822C128.704 8.19583 128.179 8.90657 127.775 9.67618C127.598 10.0134 127.497 10.3604 127.409 10.7296C127.305 11.1678 127.114 11.5413 126.945 11.9549C126.606 12.7849 126.363 13.6755 126.076 14.5262C125.788 15.3823 125.584 16.2541 125.41 17.1399C125.232 18.0452 125.069 18.9398 124.957 19.8557C124.903 20.3043 124.797 20.7285 124.678 21.1631C124.559 21.6013 124.51 22.0511 124.416 22.4949C124.045 24.249 123.397 25.9759 122.645 27.5992C122.28 28.3884 121.968 29.2058 121.522 29.954C121.081 30.693 120.667 31.4193 120.288 32.1927C119.948 32.8878 119.501 33.4822 119.277 34.2303C119.16 34.6216 118.996 34.9547 118.782 35.3024C118.535 35.7043 118.35 36.1055 118.162 36.5369C117.827 37.3065 117.259 37.9264 116.799 38.6191C116.31 39.3557 115.907 40.1012 115.322 40.7728C114.778 41.3971 114.514 42.1652 114.187 42.9153C114.036 43.2621 113.963 43.6387 113.794 43.9776C113.61 44.347 113.347 44.6646 113.087 44.982C112.541 45.6489 112.088 46.3812 111.583 47.079C111.063 47.7966 110.536 48.5075 109.967 49.1869C109.424 49.8349 108.999 50.5196 108.546 51.2292C108.079 51.9594 107.563 52.656 107.043 53.3489C106.513 54.0561 105.963 54.7555 105.484 55.4991C105.026 56.2095 104.625 56.9028 104.068 57.5419C103.518 58.1718 103.177 58.9426 102.622 59.575C102.054 60.2232 101.537 60.9002 101.092 61.6402C100.66 62.3597 100.249 63.0915 100.098 63.9227C99.9542 64.7066 99.4604 65.3419 99.0313 65.9952C98.5919 66.6638 98.1489 67.3375 97.8178 68.0682C97.6551 68.4275 97.5311 68.792 97.4195 69.1694C97.3144 69.5246 97.0794 69.7587 96.9076 70.078C96.7332 70.402 96.7052 70.7995 96.5039 71.1063C96.2855 71.4392 95.9392 71.6817 95.7097 72.0155C95.4922 72.3319 95.3275 72.6754 95.1666 73.0226C94.9793 73.4272 94.6675 73.7071 94.3957 74.0528C94.1483 74.3674 93.9399 74.7096 93.6974 75.0277C93.4481 75.3545 93.1234 75.6146 92.8888 75.9533C92.6813 76.2531 92.5384 76.5835 92.3028 76.8648C92.0417 77.1765 91.7893 77.4845 91.5686 77.8277C91.132 78.5066 90.7858 79.2379 90.3791 79.9345C90.1832 80.27 90.0063 80.5357 89.6846 80.7588C89.3599 80.984 89.0813 81.2538 88.7747 81.5009C88.4548 81.7587 88.0917 81.9605 87.7698 82.2188C87.4538 82.4724 87.1601 82.7523 86.8798 83.0447C86.2555 83.6956 85.685 84.3955 85.0665 85.0519C84.5072 85.6456 84.1088 86.3709 83.5404 86.953C82.9012 87.6076 82.1468 87.9573 81.3274 88.3178C80.5873 88.6434 79.9782 89.1689 79.1412 89.1836C78.7942 89.1897 78.4484 89.1605 78.1021 89.1408C77.7604 89.1213 77.6113 89.0956 77.5455 88.7315C77.3896 87.8701 77.5379 86.9384 77.5434 86.0689C77.5472 85.5183 76.6917 85.5176 76.6883 86.0689Z" fill="#1E4798"/>
<path d="M129.584 8.27884C130.134 8.27884 130.135 7.42334 129.584 7.42334C129.033 7.42334 129.033 8.27884 129.584 8.27884Z" fill="#1E4798"/>
<path d="M70.2027 91.9807C70.1861 91.8396 70.1668 91.701 70.1332 91.5627C69.8727 91.6726 69.6121 91.7824 69.3515 91.8923C69.487 92.1083 69.4605 92.3849 69.5335 92.624C69.6246 92.9219 69.7982 93.1832 69.9425 93.4563C70.2164 93.9749 70.3865 94.5378 70.5925 95.0848C70.6986 95.3668 70.8009 95.639 70.8697 95.9331C70.9345 96.2103 71.038 96.4929 71.0538 96.7771C71.0705 97.0786 71.0881 97.3587 71.2228 97.6355C71.3332 97.8624 71.4788 98.0296 71.4978 98.2879C71.5195 98.5834 71.5809 98.8399 71.7441 99.0906C71.821 99.2086 71.9113 99.318 71.9815 99.4405C72.072 99.5984 72.1353 99.7736 72.2085 99.9399C72.458 100.508 72.6795 101.081 72.9033 101.659C73.1225 102.225 73.4149 102.76 73.6329 103.326C73.8548 103.902 73.8572 104.496 73.984 105.094C74.1065 105.672 74.2614 106.242 74.4485 106.803C74.6453 107.392 74.8951 107.954 75.129 108.529C75.3506 109.073 75.4962 109.644 75.6736 110.203C75.8731 110.832 76.107 111.449 76.2969 112.081C76.3775 112.349 76.4446 112.617 76.4798 112.896C76.5202 113.213 76.5228 113.535 76.5821 113.85C76.691 114.428 76.9894 114.958 77.1413 115.525C77.2106 115.784 77.3097 116.038 77.3461 116.304C77.3834 116.576 77.3993 116.843 77.4932 117.104C77.5903 117.373 77.7365 117.618 77.8527 117.879C77.9822 118.169 78.0863 118.47 78.1949 118.769C78.3161 119.101 78.4675 119.427 78.5707 119.765C78.6668 120.081 78.7296 120.404 78.8561 120.71C78.9606 120.963 79.131 121.197 79.1798 121.47C79.2415 121.815 79.234 122.176 79.2711 122.525C79.3408 123.179 79.4566 123.847 79.5933 124.491C79.7312 125.142 79.9983 125.75 80.0977 126.411C80.1624 126.84 80.8264 126.797 80.9226 126.411C80.931 126.378 80.9394 126.344 80.9477 126.311C81.081 125.776 80.2563 125.548 80.1229 126.083C80.1145 126.117 80.1061 126.15 80.0977 126.184C80.3727 126.184 80.6476 126.184 80.9226 126.184C80.8338 125.594 80.6076 125.053 80.4668 124.478C80.3299 123.918 80.2591 123.343 80.1615 122.776C80.0597 122.184 80.1448 121.522 79.9157 120.958C79.8211 120.725 79.6825 120.513 79.6019 120.275C79.4951 119.96 79.4405 119.629 79.3207 119.318C79.0995 118.743 78.8964 118.159 78.6547 117.592C78.5515 117.35 78.4102 117.122 78.3183 116.876C78.2163 116.604 78.217 116.322 78.1665 116.039C78.0657 115.477 77.8638 114.921 77.6539 114.391C77.5509 114.132 77.4436 113.865 77.401 113.587C77.3523 113.269 77.3468 112.944 77.2997 112.625C77.2089 112.01 76.9885 111.422 76.7873 110.836C76.5809 110.235 76.3986 109.629 76.2073 109.023C76.0283 108.457 75.7804 107.922 75.5631 107.37C75.3381 106.799 75.1453 106.215 74.9885 105.622C74.9158 105.346 74.8499 105.068 74.793 104.789C74.7312 104.487 74.7136 104.179 74.6698 103.874C74.5801 103.252 74.2879 102.675 74.0261 102.11C73.7681 101.552 73.5735 100.974 73.3367 100.408C73.0956 99.8318 72.876 99.2329 72.5226 98.7165C72.4432 98.6004 72.3764 98.4989 72.3587 98.3581C72.3392 98.2031 72.3418 98.0452 72.3016 97.8927C72.228 97.6138 72.0071 97.3986 71.938 97.1243C71.8973 96.9624 71.9149 96.7871 71.8986 96.6216C71.8796 96.4289 71.8264 96.2524 71.7792 96.0662C71.7009 95.7572 71.6449 95.4444 71.5304 95.1457C71.2859 94.5082 71.0796 93.8517 70.7863 93.234C70.6537 92.9546 70.4513 92.6927 70.3589 92.3965C70.2587 92.0757 70.2763 91.7562 70.0906 91.4604C69.833 91.0496 69.1932 91.3134 69.3089 91.7899C69.3241 91.8527 69.3402 91.916 69.3477 91.9805C69.3746 92.21 69.525 92.4083 69.7755 92.4083C69.9854 92.4085 70.2299 92.2117 70.2027 91.9807Z" fill="#1E4798"/>
<path d="M95.9807 72.8189C96.3505 73.2194 96.6037 73.7331 96.8345 74.2223C97.0903 74.7641 97.2304 75.3662 97.5569 75.8717C97.904 76.4092 98.3534 76.8733 98.6899 77.4182C99.0366 77.9793 99.2826 78.5998 99.5574 79.1973C100.102 80.3817 100.923 81.4211 101.428 82.6229C101.664 83.1849 102.024 83.663 102.294 84.2056C102.425 84.4687 102.485 84.7544 102.56 85.0371C102.645 85.3627 102.735 85.6873 102.838 86.0079C103.044 86.6567 103.304 87.2927 103.641 87.885C103.955 88.4358 104.327 88.95 104.707 89.4566C105.093 89.9719 105.488 90.4811 105.841 91.0197C106.214 91.588 106.54 92.1868 106.898 92.7641C107.082 93.0606 107.289 93.3458 107.462 93.6485C107.616 93.9185 107.725 94.2061 107.824 94.5004C108.025 95.1051 108.193 95.7287 108.55 96.2651C108.715 96.5139 108.904 96.7461 109.073 96.9923C109.256 97.2587 109.403 97.5475 109.577 97.8192C109.935 98.3748 110.347 98.8925 110.755 99.4116C111.62 100.512 112.474 101.623 113.266 102.778C113.627 103.303 113.986 103.823 114.466 104.249C114.689 104.448 114.929 104.641 115.1 104.89C115.27 105.137 115.384 105.418 115.564 105.66C115.649 105.774 115.743 105.864 115.851 105.955C115.923 106.016 115.987 106.055 116.006 106.124C116.154 106.654 116.98 106.429 116.831 105.897C116.751 105.61 116.561 105.453 116.351 105.263C116.143 105.073 116.043 104.784 115.897 104.548C115.555 103.994 115.004 103.647 114.59 103.156C114.175 102.664 113.839 102.099 113.463 101.576C113.044 100.994 112.612 100.422 112.174 99.8536C111.755 99.3097 111.324 98.775 110.909 98.2276C110.71 97.9645 110.516 97.6967 110.337 97.4197C110.166 97.1574 110.024 96.8782 109.851 96.6183C109.513 96.1123 109.128 95.6709 108.919 95.0904C108.696 94.4727 108.541 93.8271 108.219 93.2497C108.05 92.9461 107.842 92.6621 107.659 92.367C107.471 92.065 107.288 91.7596 107.106 91.4537C106.769 90.8848 106.42 90.3326 106.027 89.8C105.26 88.7614 104.426 87.7529 103.936 86.545C103.683 85.9208 103.503 85.2698 103.335 84.6186C103.176 84.0038 102.882 83.503 102.555 82.9659C102.225 82.4246 102.017 81.8216 101.704 81.2697C101.385 80.7078 101.027 80.169 100.714 79.6035C100.386 79.011 100.133 78.382 99.8426 77.7712C99.5519 77.1597 99.1945 76.6258 98.7765 76.0948C98.5862 75.853 98.3953 75.6095 98.2362 75.3455C98.0717 75.0726 97.9867 74.771 97.8724 74.476C97.6618 73.9319 97.4032 73.3931 97.0958 72.8971C96.9461 72.6557 96.7784 72.4225 96.5856 72.2136C96.2115 71.8084 95.6077 72.4146 95.9807 72.8189Z" fill="#1E4798"/>
<path d="M75.3484 63.1432C75.4416 63.4774 75.6858 63.5841 75.9311 63.785C76.1842 63.9922 76.3821 64.2687 76.5892 64.519C77.002 65.0183 77.4698 65.4676 77.8692 65.9795C78.2531 66.4718 78.6153 67.0157 78.8376 67.6022C78.9467 67.8902 79.0179 68.178 79.0499 68.4837C79.0894 68.8613 79.1866 69.1676 79.3502 69.5079C79.3778 69.5654 79.3998 69.6202 79.4154 69.6823C79.4202 69.7016 79.4238 69.7209 79.4284 69.7401C79.451 69.8322 79.4221 69.6717 79.4289 69.7379C79.4397 69.8445 79.4465 69.9512 79.447 70.0583C79.4472 70.1213 79.4458 70.1845 79.4416 70.2472C79.44 70.2705 79.4383 70.2938 79.4356 70.3169C79.4269 70.3951 79.4582 70.2296 79.428 70.3569C79.4202 70.3898 79.4089 70.4837 79.4041 70.4538C79.399 70.4212 79.3766 70.4745 79.4104 70.4437C79.4315 70.4245 79.5844 70.3477 79.5192 70.3612C79.2931 70.4084 79.162 70.6748 79.2205 70.8873C79.285 71.1221 79.5198 71.2335 79.7466 71.1861C80.2974 71.0711 80.3239 70.3174 80.2962 69.8772C80.2781 69.5873 80.2161 69.3387 80.0887 69.0761C79.9381 68.7659 79.9128 68.4757 79.8655 68.1378C79.6671 66.7188 78.6271 65.4765 77.688 64.4608C77.4123 64.163 77.1552 63.8543 76.891 63.5467C76.7644 63.3992 76.6311 63.2558 76.4805 63.1324C76.3996 63.0662 76.3161 63.0096 76.2288 62.9529C76.1977 62.9328 76.1693 62.9004 76.1734 62.9153C76.0256 62.3863 75.1998 62.6113 75.3484 63.1432Z" fill="#1E4798"/>
<path d="M48.7355 69.6374C49.3867 69.7277 49.795 70.3755 50.4236 70.5564C51.0092 70.7249 51.7106 70.4539 52.2234 70.1822C52.4819 70.0451 52.7327 69.8716 52.9052 69.6319C53.1139 69.3417 53.2055 68.9838 53.2394 68.6331C53.309 67.9153 53.0948 67.1811 52.8089 66.5304C52.6667 66.2069 52.5223 65.8527 52.3187 65.5629C52.0311 65.1532 51.6343 64.8211 51.2813 64.4697C50.8907 64.0808 50.2857 64.6855 50.6763 65.0747C50.9524 65.3497 51.2447 65.613 51.5048 65.9033C51.6991 66.1203 51.7994 66.4031 51.9258 66.6611C52.1672 67.1532 52.3628 67.6872 52.3916 68.2399C52.4049 68.4962 52.391 68.7631 52.2851 69.0006C52.1944 69.2038 52.1089 69.2627 51.8844 69.3924C51.6682 69.5175 51.438 69.6112 51.1975 69.6783C51.1297 69.6971 51.0613 69.7141 50.9921 69.7277C50.9362 69.7389 50.8994 69.7433 50.8902 69.744C50.8397 69.7483 50.7896 69.7481 50.7391 69.749C50.7194 69.7493 50.6537 69.7382 50.7389 69.7531C50.7091 69.7479 50.6797 69.7401 50.6508 69.7317C50.3632 69.6489 50.1171 69.4163 49.8795 69.2411C49.6064 69.0399 49.3042 68.8601 48.9627 68.8127C48.7341 68.7811 48.5033 68.8683 48.4366 69.1114C48.3818 69.3111 48.5052 69.6054 48.7355 69.6374Z" fill="#1E4798"/>
<path d="M53.8652 82.9934C54.1817 82.4255 54.6432 81.9538 55.278 81.7612C55.8471 81.5884 56.579 81.5971 57.094 81.8159C57.3685 81.9326 57.5705 82.0987 57.7694 82.3184C57.8809 82.4418 57.9735 82.5747 58.0667 82.7121C58.1143 82.7821 58.1655 82.8497 58.2125 82.9199C58.2601 82.9905 58.2731 82.9809 58.2642 83.0502C58.2585 83.0944 58.194 83.2121 58.1451 83.3043C58.0703 83.4451 57.9865 83.5812 57.9151 83.7239C57.7954 83.9636 57.7103 84.2197 57.6196 84.4714C57.5153 84.7616 57.4396 84.9845 57.2559 85.2487C57.2501 85.2571 57.2056 85.3118 57.2456 85.2634C57.2194 85.2951 57.191 85.3248 57.1618 85.3537C57.1433 85.3721 57.1226 85.3916 57.1019 85.4071C57.15 85.3708 57.0997 85.4058 57.0752 85.4182C57.0562 85.428 56.9797 85.4579 57.053 85.4323C57.0215 85.4432 56.9891 85.452 56.9563 85.4583C56.8873 85.4713 57.0509 85.4629 56.9238 85.4576C56.8778 85.4557 56.8329 85.4532 56.7871 85.4473C56.5575 85.4188 56.3593 85.6643 56.3593 85.8751C56.3593 86.13 56.5568 86.2743 56.7871 86.3028C57.5914 86.4028 58.0465 85.6994 58.3105 85.0519C58.3697 84.9067 58.4228 84.7592 58.4756 84.6115C58.5008 84.5412 58.5256 84.471 58.5516 84.4011C58.5615 84.3744 58.5718 84.3478 58.5817 84.3212C58.5915 84.2955 58.6016 84.2698 58.6118 84.2443C58.5966 84.2792 58.5949 84.283 58.6069 84.2558C58.7498 83.9322 58.9724 83.6445 59.0779 83.3038C59.2276 82.8208 58.9321 82.4401 58.662 82.0726C58.4132 81.734 58.1283 81.4289 57.7687 81.2061C57.0708 80.7739 56.1579 80.7178 55.3669 80.8598C54.385 81.0361 53.6031 81.7063 53.1264 82.5614C52.8583 83.0431 53.5969 83.4749 53.8652 82.9934Z" fill="#1E4798"/>
<path d="M58.5701 88.0051C58.5626 88.0888 58.5703 88.0116 58.5876 87.9755C58.5636 88.0256 58.6172 87.9236 58.6249 87.9101C58.6863 87.8008 58.7585 87.6952 58.8358 87.5965C58.9416 87.4618 59.0694 87.2863 59.2167 87.1954C59.4164 87.0723 59.7088 87.1138 59.9333 87.0811C60.22 87.0394 60.4551 86.8926 60.7063 86.759C61.1161 86.5413 61.6328 86.8587 61.981 87.0856C62.4199 87.3715 62.7434 87.7681 62.748 88.3043C62.749 88.431 62.7643 88.5767 62.7271 88.6871C62.6965 88.7778 62.6358 88.8577 62.5829 88.9377C62.5276 89.0212 62.4655 89.1145 62.4077 89.1874C62.3672 89.2385 62.3133 89.2827 62.2749 89.335C62.226 89.4021 62.3223 89.3277 62.2878 89.335C61.7495 89.4493 61.9772 90.2742 62.5152 90.1599C62.8149 90.0963 63.0264 89.7867 63.1931 89.5559C63.371 89.3099 63.5392 89.0551 63.5837 88.7487C63.6956 87.9767 63.4632 87.2557 62.8916 86.7198C62.6245 86.4695 62.3134 86.2641 61.983 86.1079C61.6554 85.9531 61.286 85.8053 60.9164 85.8225C60.5366 85.8403 60.2808 86.0633 59.9466 86.2C59.6491 86.3216 59.3024 86.2417 58.9972 86.3574C58.6572 86.4862 58.4172 86.7554 58.1976 87.0341C57.9701 87.3229 57.748 87.6282 57.7143 88.0049C57.6938 88.2354 57.9256 88.4327 58.142 88.4327C58.391 88.4328 58.5494 88.2361 58.5701 88.0051Z" fill="#1E4798"/>
<path d="M68.4442 89.3602C68.4394 89.4179 68.461 89.2909 68.4678 89.2716C68.4712 89.2618 68.4835 89.2351 68.5128 89.1867C68.5516 89.1225 68.65 89.0185 68.739 88.9448C68.9145 88.7995 69.1572 88.6731 69.3769 88.5708C69.8243 88.362 70.419 88.119 70.9523 88.0823C71.2666 88.0605 71.5603 88.1144 71.8566 88.2183C71.9972 88.2676 72.1329 88.3281 72.2669 88.3933C72.3242 88.4212 72.3817 88.4498 72.4365 88.4825C72.4549 88.4934 72.4732 88.5049 72.4912 88.5169C72.5309 88.543 72.4616 88.4857 72.5162 88.5365C72.5348 88.5538 72.554 88.573 72.5697 88.5927C72.5639 88.5853 72.5352 88.5448 72.56 88.5863C72.6016 88.6561 72.5757 88.6002 72.5956 88.664C72.638 88.7999 72.6512 88.9408 72.6556 89.0825C72.6647 89.367 72.6279 89.6297 72.4671 89.8689C72.5246 89.7835 72.4561 89.8814 72.4311 89.9113C72.3901 89.9604 72.3477 90.0087 72.3049 90.0562C72.2113 90.1603 72.1146 90.2616 72.0145 90.3593C71.9228 90.4487 71.8289 90.5384 71.7276 90.6173C71.7712 90.5832 71.6549 90.663 71.6381 90.6753C71.6265 90.6837 71.6053 90.6884 71.5957 90.6987C71.6256 90.6669 71.6417 90.6782 71.6951 90.6749C71.1479 90.7073 71.1443 91.5631 71.6951 91.5304C72.006 91.5119 72.2524 91.3008 72.4741 91.1011C72.6837 90.9124 72.8813 90.7056 73.0601 90.4874C73.5453 89.8951 73.675 88.9528 73.3462 88.2477C73.2066 87.9483 72.9407 87.7693 72.6508 87.6319C72.244 87.4391 71.8323 87.2867 71.3827 87.2369C70.6067 87.151 69.8328 87.4489 69.1315 87.7491C68.4276 88.0506 67.6582 88.5215 67.5889 89.3602C67.5699 89.5907 67.7992 89.7879 68.0166 89.7879C68.2637 89.7879 68.425 89.5915 68.4442 89.3602Z" fill="#1E4798"/>
<path d="M77.6564 88.7795C77.653 88.8219 77.6497 88.8645 77.6463 88.9069C77.614 89.32 78.267 89.5044 78.4435 89.1229C78.5781 88.8317 78.697 88.5339 78.8101 88.2337C78.8791 88.0502 78.9451 87.835 79.0693 87.7496C79.2273 87.641 79.4076 87.6122 79.6086 87.5554C79.8538 87.4861 80.0886 87.3932 80.3173 87.2808C80.4773 87.2023 80.6636 87.0919 80.8096 87.0803C81.0113 87.0642 81.2187 87.1703 81.3788 87.2839C81.6856 87.5014 81.7561 87.8148 81.7222 88.1988C81.7019 88.4292 81.9334 88.6265 82.15 88.6265C82.3982 88.6265 82.5574 88.4299 82.5777 88.1988C82.6284 87.6244 82.4384 87.045 81.9825 86.6746C81.7422 86.4794 81.4548 86.3209 81.1499 86.2571C80.8106 86.1859 80.5018 86.2527 80.1919 86.3923C79.938 86.5068 79.7024 86.6378 79.4331 86.716C79.1843 86.7882 78.929 86.8484 78.6999 86.974C78.0833 87.3119 77.9767 88.1031 77.7048 88.6913C77.9705 88.7634 78.2362 88.8352 78.502 88.9073C78.5054 88.8648 78.5086 88.8222 78.5121 88.7798C78.5302 88.5492 78.3025 88.3521 78.0843 88.3521C77.8376 88.3517 77.6745 88.5481 77.6564 88.7795Z" fill="#1E4798"/>
<path d="M79.3257 68.8126C79.0153 68.8619 78.7319 69.003 78.4572 69.1495C78.2452 69.2624 78.026 69.393 77.7827 69.4077C77.5698 69.4207 77.345 69.3552 77.139 69.3103C77.0321 69.2871 76.9274 69.2585 76.8216 69.2308C76.7094 69.2013 76.7932 69.2301 76.8514 69.2648C76.83 69.2522 76.8156 69.2089 76.8483 69.2713C76.836 69.2479 76.818 69.227 76.8052 69.2036C76.5812 68.7924 76.5323 68.2102 76.2517 67.7721C76.083 67.5087 75.8065 67.1819 75.7839 66.8561C75.7687 66.6357 76.0168 66.4884 76.1584 66.3383C76.3653 66.1192 76.5265 65.7883 76.7954 65.6392C77.0991 65.4709 77.557 65.5831 77.8903 65.587C78.4411 65.5937 78.4412 64.7382 77.8903 64.7315C77.4651 64.7264 77.0062 64.6465 76.5956 64.795C76.2212 64.9304 75.981 65.2096 75.7415 65.5119C75.5245 65.7857 75.2167 66.0031 75.0514 66.3149C74.8258 66.7406 74.9542 67.2101 75.158 67.6164C75.2502 67.8005 75.3637 67.9728 75.4751 68.1457C75.518 68.2122 75.563 68.2784 75.602 68.3474C75.5998 68.3436 75.6508 68.4512 75.6296 68.402C75.6116 68.3602 75.6518 68.4653 75.6552 68.4747C75.7586 68.7709 75.8262 69.0785 75.9444 69.3699C76.0698 69.6787 76.2293 69.9311 76.5586 70.0443C76.805 70.129 77.0702 70.171 77.326 70.217C77.7601 70.2948 78.1394 70.2459 78.5407 70.065C78.8803 69.9119 79.178 69.697 79.5529 69.6376C79.7813 69.6014 79.9079 69.3163 79.8516 69.1115C79.7849 68.868 79.5548 68.7762 79.3257 68.8126Z" fill="#1E4798"/>
<path d="M83.5051 63.3762C83.2461 63.3783 83.0387 63.4616 82.7992 63.5396C82.548 63.6212 82.28 63.5696 82.0208 63.5685C81.9113 63.5682 81.8018 63.572 81.6923 63.5723C81.6723 63.5723 81.6523 63.5708 81.6324 63.5696C81.6379 63.5699 81.7029 63.5845 81.6555 63.5733C81.6199 63.5651 81.5382 63.5321 81.6126 63.5677C81.5883 63.556 81.5296 63.5063 81.5779 63.5487C81.5376 63.5133 81.5005 63.4724 81.4672 63.4306C81.3922 63.3369 81.3298 63.2291 81.2769 63.1215C81.1653 62.8942 81.1114 62.64 81.0449 62.397C80.9812 62.1645 80.902 61.9412 80.8156 61.7164C80.7357 61.5085 80.6385 61.2614 80.6117 61.0604C80.6057 61.0151 80.6086 60.8765 80.6105 60.8652C80.6235 60.7861 80.6459 60.7334 80.7176 60.6689C80.8698 60.5322 81.0945 60.5204 81.3031 60.5192C81.5859 60.5175 81.8674 60.5509 82.1502 60.5533C82.7008 60.5581 82.7013 59.7026 82.1502 59.6978C81.5527 59.6926 80.8929 59.5557 80.349 59.8817C79.7618 60.2336 79.6644 60.8984 79.8402 61.5114C79.9153 61.7734 80.0286 62.0218 80.117 62.2793C80.2204 62.5799 80.279 62.8941 80.3867 63.1935C80.5877 63.7526 80.9501 64.3599 81.5953 64.4218C81.7264 64.4345 81.8576 64.4254 81.9888 64.4245C82.1776 64.4233 82.3658 64.4451 82.5545 64.4391C82.7483 64.4329 82.9374 64.4004 83.1184 64.3313C83.2591 64.2776 83.367 64.2329 83.5055 64.2319C84.0554 64.2274 84.0567 63.3719 83.5051 63.3762Z" fill="#1E4798"/>
<path d="M85.8285 57.568C85.4358 57.5666 85.0586 57.5399 84.6782 57.6602C84.4252 57.7401 84.2 57.7627 83.9343 57.7682C83.6932 57.7731 83.5994 57.7014 83.4988 57.4547C83.3938 57.1968 83.3414 56.9096 83.2682 56.641C83.1831 56.3287 83.19 56.0188 83.1609 55.6992C83.1303 55.3632 82.9455 55.0367 82.9559 54.7007C82.9597 54.5766 82.9445 54.7144 82.9643 54.6076C82.9813 54.5568 82.9809 54.5494 82.9633 54.5857C82.9895 54.5429 82.9905 54.538 82.9667 54.5708C83.0055 54.5465 83.0642 54.5176 83.1565 54.4878C83.3922 54.4119 83.6456 54.3267 83.8925 54.3576C84.1221 54.3866 84.3203 54.1403 84.3203 53.9299C84.3203 53.6748 84.1228 53.5311 83.8925 53.5021C83.636 53.47 83.358 53.54 83.1118 53.6082C82.8541 53.6796 82.573 53.7595 82.3771 53.9511C81.8963 54.422 82.1761 55.0911 82.2917 55.6426C82.356 55.9494 82.3287 56.2784 82.3814 56.5905C82.4301 56.8791 82.5201 57.1688 82.5997 57.4508C82.772 58.0609 83.1291 58.6019 83.82 58.6243C84.1298 58.6344 84.4616 58.6235 84.7593 58.5328C84.9075 58.4876 85.0498 58.4313 85.2055 58.4192C85.4122 58.4031 85.6215 58.4229 85.8283 58.4236C86.3791 58.4253 86.3798 57.5699 85.8285 57.568Z" fill="#1E4798"/>
<path d="M82.9241 42.4665C82.6689 42.4616 82.3968 42.4619 82.171 42.5991C81.9355 42.7422 81.7983 42.9899 81.6981 43.2375C81.4782 43.78 81.4376 44.3527 81.6968 44.8857C81.9424 45.3903 82.3595 45.8156 82.7274 46.2329C83.1267 46.6858 83.639 47.0807 84.2793 47.0005C84.5085 46.9717 84.707 46.8244 84.707 46.5727C84.707 46.3638 84.5101 46.1161 84.2793 46.145C83.8722 46.196 83.6308 45.9643 83.3502 45.6481C83.0668 45.329 82.7643 45.0096 82.5409 44.6441C82.4995 44.5763 82.4348 44.4597 82.4168 44.4133C82.399 44.3678 82.3847 44.3197 82.373 44.2721C82.3429 44.1474 82.3681 44.3279 82.3633 44.2039C82.3556 44.0105 82.3961 43.8382 82.4574 43.6447C82.4721 43.5983 82.487 43.5513 82.506 43.5063C82.4793 43.5694 82.5322 43.4574 82.5378 43.4466C82.559 43.4076 82.5809 43.367 82.608 43.3314C82.5568 43.3988 82.6208 43.316 82.6374 43.3088C82.5931 43.342 82.5907 43.3465 82.63 43.322C82.5806 43.341 82.5712 43.3455 82.6018 43.3357C82.6177 43.3306 82.6338 43.3263 82.6502 43.3232C82.6008 43.328 82.5929 43.329 82.6264 43.3258C82.725 43.3159 82.8253 43.3198 82.9241 43.3217C83.4749 43.3328 83.4749 42.4773 82.9241 42.4665Z" fill="#1E4798"/>
<path d="M51.8332 12.0851C51.5215 12.1612 51.2825 12.3698 51.1819 12.6768C51.109 12.8994 51.1271 13.1389 51.1317 13.369C51.1403 13.7966 51.1239 14.3166 51.5679 14.5435C51.7816 14.6526 52.028 14.6666 52.2639 14.6675C52.5809 14.6687 52.8864 14.7318 53.1957 14.6246C53.4936 14.5212 53.7136 14.3388 53.9008 14.0897C54.0479 13.894 54.1681 13.6962 54.3102 13.5232C54.7604 12.9753 55.1266 12.3938 55.414 11.7455C55.5076 11.5345 55.4754 11.2859 55.2605 11.1601C55.0785 11.0537 54.7693 11.1013 54.6752 11.3136C54.4783 11.758 54.2507 12.1848 53.9667 12.5801C53.8183 12.7864 53.6496 12.9758 53.4965 13.1783C53.4347 13.2599 53.3772 13.3444 53.3206 13.4294C53.2963 13.4659 53.2725 13.5025 53.2477 13.5386C53.2357 13.556 53.2236 13.5737 53.2114 13.5909C53.1363 13.6979 53.238 13.5634 53.1906 13.6192C53.1642 13.6501 53.1367 13.6794 53.1081 13.7083C53.0939 13.7225 53.0788 13.7367 53.0633 13.7494C53.0795 13.736 53.1196 13.7145 53.0496 13.756C52.9777 13.7987 52.9456 13.8192 52.8487 13.8356C52.7478 13.8527 52.6136 13.83 52.5019 13.8207C52.3864 13.8111 52.2714 13.8142 52.1556 13.8105C52.1173 13.8091 52.0791 13.8055 52.0408 13.8041C51.9581 13.801 52.1048 13.8223 52.0107 13.7987C51.9942 13.7946 51.9036 13.7692 51.9718 13.7927C52.0288 13.8123 51.9919 13.8028 51.9783 13.794C51.9171 13.7549 52.0379 13.8491 52.0006 13.8147C51.9414 13.7603 52.0269 13.8532 52.0115 13.8315C51.9693 13.7723 52.0146 13.8599 52.0151 13.8431C52.0161 13.8164 51.9984 13.7728 51.9922 13.7451C52.012 13.8358 51.9941 13.7449 51.9917 13.7035C51.98 13.5009 51.978 13.2922 51.9809 13.0893C51.9812 13.0694 51.9814 13.0498 51.9824 13.0301C51.983 13.0181 51.9963 12.9146 51.9859 12.9724C51.9783 13.014 52.004 12.9077 52.0126 12.8876C52.0078 12.8992 51.9804 12.942 52.0079 12.9113C52.0432 12.8722 51.9617 12.9509 51.964 12.9481C51.9688 12.9423 52.0201 12.9219 51.9835 12.9315C51.9422 12.9423 52.0654 12.9089 52.0606 12.9101C52.5951 12.7796 52.3688 11.9544 51.8332 12.0851Z" fill="#1E4798"/>
<path d="M62.7485 6.88301C62.7433 7.14547 62.6455 7.33762 62.5137 7.55919C62.3421 7.84766 62.2025 8.1464 62.1016 8.46721C61.9946 8.80702 61.9241 9.15931 61.7878 9.48953C61.6565 9.8076 61.5422 10.1043 61.5903 10.4544C61.7277 11.4544 62.8144 11.9015 63.7025 11.9826C64.1837 12.0266 64.7165 11.9624 65.1345 11.7054C65.6027 11.4176 65.1735 10.6775 64.7026 10.9668C64.6718 10.9858 64.6402 11.0027 64.6085 11.0204C64.5401 11.0587 64.6482 11.0103 64.5722 11.0375C64.4897 11.0669 64.4061 11.0908 64.3204 11.1085C64.2998 11.1127 64.2042 11.1287 64.2304 11.1252C64.2557 11.1218 64.1568 11.1316 64.1349 11.1331C64.037 11.1398 63.9388 11.1406 63.8408 11.1365C63.5169 11.1228 63.1531 11.0346 62.8698 10.8715C62.7225 10.7866 62.6282 10.7134 62.5476 10.607C62.473 10.5084 62.428 10.3854 62.429 10.2944C62.4325 10.0191 62.6085 9.75679 62.6932 9.49928C62.7921 9.1978 62.8595 8.88709 62.9618 8.58664C63.0559 8.31014 63.2122 8.0754 63.3514 7.82114C63.5135 7.52565 63.5973 7.22075 63.6038 6.88334C63.6148 6.33223 62.7593 6.33224 62.7485 6.88301Z" fill="#1E4798"/>
<path d="M72.3897 9.76194C71.2332 9.54224 70.6111 10.8452 70.2051 11.7036C69.969 12.2028 69.7409 12.6782 69.6685 13.2337C69.5873 13.8572 69.7284 14.5279 70.3948 14.7372C70.6595 14.8203 70.948 14.8191 71.2228 14.8244C71.2861 14.8256 71.3496 14.8268 71.4127 14.8304C71.4326 14.8316 71.4524 14.833 71.4723 14.8342C71.5927 14.8417 71.3954 14.8124 71.5039 14.8371C71.5191 14.8405 71.5369 14.8467 71.5523 14.8479C71.6264 14.8544 71.5732 14.8747 71.5486 14.8402C71.5869 14.8939 71.5335 14.8272 71.5267 14.8183C71.5113 14.7984 71.4582 14.6692 71.4764 14.7409C71.6112 15.2744 72.4366 15.0484 72.3012 14.5135C72.1768 14.022 71.6425 13.9773 71.2226 13.9689C71.1184 13.9669 71.0141 13.966 70.91 13.96C70.775 13.9523 70.8094 13.9578 70.6808 13.9291C70.6549 13.9232 70.628 13.9149 70.6031 13.9061C70.6097 13.9085 70.6589 13.9337 70.6154 13.9118C70.5902 13.8991 70.5054 13.8312 70.5637 13.8835C70.5179 13.8425 70.5615 13.9102 70.5405 13.8488C70.5389 13.8442 70.5095 13.7465 70.5038 13.7058C70.4426 13.2662 70.6289 12.7866 70.8166 12.4029C71.0055 12.0163 71.178 11.6221 71.404 11.2551C71.5386 11.0366 71.6464 10.8818 71.8425 10.7108C71.8863 10.6727 71.8446 10.6999 71.9257 10.6525C71.9486 10.6392 72.0432 10.5936 72.0174 10.6032C71.9725 10.6197 72.1496 10.5784 72.0963 10.5841C72.0458 10.5895 72.2552 10.6046 72.1621 10.587C72.3888 10.6301 72.6236 10.5237 72.6883 10.2882C72.7457 10.0792 72.6178 9.80522 72.3897 9.76194Z" fill="#1E4798"/>
<path d="M78.3577 14.4085C77.8849 14.5899 77.4865 15.0793 77.2815 15.5322C77.0368 16.0727 76.8219 16.652 76.6506 17.22C76.5184 17.6584 76.4338 18.1248 76.4121 18.5822C76.3888 19.0732 76.4835 19.6885 77.0274 19.8611C77.2885 19.9439 77.5462 19.8341 77.7941 19.8824C77.9334 19.9096 78.0603 19.9889 78.1929 20.0358C78.389 20.1051 78.576 20.1046 78.7786 20.0736C79.0072 20.0387 79.1335 19.7515 79.0773 19.5475C79.0103 19.3032 78.7805 19.2137 78.5512 19.2488C78.4783 19.2599 78.3673 19.1897 78.2976 19.1607C78.1315 19.0914 77.9768 19.0339 77.7951 19.0227C77.668 19.015 77.5444 19.0381 77.4182 19.047C77.3976 19.0484 77.3083 19.0642 77.3265 19.057C77.2743 19.047 77.2618 19.0433 77.2892 19.0457C77.3266 19.0864 77.3319 19.0874 77.3049 19.0488C77.2998 19.0388 77.2947 19.0287 77.2895 19.0188C77.3097 19.0667 77.3116 19.0667 77.2948 19.0185C77.2909 19 77.2674 18.885 77.271 18.9124C77.2659 18.8737 77.263 18.7182 77.2656 18.6338C77.2731 18.391 77.3044 18.1825 77.3523 17.9467C77.4548 17.4406 77.6427 16.9619 77.8206 16.4785C77.9216 16.2042 78.0148 15.9182 78.1794 15.6737C78.2371 15.5879 78.312 15.5008 78.39 15.4187C78.4316 15.3749 78.4737 15.3297 78.5201 15.2911C78.523 15.2887 78.6503 15.2084 78.5851 15.2336C78.8007 15.1508 78.9494 14.9458 78.8838 14.7075C78.8272 14.5011 78.5745 14.3254 78.3577 14.4085Z" fill="#1E4798"/>
<path d="M73.0907 79.2926C73.0548 79.0002 73.3183 78.864 73.5051 78.6685C73.7729 78.3882 73.9312 78.0116 74.2121 77.7473C74.3452 77.6222 74.5079 77.5298 74.6505 77.4157C74.7812 77.311 74.891 77.1886 74.9985 77.0603C75.2596 76.7484 75.5274 76.4565 75.8133 76.167C76.1033 75.873 76.388 75.5734 76.6578 75.2607C76.8792 75.004 77.07 74.7161 77.3064 74.4736C77.7366 74.0327 78.3366 73.6501 78.4966 73.0172C78.6316 72.4832 77.8067 72.2555 77.6717 72.7898C77.6166 73.0078 77.3992 73.215 77.2137 73.3904C76.9962 73.5959 76.7588 73.7853 76.568 74.0171C76.0449 74.6526 75.5126 75.2579 74.9302 75.841C74.6532 76.1182 74.4383 76.4572 74.1507 76.7224C74.0164 76.8462 73.8545 76.939 73.7122 77.0534C73.5513 77.1828 73.4283 77.3409 73.3085 77.5082C73.204 77.6542 73.1131 77.8109 73.0006 77.9509C72.8892 78.0893 72.7511 78.2007 72.6271 78.3268C72.369 78.5892 72.1887 78.914 72.2354 79.2928C72.2636 79.5221 72.4118 79.7205 72.6632 79.7205C72.8722 79.7204 73.1191 79.5236 73.0907 79.2926Z" fill="#1E4798"/>
<path d="M66.4927 74.3386C66.4998 74.3708 66.4982 74.3289 66.5169 74.3056C66.5545 74.2586 66.6399 74.1879 66.6994 74.1356C66.8565 73.9978 66.9893 73.852 67.109 73.6792C67.398 73.2628 67.5702 72.7816 67.8896 72.3833C68.2113 71.9824 68.5783 71.6225 68.8608 71.1904C69.109 70.8106 69.3152 70.3987 69.674 70.1082C69.8537 69.9628 69.8253 69.6546 69.674 69.5032C69.4964 69.3256 69.2492 69.3574 69.069 69.5032C68.6649 69.8304 68.4178 70.3021 68.1397 70.7314C67.8335 71.2039 67.4145 71.5896 67.0803 72.0422C66.7744 72.4562 66.6229 73.0107 66.2618 73.3786C66.1107 73.5324 65.9387 73.6537 65.8101 73.83C65.6485 74.051 65.61 74.3008 65.6677 74.566C65.7844 75.1038 66.6093 74.8762 66.4927 74.3386Z" fill="#1E4798"/>
<path d="M79.8085 81.4446C80.1837 80.9487 80.4215 80.3668 80.7978 79.8756C80.9721 79.648 81.1636 79.4343 81.334 79.2034C81.5167 78.9556 81.6461 78.6841 81.7931 78.4151C82.1021 77.8501 82.4506 77.2912 82.5313 76.6408C82.5459 76.5236 82.5609 76.376 82.6073 76.2988C82.6212 76.2759 82.7059 76.1871 82.7545 76.128C82.9577 75.8808 83.0082 75.6205 82.9493 75.3067C82.9067 75.0795 82.6326 74.9504 82.4232 75.008C82.185 75.0735 82.0817 75.3064 82.1245 75.5341C82.126 75.5423 82.1065 75.5711 82.1226 75.5557C82.0444 75.6308 81.9722 75.7213 81.9092 75.8089C81.7362 76.049 81.7239 76.3203 81.6812 76.6028C81.5956 77.1699 81.2103 77.6778 80.9512 78.1761C80.6939 78.6711 80.3375 79.0596 80.0117 79.5076C79.663 79.987 79.4297 80.5373 79.0698 81.0129C78.9304 81.1974 79.0406 81.4913 79.2233 81.5982C79.4427 81.7264 79.6687 81.6294 79.8085 81.4446Z" fill="#1E4798"/>
<path d="M70.7269 50.7917C70.772 50.7917 70.737 50.8026 70.7082 50.774C70.6831 50.7492 70.6538 50.7217 70.6276 50.6964C70.5414 50.612 70.4613 50.5285 70.3626 50.4577C70.2717 50.3925 70.1705 50.3485 70.0899 50.271C70.0048 50.1892 69.9355 50.09 69.8621 49.9979C69.5117 49.5585 68.9917 49.3779 68.5515 49.0505C68.1304 48.7376 67.6277 48.5549 67.2205 48.2228C66.7894 47.8712 66.3905 47.4988 65.8615 47.3C65.412 47.1312 65.0905 47.8807 65.5319 48.0818C66.3921 48.4738 67.027 49.1943 67.8153 49.6976C68.6437 50.2268 69.534 50.6125 70.2308 51.3279C70.6156 51.7229 71.2203 51.1178 70.8359 50.7229C70.1042 49.9719 69.1837 49.5368 68.3043 48.9948C67.4883 48.4917 66.846 47.7449 65.9638 47.3428C65.854 47.6034 65.7441 47.864 65.6343 48.1246C66.1127 48.3042 66.4757 48.7371 66.8804 49.0336C67.0994 49.1941 67.34 49.3176 67.5778 49.4468C67.8329 49.5854 68.0567 49.7556 68.2981 49.9146C68.5181 50.0595 68.7691 50.162 68.9823 50.3158C69.1776 50.4566 69.2984 50.6758 69.4606 50.8495C69.6282 51.0291 69.8484 51.1301 70.0228 51.3005C70.2204 51.4935 70.4404 51.6458 70.7269 51.6463C71.2775 51.6482 71.2783 50.7927 70.7269 50.7917Z" fill="#1E4798"/>
<path d="M64.725 54.8574C64.6236 54.8546 64.7264 54.8593 64.7259 54.861C64.7249 54.8639 64.6587 54.8437 64.6542 54.8425C64.6025 54.8291 64.6085 54.8264 64.6552 54.8474C64.6256 54.8341 64.5966 54.8197 64.568 54.8042C64.5179 54.7768 64.4694 54.7462 64.4225 54.7138C64.4138 54.7078 64.3343 54.6509 64.3791 54.6837C64.4241 54.7167 64.3445 54.6557 64.3363 54.649C64.1353 54.4823 63.9549 54.2929 63.7727 54.1064C63.3433 53.6674 62.8387 53.3387 62.2966 53.0555C62.1062 52.9561 61.8785 52.9929 61.7448 53.1657C61.6199 53.3274 61.6208 53.5822 61.7782 53.7274C61.8206 53.7666 61.8632 53.8058 61.9057 53.845C62.0703 53.9966 62.35 54.02 62.5107 53.845C62.6621 53.68 62.6864 53.402 62.5107 53.24C62.4683 53.2008 62.4257 53.1616 62.3832 53.1224C62.2104 53.3464 62.0376 53.5704 61.8648 53.7942C62.1545 53.9454 62.4405 54.1049 62.7052 54.2974C62.7035 54.2962 62.8082 54.3757 62.7605 54.3381C62.7959 54.3661 62.8308 54.3949 62.8652 54.4241C62.9136 54.4652 62.961 54.5075 63.007 54.5511C63.0948 54.6343 63.1781 54.7222 63.2625 54.8086C63.6553 55.211 64.124 55.6961 64.7249 55.7125C64.9487 55.7187 65.1627 55.5115 65.1526 55.2848C65.1422 55.0481 64.9649 54.864 64.725 54.8574Z" fill="#1E4798"/>
<path d="M60.4404 21.6771C60.3906 21.9515 60.1892 22.189 60.087 22.4778C60.033 22.6306 60.0018 22.7903 59.9674 22.9482C59.9495 23.0305 59.9315 23.1129 59.9088 23.1942C59.8874 23.271 59.8713 23.3077 59.852 23.3474C59.8456 23.3604 59.8145 23.4059 59.8417 23.3696C59.8244 23.3929 59.8034 23.4141 59.7837 23.4353C59.7392 23.4832 59.6911 23.528 59.6448 23.5742C59.5416 23.6764 59.4408 23.7884 59.3674 23.9142C59.281 24.0624 59.2399 24.2198 59.2382 24.3907C59.2377 24.4364 59.2382 24.4834 59.2411 24.529C59.2458 24.5996 59.2598 24.4834 59.2789 24.4515C59.2919 24.409 59.3192 24.3811 59.3606 24.3676C59.4239 24.3365 59.4247 24.3313 59.3633 24.3524C59.5438 24.4899 59.7243 24.6273 59.9048 24.7649C59.9084 24.6735 59.9076 24.748 59.893 24.7747C59.9201 24.7252 59.9132 24.7507 59.8795 24.7757C59.6701 24.6905 59.4606 24.6053 59.2511 24.5201C59.2415 24.4766 59.2322 24.5758 59.2476 24.5285C59.262 24.4841 59.2278 24.5664 59.2192 24.5789C59.1955 24.6135 59.148 24.6501 59.1162 24.6696C59.3113 24.7208 59.5063 24.7719 59.7014 24.8231C59.7514 24.9312 59.7122 24.8515 59.7079 24.8222C59.6966 24.7445 59.6983 24.8867 59.7084 24.8335C59.7188 24.7788 59.7082 24.7107 59.7132 24.6539C59.7077 24.7155 59.7074 24.6888 59.717 24.6434C59.7235 24.6126 59.7296 24.582 59.737 24.5514C59.7541 24.4807 59.7748 24.4109 59.7977 24.3418C59.8217 24.2696 59.849 24.1987 59.8762 24.1277C59.9028 24.0584 59.8721 24.1347 59.8899 24.0942C59.904 24.0622 59.9182 24.0304 59.9327 23.9986C59.9935 23.866 60.0593 23.7356 60.1286 23.6073C60.4498 23.0132 60.8969 22.5035 60.8936 21.7907C60.8912 21.2403 60.0357 21.2392 60.0381 21.7907C60.0388 21.9334 60.0049 22.1122 59.9599 22.2094C59.8855 22.3702 59.7864 22.5187 59.6913 22.6676C59.5436 22.8991 59.4054 23.1355 59.2827 23.3814C59.0064 23.9351 58.681 24.6445 58.9628 25.2544C59.0582 25.4613 59.3659 25.5198 59.5479 25.4079C59.9366 25.1692 60.1774 24.7514 60.0759 24.2923C60.0207 24.0425 59.6656 23.8757 59.4476 24.0367C59.1956 24.2229 59.0622 24.4467 59.0493 24.7646C59.038 25.0445 59.3316 25.2481 59.5909 25.1771C59.8071 25.1177 59.9888 24.981 60.0605 24.7623C60.1023 24.6354 60.0959 24.5038 60.0941 24.3726C60.0954 24.3476 60.0944 24.3486 60.0906 24.3757C60.0843 24.4085 60.0858 24.4037 60.0953 24.3611C60.0662 24.3912 60.0917 24.3739 60.106 24.3455C60.1541 24.2511 60.0766 24.3676 60.1439 24.2891C60.1628 24.267 60.183 24.246 60.2034 24.2249C60.3211 24.1033 60.4416 23.9912 60.5408 23.8528C60.7528 23.5571 60.7761 23.1802 60.8702 22.8395C60.9552 22.5324 61.2026 22.2501 61.2654 21.904C61.3066 21.6769 61.2035 21.4428 60.9667 21.3778C60.7591 21.3214 60.4819 21.4487 60.4404 21.6771Z" fill="#1E4798"/>
<path d="M66.6207 24.3078C66.6263 24.24 66.5979 24.359 66.6167 24.322C66.5928 24.3689 66.5668 24.4147 66.5365 24.4579C66.4862 24.5294 66.4254 24.5932 66.3661 24.6572C66.2115 24.824 66.0499 24.9843 65.9202 25.1724C65.6502 25.5637 65.4339 26.0402 65.2596 26.4828C65.1348 26.7997 65.0397 27.1273 64.9127 27.4434C64.8744 27.5388 64.7964 27.7082 64.7182 27.8335C64.6975 27.8665 64.6761 27.9009 64.6518 27.9315C64.7088 27.8598 64.6344 27.9457 64.6256 27.9529C64.5601 28.0066 64.6934 27.932 64.6135 27.9632C64.5332 27.9945 64.6989 27.9394 64.6113 27.9611C64.0771 28.0934 64.3034 28.9186 64.8386 28.786C65.2171 28.6922 65.4478 28.324 65.6006 27.9928C65.7768 27.6109 65.8995 27.21 66.0444 26.8161C66.0574 26.7807 66.0711 26.7455 66.0844 26.7102C66.0966 26.6801 66.0928 26.688 66.0735 26.7338C66.0815 26.7152 66.0899 26.6967 66.0985 26.6784C66.159 26.5569 66.2187 26.4347 66.2781 26.3126C66.3922 26.0782 66.5324 25.7693 66.6667 25.5931C66.9882 25.1712 67.4284 24.8805 67.476 24.3076C67.4951 24.0772 67.2657 23.8799 67.0482 23.8799C66.801 23.8801 66.6398 24.0766 66.6207 24.3078Z" fill="#1E4798"/>
</svg>
