<svg width="143" height="81" viewBox="0 0 143 81" fill="none" xmlns="http://www.w3.org/2000/svg">
<path d="M43.5545 56.0802C43.7255 56.0673 43.8969 56.0757 44.0668 56.098C44.1236 56.1001 44.1765 56.0882 44.2257 56.0625C44.2768 56.0458 44.321 56.0175 44.3585 55.9772C44.3987 55.9398 44.4271 55.8956 44.4437 55.8444C44.4695 55.7953 44.4813 55.7423 44.4792 55.6856C44.4744 55.5789 44.4395 55.4683 44.3585 55.3939C44.3306 55.3725 44.3029 55.3509 44.275 55.3294C44.2107 55.2922 44.1414 55.2734 44.0668 55.2732C43.8969 55.2509 43.7254 55.2425 43.5545 55.2554C43.4977 55.2532 43.4448 55.2651 43.3956 55.2908C43.3445 55.3075 43.3003 55.3359 43.2628 55.3761C43.2226 55.4134 43.1942 55.4578 43.1776 55.5089C43.1518 55.5581 43.1399 55.611 43.1421 55.6678C43.1469 55.7745 43.1818 55.885 43.2628 55.9594C43.34 56.0302 43.4461 56.0884 43.5545 56.0802Z" fill="#E34511"/>
<path d="M45.8446 55.2435C46.662 54.908 47.3854 54.4046 48.183 54.0309C48.5993 53.836 49.063 53.7184 49.4967 53.5643C49.9429 53.4058 50.3874 53.2426 50.8307 53.0757C52.6099 52.4053 54.3643 51.6719 56.1145 50.93C56.9481 50.5765 57.7784 50.161 58.6427 49.8906C59.3745 49.6617 60.175 49.4508 60.9466 49.5762C62.2247 49.7837 63.0163 50.8724 63.0917 52.0853C63.1291 52.6882 63.0311 53.2948 62.773 53.846C62.4457 54.5449 61.8996 55.1236 61.3534 55.6576C60.751 56.2464 60.1075 56.7928 59.5384 57.4155C58.9795 58.027 58.2917 58.5103 57.6197 58.988C56.9443 59.468 56.2586 59.9457 55.661 60.5227C55.5323 60.6469 55.4195 60.796 55.2671 60.8901C55.0761 61.0078 54.8828 61.1218 54.6871 61.2317C54.3168 61.4398 53.9384 61.6335 53.5529 61.812C52.0329 62.5158 50.3795 62.9713 48.7104 63.1202C48.2778 63.1588 47.8457 63.1527 47.4132 63.1781C47.0296 63.2006 46.6616 63.2289 46.2814 63.1496C45.5711 63.0011 44.7777 62.6171 44.3689 61.9959C44.1774 61.7049 44.0766 61.4026 43.946 61.0779C43.7784 60.6611 43.6204 60.2401 43.4817 59.8127C43.211 58.9791 43.0094 58.119 42.9617 57.2416C42.9521 57.0644 42.9238 56.8451 42.9658 56.69C43.0097 56.5285 43.096 56.374 43.1443 56.2059C43.2908 55.6947 42.4952 55.4764 42.3491 55.9866C42.2993 56.1605 42.2108 56.321 42.1642 56.495C42.1059 56.7121 42.1231 56.945 42.1333 57.1669C42.1554 57.6482 42.2179 58.1294 42.3102 58.6022C42.4908 59.5282 42.7994 60.4236 43.1509 61.2973C43.2954 61.6564 43.418 62.033 43.6248 62.3624C43.866 62.7468 44.1839 63.0521 44.5618 63.3C45.2882 63.7769 46.1356 64.0562 47.0092 64.0339C48.8331 63.9872 50.6274 63.7672 52.3609 63.1729C53.2197 62.8784 54.0563 62.5119 54.8554 62.0809C55.2405 61.8732 55.707 61.6663 56.0084 61.3453C56.3007 61.0339 56.6235 60.7525 56.9585 60.4881C57.6447 59.9467 58.3826 59.4743 59.0721 58.9368C59.7842 58.3816 60.3709 57.7109 61.0278 57.0958C62.1995 55.9985 63.5179 54.8646 63.8358 53.2095C64.0901 51.8851 63.7724 50.3678 62.6823 49.4883C62.0216 48.9553 61.2036 48.6954 60.3566 48.7221C59.4744 48.75 58.5739 48.9979 57.7652 49.3405C55.9447 50.1118 54.1291 50.895 52.2927 51.6279C51.3681 51.9969 50.4384 52.3532 49.5015 52.6896C49.0282 52.8595 48.5433 53.0046 48.0738 53.1842C47.6344 53.3523 47.2226 53.5961 46.816 53.8299C46.4287 54.0526 46.0399 54.2786 45.6257 54.4486C45.4199 54.5331 45.2735 54.7226 45.3377 54.9558C45.3908 55.1505 45.6373 55.3286 45.8446 55.2435Z" fill="#E34511"/>
<path d="M46.8987 63.6797C46.9487 64.4718 46.9533 65.2712 47.1016 66.0536C47.2528 66.8521 47.6037 67.5802 48.1357 68.1947C48.6549 68.7946 49.3318 69.2433 50.0943 69.4669C50.797 69.673 51.5443 69.6898 52.2706 69.6512C53.065 69.609 53.8553 69.5156 54.6505 69.4851C55.5876 69.4491 56.5284 69.4514 57.4598 69.3304C58.3938 69.209 59.2681 68.9523 60.1093 68.5257C60.881 68.1346 61.5906 67.6361 62.2753 67.1101C62.9647 66.5804 63.6332 66.0235 64.3373 65.513C64.9732 65.0518 65.5517 64.555 66.0388 63.9354C66.5564 63.2769 66.9934 62.5605 67.4811 61.8804C68.0108 61.1419 68.5573 60.4087 68.9675 59.5945C69.2811 58.9721 69.5953 58.3372 69.8282 57.6797C70.0509 57.0512 70.1973 56.3378 70.0099 55.6809C69.6796 54.523 68.467 54.0667 67.3868 53.9161C66.2308 53.7549 65.0248 53.8429 63.902 54.162C62.9033 54.4459 61.8379 54.9528 61.2774 55.8706C61.1532 56.0742 61.0588 56.3013 61.0021 56.5328C60.8759 57.0482 61.6709 57.2681 61.7973 56.752C61.8098 56.7008 61.8237 56.65 61.84 56.5999C61.846 56.5819 61.89 56.4651 61.8745 56.5021C61.8603 56.5359 61.9157 56.4176 61.9284 56.3935C61.956 56.3417 61.9857 56.2913 62.0175 56.2419C62.0433 56.2022 62.0703 56.1633 62.0983 56.1252C62.0505 56.1898 62.1289 56.0885 62.1465 56.0681C62.2191 55.9841 62.2973 55.9053 62.3796 55.8307C62.487 55.7336 62.4964 55.727 62.5807 55.6664C62.6838 55.5924 62.7907 55.5237 62.9004 55.4597C62.9962 55.404 63.094 55.3519 63.1935 55.303C63.3154 55.2432 63.4005 55.2057 63.4878 55.1711C64.4884 54.7735 65.4997 54.6303 66.562 54.6666C66.6941 54.6711 66.8263 54.679 66.958 54.6906C67.104 54.7033 67.1796 54.712 67.2715 54.726C67.4951 54.76 67.7175 54.8062 67.9351 54.8689C68.0416 54.8996 68.1465 54.935 68.2506 54.9738C68.2729 54.982 68.2948 54.9909 68.3168 54.9998C68.3024 54.9941 68.2437 54.9672 68.3148 54.9994C68.3663 55.0226 68.4174 55.0467 68.4677 55.0728C68.6652 55.1752 68.8473 55.3012 68.9913 55.4731C69.3378 55.887 69.3121 56.4452 69.1844 56.9618C69.0355 57.565 68.7651 58.1264 68.4954 58.6829C68.1482 59.3992 67.7579 60.0712 67.2995 60.7227C66.8201 61.4042 66.3424 62.0848 65.8723 62.7726C65.487 63.3364 65.0641 63.8641 64.5476 64.3143C63.9465 64.8382 63.2708 65.2842 62.6452 65.7794C61.3978 66.7665 60.0999 67.822 58.5467 68.2755C56.9239 68.7492 55.1878 68.5915 53.5203 68.7296C52.2226 68.8372 50.7708 69.0565 49.5919 68.3581C48.9639 67.986 48.4493 67.3907 48.1576 66.7221C47.8906 66.1098 47.8219 65.4345 47.7825 64.7748C47.7607 64.4098 47.7465 64.0443 47.7235 63.6792C47.6903 63.1525 46.8654 63.1487 46.8987 63.6797Z" fill="#E34511"/>
<path d="M50.1769 70.7371C50.278 72.1057 50.5542 73.457 51.3845 74.5823C52.3093 75.8358 53.6263 76.7711 55.0849 77.3049C56.6795 77.8885 58.3942 77.6757 59.9915 77.2109C60.7633 76.9862 61.5086 76.6848 62.2677 76.4222C63.0487 76.152 63.7576 75.8175 64.3375 75.2134C64.8629 74.6663 65.2654 74.0131 65.8079 73.4813C66.1956 73.1012 66.6124 72.7492 67.0063 72.3752C67.9413 71.488 68.8418 70.5627 69.6837 69.5865C70.5848 68.5419 71.4333 67.437 72.1261 66.2416C72.7538 65.1585 73.263 63.9827 73.42 62.7324C73.5606 61.6127 73.3933 60.2772 72.4043 59.5809C71.5886 59.0067 70.4684 59.0867 69.5258 59.1542C69.2832 59.1715 69.0405 59.1907 68.7975 59.2045C68.2699 59.2347 68.2664 60.0596 68.7975 60.0293C69.2723 60.0021 69.746 59.9546 70.2216 59.9405C70.7042 59.9263 71.0752 59.9329 71.4947 60.0565C71.5435 60.0708 71.5915 60.0873 71.6395 60.1042C71.6631 60.1124 71.6869 60.1217 71.71 60.1312C71.6423 60.1032 71.7021 60.1286 71.7146 60.1347C71.8098 60.1819 71.9002 60.2335 71.9881 60.293C72.0616 60.3429 71.9869 60.2826 72.0516 60.3447C72.0884 60.38 72.126 60.4136 72.161 60.4507C72.1801 60.471 72.2504 60.554 72.2423 60.5436C72.2429 60.5444 72.3025 60.6335 72.3246 60.6701C72.574 61.086 72.6451 61.647 72.6367 62.1672C72.6195 63.2221 72.2246 64.2956 71.726 65.2578C71.1417 66.385 70.4012 67.4291 69.5989 68.4106C68.7992 69.3889 67.935 70.314 67.0352 71.2006C66.2177 72.0062 65.3 72.7292 64.585 73.6299C64.1543 74.1722 63.7363 74.7735 63.1386 75.1458C62.514 75.5351 61.7692 75.7144 61.0858 75.9732C59.6342 76.5228 58.0368 76.9902 56.4691 76.8066C55.0765 76.6434 53.6997 75.8391 52.7162 74.8659C52.2682 74.4225 51.8843 73.927 51.6044 73.3605C51.3426 72.831 51.1955 72.2499 51.1028 71.6687C51.0536 71.3601 51.0253 71.0485 51.0022 70.7369C50.9858 70.5147 50.8244 70.3245 50.5898 70.3245C50.379 70.3247 50.1604 70.5137 50.1769 70.7371Z" fill="#E34511"/>
<path d="M58.7194 77.026C58.6442 77.6907 58.844 78.3662 59.3606 78.8114C59.8487 79.232 60.4848 79.4343 61.1119 79.5331C62.5628 79.7619 64.1551 79.7 65.513 79.1169C66.38 78.7446 67.1466 78.1734 67.8399 77.5398C68.6226 76.8245 69.3631 76.0402 70.0626 75.2441C70.7823 74.4253 71.3448 73.4993 72.0246 72.6507C72.3573 72.2355 72.6956 71.8215 72.9848 71.3742C73.25 70.9636 73.4622 70.5217 73.6433 70.0684C74.0395 69.0767 74.2317 67.9812 73.7769 66.979C73.3874 66.1204 72.5521 65.2743 71.5423 65.3264C71.0141 65.3537 71.011 66.1786 71.5423 66.1512C72.2153 66.1164 72.7501 66.735 73.031 67.323C73.3757 68.0449 73.202 68.8685 72.9429 69.5974C72.6379 70.4554 72.1409 71.1934 71.5759 71.9C71.2586 72.2969 70.9344 72.6908 70.6489 73.1118C70.3822 73.505 70.1222 73.8953 69.8193 74.2627C69.1758 75.043 68.4627 75.7713 67.7478 76.4861C67.1431 77.0906 66.4944 77.6553 65.7488 78.0805C65.0345 78.4878 64.2404 78.7431 63.4176 78.792C62.8848 78.8235 62.3474 78.8294 61.8149 78.7903C61.2553 78.7492 60.6024 78.6381 60.1306 78.3563C60.0671 78.3184 60.0043 78.2778 59.9459 78.2324C60.0074 78.2803 59.9445 78.2298 59.9304 78.2166C59.8997 78.1877 59.8678 78.1604 59.8383 78.1302C59.8215 78.113 59.8056 78.0952 59.7892 78.0779C59.7731 78.0601 59.7576 78.0419 59.7425 78.0234C59.77 78.0601 59.7697 78.0592 59.742 78.0213C59.7042 77.9662 59.6724 77.909 59.6392 77.8511C59.6295 77.8341 59.5962 77.7597 59.627 77.8323C59.6123 77.7976 59.5999 77.7615 59.5887 77.7257C59.565 77.6508 59.5463 77.5736 59.5345 77.4959C59.5455 77.5685 59.5333 77.4786 59.5323 77.4608C59.5297 77.4098 59.5265 77.3592 59.5265 77.308C59.5265 77.2137 59.534 77.12 59.5445 77.0263C59.5696 76.8046 59.337 76.6139 59.1321 76.6139C58.888 76.6136 58.7447 76.8036 58.7194 77.026Z" fill="#E34511"/>
<path d="M70.6178 27.8443C70.1295 26.577 69.1594 25.5794 68.5553 24.3722C67.9679 23.1986 67.6859 21.8809 67.704 20.5704C67.7055 20.4663 67.7116 20.3625 67.7222 20.2589C67.7299 20.1827 67.7172 20.2758 67.7299 20.202C67.7392 20.1489 67.7489 20.0961 67.7609 20.0435C67.7809 19.9563 67.8053 19.8698 67.8348 19.7854C67.8429 19.7624 67.8812 19.6661 67.8673 19.6979C67.8546 19.7273 67.902 19.6272 67.915 19.6021C67.9526 19.5303 67.9962 19.4635 68.0397 19.3956C68.0902 19.3167 68.0224 19.4103 68.0664 19.358C68.095 19.324 68.1238 19.2903 68.1543 19.2578C68.2037 19.2055 68.2571 19.1582 68.3104 19.11C68.3851 19.0426 68.2855 19.1242 68.3439 19.0825C68.38 19.0568 68.4163 19.0315 68.4537 19.0078C68.5199 18.9657 68.5882 18.9274 68.6583 18.8925C68.6888 18.8773 68.7196 18.8631 68.7505 18.8489C68.8211 18.8164 68.7609 18.8448 68.7467 18.8504C68.7681 18.842 68.7896 18.8332 68.8112 18.8255C68.9737 18.7673 69.1391 18.7211 69.3087 18.6884C69.3509 18.6803 69.3933 18.6732 69.4357 18.6663C69.5078 18.6544 69.3903 18.6691 69.4928 18.6586C69.5878 18.6488 69.6826 18.6403 69.7781 18.6356C69.9622 18.6266 70.1468 18.6284 70.3307 18.6384C70.7299 18.6604 71.0071 18.7039 71.4255 18.8013C71.811 18.891 72.1903 19.0086 72.5593 19.1519C72.6036 19.1691 72.6477 19.1869 72.6917 19.2047C72.7707 19.2366 72.7026 19.2084 72.7605 19.2338C72.8453 19.271 72.9296 19.3091 73.0131 19.3491C73.179 19.4286 73.342 19.514 73.501 19.6066C73.6435 19.6895 73.7829 19.7783 73.9172 19.8739C73.949 19.8965 73.9802 19.9198 74.0115 19.9431C74.0698 19.9863 73.9721 19.9076 74.043 19.9685C74.1587 20.0674 74.2743 20.1654 74.3863 20.2685C75.4309 21.2295 76.2684 22.3887 77.3339 23.3299C78.378 24.2523 79.5713 24.9903 80.609 25.9183C81.5763 26.7834 82.4252 27.8135 83.546 28.4923C83.9452 28.7341 84.3802 28.908 84.7926 29.1247C85.1782 29.3274 85.5195 29.5458 85.7282 29.899C85.8456 30.0976 85.9025 30.3135 85.9377 30.5514C85.9702 30.7719 86.2491 30.8933 86.4449 30.8394C86.6813 30.7744 86.7656 30.5534 86.7329 30.3322C86.6534 29.7933 86.3949 29.2945 85.9844 28.9329C85.6116 28.6046 85.1698 28.3867 84.7249 28.1746C84.2413 27.944 83.7806 27.6949 83.3611 27.3574C82.8209 26.9227 82.3339 26.4276 81.8382 25.9442C81.3361 25.4545 80.8127 25.0037 80.2563 24.5768C79.6881 24.1406 79.1053 23.7233 78.5464 23.2751C77.9661 22.8098 77.4208 22.3087 76.9145 21.7637C76.4121 21.2228 75.9388 20.6552 75.4229 20.1268C74.7748 19.463 74.0805 18.923 73.2318 18.5459C72.4356 18.1921 71.6019 17.9529 70.7362 17.8495C69.9464 17.7551 69.1182 17.7962 68.3812 18.1164C67.6794 18.4214 67.1671 19.0243 66.9792 19.7671C66.8443 20.3008 66.8659 20.8656 66.9093 21.4095C66.9663 22.1226 67.096 22.8316 67.3174 23.5123C67.5366 24.1862 67.8358 24.8389 68.2055 25.4436C68.5725 26.0439 69.0024 26.6031 69.372 27.2017C69.5419 27.4768 69.7057 27.7614 69.8222 28.0637C69.9022 28.2714 70.0995 28.4149 70.3294 28.3517C70.5282 28.297 70.6983 28.0532 70.6178 27.8443Z" fill="#E34511"/>
<path d="M84.1249 28.8717C85.8049 28.9628 87.4857 28.845 89.1423 28.5555C90.579 28.3046 91.9813 27.9435 93.3306 27.3842C95.8813 26.327 98.1397 24.7277 100.201 22.9075C102.277 21.0748 104.158 19.038 106.085 17.0538C107.306 15.7968 108.485 14.4962 109.697 13.2303C110.913 11.9612 112.133 10.6965 113.342 9.4217C113.949 8.78267 114.552 8.14116 115.151 7.49553C115.755 6.84446 116.289 6.12575 116.843 5.43245C116.956 5.29142 117.049 5.19476 117.197 5.09446C117.389 4.96432 117.528 4.8345 117.666 4.64793C117.892 4.34162 118.129 4.04321 118.375 3.75207C118.866 3.17028 119.392 2.61966 119.938 2.08983C120.206 1.83019 120.479 1.57567 120.753 1.32296C121.144 0.962701 120.56 0.380578 120.17 0.739682C119.038 1.78202 117.969 2.87715 117.044 4.10985C116.942 4.24544 116.868 4.32264 116.728 4.417C116.567 4.52587 116.433 4.63325 116.311 4.78484C116.029 5.13768 115.747 5.49068 115.465 5.84352C115.182 6.19685 114.904 6.55018 114.596 6.88223C114.3 7.20125 114.003 7.51928 113.706 7.83632C111.321 10.3761 108.878 12.8608 106.498 15.4054C104.558 17.4802 102.602 19.5614 100.525 21.5006C98.5717 23.3232 96.453 24.993 94.0409 26.1673C91.3522 27.4762 88.2987 28.074 85.3175 28.0793C84.9198 28.0799 84.5223 28.0684 84.1251 28.0468C83.5946 28.0181 83.5962 28.843 84.1249 28.8717Z" fill="#E34511"/>
<path d="M57.0873 26.5955C57.7358 26.558 58.3849 26.4971 59.0235 26.3749C59.3399 26.3144 59.6531 26.2373 59.9606 26.1408C60.1092 26.0942 60.2615 26.048 60.404 25.9846C60.5745 25.9088 60.7337 25.8012 60.9 25.7149C62.0598 25.114 63.3293 24.7607 64.5529 24.3158C65.2728 24.0542 65.9888 23.7823 66.7019 23.5024C66.9091 23.4211 67.0534 23.2261 66.9899 22.9952C66.9357 22.7977 66.6912 22.6254 66.4827 22.7072C65.2592 23.1873 64.0262 23.642 62.7828 24.0677C62.1541 24.283 61.5356 24.5088 60.9307 24.7856C60.6407 24.9184 60.3693 25.0823 60.0848 25.2237C59.8167 25.357 59.4926 25.4246 59.2023 25.4941C58.5077 25.6602 57.7989 25.7296 57.0873 25.7705C56.5596 25.8012 56.5561 26.6261 57.0873 26.5955Z" fill="#E34511"/>
<path d="M74.8411 20.5455C75.3718 20.5455 75.3728 19.7207 74.8411 19.7207C74.3105 19.7207 74.3095 20.5455 74.8411 20.5455Z" fill="#E34511"/>
<path d="M75.748 21.7577C76.5465 21.7102 77.3396 21.5779 78.141 21.5755C78.9672 21.573 79.7582 21.8255 80.563 21.985C81.4283 22.1564 82.282 22.2455 83.1642 22.2039C83.9549 22.1666 84.7695 22.0647 85.5545 22.2127C86.1191 22.3191 86.6645 22.5615 87.1946 22.7793C87.6268 22.9568 88.1463 23.205 88.5661 23.4985C88.7358 23.6171 88.9202 23.7748 89.0806 23.9556C89.1541 24.0387 89.1812 24.0722 89.2528 24.1867C89.2834 24.2358 89.3121 24.2861 89.3387 24.3376C89.3791 24.4163 89.3771 24.4123 89.3936 24.4585C89.5769 24.9671 89.517 25.491 89.1696 25.9642C88.9337 26.2855 88.6362 26.5716 88.3566 26.8545C88.1263 27.0874 87.8325 27.1946 87.5193 27.268C86.7949 27.4379 86.0485 27.4953 85.511 28.0764C85.1509 28.4656 85.7328 29.0503 86.0942 28.6597C86.5345 28.1838 87.2309 28.1944 87.8198 28.0434C88.1715 27.9534 88.5019 27.8067 88.7849 27.5778C89.072 27.3455 89.329 27.0455 89.5721 26.7684C90.0694 26.2016 90.3913 25.5561 90.3075 24.7851C90.2436 24.1972 89.9725 23.6775 89.5576 23.2591C88.7688 22.4637 87.6615 22.0761 86.6399 21.6805C85.8456 21.3731 85.0355 21.2916 84.1885 21.3249C83.3119 21.3594 82.4412 21.4504 81.5669 21.3262C81.0565 21.2538 80.5516 21.1454 80.0487 21.0339C79.569 20.9275 79.0918 20.8033 78.6002 20.7662C77.6471 20.6943 76.6976 20.8765 75.7487 20.9331C75.2206 20.9645 75.217 21.7894 75.748 21.7577Z" fill="#E34511"/>
<path d="M56.4602 27.4221C58.0923 27.6533 59.7471 27.6862 61.374 27.9565C62.2372 28.1 63.095 28.2518 63.9649 28.3524C64.8301 28.4525 65.6986 28.5205 66.5682 28.5662C68.2397 28.6539 69.914 28.659 71.5873 28.6688C72.4312 28.6736 73.2751 28.6798 74.1187 28.6985C74.9078 28.716 75.6897 28.7656 76.477 28.8164C76.8722 28.8418 77.2655 28.8474 77.6599 28.887C78.0419 28.9254 78.4233 28.971 78.8034 29.0256C79.6308 29.1445 80.4531 29.2973 81.2699 29.4747C82.6163 29.7672 83.9291 30.1078 85.1831 30.6911C87.5004 31.7693 89.4861 33.4026 91.2531 35.2295C93.0451 37.0822 94.6267 39.1221 96.2533 41.1177C96.4516 41.3608 96.6505 41.6033 96.8506 41.845C96.9928 42.0167 97.2868 41.9921 97.4339 41.845C97.6038 41.6751 97.5764 41.4339 97.4339 41.2618C95.7814 39.2666 94.2082 37.2025 92.4501 35.2966C90.698 33.3972 88.7384 31.6419 86.4531 30.4077C85.278 29.7731 84.0228 29.2778 82.7261 28.9563C81.147 28.5647 79.5344 28.2661 77.9171 28.0891C77.123 28.0022 76.3215 27.9757 75.5241 27.9215C74.7071 27.8661 73.8838 27.8658 73.0651 27.8559C71.3811 27.8354 69.6968 27.8467 68.0132 27.7988C66.2957 27.75 64.5758 27.6411 62.8761 27.3821C62.0195 27.2517 61.1726 27.0823 60.3109 26.9851C59.4818 26.8916 58.6491 26.835 57.8188 26.7563C57.4384 26.7203 57.0582 26.6801 56.6798 26.6265C56.4596 26.5953 56.2369 26.6804 56.1725 26.9145C56.1189 27.108 56.2382 27.3907 56.4602 27.4221Z" fill="#E34511"/>
<path d="M97.2906 42.1168C97.1326 42.0203 97.0582 41.9229 97.0585 41.7445C96.8516 41.8632 96.6448 41.9818 96.4379 42.1006C97.1235 42.5729 97.6274 43.2931 98.0881 43.973C98.579 44.6976 99.0525 45.4289 99.5668 46.1375C100.195 47.0032 100.727 47.9334 101.251 48.8644C101.762 49.7734 102.288 50.6685 102.841 51.553C103.395 52.4394 103.936 53.3541 104.282 54.3451C104.644 55.3838 104.789 56.4857 105.059 57.5492C105.196 58.0894 105.386 58.612 105.546 59.1451C105.706 59.6728 105.844 60.2066 105.97 60.7432C106.228 61.8401 106.434 62.9483 106.669 64.0502C106.862 64.951 107.121 65.8403 107.286 66.7467C107.404 67.394 107.452 68.0948 107.118 68.6385C106.743 69.2502 105.915 69.5512 105.225 69.7117C104.472 69.8871 103.639 69.8676 102.945 69.4948C102.605 69.3119 102.283 69.054 102.061 68.7354C101.831 68.4064 101.691 68.0322 101.579 67.6498C101.333 66.8069 101.213 65.9382 100.897 65.115C100.153 63.1725 98.923 61.4784 97.9463 59.6542C96.8896 57.6805 95.9604 55.6408 94.8742 53.6825C93.8084 51.7613 92.5183 49.994 91.2092 48.2342C90.8891 47.8039 90.5692 47.3735 90.253 46.9403C90.1219 46.7607 89.8949 46.6718 89.6889 46.7924C89.4945 46.906 89.4301 47.1625 89.5409 47.3565C90.5029 49.0399 91.7138 50.5583 92.8345 52.1351C93.3926 52.9203 93.9302 53.7221 94.3985 54.5647C94.9064 55.4784 95.3125 56.4468 95.7265 57.4053C96.5882 59.4001 97.3996 61.4167 98.3029 63.3932C98.7033 64.2691 99.1437 65.127 99.5287 66.0098C99.8909 66.8404 100.216 67.7329 100.292 68.6422C100.358 69.4334 100.187 70.153 99.8795 70.8771C99.8175 71.0231 99.7497 71.1678 99.6737 71.307C99.6389 71.3708 99.6023 71.434 99.5615 71.4942C99.4926 71.596 99.6445 71.4197 99.5237 71.5411C99.4845 71.5805 99.4464 71.6235 99.4015 71.6569C99.1208 71.8655 98.7257 71.9059 98.3905 71.9551C97.4519 72.0925 96.562 72.4386 95.6053 72.4638C95.1719 72.4752 94.7191 72.4536 94.3114 72.2919C94.0258 72.1786 93.8003 71.9909 93.5819 71.7601C92.9921 71.1368 92.457 70.4301 91.9756 69.7213C91.4135 68.8934 90.9183 68.0229 90.4288 67.1508C89.4652 65.434 88.445 63.7498 87.457 62.0468C86.4736 60.3516 85.454 58.6667 84.1961 57.1576C83.5745 56.4118 82.9177 55.7033 82.3202 54.9365C81.7234 54.1703 81.1418 53.3905 80.4947 52.6652C80.1788 52.3112 79.8472 51.9719 79.4955 51.6534C79.1666 51.3555 78.5677 51.7489 78.8479 52.1531C79.4084 52.9617 80.099 53.655 80.8086 54.3316C81.5369 55.0259 82.2379 55.7368 82.905 56.4907C84.2876 58.0533 85.5837 59.6977 86.8398 61.3632C88.0827 63.0115 89.2671 64.7085 90.3025 66.4959C91.2515 68.1343 92.2958 69.9564 92.3921 71.8932C92.4297 72.6512 92.3247 73.553 91.8064 74.1198C91.3815 74.5845 90.7814 74.7972 90.144 74.8911C89.503 74.9855 88.7396 74.9436 88.103 74.8484C87.2589 74.7224 86.4244 74.5023 85.667 74.1016C84.9387 73.7163 84.2498 73.1855 83.6943 72.5755C83.4236 72.2782 83.2685 71.9287 83.1179 71.5607C82.9259 71.0912 82.7128 70.6313 82.4799 70.1808C82.0119 69.2757 81.5034 68.3827 80.9819 67.5074C80.4562 66.6251 79.8486 65.7957 79.2325 64.9752C77.9376 63.2505 76.7218 61.482 75.5446 59.6751C74.991 58.8253 74.4384 57.9748 73.8808 57.1274C73.3474 56.3167 72.795 55.514 72.1648 54.7745C71.8712 54.4299 71.5591 54.102 71.2226 53.799C71.056 54.0149 70.8894 54.2308 70.7228 54.4467C71.3572 54.9055 71.8019 55.6959 72.1978 56.3722C72.4152 56.7434 72.6231 57.1203 72.8466 57.4878C73.1026 57.9086 73.3824 58.3142 73.6344 58.7378C74.1991 59.6872 74.6942 60.6756 75.1624 61.6753C75.6379 62.6911 76.1153 63.7114 76.5543 64.7435C76.985 65.7565 77.3309 66.8033 77.7489 67.8215C77.9626 68.3421 78.1911 68.8559 78.4535 69.3538C78.6917 69.8059 78.9458 70.2501 79.1701 70.7095C79.3926 71.1651 79.5627 71.6334 79.6935 72.123C79.8048 72.5403 79.9774 72.9377 80.1125 73.3475C80.1723 73.5292 80.2331 73.7158 80.2613 73.9057C80.2842 74.0601 80.2791 74.1516 80.2156 74.3174C80.1239 74.5569 79.8471 74.84 79.594 75.0397C78.8799 75.6035 78.1134 75.8958 77.2627 76.1228C76.1076 76.4309 74.9149 76.4882 73.7269 76.5527C73.1991 76.5814 73.1956 77.4063 73.7269 77.3774C75.7308 77.2687 77.815 77.1249 79.5714 76.0512C80.2562 75.6326 81.0004 75.0257 81.0883 74.1716C81.1327 73.7407 80.9684 73.2915 80.8262 72.8924C80.6666 72.444 80.5282 71.9976 80.3879 71.5434C80.0648 70.4967 79.4762 69.5784 78.9947 68.6036C78.485 67.5718 78.1149 66.4798 77.703 65.4071C77.2825 64.3123 76.7849 63.2502 76.2999 62.1829C75.8229 61.1331 75.3331 60.088 74.7779 59.0767C74.2329 58.084 73.598 57.1459 73.0317 56.1654C72.5218 55.2824 71.9803 54.3428 71.139 53.7345C70.7598 53.4603 70.2934 54.0706 70.6392 54.3821C72.0835 55.6831 73.0782 57.4088 74.1329 59.0196C75.3531 60.8831 76.5516 62.7607 77.8849 64.5465C78.5139 65.3889 79.1595 66.2198 79.744 67.0942C80.3305 67.972 80.8368 68.9043 81.3509 69.8257C81.6008 70.2735 81.8423 70.7262 82.0609 71.1902C82.2711 71.6367 82.4195 72.1192 82.6625 72.5488C83.0823 73.2912 83.8328 73.8847 84.5204 74.3664C85.919 75.3465 87.6946 75.7769 89.3901 75.7654C90.1395 75.7602 90.9039 75.6458 91.5796 75.3073C92.2663 74.9633 92.7624 74.3624 93.0028 73.6368C93.6423 71.7058 92.8467 69.5951 91.9829 67.8708C91.0355 65.9796 89.8962 64.1906 88.6696 62.4694C87.4305 60.7308 86.1138 59.042 84.7556 57.3951C84.0633 56.5558 83.3532 55.7296 82.6046 54.9398C81.9228 54.2204 81.1703 53.5723 80.4869 52.8546C80.1522 52.5031 79.8367 52.1357 79.5599 51.7367C79.344 51.9033 79.128 52.0699 78.9121 52.2365C80.4048 53.5886 81.475 55.3108 82.7964 56.816C83.452 57.5627 84.0897 58.3043 84.6601 59.1202C85.2346 59.9418 85.7623 60.795 86.273 61.6572C86.7832 62.5189 87.2761 63.3907 87.7822 64.2547C88.2924 65.126 88.8252 65.9829 89.321 66.8626C89.8248 67.7562 90.3163 68.6575 90.8635 69.5257C91.3928 70.3656 91.9956 71.1394 92.6226 71.9074C93.1051 72.4985 93.641 73.0022 94.4062 73.1823C95.4378 73.4252 96.5511 73.2488 97.5562 72.9694C97.974 72.8533 98.3869 72.7903 98.8138 72.719C99.2369 72.6482 99.6516 72.5219 99.9845 72.2401C100.268 72.0006 100.434 71.655 100.579 71.3215C100.731 70.9744 100.872 70.6191 100.975 70.2544C101.513 68.3584 100.632 66.3815 99.8292 64.6988C98.9027 62.7571 98.0479 60.7889 97.2119 58.8068C96.387 56.8513 95.6082 54.8578 94.46 53.0641C93.3893 51.3913 92.1241 49.8541 91.0293 48.1978C90.7576 47.7867 90.4975 47.3681 90.253 46.9403C90.0156 47.0791 89.7783 47.218 89.5409 47.3569C90.8722 49.1799 92.2762 50.9566 93.4571 52.8841C94.665 54.8558 95.6315 56.9629 96.6842 59.0183C97.1786 59.9832 97.7025 60.9276 98.2604 61.8573C98.8106 62.7743 99.3678 63.6907 99.8177 64.6626C100.023 65.1059 100.207 65.5626 100.338 66.0337C100.457 66.4616 100.541 66.8984 100.644 67.3305C100.855 68.22 101.155 69.1024 101.856 69.7285C103.234 70.9607 105.356 70.8458 106.888 69.9511C107.617 69.5248 108.069 68.8467 108.172 68.0106C108.269 67.2212 108.075 66.4126 107.889 65.6501C107.358 63.4682 107.02 61.2338 106.387 59.0777C106.227 58.5308 106.029 57.996 105.884 57.4446C105.739 56.8894 105.626 56.3262 105.505 55.7652C105.389 55.2258 105.269 54.6834 105.09 54.1609C104.908 53.6332 104.677 53.1218 104.419 52.6273C103.913 51.6565 103.29 50.7561 102.738 49.8124C102.185 48.8668 101.673 47.8981 101.101 46.9636C100.584 46.1187 99.975 45.3408 99.4317 44.5139C98.9207 43.7363 98.4232 42.9409 97.8051 42.2416C97.5214 41.9208 97.2075 41.6318 96.8543 41.3887C96.5904 41.2069 96.2344 41.45 96.2337 41.7448C96.2327 42.2181 96.477 42.5867 96.8742 42.8294C97.3285 43.1063 97.7434 42.3934 97.2906 42.1168Z" fill="#E34511"/>
<path d="M105.427 56.9247C107.067 57.0894 108.061 55.5573 109.232 54.7201C110.879 53.5428 112.724 52.6716 114.507 51.7249C115.595 51.1471 116.684 50.571 117.779 50.0056C118.251 49.7619 117.834 49.05 117.363 49.2935C115.514 50.2482 113.67 51.2163 111.835 52.1967C110.974 52.6564 110.122 53.1351 109.307 53.6728C108.631 54.1185 108.058 54.6452 107.455 55.1802C106.878 55.6925 106.226 56.1801 105.427 56.1C105.205 56.0777 105.014 56.3055 105.014 56.5123C105.014 56.7538 105.204 56.9023 105.427 56.9247Z" fill="#E34511"/>
<path d="M70.6765 74.6953C70.7412 75.1678 71.0505 75.5595 71.3655 75.8977C71.5117 76.0547 71.6644 76.206 71.8043 76.3688C71.8215 76.3888 71.8385 76.4089 71.8553 76.4293C71.8609 76.4361 71.8663 76.4429 71.872 76.4496C71.8993 76.4841 71.8939 76.4767 71.856 76.4277C71.8573 76.4536 71.9242 76.5214 71.9388 76.5433C71.9978 76.6316 72.0486 76.7241 72.0902 76.8219C72.1748 77.0212 72.4836 77.0799 72.6545 76.9699C72.8617 76.8363 72.893 76.619 72.8025 76.4056C72.6311 76.0019 72.3007 75.6865 72.0042 75.3731C71.9338 75.2987 71.864 75.2235 71.7976 75.1455C71.7847 75.1303 71.725 75.0361 71.7057 75.0333C71.7435 75.0823 71.7491 75.0894 71.7228 75.0544C71.7177 75.0473 71.7126 75.0404 71.7077 75.0333C71.6927 75.0122 71.678 74.9909 71.6636 74.9695C71.6352 74.9268 71.6087 74.8829 71.5841 74.838C71.5719 74.8156 71.5602 74.793 71.5491 74.7701C71.5435 74.7587 71.5383 74.7471 71.533 74.7354C71.5201 74.7067 71.5257 74.7201 71.5496 74.7753C71.5554 74.7453 71.5102 74.6624 71.5016 74.6297C71.4883 74.579 71.479 74.5277 71.4719 74.476C71.4426 74.2615 71.157 74.1256 70.9647 74.1879C70.7288 74.2643 70.645 74.4654 70.6765 74.6953Z" fill="#E34511"/>
<path d="M61.6008 54.8933C61.613 54.9849 61.6252 55.0766 61.6374 55.1681C61.8936 55.0987 62.1498 55.0294 62.4059 54.96C61.756 53.8025 60.9786 52.6521 59.8724 51.8851C59.0209 51.2947 57.7991 51.1099 56.8094 51.4214C54.4435 52.166 55.0018 55.6028 56.2669 57.0917C56.6451 57.5369 57.1616 57.8757 57.7331 58.01C58.377 58.1612 59.0453 58.0769 59.6684 57.8757C59.7939 57.8351 59.9351 57.7292 59.9564 57.5877C59.974 57.4706 59.9915 57.3533 60.009 57.2362C60.042 57.0161 59.9539 56.7929 59.721 56.7289C59.5264 56.6755 59.2469 56.7954 59.2138 57.0169C59.1961 57.1342 59.1786 57.2513 59.161 57.3685C59.257 57.2725 59.353 57.1765 59.449 57.0805C59.0256 57.2172 58.5365 57.3079 58.1229 57.2485C57.7129 57.1897 57.3612 57.0156 57.0659 56.737C56.4171 56.1245 56.1163 55.2455 56.0386 54.3699C55.9648 53.5384 56.0849 52.597 56.8858 52.2669C57.6203 51.9644 58.6064 52.0784 59.2583 52.4684C60.3496 53.1212 61.0861 54.2945 61.6935 55.3763C61.8799 55.7084 62.5181 55.5886 62.462 55.1681C62.4498 55.0766 62.4376 54.9849 62.4254 54.8933C62.3959 54.6726 62.257 54.4809 62.013 54.4809C61.8133 54.4809 61.5711 54.671 61.6008 54.8933Z" fill="#E34511"/>
<path d="M68.471 59.7332C67.834 59.159 67.2302 58.5495 66.5407 58.0363C65.9175 57.5723 65.1469 57.1525 64.3442 57.3051C63.3802 57.4882 62.8815 58.4751 62.5619 59.3032C62.1592 60.3465 62.0551 61.68 62.8423 62.5803C63.4782 63.3076 64.524 63.1468 65.3811 63.1128C65.9101 63.0918 65.9127 62.2669 65.3811 62.288C65.0151 62.3025 64.648 62.3378 64.2815 62.3261C64.0054 62.3174 63.7819 62.286 63.5646 62.1325C63.6245 62.1747 63.5174 62.0922 63.5171 62.0917C63.4958 62.0719 63.4752 62.0513 63.4553 62.0302C63.3977 61.9688 63.385 61.948 63.3372 61.8684C63.2289 61.6881 63.1623 61.4908 63.1168 61.2859C63.0066 60.7899 63.1028 60.2747 63.258 59.7995C63.3982 59.3705 63.5838 58.9149 63.865 58.5572C63.9524 58.4461 64.0915 58.3125 64.1715 58.2593C64.3208 58.1602 64.348 58.1497 64.5245 58.1081C64.603 58.0896 64.551 58.101 64.5316 58.1038C64.5705 58.0985 64.6104 58.0965 64.6497 58.0954C64.716 58.0936 64.783 58.0962 64.8489 58.104C64.7816 58.0962 64.9522 58.1262 64.9821 58.1338C65.0655 58.1549 65.1475 58.1818 65.2278 58.2123C65.3105 58.2438 65.4837 58.3316 65.6056 58.4025C65.7633 58.4942 65.9147 58.5959 66.0622 58.7031C66.7152 59.1783 67.2858 59.7744 67.8876 60.3166C68.2813 60.671 68.8664 60.0895 68.471 59.7332Z" fill="#E34511"/>
<path d="M71.8714 63.6377C71.6169 63.5943 71.4124 63.4506 71.2045 63.3044C70.9759 63.1438 70.7549 62.9922 70.5041 62.8685C70.3144 62.7748 70.1572 62.5598 69.9339 62.4665C69.6749 62.3583 69.413 62.4139 69.1667 62.5262C68.736 62.7225 68.3776 63.0978 68.0694 63.4479C67.8373 63.7115 67.6005 63.9877 67.4279 64.2952C67.0794 64.916 66.8997 65.6273 66.8169 66.3299C66.7363 67.0147 66.7693 67.7645 67.0949 68.3868C67.5104 69.1809 68.3622 69.3817 69.1873 69.2048C69.7061 69.0937 69.4865 68.2984 68.9681 68.4096C68.8016 68.4452 68.7401 68.4576 68.5433 68.451C68.5069 68.4498 68.4708 68.4472 68.4345 68.4439C68.5346 68.4533 68.4242 68.4423 68.4071 68.4381C68.3328 68.4208 68.2603 68.402 68.1893 68.3738C68.2896 68.4137 68.1356 68.3397 68.1097 68.3253C68.0877 68.3133 68.0676 68.2976 68.047 68.2836C68.1331 68.3428 68.0533 68.2888 68.0371 68.2732C67.9935 68.2313 67.9518 68.1894 67.9122 68.1439C67.8454 68.067 67.9589 68.2166 67.9031 68.1305C67.8807 68.0957 67.8578 68.0617 67.8372 68.0257C67.8055 67.9707 67.7771 67.9136 67.752 67.8552C67.7918 67.9477 67.7237 67.7666 67.7144 67.7364C67.6737 67.6026 67.6447 67.4647 67.6259 67.3262C67.6394 67.4253 67.6245 67.3036 67.6235 67.2906C67.6207 67.2534 67.6171 67.2165 67.6146 67.1795C67.6097 67.104 67.6071 67.0284 67.6064 66.9527C67.6049 66.7973 67.6118 66.6418 67.6257 66.4869C67.6425 66.2977 67.6437 66.2885 67.6803 66.088C67.7108 65.9219 67.7484 65.757 67.7933 65.5942C67.8297 65.4617 67.871 65.3307 67.9177 65.2016C67.9419 65.1344 67.9675 65.0676 67.995 65.0016C67.9577 65.0911 68.0024 64.986 68.0084 64.9736C68.0274 64.9334 68.0458 64.8929 68.0656 64.853C68.1163 64.7516 68.1714 64.6521 68.2335 64.5573C68.3398 64.3951 68.3395 64.4057 68.4632 64.2549C68.7119 63.9514 68.9907 63.6281 69.3033 63.4024C69.3425 63.3741 69.3831 63.3473 69.4245 63.3223C69.4387 63.3137 69.5761 63.2423 69.5235 63.264C69.5599 63.2489 69.6017 63.2439 69.6373 63.2284C69.5877 63.25 69.6358 63.2436 69.6107 63.2206C69.7604 63.3569 69.9474 63.5118 70.1409 63.6037C70.6605 63.8503 71.0651 64.3329 71.6525 64.4332C71.8718 64.4707 72.0968 64.375 72.1598 64.1452C72.214 63.9466 72.0923 63.6753 71.8714 63.6377Z" fill="#E34511"/>
<path d="M69.9232 68.7386C69.9648 69.3318 70.0357 69.9345 70.2932 70.4774C70.525 70.966 70.9548 71.319 71.4734 71.4663C71.8264 71.5666 72.2049 71.5791 72.5689 71.5527C72.7835 71.5372 72.9917 71.3742 72.9813 71.1403C72.9719 70.9302 72.7993 70.7113 72.5689 70.7279C72.4142 70.7392 72.259 70.7439 72.1039 70.7364C72.0397 70.7332 71.9761 70.7256 71.912 70.7205C71.8848 70.7184 71.995 70.7347 71.9107 70.7195C71.8754 70.7131 71.8403 70.7068 71.8052 70.6992C71.7511 70.6874 71.6974 70.6733 71.6447 70.6567C71.6174 70.6481 71.5907 70.6384 71.5637 70.629C71.4777 70.5991 71.6222 70.659 71.5635 70.6301C71.5157 70.6065 71.4678 70.5838 71.4218 70.5564C71.4027 70.545 71.3839 70.5331 71.3654 70.5209C71.3562 70.5148 71.3474 70.5082 71.338 70.5023C71.2799 70.4647 71.3473 70.501 71.3601 70.5213C71.3382 70.4868 71.2846 70.4577 71.2545 70.4284C71.2184 70.3931 71.1877 70.3528 71.1524 70.3169C71.1173 70.2811 71.2046 70.3909 71.1767 70.3491C71.1708 70.34 71.1635 70.3316 71.1574 70.3227C71.145 70.3045 71.1323 70.2865 71.1203 70.2682C71.0898 70.2212 71.0617 70.1727 71.0358 70.1229C71.0253 70.1026 71.015 70.082 71.0053 70.0612C70.9593 69.9642 71.0102 70.0596 71.0043 70.0637C71.0074 70.0615 70.9507 69.9213 70.9454 69.9056C70.9075 69.7922 70.8773 69.6762 70.8521 69.5592C70.8377 69.4924 70.825 69.4253 70.8138 69.3578C70.8075 69.3207 70.8019 69.2834 70.7963 69.2462C70.7816 69.149 70.8021 69.2994 70.7937 69.2267C70.7747 69.0644 70.7594 68.9019 70.7478 68.7389C70.7328 68.5242 70.569 68.3162 70.3354 68.3265C70.1251 68.3358 69.907 68.5082 69.9232 68.7386Z" fill="#E34511"/>
<path d="M56.5315 27.5498C59.1864 27.7556 61.8481 27.6385 64.507 27.6172C65.8512 27.6065 67.1967 27.6223 68.5379 27.7202C69.8554 27.8163 71.1478 28.0336 72.4487 28.2541C74.9819 28.6836 77.5179 29.1087 80.0227 29.6862C81.3024 29.9812 82.573 30.3159 83.8277 30.7042C84.8601 31.0237 85.8345 31.3925 86.7596 31.9595C88.5313 33.0452 89.9768 34.571 91.388 36.0757C91.7481 36.4596 92.1069 36.8446 92.4704 37.2253C92.6374 37.4 92.8051 37.5737 92.9745 37.746C93.1939 37.9691 93.3602 38.2218 93.5416 38.4761C94.2491 39.4678 95.0038 40.4265 95.7937 41.3539C96.6154 42.3184 97.4764 43.2489 98.3619 44.155C98.7799 44.5829 99.1781 44.9725 99.4569 45.5091C99.7028 45.9825 99.8668 46.4911 100.054 46.989C100.252 47.5167 100.469 48.0471 100.801 48.5068C101.145 48.9837 101.567 49.3844 101.983 49.7964C102.154 49.9658 102.365 50.1428 102.5 50.3431C102.663 50.5831 102.797 50.8335 102.98 51.0613C103.35 51.5203 103.655 52.0234 103.943 52.5389C105.164 54.7251 105.596 57.2929 105.934 59.7461C106.107 61.0014 106.233 62.2628 106.367 63.5227C106.436 64.1754 106.507 64.8281 106.585 65.4799C106.622 65.7883 106.646 66.1039 106.718 66.4062C106.795 66.7302 106.862 67.0577 106.907 67.3877C106.991 68.0121 106.993 68.6455 106.917 69.2705C106.891 69.4919 107.126 69.6829 107.33 69.6829C107.575 69.6829 107.715 69.4925 107.742 69.2705C107.824 68.6 107.806 67.9308 107.714 67.2622C107.629 66.6306 107.474 66.0168 107.398 65.3835C107.243 64.075 107.117 62.7631 106.969 61.4535C106.825 60.172 106.66 58.8915 106.426 57.6228C106.192 56.3457 105.916 55.0418 105.454 53.8252C105.241 53.2665 104.987 52.7243 104.699 52.2008C104.399 51.6551 104.084 51.073 103.671 50.6062C103.505 50.4196 103.374 50.2099 103.249 49.9955C103.103 49.7451 102.887 49.5354 102.683 49.3297C102.285 48.9271 101.848 48.5505 101.513 48.0904C100.845 47.1731 100.666 46.0081 100.131 45.0205C99.8396 44.4832 99.4346 44.0714 99.0112 43.6392C98.5529 43.1715 98.1011 42.6975 97.6579 42.2156C96.811 41.2949 95.9948 40.3454 95.2238 39.3599C94.8439 38.8742 94.4771 38.378 94.1219 37.8739C93.9591 37.6426 93.8098 37.4183 93.6109 37.2167C93.4144 37.0178 93.2201 36.8165 93.027 36.6143C91.5726 35.0901 90.1812 33.4869 88.5142 32.1859C87.6787 31.5339 86.7861 30.9579 85.8124 30.5338C84.6818 30.0412 83.4682 29.7184 82.2796 29.3986C79.755 28.7191 77.184 28.2346 74.6092 27.7899C73.2995 27.5638 71.9896 27.3165 70.6741 27.127C69.3134 26.9308 67.9425 26.836 66.5686 26.8042C63.8826 26.7423 61.1967 26.9013 58.5107 26.8273C57.8501 26.8091 57.1899 26.7761 56.531 26.725C56.0021 26.6841 56.0048 27.509 56.5315 27.5498Z" fill="#E34511"/>
<path d="M43.4105 55.8161C43.4133 55.9787 43.4138 56.1413 43.4032 56.3037C43.3936 56.4508 43.3933 56.4803 43.3557 56.6209C43.345 56.6606 43.3319 56.6994 43.3186 56.7383C43.2986 56.7959 43.3494 56.6768 43.3225 56.7284C43.3154 56.7419 43.3097 56.7563 43.3019 56.7695C43.2816 56.8035 43.2613 56.8371 43.2404 56.8706C43.1851 56.9597 43.2633 56.8518 43.2062 56.916C42.8904 57.27 42.574 57.6439 42.3975 58.0896C42.1952 58.6001 42.1852 59.1979 42.2103 59.7393C42.2345 60.266 42.2941 60.8165 42.4582 61.3199C42.7848 62.322 43.524 63.0333 44.4865 63.429C45.4006 63.8048 46.4276 63.8816 47.4063 63.8858C48.3533 63.8899 49.2983 63.8104 50.244 63.7731C51.5993 63.7195 52.8445 63.298 53.9835 62.5684C54.6186 62.1617 55.2195 61.7032 55.8503 61.2894C56.5096 60.8569 57.1767 60.4349 57.8136 59.9691C58.1049 59.7561 58.3935 59.5366 58.669 59.3035C58.7396 59.2438 58.6052 59.3492 58.6639 59.3073C58.6906 59.2882 58.7165 59.2679 58.7431 59.2484C58.8036 59.204 58.865 59.1607 58.9263 59.1176C59.2477 58.8926 59.5749 58.6763 59.8991 58.4555C60.7176 57.8981 61.5343 57.3239 62.2703 56.6591C62.8663 56.1209 63.5531 55.4309 63.6415 54.59C63.659 54.4235 63.6435 54.2523 63.5958 54.0916C63.4452 53.5839 62.649 53.8002 62.8006 54.3109C62.8108 54.3452 62.8161 54.381 62.8262 54.4151C62.8057 54.3457 62.824 54.3626 62.8244 54.4257C62.8245 54.4575 62.824 54.4892 62.8234 54.521C62.823 54.5393 62.8199 54.5579 62.8186 54.5761C62.8204 54.5505 62.8366 54.4981 62.8206 54.55C62.799 54.6205 62.7826 54.6929 62.7604 54.7635C62.732 54.8531 62.7802 54.7298 62.7478 54.7957C62.7284 54.8351 62.7097 54.8747 62.6889 54.9133C62.4981 55.2671 62.3109 55.4695 62.0106 55.7697C61.3498 56.4305 60.6313 56.949 59.8671 57.4796C59.2714 57.8932 58.6449 58.273 58.0782 58.7267C56.9256 59.6491 55.6543 60.3899 54.4525 61.2427C53.4184 61.9764 52.3861 62.6369 51.1163 62.8607C50.6076 62.9505 50.0901 62.9496 49.5758 62.9774C49.1251 63.0016 48.6746 63.0298 48.2236 63.0463C47.2758 63.0808 46.3234 63.0781 45.4328 62.8654C44.9841 62.7581 44.6418 62.6354 44.2659 62.399C43.9372 62.1923 43.6618 61.9157 43.4606 61.5644C43.2533 61.2023 43.1474 60.7706 43.089 60.3482C43.0185 59.8381 42.9897 59.2463 43.07 58.7659C43.0891 58.6514 43.1145 58.5375 43.1503 58.4269C43.1563 58.4086 43.2049 58.2894 43.1759 58.3522C43.2036 58.2925 43.2374 58.2353 43.2709 58.1787C43.3974 57.9649 43.4858 57.8471 43.631 57.681C43.8842 57.3912 44.1041 57.1132 44.1777 56.7243C44.2342 56.4247 44.2413 56.1197 44.2361 55.8159C44.226 55.2859 43.4012 55.2842 43.4105 55.8161Z" fill="#E34511"/>
<path d="M46.303 54.5598C46.9613 54.6252 47.6252 54.7338 48.2315 54.3971C48.4744 54.2622 48.6869 54.0885 48.962 54.0223C49.2258 53.959 49.5016 53.9738 49.7706 53.959C50.0913 53.9412 50.3986 53.8899 50.6929 53.7584C50.9571 53.6405 51.1896 53.449 51.4164 53.2716C51.8283 52.9496 52.2062 52.5881 52.6017 52.2469C52.9722 51.9276 53.3646 51.635 53.8094 51.4263C54.3499 51.1726 54.9687 51.1081 55.5526 51.0203C56.199 50.9232 56.849 50.8292 57.4736 50.6294C58.1186 50.4232 58.7357 50.139 59.3843 49.9412C59.9222 49.7771 60.5725 49.5998 61.0855 49.6793C61.1816 49.6941 61.3268 49.7334 61.387 49.7613C61.4548 49.7926 61.5233 49.8439 61.5714 49.8934C61.6029 49.9257 61.6491 50.0008 61.6677 50.0557C61.7106 50.1829 61.7133 50.297 61.7087 50.4341C61.691 50.9649 62.5158 50.9643 62.5334 50.4341C62.5512 49.899 62.3564 49.3894 61.889 49.0986C61.4822 48.8456 60.9576 48.8083 60.4926 48.8606C59.8117 48.9371 59.1537 49.1331 58.5114 49.3657C57.8499 49.605 57.2112 49.8799 56.5199 50.0253C55.8401 50.1684 55.1475 50.2375 54.4655 50.3686C53.8904 50.4791 53.3481 50.6937 52.8581 51.0161C52.399 51.3179 51.9888 51.6864 51.5803 52.0518C51.3811 52.2299 51.1813 52.4074 50.9741 52.5762C50.7721 52.7408 50.5504 52.9318 50.3084 53.0328C50.0159 53.1548 49.6847 53.1357 49.3751 53.1496C48.9973 53.1664 48.6323 53.2236 48.293 53.3986C48.0342 53.5321 47.8054 53.7465 47.5108 53.7973C47.1188 53.865 46.6934 53.7742 46.3026 53.7353C46.0808 53.7132 45.8903 53.9407 45.8903 54.1477C45.8906 54.3887 46.0805 54.5375 46.303 54.5598Z" fill="#E34511"/>
<path d="M42.606 57.5402C42.6464 57.427 42.6898 57.315 42.7361 57.2043C42.7223 57.2371 42.7084 57.27 42.6945 57.3028C42.8382 56.9632 43.0101 56.6369 43.2104 56.3271C43.3276 56.1456 43.2532 55.8637 43.0624 55.7628C42.8574 55.6544 42.6235 55.7169 42.4983 55.9107C42.2135 56.3512 41.9872 56.8272 41.8107 57.3208C41.738 57.5242 41.8927 57.7812 42.0987 57.828C42.3302 57.881 42.5279 57.7581 42.606 57.5402Z" fill="#E34511"/>
<path d="M47.7308 65.0749C47.9294 66.4345 48.6225 67.5697 49.5456 68.5625C49.9857 69.036 50.4467 69.5052 50.9375 69.9265C51.3202 70.255 51.7479 70.5628 52.2482 70.6772C53.551 70.9755 54.8228 70.1021 55.8935 69.4926C56.2376 69.2966 56.5866 69.1242 56.9649 69.0045C57.3278 68.8895 57.7006 68.8115 58.0716 68.7278C58.7741 68.5696 59.4564 68.3682 60.0556 67.9562C61.0835 67.2497 61.8139 66.1889 62.9303 65.6041C64.2326 64.9222 65.4453 64.0694 66.4748 63.0158C66.8598 62.6217 67.2166 62.1993 67.5844 61.7892C67.9716 61.3575 68.3553 60.922 68.7183 60.4697C69.0812 60.0178 69.4379 59.5518 69.7213 59.0447C69.9712 58.5977 70.1719 58.1051 70.1317 57.5831C70.033 56.3015 68.944 55.2887 67.9294 54.6301C67.3845 54.2764 66.7876 54.0085 66.1484 53.8817C65.3779 53.7287 64.5915 53.7345 63.8101 53.7601C63.4268 53.7726 63.0434 53.788 62.6598 53.789C62.1291 53.7903 62.1281 54.615 62.6598 54.6137C64.0345 54.6101 65.5577 54.3541 66.8468 54.9664C67.3304 55.196 67.7858 55.4977 68.1877 55.851C68.5864 56.2017 68.9725 56.6159 69.1815 57.1119C69.2808 57.3477 69.3245 57.5699 69.3094 57.8142C69.3051 57.8839 69.2874 57.97 69.2633 58.0542C69.2508 58.0982 69.2365 58.1416 69.2211 58.1846C69.212 58.2104 69.2023 58.2359 69.1922 58.2613C69.1683 58.3225 69.1922 58.2633 69.1756 58.3004C68.9664 58.7636 68.6705 59.1871 68.3655 59.5914C67.7639 60.3891 67.0713 61.1113 66.4151 61.8629C65.5095 62.9003 64.4561 63.7718 63.2706 64.4722C62.697 64.811 62.1068 65.0878 61.5856 65.5089C61.1303 65.8768 60.7293 66.3048 60.2998 66.701C59.8936 67.0756 59.4478 67.4338 58.9264 67.6335C58.2449 67.8945 57.5107 67.976 56.8148 68.1874C55.4816 68.5924 54.4111 69.6785 53.0149 69.896C52.6634 69.9508 52.3208 69.8804 51.9999 69.6925C51.5692 69.4404 51.2034 69.0628 50.8327 68.6962C49.9796 67.8519 49.1232 66.9661 48.7418 65.7991C48.6413 65.4914 48.5725 65.1757 48.5257 64.8557C48.4935 64.6352 48.2141 64.5139 48.0185 64.5677C47.7822 64.6327 47.6984 64.8537 47.7308 65.0749Z" fill="#E34511"/>
<path d="M52.2934 71.5332C52.4432 70.6931 52.1166 69.9307 51.6859 69.2253C51.4843 68.8954 50.8875 69.0083 50.9173 69.4335C50.9645 70.1054 50.9964 70.7815 51.1133 71.446C51.2235 72.0713 51.4459 72.6669 51.7471 73.2251C51.9221 73.5498 52.1289 73.8551 52.3138 74.174C52.4865 74.4717 52.6484 74.7759 52.8264 75.0706C53.1886 75.6706 53.6359 76.2233 54.2537 76.574C56.9551 78.1081 60.1943 77.1256 62.5873 75.4791C63.1831 75.0692 63.7506 74.615 64.2816 74.124C64.5442 73.8812 64.7954 73.6301 65.0837 73.4168C65.383 73.1955 65.6949 72.9921 66.0029 72.7831C66.6358 72.3535 67.2738 71.8903 67.6902 71.2348C68.0717 70.6344 68.2117 69.92 68.5987 69.3205C69.3418 68.1696 70.5493 67.4109 71.3178 66.274C71.6319 65.8092 71.8617 65.278 72.123 64.782C72.4238 64.2104 72.716 63.6346 72.9634 63.0376C73.1716 62.535 73.3741 61.9824 73.3677 61.4303C73.3608 60.8266 73.1472 60.2161 72.7655 59.7496C72.0783 58.9098 70.9064 58.7191 69.886 58.6587C69.6304 58.6436 69.3742 58.6373 69.1182 58.633C68.5872 58.6238 68.5872 59.4485 69.1182 59.4578C70.0475 59.4739 71.0404 59.4786 71.8015 59.9795C72.1325 60.1974 72.3701 60.5489 72.4781 60.9823C72.5349 61.2102 72.5594 61.4402 72.5284 61.6739C72.537 61.6098 72.5146 61.7444 72.5113 61.7612C72.4991 61.8229 72.485 61.8841 72.4695 61.9449C72.4364 62.0759 72.3966 62.2051 72.3531 62.3329C71.9971 63.3761 71.4095 64.3223 70.9231 65.3062C70.3512 66.4629 69.2843 67.2119 68.4524 68.164C67.9818 68.7028 67.6425 69.2809 67.3838 69.9467C67.2712 70.2367 67.161 70.5252 66.996 70.7908C66.8098 71.0908 66.5545 71.3379 66.2841 71.5624C65.7589 71.9987 65.1581 72.3347 64.6136 72.7455C64.0612 73.162 63.586 73.6661 63.0518 74.105C61.05 75.7507 58.2904 77.0849 55.665 76.2824C55.0356 76.0899 54.4366 75.8045 53.9962 75.3042C53.5799 74.8313 53.31 74.2423 52.9938 73.7024C52.6744 73.1572 52.3208 72.6387 52.1144 72.0362C51.9353 71.5128 51.8599 70.98 51.8144 70.4353C51.7865 70.1017 51.7657 69.7676 51.7423 69.4337C51.4861 69.5031 51.2299 69.5724 50.9738 69.6419C51.2728 70.1316 51.6047 70.7174 51.4981 71.3142C51.459 71.5332 51.5575 71.7585 51.7862 71.8214C51.9856 71.8762 52.2541 71.7538 52.2934 71.5332Z" fill="#E34511"/>
<path d="M60.0946 76.8056C60.0836 77.4599 60.1961 78.144 60.5512 78.7053C60.8681 79.2058 61.3362 79.5575 61.8824 79.7744C63.0087 80.2214 64.3474 80.0448 65.4757 79.7005C66.6472 79.3432 67.7937 78.7514 68.6486 77.8611C69.8851 76.5738 71.4558 75.5598 72.2786 73.9253C72.5338 73.4184 72.6708 72.8802 72.8787 72.3563C73.0969 71.8065 73.4004 71.2948 73.6197 70.7448C74.0903 69.5649 73.8432 68.3471 73.8358 67.1182C73.8326 66.5877 73.0077 66.5865 73.011 67.1182C73.0169 68.1146 73.2513 69.1661 72.9598 70.1404C72.8196 70.6091 72.5857 71.0396 72.3746 71.4784C72.1542 71.9363 72.0021 72.4033 71.8335 72.8805C71.5605 73.653 71.114 74.3379 70.5535 74.9317C69.9765 75.543 69.3203 76.0732 68.707 76.6465C68.4226 76.9124 68.1594 77.1991 67.8779 77.4678C67.6607 77.6752 67.5273 77.7768 67.323 77.918C67.0893 78.0797 66.8447 78.2256 66.5933 78.3579C66.3216 78.5008 66.0742 78.6125 65.8413 78.7029C65.2939 78.9153 64.7237 79.0724 64.1424 79.1578C64.0119 79.1769 64.2241 79.1487 64.0937 79.1642C64.0543 79.1689 64.0151 79.1733 63.9755 79.1774C63.9103 79.184 63.845 79.1896 63.7797 79.1943C63.6388 79.204 63.4974 79.2088 63.3562 79.2076C63.2193 79.2065 63.0824 79.1999 62.9462 79.1867C62.9219 79.1844 62.8977 79.1815 62.8734 79.1791C62.753 79.1664 62.9582 79.1933 62.8393 79.175C62.7688 79.1641 62.6986 79.1519 62.6286 79.1372C62.493 79.1086 62.3589 79.0724 62.228 79.0268C62.196 79.0156 62.1643 79.0036 62.1326 78.9917C62.0275 78.9526 62.2086 79.0278 62.1072 78.9816C62.0467 78.9542 61.987 78.9254 61.9286 78.8937C61.8708 78.8624 61.8144 78.8289 61.7595 78.7929C61.7321 78.7749 61.7055 78.7561 61.6787 78.7375C61.612 78.6915 61.7253 78.7817 61.6458 78.7126C61.5417 78.622 61.4454 78.5288 61.356 78.4236C61.3069 78.3655 61.3499 78.4167 61.3588 78.4285C61.3319 78.3926 61.306 78.3556 61.2814 78.318C61.2437 78.2605 61.2087 78.2009 61.1764 78.14C61.1627 78.1141 61.1495 78.0877 61.1368 78.0613C61.129 78.0453 61.0797 77.9284 61.113 78.0117C61.0852 77.9424 61.0607 77.8718 61.039 77.8004C60.9293 77.44 60.9123 77.197 60.9189 76.8061C60.9283 76.2746 60.1035 76.2746 60.0946 76.8056Z" fill="#E34511"/>
<path d="M71.4114 75.3005C71.7636 76.6983 73.3074 76.8301 74.5094 76.7699C75.0711 76.7417 75.6293 76.6908 76.1916 76.6774C76.8964 76.6607 77.5914 76.4286 78.2278 76.1403C78.8887 75.8409 79.5405 75.4249 79.9873 74.8439C80.456 74.2349 80.4655 73.5101 80.4098 72.7728C80.3809 72.3914 80.3329 72.0117 80.307 71.6301C80.2773 71.1942 80.2989 70.7554 80.2897 70.3186C80.2684 69.2921 80.1028 68.3119 79.8018 67.3309C79.6294 66.7693 79.4316 66.216 79.2312 65.6641C79.0397 65.1367 78.8709 64.5937 78.6042 64.098C78.1534 63.2601 77.4517 62.5935 76.9578 61.7824C76.7435 61.4304 76.199 61.5807 76.1893 61.9906C76.1299 64.5002 77.8881 66.4757 78.4076 68.8421C78.5214 69.3604 79.3166 69.141 79.2028 68.6229C78.703 66.3458 76.957 64.3935 77.0139 61.9906C76.7577 62.06 76.5015 62.1293 76.2454 62.1987C76.6592 62.8785 77.213 63.4516 77.6509 64.113C78.1479 64.8639 78.3988 65.7612 78.6938 66.6047C79.0034 67.4901 79.311 68.4008 79.4085 69.3383C79.495 70.1711 79.4258 71.0079 79.4987 71.8403C79.5563 72.4984 79.7158 73.2962 79.5601 73.907C79.5025 74.133 79.3676 74.3285 79.1862 74.5175C78.9737 74.7387 78.7332 74.9178 78.4726 75.0783C77.9158 75.4209 77.2969 75.6717 76.6553 75.799C76.2237 75.8848 75.6495 75.8647 75.1517 75.9023C74.8286 75.9267 74.5051 75.9504 74.181 75.957C73.8888 75.963 73.5113 75.9499 73.2932 75.9123C72.975 75.8574 72.7835 75.7988 72.5473 75.6364C72.4885 75.596 72.6147 75.6986 72.5255 75.6194C72.4971 75.5941 72.4689 75.5687 72.4424 75.5415C72.4245 75.5234 72.4074 75.5044 72.3907 75.4853C72.3135 75.3965 72.4264 75.5458 72.3615 75.4455C72.2637 75.2944 72.2512 75.2585 72.2065 75.0813C72.0771 74.567 71.2814 74.7849 71.4114 75.3005Z" fill="#E34511"/>
<path d="M78.665 66.1513C78.7055 66.0332 78.7461 65.9151 78.7865 65.797C78.5568 65.8577 78.327 65.9182 78.0974 65.9789C78.7084 66.7583 79.3375 67.5234 79.9537 68.2986C80.5103 68.9987 81.0327 69.7214 81.5673 70.4378C82.0678 71.1085 82.5975 71.7615 83.1903 72.3534C83.7389 72.901 84.3565 73.4305 85.0634 73.7622C86.0369 74.2193 87.1551 74.4161 88.2151 74.5392C89.3619 74.6723 90.5646 74.6761 91.6867 74.3747C92.8817 74.0537 93.9253 73.305 94.2727 72.0713C94.4169 71.5596 93.6213 71.3411 93.4775 71.8521C93.4047 72.1106 93.359 72.2234 93.2129 72.4545C93.102 72.6298 92.9986 72.7516 92.8043 72.9228C92.6961 73.0181 92.7017 73.0129 92.5813 73.0934C92.483 73.1592 92.3807 73.2194 92.276 73.2743C92.0508 73.3926 91.918 73.4442 91.6519 73.5264C90.6348 73.8399 89.558 73.8464 88.468 73.7413C87.5682 73.6545 86.5697 73.4624 85.6674 73.1278C85.02 72.8878 84.4583 72.4256 83.9638 71.9553C83.4033 71.4222 82.8959 70.8307 82.4267 70.2162C81.84 69.4477 81.283 68.6587 80.6833 67.8996C80.0207 67.061 79.3403 66.2367 78.6808 65.3955C78.4741 65.1319 78.081 65.3169 77.9916 65.5774C77.9511 65.6955 77.9105 65.8136 77.8701 65.9317C77.7978 66.1424 77.9529 66.3825 78.1581 66.439C78.3839 66.5016 78.5924 66.3627 78.665 66.1513Z" fill="#E34511"/>
<path d="M93.8749 72.9123C94.3049 72.9066 94.5518 72.9595 94.9733 73.0473C95.4023 73.1365 95.8276 73.2431 96.257 73.3308C97.1132 73.5058 98.0521 73.6469 98.8807 73.2861C99.9209 72.8332 100.214 71.7118 100.412 70.6947C100.562 69.9235 100.655 69.1399 100.703 68.3558C100.748 67.6305 100.772 66.9009 100.668 66.1796C100.489 64.9378 99.8297 63.8262 99.2613 62.7288C98.6072 61.4657 97.7994 60.2909 96.9664 59.1409C95.338 56.8924 93.5829 54.684 92.6351 52.0412C92.4267 51.4603 92.2256 50.8674 92.0717 50.2695C91.9738 49.8891 91.8976 49.5034 91.7902 49.1254C91.5704 48.3522 91.1825 47.3678 90.2594 47.2789C90.0435 47.2581 89.8216 47.3015 89.6207 47.3797C89.3677 47.478 89.24 47.7317 89.3743 47.9854C89.6662 48.5373 89.9955 49.0679 90.2955 49.6154C90.591 50.1545 90.832 50.7076 91.0238 51.2914C91.3953 52.4216 91.7036 53.5786 92.5071 54.493C92.6542 54.6604 92.9399 54.6432 93.0903 54.493C93.2564 54.3268 93.2378 54.0776 93.0903 53.9097C92.3457 53.0623 92.1112 51.9221 91.756 50.8834C91.3502 49.6966 90.6688 48.6699 90.0865 47.5692C90.0044 47.7711 89.9222 47.973 89.8401 48.1749C89.9303 48.1399 90.0238 48.1079 90.1202 48.0947C90.0428 48.1054 90.1481 48.0995 90.1741 48.0979C90.1911 48.0967 90.2089 48.0992 90.2259 48.1002C90.17 48.097 90.1872 48.0889 90.2319 48.1033C90.2681 48.115 90.3049 48.1228 90.3407 48.1366C90.2731 48.1106 90.3275 48.1315 90.3584 48.1511C90.3704 48.1589 90.461 48.2227 90.4244 48.1932C90.3927 48.1678 90.4766 48.2438 90.4948 48.2628C90.5232 48.2922 90.5501 48.3229 90.5755 48.3549C90.5283 48.2958 90.5938 48.3845 90.6068 48.4043C90.6596 48.485 90.7063 48.5696 90.7487 48.6562C90.796 48.7527 90.8057 48.7766 90.8288 48.839C90.8658 48.9385 90.9014 49.0379 90.9334 49.139C91.0512 49.5108 91.1338 49.8921 91.2234 50.2713C91.3422 50.7741 91.5046 51.2671 91.6668 51.7572C92.0811 53.0092 92.6286 54.2006 93.3086 55.3307C94.0095 56.4953 94.8153 57.5921 95.6187 58.6869C96.4247 59.7853 97.233 60.8854 97.9367 62.0534C98.2875 62.6357 98.5948 63.2391 98.9068 63.8427C99.1644 64.341 99.4328 64.8392 99.6197 65.3697C100.055 66.606 99.943 67.9667 99.8028 69.2476C99.7253 69.9556 99.604 70.6644 99.4161 71.3519C99.3023 71.7682 99.1379 72.1024 98.8317 72.365C98.7817 72.4079 98.854 72.3561 98.7781 72.4048C98.7463 72.4252 98.7151 72.4462 98.6826 72.4655C98.6448 72.4878 98.6062 72.508 98.5671 72.5278C98.545 72.5391 98.5219 72.5496 98.4992 72.5593C98.5378 72.5428 98.5251 72.5486 98.4934 72.5598C98.4099 72.5895 98.3256 72.6151 98.2394 72.6349C98.1955 72.645 98.1513 72.6529 98.1072 72.6611C98.0157 72.6783 98.1175 72.6649 98.0228 72.6718C97.8319 72.686 97.6424 72.6897 97.4512 72.6781C97.3516 72.6722 97.2526 72.6621 97.1535 72.6516C97.1319 72.6492 97.1104 72.6464 97.089 72.6438C97.1495 72.6516 97.0769 72.6421 97.0687 72.641C97.0105 72.6326 96.9524 72.6235 96.8943 72.6138C96.0554 72.4741 95.2387 72.2202 94.393 72.1183C94.2211 72.0975 94.0486 72.0853 93.8754 72.0877C93.3445 72.0948 93.343 72.9196 93.8749 72.9123Z" fill="#E34511"/>
<path d="M101.41 69.145C101.94 69.145 101.941 68.3203 101.41 68.3203C100.879 68.3203 100.878 69.145 101.41 69.145Z" fill="#E34511"/>
<path d="M101.202 69.0888C102.393 69.6811 103.492 70.4637 104.75 70.9184C105.272 71.1073 105.872 71.2431 106.421 71.0903C107.022 70.9234 107.397 70.4203 107.574 69.8449C107.698 69.4461 107.736 69.0155 107.744 68.6C107.756 67.9874 107.742 67.3736 107.739 66.7608C107.736 66.1247 107.768 65.4814 107.726 64.8467C107.691 64.3219 107.593 63.8056 107.476 63.294C107.353 62.7532 107.214 62.2127 107.17 61.6584C107.121 61.0375 107.132 60.415 107.039 59.7974C106.947 59.1892 106.742 58.5969 106.571 58.0073C106.397 57.4077 106.208 56.8076 106.069 56.1988C105.94 55.636 105.878 55.0601 105.764 54.4945C105.655 53.9556 105.507 53.4109 105.144 52.9847C104.854 52.6445 104.459 52.4072 104.094 52.1568C103.923 52.0393 103.804 51.957 103.658 51.8107C103.521 51.6735 103.46 51.5733 103.421 51.4006C103.304 50.8832 102.509 51.1022 102.626 51.6198C102.809 52.426 103.615 52.7805 104.211 53.239C104.475 53.4419 104.669 53.6656 104.782 53.9978C104.943 54.4666 105.018 54.961 105.097 55.4484C105.281 56.5815 105.616 57.668 105.932 58.7698C106.092 59.3247 106.245 59.8641 106.284 60.4426C106.325 61.0405 106.321 61.6388 106.412 62.2328C106.569 63.2486 106.908 64.2164 106.915 65.2536C106.919 65.8649 106.913 66.4764 106.916 67.0877C106.919 67.6682 106.943 68.2536 106.91 68.8334C106.891 69.1647 106.849 69.4858 106.713 69.8095C106.745 69.7327 106.675 69.8829 106.663 69.9041C106.634 69.9568 106.601 70.0067 106.567 70.0561C106.531 70.1075 106.632 69.9863 106.564 70.0574C106.543 70.079 106.524 70.1018 106.503 70.1227C106.482 70.1432 106.46 70.1621 106.438 70.1816C106.368 70.2449 106.511 70.1366 106.431 70.1859C106.384 70.2156 106.336 70.2426 106.286 70.2689C106.204 70.3117 106.351 70.2474 106.295 70.2649C106.272 70.2717 106.251 70.2804 106.228 70.2872C106.174 70.3038 106.118 70.3145 106.062 70.3253C106.183 70.3022 106.002 70.3284 105.966 70.3294C105.909 70.3309 105.852 70.3296 105.796 70.3261C105.766 70.3243 105.588 70.3007 105.696 70.318C105.558 70.2961 105.423 70.2654 105.289 70.2273C104.635 70.0411 104.078 69.7379 103.446 69.3883C102.837 69.0508 102.241 68.6869 101.617 68.3767C101.144 68.141 100.726 68.8522 101.202 69.0888Z" fill="#E34511"/>
<path d="M69.2278 26.8941C69.0536 26.8573 68.9182 26.7925 68.7963 26.6818C68.6465 26.5459 68.5446 26.4055 68.4402 26.2313C68.2269 25.8752 68.09 25.5118 67.9334 25.1375C67.5582 24.2406 66.9239 23.3839 66.7844 22.4042C66.7276 22.0057 66.8307 21.6794 67.0217 21.3254C67.2489 20.9043 67.5402 20.5213 67.8556 20.1628C68.4534 19.4835 69.1503 18.7876 70.0514 18.5522C71.0974 18.2789 72.0817 18.7162 72.9009 19.3446C73.79 20.0267 74.543 20.8764 75.2533 21.7373C76.028 22.6765 76.7604 23.6522 77.5943 24.5412C78.3595 25.357 79.2031 26.1102 80.24 26.5577C80.6938 26.7535 81.1617 26.9031 81.6375 27.0351C82.1417 27.175 82.6386 27.2675 83.0777 27.5664C83.5036 27.8563 83.8797 28.1802 84.3613 28.378C84.7719 28.5464 85.2109 28.6518 85.6062 28.8555C85.792 28.9512 85.9218 29.0386 86.0487 29.198C86.1874 29.3725 86.4869 29.3428 86.6319 29.198C86.8043 29.0256 86.771 28.7897 86.6319 28.6147C86.3205 28.2231 85.8146 28.0295 85.3588 27.8648C84.8955 27.6976 84.4826 27.5699 84.0803 27.2835C83.6103 26.949 83.186 26.6014 82.6181 26.4457C82.104 26.3047 81.5855 26.1769 81.0806 26.0042C80.0105 25.638 79.1648 24.9775 78.3829 24.1735C77.489 23.2542 76.7179 22.2285 75.9058 21.2386C75.1404 20.3058 74.3305 19.41 73.37 18.6731C72.4192 17.9437 71.3166 17.499 70.1027 17.6994C69.0474 17.8736 68.2007 18.5832 67.4904 19.3399C66.8175 20.0566 66.0472 20.9694 65.9523 21.9893C65.8519 23.07 66.5335 24.1095 66.9887 25.0379C67.1784 25.4245 67.3172 25.8262 67.5196 26.2531C67.7277 26.6922 67.9948 27.1135 68.3889 27.4076C68.5723 27.5443 68.7843 27.6421 69.0084 27.6895C69.5262 27.7987 69.7476 27.0038 69.2278 26.8941Z" fill="#E34511"/>
<path d="M75.5764 21.784C76.3888 21.784 77.2012 21.7835 78.0136 21.7833C78.8164 21.7831 79.625 21.7563 80.427 21.799C81.1361 21.8366 81.836 21.9496 82.5363 22.0616C83.2614 22.1775 83.9841 22.2582 84.715 22.3249C85.7456 22.4187 86.761 22.7679 87.4786 23.5376C87.8451 23.9308 88.1021 24.4099 88.3093 24.9026C88.404 25.1277 88.4855 25.3605 88.5445 25.5977C88.6014 25.8263 88.6136 25.8837 88.6125 26.1043C88.6122 26.158 88.609 26.2113 88.6044 26.2649C88.612 26.1777 88.5996 26.2913 88.5922 26.3245C88.5826 26.368 88.5699 26.4103 88.5571 26.4528C88.5246 26.56 88.5734 26.4447 88.5298 26.5211C88.5081 26.5592 88.4886 26.5985 88.4649 26.6354C88.453 26.6542 88.4401 26.6722 88.4276 26.6905C88.3933 26.7398 88.4912 26.6216 88.419 26.7001C88.3543 26.7702 88.2885 26.8378 88.2135 26.897C88.2719 26.851 88.1595 26.9327 88.1409 26.9449C88.0891 26.9785 88.0358 27.0097 87.9817 27.0392C87.8656 27.1024 87.7861 27.1382 87.6851 27.1765C87.3884 27.2891 87.0797 27.3672 86.7693 27.4323C86.5512 27.478 86.4249 27.7343 86.4813 27.9395C86.5435 28.1655 86.77 28.2734 86.9885 28.2276C87.923 28.0314 89.0556 27.6588 89.3625 26.6405C89.4943 26.2034 89.4363 25.7242 89.3173 25.2915C89.1615 24.7241 88.9102 24.1504 88.5971 23.6526C87.9423 22.6104 86.9084 21.9308 85.7166 21.6545C85.0251 21.4941 84.3146 21.4869 83.6134 21.3953C82.8474 21.2954 82.0884 21.1484 81.3214 21.0547C80.3838 20.9401 79.4439 20.9587 78.5012 20.9587C77.5263 20.9587 76.5514 20.9594 75.5767 20.9594C75.0457 20.9592 75.0449 21.784 75.5764 21.784Z" fill="#E34511"/>
<path d="M85.8021 29.3187C87.3081 29.4393 88.8415 29.3982 90.3159 29.0434C91.866 28.6705 93.2231 27.8437 94.5981 27.0674C95.9913 26.2809 97.4201 25.5667 98.7858 24.7314C99.4557 24.3216 100.118 23.899 100.782 23.48C101.467 23.0482 102.185 22.6558 102.856 22.2038C103.438 21.8119 103.913 21.3063 104.334 20.7496C104.783 20.1564 105.107 19.4885 105.501 18.8589C106.299 17.5811 107.217 16.385 108.106 15.1707C108.557 14.5544 108.977 13.9249 109.509 13.3738C110.016 12.8486 110.563 12.3549 110.99 11.7576C111.201 11.4613 111.377 11.1394 111.589 10.8428C111.794 10.5576 112.012 10.2829 112.236 10.0127C112.696 9.45683 113.178 8.91924 113.628 8.35428C114.082 7.7842 114.505 7.20026 115.005 6.66762C115.492 6.14802 116.017 5.66503 116.56 5.20415C117.111 4.73651 117.68 4.29064 118.248 3.8451C118.841 3.38092 119.435 2.9306 119.967 2.39829C120.232 2.13354 120.497 1.86879 120.763 1.6042C121.139 1.22893 120.556 0.645658 120.179 1.02093C119.647 1.55142 119.135 2.0989 118.547 2.5672C117.978 3.02017 117.402 3.46356 116.834 3.91735C115.732 4.79754 114.665 5.72821 113.773 6.82598C113.307 7.39952 112.873 7.99418 112.393 8.55717C111.926 9.10481 111.455 9.64883 111.024 10.226C110.807 10.516 110.603 10.8146 110.415 11.1239C110.23 11.4275 109.999 11.691 109.755 11.9491C109.265 12.4676 108.733 12.9458 108.295 13.5121C107.812 14.1372 107.366 14.7944 106.896 15.4303C106.454 16.0296 106.011 16.6284 105.585 17.2397C105.164 17.8447 104.761 18.4625 104.392 19.1008C104.21 19.4161 104.047 19.7381 103.838 20.0365C103.65 20.304 103.451 20.561 103.228 20.8005C103.005 21.0399 102.763 21.2639 102.496 21.4528C102.176 21.6787 101.822 21.8637 101.488 22.0685C100.82 22.4784 100.158 22.8999 99.4953 23.3182C98.8417 23.7304 98.1857 24.1392 97.5184 24.5291C96.8176 24.9389 96.096 25.3051 95.3818 25.6899C94.692 26.0614 94.0135 26.4535 93.3298 26.836C92.6444 27.2194 91.9551 27.6288 91.2182 27.9059C89.8326 28.427 88.3492 28.5867 86.8768 28.5519C86.518 28.5435 86.1599 28.523 85.8023 28.4943C85.5799 28.4765 85.3899 28.6965 85.3899 28.9067C85.3897 29.1442 85.5791 29.3008 85.8021 29.3187Z" fill="#E34511"/>
<path d="M100.997 21.3716C100.984 21.4897 100.971 21.6078 100.957 21.7259C100.911 22.1275 101.558 22.2953 101.726 21.934C101.991 21.3625 102.336 20.9611 102.777 20.5189C103.211 20.0826 103.68 19.6824 104.117 19.2479C103.922 19.0536 103.728 18.8591 103.533 18.6647C103.266 18.9316 103 19.1985 102.733 19.4653C102.575 19.6229 102.575 19.8911 102.733 20.0486C102.891 20.2066 103.158 20.2066 103.316 20.0486C103.583 19.7817 103.85 19.5148 104.117 19.2479C104.274 19.0904 104.274 18.8222 104.117 18.6647C103.958 18.5063 103.692 18.507 103.533 18.6647C102.639 19.5546 101.558 20.3439 101.013 21.5177C101.27 21.5871 101.526 21.6564 101.782 21.7259C101.795 21.6078 101.809 21.4897 101.822 21.3716C101.847 21.1499 101.615 20.9592 101.41 20.9592C101.166 20.9592 101.023 21.1492 100.997 21.3716Z" fill="#E34511"/>
<path d="M102.596 20.6928C103.138 20.6006 103.661 20.3757 104.125 20.0833C104.274 19.9892 104.372 19.7941 104.315 19.6176C104.262 19.4546 104.101 19.2994 103.917 19.3149C103.799 19.3248 103.681 19.3347 103.563 19.3446C103.452 19.3538 103.352 19.3844 103.271 19.4654C103.199 19.5369 103.146 19.6542 103.15 19.757C103.159 19.965 103.332 20.1887 103.563 20.1694C103.681 20.1595 103.799 20.1496 103.917 20.1397C103.847 19.8835 103.778 19.6273 103.709 19.3712C103.601 19.4388 103.492 19.5025 103.379 19.5609C103.319 19.5922 103.258 19.6222 103.196 19.6506C103.173 19.6613 103.149 19.6714 103.126 19.6819C103.085 19.6994 103.095 19.6956 103.154 19.6704C103.138 19.677 103.123 19.6833 103.107 19.6897C102.871 19.784 102.627 19.8548 102.376 19.8974C102.28 19.9137 102.177 20.0061 102.13 20.0869C102.078 20.1753 102.056 20.3056 102.088 20.4046C102.163 20.6349 102.367 20.7315 102.596 20.6928Z" fill="#E34511"/>
<path d="M106.007 56.6457C108.478 54.2732 111.491 52.5778 114.564 51.1117C115.526 50.6525 116.498 50.2144 117.472 49.7807C117.676 49.6901 117.724 49.3936 117.62 49.2164C117.497 49.0067 117.26 48.9775 117.056 49.0684C113.81 50.5133 110.55 52.0228 107.688 54.1558C106.896 54.7461 106.136 55.3782 105.424 56.0625C105.04 56.4308 105.624 57.0136 106.007 56.6457Z" fill="#E34511"/>
<path d="M40.3021 15.7431C42.5107 18.3805 45.145 20.6343 48.031 22.5002C49.4656 23.4276 50.9611 24.2593 52.4962 25.008C54.095 25.7879 55.7438 26.4421 57.3854 27.1244C59.3711 27.9495 61.3756 28.8122 63.5002 29.2084C63.975 29.297 64.1914 28.736 63.8179 28.4547C63.0939 27.9094 62.1885 28.0804 61.3743 27.8007C60.9462 27.6537 60.5515 27.4241 60.1376 27.2431C59.6984 27.0511 59.2373 26.9254 58.783 26.7747C57.0782 26.2085 55.433 25.487 53.8503 24.6388C52.1974 23.753 50.6053 22.7472 49.0184 21.7493C47.428 20.7492 45.8578 19.7148 44.3374 18.6103C42.637 17.3749 41.0045 16.0462 39.4841 14.594C39.3869 14.8287 39.2898 15.0633 39.1925 15.298C39.3007 15.3072 39.4089 15.3165 39.5171 15.3259C39.7393 15.3449 39.9295 15.1227 39.9295 14.9135C39.9295 14.6747 39.74 14.5203 39.5171 14.5011C39.4089 14.4919 39.3007 14.4826 39.1925 14.4732C38.8312 14.4422 38.6551 14.9425 38.9008 15.1773C41.644 17.7972 44.7463 20.0055 47.9385 22.0413C51.0776 24.0434 54.2513 26.0192 57.7676 27.2936C58.2649 27.4739 58.7669 27.6397 59.2721 27.7961C59.7553 27.9457 60.1922 28.1883 60.6526 28.393C61.1366 28.6083 61.6087 28.7315 62.1349 28.7871C62.5959 28.8359 63.0199 28.8793 63.4016 29.1668C63.5075 28.9156 63.6134 28.6644 63.7193 28.4132C61.8423 28.0631 60.0568 27.3449 58.2997 26.6178C56.6794 25.9473 55.0457 25.3077 53.4593 24.5585C50.42 23.1231 47.5147 21.3693 44.9352 19.2071C43.4701 17.979 42.1126 16.6259 40.8852 15.1601C40.7422 14.9892 40.4497 15.0125 40.3021 15.1601C40.133 15.329 40.1588 15.5717 40.3021 15.7431Z" fill="#E34511"/>
<path d="M33.086 49.3727C34.2187 50.3688 35.6802 50.7177 36.9668 51.4486C37.6333 51.8272 38.1477 52.374 38.746 52.8425C39.3799 53.3388 40.1056 53.6161 40.8292 53.9513C41.649 54.3312 42.4614 54.767 43.3943 54.5989C43.6136 54.5593 43.7375 54.2924 43.6823 54.0917C43.6188 53.8607 43.3949 53.7641 43.175 53.8036C42.4926 53.9265 41.8072 53.4972 41.2137 53.2245C40.551 52.92 39.8535 52.6714 39.274 52.2158C38.6946 51.76 38.19 51.2236 37.5556 50.8378C36.9599 50.4755 36.311 50.2162 35.6728 49.9409C34.9646 49.6354 34.2532 49.3031 33.6692 48.7896C33.5021 48.6426 33.2506 48.6249 33.086 48.7896C32.936 48.9395 32.918 49.225 33.086 49.3727Z" fill="#E34511"/>
<path d="M44.8994 53.789C43.6835 53.9449 42.4904 54.3096 41.2538 54.1956C41.3232 54.2144 41.3925 54.2332 41.462 54.2518C38.6172 52.8233 36.1194 50.8216 33.6631 48.8206C33.4906 48.68 33.2486 48.6518 33.0798 48.8206C32.9347 48.9657 32.9063 49.2623 33.0798 49.4038C34.4666 50.5336 35.8605 51.6581 37.321 52.692C38.0408 53.2016 38.7772 53.6884 39.5359 54.138C39.9012 54.3544 40.2713 54.5624 40.6471 54.7599C40.8541 54.8686 41.0572 55.0006 41.2929 55.0241C41.5231 55.0471 41.7557 55.0505 41.9868 55.0426C42.9729 55.009 43.925 54.7388 44.8993 54.6139C45.1201 54.5855 45.3116 54.4447 45.3116 54.2015C45.3118 54.0006 45.1218 53.7604 44.8994 53.789Z" fill="#E34511"/>
<path d="M61.981 54.6301C61.8368 54.0396 61.3998 53.6069 60.9373 53.243C60.4842 52.8865 60.0568 52.5175 59.6312 52.1284C59.2309 51.7624 58.8033 51.3846 58.2789 51.2124C57.7291 51.032 57.1683 51.1948 56.7199 51.5359C55.8745 52.1794 55.3559 53.2445 54.983 54.2144C54.8291 54.6146 54.6687 55.0812 54.711 55.5167C54.7619 56.0421 55.0351 56.5048 55.3937 56.8815C55.7942 57.3022 56.2942 57.6255 56.7841 57.9311C57.2262 58.2068 57.7177 58.4808 58.0625 58.7986C58.4521 59.1581 59.0369 58.5763 58.6456 58.2154C57.9825 57.6037 57.1333 57.2403 56.4204 56.6946C56.0997 56.4492 55.8089 56.1709 55.634 55.8148C55.61 55.7658 55.5806 55.686 55.5572 55.5947C55.5514 55.5723 55.5262 55.4349 55.5357 55.5166C55.5313 55.4788 55.5303 55.4407 55.5303 55.4027C55.5305 55.3607 55.5336 55.3191 55.5367 55.2772C55.5427 55.2005 55.5285 55.3102 55.5433 55.2305C55.562 55.1292 55.5847 55.0289 55.6123 54.9296C55.733 54.4923 55.9179 54.0752 56.1249 53.6727C56.2304 53.468 56.3425 53.2666 56.4634 53.0704C56.5147 52.9871 56.5675 52.9048 56.6226 52.824C56.6457 52.7902 56.6695 52.7567 56.6932 52.7232C56.7081 52.7023 56.7234 52.6817 56.7389 52.6612C56.7158 52.6919 56.7178 52.6873 56.7404 52.6599C56.905 52.4605 57.0906 52.2638 57.31 52.1243C57.4875 52.0113 57.6475 51.9552 57.821 51.9596C57.9663 51.9633 58.126 52.0233 58.2806 52.1109C58.4726 52.22 58.6445 52.3554 58.8111 52.4994C59.2658 52.8931 59.6889 53.3147 60.167 53.6816C60.5711 53.9919 61.0587 54.3276 61.1861 54.849C61.3114 55.3646 62.107 55.1464 61.981 54.6301Z" fill="#E34511"/>
<path d="M67.5036 59.7092C67.4797 59.708 67.3449 59.6874 67.4432 59.7063C67.398 59.6976 67.3533 59.6882 67.309 59.6758C67.2697 59.6649 67.2314 59.6511 67.1928 59.6381C67.1814 59.6343 67.1128 59.6056 67.1598 59.6257C67.2088 59.6468 67.1097 59.6008 67.111 59.6014C67.0279 59.5587 66.947 59.513 66.8687 59.4622C66.8309 59.4378 66.7936 59.4124 66.7568 59.3863C66.7354 59.3712 66.7145 59.3557 66.6933 59.3401C66.5914 59.2658 66.7237 59.3651 66.6661 59.3197C66.3199 59.0467 66.0106 58.7302 65.6861 58.4324C65.072 57.8686 64.2662 57.2381 63.3791 57.5471C62.4511 57.8704 61.8475 58.8573 61.6827 59.7867C61.5189 60.7107 61.6611 61.7147 62.1619 62.519C62.4245 62.9406 62.7915 63.3169 63.2407 63.5382C63.7728 63.8007 64.3426 63.8475 64.9224 63.7482C65.1421 63.7106 65.2652 63.4404 65.2104 63.241C65.1466 63.0086 64.9234 62.9152 64.7032 62.953C64.6148 62.9681 64.5616 62.9741 64.4447 62.9779C64.3368 62.9813 64.2281 62.9782 64.121 62.9653C64.0506 62.9569 64.1758 62.9749 64.107 62.9625C64.0869 62.9589 64.0665 62.9558 64.0465 62.9512C64.0003 62.9408 63.9543 62.9305 63.9088 62.918C63.8639 62.9055 63.8197 62.8911 63.7756 62.8761C63.7509 62.8675 63.726 62.8581 63.7017 62.8482C63.742 62.8647 63.7176 62.855 63.6923 62.8429C63.6104 62.8038 63.5308 62.7603 63.4543 62.7111C63.4164 62.6867 63.3791 62.661 63.3428 62.6341C63.305 62.6061 63.3435 62.6344 63.3496 62.6394C63.3243 62.6191 63.2997 62.598 63.2757 62.5767C63.1265 62.4447 63.0169 62.3157 62.9398 62.2033C62.703 61.8572 62.5965 61.5845 62.5075 61.1736C62.4608 60.958 62.4499 60.8714 62.4418 60.6339C62.4384 60.5351 62.4392 60.4361 62.4438 60.3371C62.4461 60.2878 62.4494 60.2385 62.4539 60.1893C62.4558 60.1679 62.4742 60.024 62.4644 60.0892C62.4946 59.8889 62.5431 59.6912 62.6104 59.5001C62.6518 59.3827 62.6482 59.3923 62.6967 59.2926C62.7419 59.1999 62.7922 59.1097 62.8478 59.0228C62.9469 58.8676 63.0548 58.7392 63.2275 58.5833C63.3057 58.5127 63.3238 58.4971 63.4155 58.4393C63.4616 58.4103 63.5089 58.3847 63.5572 58.3598C63.5607 58.358 63.6191 58.3321 63.578 58.3493C63.5348 58.3674 63.6343 58.3303 63.6331 58.3308C63.6674 58.3206 63.7016 58.3113 63.7364 58.3029C63.7587 58.2975 63.7819 58.2935 63.8047 58.29C63.7877 58.2927 63.7205 58.2947 63.7966 58.2937C63.8302 58.2932 63.8636 58.291 63.8972 58.292C63.9302 58.293 64.0435 58.3123 63.9535 58.2943C64.0316 58.31 64.1064 58.3316 64.1823 58.356C64.2469 58.3768 64.1446 58.3333 64.2289 58.375C64.2774 58.3989 64.3256 58.4228 64.3728 58.4496C64.4434 58.4897 64.5118 58.5335 64.5785 58.5795C64.6845 58.6528 64.6918 58.6594 64.7612 58.717C64.916 58.8446 65.0646 58.9792 65.2112 59.116C65.859 59.721 66.5563 60.49 67.5038 60.5339C68.0343 60.5585 68.0329 59.7337 67.5036 59.7092Z" fill="#E34511"/>
<path d="M71.1302 64.5367C71.2408 64.1276 71.2262 63.6839 71.0045 63.3129C70.7975 62.9663 70.4581 62.7407 70.0869 62.6011C69.3707 62.3317 68.4491 62.4134 67.8054 62.8337C67.0948 63.2977 66.9378 64.058 66.8753 64.8509C66.8035 65.7629 66.8667 66.705 67.0605 67.5989C67.2269 68.3669 67.5799 69.4812 68.47 69.6687C68.6878 69.7146 68.9157 69.6047 68.9773 69.3807C69.0335 69.1758 68.9081 68.9195 68.6893 68.8735C68.6629 68.8679 68.6373 68.8611 68.6114 68.854C68.5942 68.8494 68.5776 68.8421 68.5609 68.8364C68.5614 68.8365 68.6365 68.8733 68.598 68.8507C68.5614 68.8293 68.4294 68.7348 68.5076 68.8021C68.4586 68.7598 68.4133 68.7156 68.3699 68.6676C68.3597 68.6564 68.3029 68.5837 68.333 68.6239C68.3595 68.6597 68.2944 68.5657 68.2808 68.5442C68.0906 68.2457 68.0253 68.0393 67.9283 67.6784C67.7206 66.9064 67.6598 66.1547 67.6768 65.3361C67.6806 65.1541 67.6895 64.9722 67.7051 64.7909C67.7124 64.7077 67.721 64.6246 67.7315 64.5418C67.7223 64.6144 67.7324 64.5367 67.737 64.5078C67.7432 64.4681 67.7498 64.4285 67.7569 64.3889C67.7814 64.2556 67.8148 64.1263 67.8543 63.9969C67.8632 63.9679 67.8886 63.9125 67.861 63.9725C67.8755 63.9409 67.8914 63.9095 67.9084 63.8792C67.9254 63.849 67.9447 63.8205 67.9628 63.7909C68.0022 63.7273 67.9699 63.7777 67.9593 63.7914C67.9734 63.7734 67.9882 63.7558 68.0035 63.739C68.0502 63.6878 68.0994 63.6408 68.1515 63.5951C68.2018 63.5509 68.1151 63.6141 68.1926 63.5653C68.2272 63.5435 68.2609 63.5204 68.2963 63.4998C68.327 63.482 68.3582 63.4651 68.3897 63.4491C68.4034 63.4422 68.5076 63.3955 68.4707 63.4105C68.4332 63.4259 68.524 63.3917 68.5395 63.3863C68.5797 63.3724 68.6201 63.3597 68.6611 63.3484C68.7379 63.3269 68.8156 63.3112 68.894 63.2962C68.9121 63.2928 68.9304 63.2901 68.9486 63.2875C68.9423 63.2885 68.8818 63.2954 68.9306 63.2906C68.9796 63.2857 69.0286 63.2814 69.0779 63.2791C69.1515 63.2754 69.225 63.2751 69.2986 63.2782C69.3412 63.2801 69.3837 63.2832 69.4261 63.2868C69.4443 63.2883 69.4622 63.2906 69.4802 63.2926C69.5444 63.3 69.4146 63.2814 69.4777 63.2931C69.565 63.3091 69.6514 63.3271 69.7364 63.3525C69.7751 63.364 69.8129 63.3779 69.8512 63.3907C69.9413 63.4209 69.8246 63.371 69.9084 63.4152C69.9767 63.4511 70.0415 63.4891 70.1069 63.5301C70.1844 63.5788 70.0851 63.4991 70.1484 63.5638C70.1738 63.5898 70.2011 63.6143 70.2266 63.6403C70.2375 63.6514 70.2469 63.6637 70.2575 63.6751C70.2959 63.7174 70.2185 63.6174 70.2499 63.6649C70.2725 63.6992 70.292 63.736 70.3149 63.7698C70.3649 63.8437 70.3112 63.7386 70.3307 63.7993C70.3437 63.8402 70.3559 63.8805 70.3663 63.9222C70.3703 63.9381 70.3726 63.9544 70.3757 63.9706C70.387 64.0294 70.371 63.8993 70.3733 63.9608C70.3747 64.0017 70.3772 64.0423 70.3759 64.0832C70.3751 64.109 70.3569 64.2383 70.3711 64.1596C70.3616 64.2129 70.3489 64.2653 70.3347 64.3176C70.1963 64.8305 70.9917 65.0494 71.1302 64.5367Z" fill="#E34511"/>
<path d="M117.615 49.1121C116.619 47.1906 115.545 45.2714 114.068 43.6716C113.367 42.9125 112.48 42.2783 111.948 41.3773C111.426 40.4921 111.235 39.4495 110.846 38.5053C110.016 36.4928 108.716 34.7641 107.568 32.932C106.964 31.9678 106.51 30.9309 106.006 29.9142C105.528 28.9515 104.906 28.0838 104.258 27.2307C103.516 26.253 102.859 25.2216 102.365 24.0957C101.894 23.0244 101.434 21.9471 100.625 21.0799C100.262 20.6909 99.6796 21.2752 100.042 21.6632C100.732 22.4031 101.141 23.3409 101.541 24.2576C101.977 25.2568 102.497 26.1928 103.13 27.0819C103.752 27.9565 104.431 28.7824 104.966 29.717C105.528 30.6995 105.943 31.7595 106.499 32.7469C107.03 33.6904 107.665 34.5741 108.255 35.4817C108.829 36.366 109.38 37.2688 109.828 38.2247C110.275 39.1778 110.514 40.2013 110.925 41.1666C111.354 42.1714 112.1 42.8972 112.875 43.6408C114.614 45.3091 115.803 47.4077 116.903 49.5286C117.148 49.9997 117.86 49.5831 117.615 49.1121Z" fill="#E34511"/>
<path d="M118.148 50.162C118.031 49.9272 117.913 49.6928 117.794 49.4592C117.748 49.3702 117.642 49.2956 117.547 49.2697C117.449 49.2425 117.317 49.2549 117.23 49.3113C117.142 49.368 117.064 49.4526 117.04 49.5577C117.015 49.6696 117.029 49.7728 117.082 49.8754C117.201 50.109 117.319 50.3434 117.436 50.5781C117.48 50.667 117.589 50.7419 117.682 50.7677C117.781 50.7949 117.912 50.7825 118 50.7261C118.088 50.6693 118.165 50.5847 118.189 50.4796C118.194 50.4432 118.199 50.4066 118.204 50.37C118.204 50.2957 118.185 50.2263 118.148 50.162Z" fill="#E34511"/>
<path d="M118.719 52.5693C119.303 53.6594 120.41 55.238 121.867 54.7412C122.291 54.5965 122.634 54.3023 122.999 54.053C123.398 53.7812 123.803 53.5192 124.214 53.2663C125.022 52.7687 125.852 52.307 126.696 51.871C128.37 51.0057 130.094 50.2432 131.816 49.4779C132.687 49.0909 133.557 48.7027 134.42 48.3006C134.834 48.1081 135.24 47.8859 135.665 47.7219C136.09 47.558 136.526 47.4243 136.967 47.312C137.957 47.06 138.978 46.9392 139.965 46.6822C140.185 46.625 140.383 46.4963 140.592 46.4082C140.706 46.3602 140.824 46.3243 140.939 46.2799C141.075 46.2278 141.189 46.1372 141.31 46.0572C141.559 45.8911 141.808 45.7252 142.057 45.559C142.102 45.5292 142.149 45.5002 142.193 45.4685C142.263 45.3913 142.29 45.372 142.274 45.4106C142.273 45.4122 142.272 45.4139 142.271 45.4155C142.318 45.399 142.383 45.4019 142.459 45.4117C142.459 45.1368 142.459 44.862 142.459 44.587C142.106 44.5899 141.743 44.5848 141.393 44.644C141.031 44.7056 140.819 45.1406 141.15 45.4025C141.307 45.5269 141.537 45.5168 141.728 45.5097C142.01 45.4993 142.294 45.4597 142.568 45.3969C143.028 45.2918 142.918 44.5904 142.459 44.5868C140.57 44.5721 138.797 45.1952 137.048 45.8413C135.29 46.4912 133.564 47.2315 131.876 48.0459C131.046 48.4464 130.259 48.8985 129.48 49.3914C128.726 49.869 127.982 50.3627 127.221 50.8303C126.832 51.0695 126.439 51.3019 126.039 51.522C125.665 51.7275 125.272 51.9784 124.858 52.091C123.983 52.3297 123.039 52.3019 122.193 52.6511C121.808 52.8099 121.459 53.0314 121.088 53.2164C120.794 53.3627 120.394 53.5186 120.067 53.4135C119.369 53.1891 119.083 52.3286 118.892 51.7026C118.737 51.1965 117.94 51.4124 118.096 51.9218C118.313 52.628 118.602 53.3787 119.199 53.8523C119.526 54.1126 119.902 54.2769 120.326 54.2632C120.725 54.2505 121.096 54.1258 121.452 53.9537C121.784 53.7937 122.093 53.5883 122.43 53.4397C122.838 53.2596 123.303 53.1943 123.741 53.1266C124.199 53.0557 124.664 53.0026 125.112 52.8764C125.559 52.7505 125.984 52.4911 126.39 52.2699C128.018 51.3818 129.52 50.2853 131.123 49.3553C131.953 48.8741 132.847 48.4853 133.72 48.0911C134.573 47.7058 135.436 47.3419 136.308 47.0011C137.306 46.6111 138.316 46.2368 139.339 45.9185C140.355 45.6026 141.392 45.4033 142.459 45.4116C142.422 45.1415 142.386 44.8715 142.349 44.6015C142.295 44.6139 142.24 44.6257 142.185 44.6358C142.152 44.6421 142.118 44.6474 142.085 44.6531C142.077 44.6544 141.997 44.6658 142.042 44.6599C142.066 44.6566 141.957 44.669 141.928 44.6716C141.877 44.6762 141.826 44.68 141.774 44.6826C141.701 44.6864 141.627 44.6886 141.553 44.6859C141.527 44.685 141.492 44.6752 141.467 44.6805C141.434 44.6873 141.56 44.6955 141.536 44.6894C141.421 44.6596 141.705 44.7668 141.751 44.8648C141.765 44.9707 141.778 45.0766 141.792 45.1825C141.793 45.1815 141.793 45.1805 141.793 45.1795C141.758 45.2402 141.722 45.3007 141.687 45.3614C141.662 45.3875 141.447 45.4974 141.591 45.4423C141.485 45.4828 141.538 45.4477 141.583 45.4444C141.625 45.4413 141.666 45.437 141.708 45.4342C141.958 45.4169 142.208 45.4136 142.459 45.4116C142.682 45.4098 142.871 45.2234 142.871 44.9992C142.871 44.7523 142.681 44.6158 142.459 44.5868C142.025 44.5301 141.706 44.8031 141.368 45.0279C141.164 45.1638 140.961 45.2999 140.757 45.4355C140.566 45.5623 140.334 45.6254 140.124 45.7186C139.973 45.7855 139.832 45.8725 139.67 45.9038C139.424 45.9513 139.18 46.0095 138.934 46.0587C138.501 46.1451 138.067 46.2256 137.635 46.3149C136.751 46.4973 135.855 46.716 135.034 47.0994C134.189 47.4946 133.346 47.895 132.494 48.2775C129.131 49.7873 125.71 51.2186 122.646 53.2977C122.291 53.5387 121.927 53.8966 121.496 53.9882C121.231 54.0444 120.966 53.9537 120.71 53.7855C120.144 53.4125 119.749 52.7466 119.43 52.1529C119.18 51.6851 118.468 52.1011 118.719 52.5693Z" fill="#E34511"/>
<path d="M101.118 23.8159C101.801 24.5083 102.567 25.12 103.2 25.8608C103.825 26.5915 104.288 27.4528 104.736 28.2988C105.214 29.2031 105.66 30.124 106.126 31.0351C106.595 31.9537 107.103 32.8458 107.627 33.7337C109.755 37.3365 111.761 41.0088 113.82 44.6507C114.962 46.671 116.162 48.6591 117.428 50.604C117.717 51.0471 118.431 50.6342 118.14 50.1877C115.852 46.673 113.841 42.9977 111.79 39.3423C110.763 37.5116 109.729 35.685 108.667 33.8741C108.143 32.9805 107.608 32.0954 107.127 31.1778C106.652 30.272 106.206 29.3512 105.739 28.4415C105.229 27.448 104.706 26.4495 104.017 25.5655C103.34 24.6966 102.471 24.0135 101.701 23.2328C101.328 22.8542 100.745 23.4375 101.118 23.8159Z" fill="#E34511"/>
<path d="M117.158 50.3244C117.011 50.9073 117.219 51.4395 117.546 51.9175C117.692 52.1303 117.85 52.3348 117.985 52.5552C118.017 52.6077 118.047 52.6609 118.076 52.7154C118.089 52.74 118.102 52.7647 118.114 52.7898C118.13 52.8226 118.153 52.8795 118.126 52.8129C118.151 52.8749 118.173 52.9376 118.191 53.0019C118.2 53.0342 118.207 53.0669 118.214 53.0999C118.218 53.1225 118.231 53.2241 118.22 53.1246C118.244 53.3381 118.392 53.5477 118.632 53.537C118.834 53.5279 119.071 53.3541 119.044 53.1246C118.977 52.5481 118.682 52.0998 118.354 51.6374C118.217 51.4436 118.083 51.2466 117.986 51.0289C118.029 51.1254 117.988 51.0292 117.982 51.0122C117.972 50.9832 117.963 50.9538 117.955 50.9243C117.949 50.8996 117.943 50.8747 117.938 50.8498C117.925 50.7963 117.931 50.8026 117.935 50.8532C117.93 50.7902 117.927 50.728 117.93 50.6648C117.932 50.6389 117.953 50.5466 117.931 50.6439C117.939 50.6102 117.945 50.5766 117.954 50.5431C118.006 50.3343 117.886 50.086 117.666 50.0359C117.451 49.9875 117.214 50.1007 117.158 50.3244Z" fill="#E34511"/>
<path d="M33.6549 48.7785C36.6581 45.825 39.831 43.0165 42.4641 39.7131C43.1302 38.8775 43.7674 38.0161 44.3505 37.1201C44.9566 36.1887 45.4673 35.2099 45.9607 34.2157C46.4333 33.2635 46.909 32.3202 47.5338 31.4567C48.1257 30.6389 48.8079 29.891 49.4714 29.1317C50.9025 27.4939 52.5615 25.3839 51.674 23.0794C51.5696 22.808 51.3301 22.7218 51.0681 22.8329C50.7786 22.9558 50.4763 23.0495 50.1716 23.1266C49.6573 23.2565 49.8752 24.0523 50.3908 23.9218C50.7672 23.8266 51.1272 23.6966 51.4843 23.545C51.2824 23.4629 51.0805 23.3807 50.8784 23.2986C51.6118 25.2032 50.2669 26.9579 49.0798 28.328C48.419 29.0908 47.7397 29.8374 47.1234 30.6374C46.4798 31.473 45.9648 32.3678 45.4925 33.309C45.0105 34.2697 44.5457 35.2376 43.9844 36.1556C43.4364 37.0518 42.8269 37.9122 42.1847 38.7432C40.9325 40.3639 39.5347 41.8676 38.0912 43.318C36.4455 44.9717 34.7351 46.5592 33.0717 48.1951C32.6928 48.5682 33.2761 49.1513 33.6549 48.7785Z" fill="#E34511"/>
<path d="M50.2812 24.4748C50.1766 24.4626 50.2693 24.4804 50.2917 24.486C50.1703 24.456 50.3011 24.5065 50.2454 24.4662C50.1807 24.4196 50.2945 24.5418 50.2109 24.4278C50.2228 24.444 50.2726 24.5311 50.2183 24.4296C50.2241 24.4404 50.2343 24.473 50.2351 24.4874C50.2417 24.5946 50.233 24.3925 50.2399 24.5068C50.2445 24.5817 50.2424 24.6553 50.2371 24.73C50.2282 24.8577 50.2455 24.6856 50.2345 24.764C50.2294 24.7999 50.2228 24.8357 50.216 24.8714C50.2016 24.9468 50.1842 25.0216 50.1652 25.096C50.1183 25.2795 50.0598 25.4598 49.996 25.6381C49.794 26.2024 49.5308 26.739 49.2603 27.2997C48.1107 29.6821 46.7901 31.9583 45.1364 34.0273C43.5197 36.0501 41.7535 37.954 40.3166 40.1156C39.6057 41.1851 39.0029 42.323 38.2729 43.3803C37.5405 44.4412 36.6098 45.307 35.7157 46.2264C35.2829 46.6715 34.8628 47.1332 34.502 47.6394C34.1451 48.1402 33.8565 48.6848 33.5654 49.2251C33.2815 49.7522 32.9945 50.281 32.6372 50.763C32.3119 51.202 31.9025 51.5691 31.4944 51.9286C31.0751 52.2979 30.6461 52.6624 30.2889 53.0948C29.997 53.4483 29.7921 53.8344 29.562 54.2269C29.4655 54.3913 29.3647 54.5538 29.2271 54.6873C29.1331 54.7785 29.0364 54.8313 28.9464 54.8184C28.7184 54.7857 28.4932 54.5922 28.3059 54.4682C28.0421 54.2935 27.7882 54.1045 27.526 53.9276C26.9889 53.5656 26.4153 53.2616 25.8791 52.8965C25.343 52.5316 24.8252 52.141 24.3209 51.7336C23.3389 50.94 22.3771 50.1553 21.3072 49.4795C20.2548 48.8147 19.1626 48.2171 18.0828 47.5989C16.9589 46.9554 15.8687 46.2647 14.7943 45.5416C12.5162 44.0082 10.3023 42.3774 7.98009 40.91C6.88067 40.2152 5.74827 39.5453 4.7498 38.7067C3.83695 37.94 3.07948 37.0415 2.38667 36.0759C2.02146 35.567 1.63795 35.0693 1.17129 34.6487C1.00469 34.8646 0.838086 35.0805 0.671648 35.2963C1.55745 35.9429 2.32877 36.7284 3.11907 37.4846C3.90903 38.2404 4.76102 38.9253 5.61977 39.6009C6.46895 40.269 7.32737 40.9257 8.15626 41.619C8.58399 41.9767 9.00379 42.3441 9.40991 42.7261C9.80019 43.0933 10.151 43.5184 10.5713 43.8508C11.0022 44.1916 11.5081 44.4375 11.8972 44.8266C12.0888 45.0182 12.2727 45.224 12.4747 45.4042C12.693 45.5986 12.9376 45.7704 13.1672 45.9513C14.0484 46.6456 14.9337 47.3351 15.8304 48.0096C17.5875 49.3314 19.3936 50.5898 21.2849 51.7131C23.5121 53.0359 25.7682 54.3174 28.085 55.4777C28.2532 55.562 28.4462 55.5463 28.5848 55.4132C28.7849 55.221 29.0171 55.0716 29.2265 54.8905C29.4539 54.6935 29.5676 54.4111 29.7045 54.1484C29.9631 53.6522 30.2165 53.1532 30.4864 52.6629C31.0266 51.6821 31.6381 50.7468 32.46 49.9777C32.8483 49.6143 32.2642 49.0318 31.8769 49.3944C31.0475 50.1705 30.4065 51.1167 29.8539 52.1033C29.5871 52.5798 29.3381 53.0661 29.0866 53.5509C28.9668 53.7817 28.8604 54.0957 28.6753 54.2787C28.4695 54.4822 28.2113 54.6285 28.0017 54.8301C28.1683 54.8087 28.3349 54.7871 28.5015 54.7656C26.449 53.7376 24.4481 52.6111 22.4681 51.4504C20.5425 50.3214 18.6853 49.1023 16.8892 47.7764C16.0008 47.1205 15.1257 46.4468 14.2566 45.7657C13.8135 45.4187 13.3277 45.0907 12.9299 44.6929C12.7377 44.5007 12.5506 44.3013 12.3524 44.1154C12.1369 43.9135 11.8804 43.7561 11.6341 43.5943C11.4385 43.4658 11.2384 43.3401 11.0581 43.19C10.8353 43.0046 10.6452 42.7799 10.44 42.5755C10.0537 42.1905 9.65206 41.8212 9.24083 41.4631C8.42546 40.7534 7.57249 40.0892 6.72116 39.4238C5.75965 38.6722 4.78395 37.9255 3.89649 37.0862C2.98397 36.2232 2.10559 35.3271 1.08816 34.5843C0.710083 34.3084 0.242935 34.9205 0.588348 35.232C1.09261 35.6866 1.48108 36.2281 1.8768 36.7753C2.23706 37.2736 2.62041 37.7569 3.03709 38.2095C3.92388 39.1727 4.96853 39.9529 6.06069 40.6672C7.19969 41.4119 8.35915 42.1221 9.48612 42.8856C10.6758 43.6918 11.8504 44.5197 13.0333 45.3357C14.1871 46.1318 15.3443 46.929 16.5448 47.6538C17.635 48.312 18.7564 48.9164 19.854 49.5615C20.9681 50.2162 22.0599 50.9144 23.0506 51.7471C24.0672 52.6016 25.1142 53.4247 26.25 54.1163C26.8094 54.457 27.3443 54.8189 27.8898 55.1805C28.3205 55.4658 28.8083 55.7753 29.3395 55.5773C29.7682 55.4175 30.0512 55.0238 30.2744 54.6434C30.5213 54.2224 30.7364 53.8123 31.0721 53.4508C31.8565 52.606 32.8061 51.9687 33.4712 51.0096C34.1838 49.9821 34.6206 48.7798 35.4073 47.8011C36.2443 46.7597 37.2843 45.9053 38.1508 44.8903C38.9927 43.9041 39.6426 42.7812 40.3102 41.675C41.0144 40.5082 41.794 39.3955 42.6441 38.3303C43.4717 37.2932 44.3435 36.2924 45.1864 35.2679C46.0285 34.2445 46.8478 33.1976 47.569 32.0845C48.3337 30.9042 49.0044 29.6542 49.6362 28.3987C49.9831 27.7096 50.3277 27.013 50.6211 26.2985C50.8687 25.696 51.21 24.9006 51.0226 24.2388C50.921 23.8797 50.6376 23.692 50.281 23.6504C50.0595 23.6247 49.8686 23.8584 49.8686 24.0628C49.8688 24.3069 50.059 24.4489 50.2812 24.4748Z" fill="#E34511"/>
<path d="M21.3593 43.5471C21.3631 43.5661 21.3766 43.6748 21.3656 43.5677C21.369 43.6007 21.372 43.6337 21.3738 43.6669C21.3775 43.7338 21.3768 43.801 21.3732 43.8679C21.3715 43.9006 21.3471 44.0949 21.3629 43.9968C21.3499 44.0776 21.3352 44.1579 21.3177 44.2379C21.2544 44.5273 21.1628 44.8092 21.0861 45.095C20.927 45.6882 20.8382 46.3393 21.2546 46.8501C21.4827 47.1301 21.8212 47.2952 22.1588 47.4039C22.5765 47.5385 23.0192 47.6048 23.4549 47.5405C24.1784 47.4338 24.7828 46.9326 25.1493 46.3169C25.5323 45.6734 25.676 44.9004 25.5485 44.1635C25.4911 43.8317 25.3596 43.5003 25.1646 43.2253C24.9586 42.9348 24.6803 42.7507 24.354 42.6173C23.6881 42.3448 22.9209 42.3096 22.2156 42.4144C21.8999 42.4612 21.5772 42.5493 21.3011 42.7138C20.9872 42.9007 20.8064 43.1675 20.6957 43.5121C20.4037 44.4207 20.8575 45.3327 21.5233 45.9442C22.1788 46.5465 23.0242 46.9679 23.9095 47.0791C24.1309 47.107 24.3219 46.8696 24.3219 46.6667C24.3219 46.4208 24.1315 46.2822 23.9095 46.2543C24.006 46.2664 23.8798 46.2486 23.8691 46.2466C23.8301 46.2397 23.7915 46.2317 23.7529 46.2232C23.6861 46.2083 23.6197 46.191 23.554 46.1719C23.4059 46.1288 23.2347 46.0663 23.1377 46.0222C22.8483 45.8908 22.524 45.7026 22.3027 45.5285C22.0366 45.3195 21.8043 45.0767 21.6491 44.8204C21.4985 44.5716 21.4208 44.3298 21.4292 44.0578C21.4301 44.0291 21.4317 44.0002 21.4344 43.9717C21.4466 43.8368 21.4164 44.0423 21.4449 43.9074C21.4608 43.8326 21.4805 43.7589 21.506 43.687C21.5226 43.64 21.5485 43.6027 21.5759 43.5403C21.5861 43.5171 21.6275 43.489 21.5582 43.5606C21.5828 43.5352 21.6118 43.5093 21.6343 43.4823C21.6754 43.4328 21.6316 43.482 21.6173 43.4925C21.6415 43.4749 21.666 43.4579 21.6912 43.442C21.7359 43.4138 21.7827 43.3901 21.8299 43.3663C21.9279 43.3167 21.7491 43.3947 21.8548 43.3549C21.8877 43.3426 21.9206 43.3305 21.954 43.3196C22.0239 43.2965 22.095 43.2771 22.1668 43.2603C22.6657 43.1433 23.2957 43.1588 23.8146 43.3025C23.8762 43.3195 23.9372 43.3384 23.9976 43.3597C24.0324 43.3721 24.0672 43.3848 24.1013 43.399C24.0156 43.3635 24.1226 43.4099 24.1332 43.4155C24.1833 43.4417 24.2336 43.4673 24.2818 43.4973C24.3047 43.5116 24.3268 43.5272 24.3493 43.542C24.3738 43.5596 24.3669 43.5539 24.3286 43.5247C24.3445 43.5374 24.36 43.5507 24.3752 43.5643C24.4101 43.5987 24.4449 43.6322 24.4759 43.6705C24.4129 43.5926 24.491 43.698 24.4975 43.7081C24.5193 43.7416 24.5399 43.7756 24.5596 43.8104C24.6458 43.9633 24.6519 43.9819 24.7001 44.1503C24.7202 44.2208 24.7348 44.2919 24.7496 44.3635C24.7534 44.3819 24.7656 44.4682 24.7559 44.3922C24.761 44.4319 24.7644 44.472 24.7673 44.5121C24.7778 44.6604 24.7738 44.8088 24.76 44.9568C24.7475 45.0888 24.775 44.8778 24.7536 45.0088C24.7481 45.0424 24.742 45.0759 24.7354 45.1092C24.7207 45.1828 24.7034 45.2557 24.683 45.3278C24.6402 45.479 24.5944 45.5983 24.5518 45.6867C24.4878 45.82 24.4133 45.9482 24.328 46.0691C24.3333 46.0617 24.2551 46.1661 24.2887 46.1232C24.3222 46.0805 24.2401 46.1804 24.2458 46.1737C24.1945 46.2332 24.1403 46.2903 24.083 46.3444C23.9139 46.5039 23.6828 46.6413 23.4486 46.703C23.4159 46.7116 23.2381 46.7429 23.3056 46.7352C23.2381 46.7428 23.17 46.7459 23.1022 46.7456C22.896 46.7442 22.8168 46.7233 22.6011 46.6708C22.465 46.6377 22.251 46.5679 22.1869 46.5356C22.1293 46.5067 22.0745 46.4747 22.0194 46.4416C22.0066 46.4338 21.917 46.362 21.9909 46.4241C21.9578 46.3964 21.9282 46.3658 21.8971 46.3363C21.8824 46.3225 21.8698 46.3053 21.8566 46.2903C21.9281 46.3713 21.8505 46.2758 21.8377 46.2532C21.8284 46.237 21.8208 46.2185 21.8109 46.2027C21.7778 46.1494 21.8261 46.2769 21.8012 46.17C21.7925 46.1326 21.772 45.9678 21.7776 46.0848C21.7748 46.0257 21.77 45.9675 21.7717 45.9083C21.7725 45.8779 21.7743 45.8474 21.7766 45.8172C21.7776 45.8055 21.7926 45.6833 21.7832 45.7478C21.7732 45.8169 21.7898 45.712 21.7908 45.7077C21.7991 45.6646 21.8072 45.6216 21.8164 45.5787C21.8454 45.4444 21.8815 45.3118 21.9188 45.1795C22.0894 44.5735 22.2793 43.962 22.1547 43.3279C22.1118 43.1092 21.8507 42.984 21.6475 43.0399C21.419 43.1026 21.3161 43.3279 21.3593 43.5471Z" fill="#E34511"/>
<path d="M15.1166 38.3855C14.7852 37.8457 14.2821 37.6005 13.656 37.699C13.523 37.72 13.397 37.8605 13.368 37.987C13.1517 38.9309 13.0207 40.1177 13.5024 41.0037C13.9234 41.778 14.9726 42.1709 15.7958 42.2892C16.2768 42.3583 16.7731 42.3524 17.2186 42.1361C17.5979 41.952 17.8352 41.5888 17.9093 41.1804C18.0658 40.3165 17.8305 39.2949 17.4024 38.5352C17.139 38.0677 16.6908 37.7376 16.1603 37.6461C15.5638 37.5431 14.9576 37.6447 14.3575 37.6449C14.3575 37.9199 14.3575 38.1947 14.3575 38.4697C14.8728 38.4542 15.3661 38.5198 15.8652 38.6437C16.3568 38.7658 16.8417 38.9081 17.3422 38.9913C17.5616 39.0277 17.7861 38.9337 17.8494 38.7033C17.9037 38.5058 17.7823 38.2326 17.5614 38.196C17.043 38.1099 16.5415 37.9595 16.0316 37.8354C15.4827 37.702 14.923 37.6279 14.3575 37.6449C13.8284 37.6607 13.8247 38.4698 14.3575 38.4697C14.8219 38.4695 15.2862 38.4081 15.7504 38.4269C16.0867 38.4405 16.3911 38.5419 16.5918 38.7953C16.6425 38.8591 16.7334 39.0303 16.787 39.142C16.7952 39.1592 16.8028 39.1768 16.8106 39.1943C16.8071 39.1867 16.7891 39.1422 16.8076 39.1869C16.8261 39.2313 16.8432 39.2763 16.8599 39.3213C16.8925 39.4097 16.9222 39.4993 16.9496 39.5895C17.068 39.9811 17.1312 40.2975 17.1309 40.684C17.1309 40.7675 17.1269 40.8506 17.1185 40.9338C17.1136 40.9834 17.1193 40.9306 17.1205 40.9227C17.1175 40.9418 17.1144 40.961 17.1104 40.9798C17.1015 41.0227 17.0925 41.0652 17.0802 41.1073C17.076 41.122 17.0357 41.232 17.0534 41.1916C17.0713 41.1503 17.0296 41.2348 17.0215 41.2483C17.0128 41.263 16.9572 41.3366 16.989 41.2996C17.0197 41.264 16.9447 41.3392 16.9305 41.3516C16.9951 41.2947 16.7931 41.4291 16.8176 41.4177C16.8498 41.4029 16.7611 41.4383 16.7436 41.444C16.7002 41.4578 16.6562 41.4695 16.6118 41.4793C16.5922 41.4835 16.4961 41.5007 16.5618 41.4915C16.5135 41.4984 16.4641 41.5014 16.4155 41.5038C16.3208 41.5086 16.226 41.5075 16.1314 41.5015C15.9473 41.49 15.8108 41.4652 15.6028 41.4118C15.4347 41.3686 15.1968 41.2891 15.0833 41.2401C14.9174 41.1683 14.7561 41.083 14.6048 40.9842C14.5659 40.9588 14.5274 40.9326 14.49 40.9049C14.5418 40.943 14.4712 40.8894 14.4553 40.8757C14.3988 40.827 14.3458 40.7749 14.2968 40.7186C14.2688 40.6865 14.3023 40.7272 14.3057 40.7318C14.2846 40.7035 14.2655 40.6734 14.2472 40.6431C14.2208 40.5996 14.1964 40.5547 14.1751 40.5083C14.1906 40.5418 14.1479 40.4367 14.1411 40.417C14.1235 40.3648 14.1081 40.3119 14.0944 40.2586C14.0354 40.0275 14.0192 39.8358 14.0143 39.5907C14.0045 39.1013 14.0568 38.6704 14.1634 38.2058C14.0674 38.3018 13.9714 38.3978 13.8754 38.4938C13.9722 38.4786 14.0811 38.4997 14.1442 38.5305C14.2485 38.5815 14.3323 38.6836 14.4045 38.8014C14.6817 39.2535 15.3954 38.8397 15.1166 38.3855Z" fill="#E34511"/>
</svg>
