<svg width="144" height="68" viewBox="0 0 144 68" fill="none" xmlns="http://www.w3.org/2000/svg">
<path d="M100.804 55.2891H89.634V63.7314H102.678V67.4053H85.1624V40.3896H102.585V44.082H89.634V51.6895H100.804V55.2891Z" fill="black"/>
<path d="M62.7668 40.3896H78.6868V44.082H72.9163V63.7314H78.6868V67.4053H62.7668V63.7314H68.4075V44.082H62.7668V40.3896Z" fill="black"/>
<path d="M40.8909 67.4053L37.3655 40.3896H41.5032L43.3586 56.9775L43.4885 58.0352L43.6741 56.9219L46.2717 40.3896H49.6858L52.3762 56.9961L52.5618 58.1094L52.6917 56.9775L54.5657 40.3896H58.7219L55.1594 67.4053H50.9475L48.2014 50.873L48.0159 49.5928L47.8118 50.873L45.1028 67.4053H40.8909Z" fill="black"/>
<path d="M143.105 19.0928C142.981 20.404 142.672 21.5977 142.177 22.6738C141.682 23.7376 141.033 24.6468 140.229 25.4014C139.413 26.1683 138.442 26.762 137.316 27.1826C136.203 27.5908 134.966 27.7949 133.605 27.7949C132.492 27.7949 131.465 27.6465 130.525 27.3496C129.597 27.0404 128.768 26.6074 128.039 26.0508C127.333 25.5312 126.715 24.9066 126.183 24.1768C125.664 23.4346 125.224 22.6243 124.866 21.7461C124.507 20.8802 124.235 19.9401 124.049 18.9258C123.876 17.9115 123.79 16.8538 123.79 15.7529V12.0605C123.79 11.0091 123.876 9.99479 124.049 9.01758C124.222 8.04036 124.482 7.11881 124.829 6.25293C125.2 5.28809 125.676 4.41602 126.257 3.63672C126.851 2.84505 127.531 2.1709 128.298 1.61426C129.028 1.1071 129.832 0.711263 130.71 0.426758C131.601 0.142253 132.572 0 133.624 0C135.046 0 136.314 0.210286 137.427 0.630859C138.553 1.05143 139.512 1.64518 140.303 2.41211C141.107 3.19141 141.738 4.13151 142.196 5.23242C142.666 6.33333 142.969 7.55794 143.105 8.90625H138.652C138.578 8.10221 138.423 7.37858 138.188 6.73535C137.965 6.07975 137.656 5.52311 137.26 5.06543C136.852 4.60775 136.351 4.26139 135.757 4.02637C135.164 3.77897 134.452 3.65527 133.624 3.65527C133.042 3.65527 132.516 3.73568 132.046 3.89648C131.589 4.05729 131.181 4.28613 130.822 4.58301C130.327 4.94173 129.913 5.41178 129.579 5.99316C129.257 6.56217 128.991 7.19922 128.781 7.9043C128.62 8.52279 128.496 9.18457 128.41 9.88965C128.335 10.5824 128.298 11.2936 128.298 12.0234V15.7529C128.298 16.6559 128.348 17.5033 128.447 18.2949C128.558 19.0866 128.725 19.8102 128.948 20.4658C129.121 21.0101 129.337 21.5049 129.597 21.9502C129.869 22.3955 130.191 22.779 130.562 23.1006C130.945 23.4469 131.385 23.7129 131.879 23.8984C132.387 24.0716 132.962 24.1582 133.605 24.1582C134.372 24.1582 135.052 24.0469 135.646 23.8242C136.24 23.6016 136.747 23.2738 137.167 22.8408C137.576 22.4202 137.903 21.8945 138.151 21.2637C138.398 20.6328 138.559 19.9092 138.633 19.0928H143.105Z" fill="black"/>
<path d="M119.615 0.389648L119.633 18.4619C119.633 19.8597 119.417 21.1338 118.984 22.2842C118.563 23.4222 117.963 24.3994 117.184 25.2158C116.392 26.0322 115.44 26.6631 114.327 27.1084C113.226 27.5537 111.989 27.7764 110.616 27.7764C109.267 27.7764 108.049 27.5599 106.96 27.127C105.872 26.6816 104.944 26.0508 104.177 25.2344C103.398 24.418 102.792 23.4346 102.359 22.2842C101.938 21.1338 101.722 19.8597 101.709 18.4619L101.747 0.389648H106.144L106.181 18.4619C106.194 19.3154 106.299 20.1009 106.497 20.8184C106.694 21.5234 106.985 22.1234 107.369 22.6182C107.74 23.0882 108.191 23.4593 108.723 23.7314C109.267 23.9912 109.898 24.1211 110.616 24.1211C111.346 24.1211 111.989 23.9912 112.545 23.7314C113.114 23.4593 113.591 23.0758 113.974 22.5811C114.358 22.0739 114.648 21.474 114.846 20.7812C115.044 20.0762 115.155 19.3031 115.18 18.4619L115.217 0.389648H119.615Z" fill="black"/>
<path d="M83.6816 15.2891H72.5117V23.7314H85.5557V27.4053H68.04V0.389648H85.4629V4.08203H72.5117V11.6895H83.6816V15.2891Z" fill="black"/>
<path d="M60.8594 15.2891H49.6895V23.7314H62.7334V27.4053H45.2178V0.389648H62.6406V4.08203H49.6895V11.6895H60.8594V15.2891Z" fill="black"/>
<path d="M38.0371 15.2891H26.8672V23.7314H39.9111V27.4053H22.3955V0.389648H39.8184V4.08203H26.8672V11.6895H38.0371V15.2891Z" fill="black"/>
<path d="M0 0.389648H15.9199V4.08203H10.1494V23.7314H15.9199V27.4053H0V23.7314H5.64062V4.08203H0V0.389648Z" fill="black"/>
</svg>
