<svg width="308" height="83" viewBox="0 0 308 83" fill="none" xmlns="http://www.w3.org/2000/svg">
<path d="M5.95547 1.52588H74.3531C77.1203 1.52588 79.4062 4.02827 79.4062 7.07996V75.6209C79.4062 78.6726 77.1805 81.175 74.3531 81.175H5.95547C3.18828 81.175 0.902344 78.6726 0.902344 75.6209V7.07996C0.902344 4.02827 3.18828 1.52588 5.95547 1.52588Z" fill="#E60F05"/>
<path d="M56.3062 52.4283C55.6445 51.7569 54.8625 51.3297 53.9601 51.1466C53.0578 50.9635 52.1554 51.0855 51.3132 51.3907C50.4711 51.7569 49.7492 52.3062 49.2679 53.0997C48.7867 53.8321 48.4859 54.7476 48.4859 55.6631C48.4859 56.2734 48.6062 56.8838 48.8468 57.4331C49.0875 57.9824 49.3882 58.5317 49.8093 58.9589C50.2304 59.3861 50.7117 59.7523 51.3132 59.9354C51.8547 60.1796 52.4562 60.3017 53.0578 60.3017C53.9601 60.3017 54.8625 60.0575 55.5843 59.5082C56.3062 59.0199 56.9078 58.2875 57.2687 57.4331C57.6296 56.5786 57.6898 55.6631 57.5093 54.7476C57.389 53.8931 56.9679 53.0997 56.3062 52.4283ZM53.1179 57.9824C51.9148 57.9824 50.8922 56.9448 50.8922 55.7241C50.8922 54.5034 51.9148 53.4659 53.1179 53.4659C54.3211 53.4659 55.4039 54.5034 55.4039 55.7241C55.4039 56.9448 54.3211 57.9824 53.1179 57.9824Z" fill="white"/>
<path d="M64.3672 49.7431H63.0437C61.8406 49.7431 61.239 49.1938 60.6976 48.5834C59.7351 47.4848 58.5921 46.6303 57.2687 46.02C55.9453 45.4097 54.5617 45.1655 53.1179 45.1655H16.3023C16.182 45.1655 16.0617 45.2266 15.9414 45.2876C15.8211 45.3486 15.7609 45.4097 15.6406 45.4707C15.5804 45.5317 15.5203 45.6538 15.4601 45.7759C15.4 45.8979 15.3398 46.02 15.3398 46.1421V47.851V52.3065C15.3398 52.9779 14.7984 52.7337 14.7984 53.8323V54.4427C14.7984 55.1751 15.2195 55.6023 15.8812 55.6023H17.0843C17.2648 55.6023 17.6859 55.4802 17.6859 54.992C17.6859 51.2079 20.7539 48.0952 24.3632 48.0952C27.9726 48.0952 31.1609 51.0248 31.1609 54.992C31.1609 55.3582 31.4015 55.5413 31.7023 55.5413H45.7187C46.0797 55.5413 46.3203 55.2971 46.3203 54.9309C46.3203 51.3299 49.1476 48.0341 53.1179 48.0341C56.8476 48.0341 59.8554 51.1468 59.8554 54.9309C59.8554 55.1751 59.9757 55.5413 60.457 55.5413H64.4273C65.0289 55.5413 65.5703 54.9309 65.5703 54.3816V50.9637C65.45 50.1703 65.089 49.7431 64.3672 49.7431Z" fill="white"/>
<path d="M27.6118 52.4283C26.95 51.7569 26.168 51.3297 25.2657 51.1466C24.3633 50.9635 23.461 51.0855 22.6188 51.3907C21.7766 51.7569 21.0547 52.3062 20.5735 53.0997C20.0922 53.8321 19.7914 54.7476 19.7914 55.6631C19.7914 56.2734 19.9118 56.8838 20.1524 57.4331C20.393 57.9824 20.6938 58.5317 21.1149 58.9589C21.536 59.3861 22.0172 59.7523 22.6188 59.9354C23.1602 60.1796 23.7618 60.3017 24.3633 60.3017C25.2657 60.3017 26.168 60.0575 26.8899 59.5082C27.6118 59.0199 28.2133 58.2875 28.5743 57.4331C28.9352 56.5786 28.9953 55.6631 28.8149 54.7476C28.6946 53.8931 28.2735 53.0997 27.6118 52.4283ZM24.4235 57.9824C23.2203 57.9824 22.1977 56.9448 22.1977 55.7241C22.1977 54.5034 23.2203 53.4659 24.4235 53.4659C25.6266 53.4659 26.7094 54.5034 26.7094 55.7241C26.7094 56.9448 25.6266 57.9824 24.4235 57.9824Z" fill="white"/>
<path d="M15.5805 41.6861C15.6406 41.8082 15.7609 41.8692 15.8812 41.9303C16.0016 41.9913 16.1219 41.9913 16.2422 41.9913H53.0578C56.2461 41.9303 59.3742 43.212 61.6602 45.4092C62.0211 45.7754 62.5023 46.5688 63.2242 46.5688H63.9461C64.307 46.5688 64.4273 46.3857 64.4273 45.9585V40.6485C64.4273 33.2024 59.9758 27.2211 52.3961 24.2915C44.5156 21.1177 25.7469 22.3384 18.1672 24.3525C16.9641 24.6577 15.3398 25.268 15.3398 27.5873V39.7941L15.4 40.9537C15.3398 41.2589 15.4602 41.503 15.5805 41.6861ZM46.1398 28.869C46.1398 28.5028 46.2602 28.2587 46.7414 28.2587H49.0875C54.7422 28.2587 58.5922 32.1648 60.6977 37.9631C60.818 38.2682 60.7578 38.7565 60.1562 38.7565H46.7414C46.3805 38.7565 46.1398 38.3903 46.1398 38.1462V28.869ZM32.4242 28.869C32.4242 28.808 32.4242 28.6859 32.4844 28.6249C32.4844 28.5638 32.5445 28.5028 32.6047 28.4418C32.6648 28.3807 32.725 28.3197 32.7852 28.3197C32.8453 28.3197 32.9055 28.2587 33.0258 28.2587H42.9516C43.3125 28.2587 43.5531 28.5028 43.5531 28.869V38.0851C43.5531 38.3903 43.3125 38.6955 42.9516 38.6955H32.9656C32.6648 38.6955 32.3641 38.5734 32.3641 38.0851V28.869H32.4242ZM18.5281 28.869C18.5281 28.7469 18.5281 28.2587 19.0695 28.2587H29.2359C29.5969 28.2587 29.8375 28.5028 29.8375 28.808V38.1462C29.8375 38.3293 29.7172 38.6955 29.2359 38.6955H19.0695C18.6484 38.6955 18.5281 38.3293 18.5281 38.0851V28.869Z" fill="white"/>
<path d="M99.9797 23.1318C99.9195 23.1318 99.8594 23.1318 99.7992 23.1929C99.739 23.1929 99.6789 23.2539 99.6789 23.3149C99.6187 23.376 99.6187 23.437 99.5586 23.437C99.5586 23.498 99.4984 23.5591 99.4984 23.6201V50.8412C99.4984 54.137 100.401 56.5173 102.266 57.9821C104.251 59.6301 107.439 59.9963 111.109 59.1418C111.229 59.1418 111.289 59.0808 111.349 58.9587C111.409 58.8976 111.47 58.7756 111.47 58.6535L111.409 54.0149C111.409 53.9539 111.409 53.8929 111.349 53.8318C111.349 53.7708 111.289 53.7098 111.229 53.6487C111.169 53.5877 111.109 53.5877 111.048 53.5877C110.988 53.5877 110.928 53.5877 110.868 53.5877C109.424 53.8929 108.341 53.7098 107.559 53.0994C106.717 52.4281 106.356 51.2074 106.356 49.4374V23.6201C106.356 23.498 106.296 23.376 106.236 23.3149C106.176 23.2539 106.055 23.1929 105.935 23.1929H99.9797V23.1318Z" fill="#1B1A21"/>
<path d="M125.907 30.9443C121.937 30.9443 118.688 32.3481 116.222 35.0946C113.755 37.8412 112.492 41.2591 112.492 45.2873C112.492 49.4376 113.755 52.8555 116.222 55.602C118.688 58.2875 121.997 59.6913 126.027 59.6913C129.095 59.6913 131.802 58.8368 134.088 57.1278C136.314 55.4799 137.998 53.0996 138.78 50.3531C138.78 50.2921 138.78 50.231 138.78 50.17C138.78 50.109 138.72 50.0479 138.72 49.9869C138.66 49.9259 138.66 49.8648 138.6 49.8648C138.54 49.8648 138.48 49.8038 138.42 49.8038H132.344C132.284 49.8038 132.163 49.8038 132.103 49.8648C132.043 49.9259 131.983 49.9869 131.983 50.0479C131.562 51.1465 130.78 52.062 129.757 52.6113C128.674 53.2827 127.471 53.5879 126.208 53.5879C124.223 53.5879 122.659 53.0386 121.455 51.8179C120.312 50.6583 119.591 49.1934 119.41 47.6066V47.4845H138.961C139.081 47.4845 139.141 47.4235 139.262 47.3624C139.322 47.3014 139.382 47.1793 139.382 47.0573L139.442 45.1652C139.442 41.137 138.179 37.7191 135.773 35.0336C133.066 32.2871 129.877 30.9443 125.907 30.9443ZM132.344 42.1135H119.35L119.41 41.9915C119.711 40.5877 120.433 39.306 121.516 38.3294C122.719 37.2308 124.162 36.7425 125.967 36.7425C127.772 36.7425 129.276 37.2919 130.419 38.3294C131.441 39.306 132.163 40.5877 132.404 41.9915L132.344 42.1135Z" fill="#1B1A21"/>
<path d="M266.312 52.9776C262.161 52.9776 258.852 49.5597 258.852 45.4094C258.852 41.2591 262.221 37.8412 266.312 37.8412C270.402 37.8412 273.771 41.2591 273.771 45.4094C273.771 49.5597 270.402 52.9776 266.312 52.9776ZM266.312 31.1274C260.597 31.1274 255.604 34.5453 253.318 39.9163C252.235 42.4797 251.995 45.3483 252.536 48.1559C253.077 50.9024 254.401 53.4048 256.386 55.4189C258.371 57.433 260.838 58.7147 263.545 59.3251C266.252 59.8744 269.079 59.5692 271.666 58.5316C274.252 57.433 276.418 55.602 277.982 53.2827C279.486 50.9024 280.328 48.2169 280.328 45.4094C280.268 37.597 274.192 31.1274 266.312 31.1274ZM304.752 34.1181C303.007 32.104 300.48 31.1274 297.292 31.1274C295.307 31.1274 293.502 31.5547 292.059 32.3481C291.277 32.8364 290.555 33.4467 289.893 34.1181L289.713 34.3012V32.104C289.713 32.0429 289.652 31.9209 289.592 31.8598C289.532 31.7988 289.412 31.7378 289.291 31.7378H283.757C283.697 31.7378 283.577 31.7988 283.516 31.8598C283.456 31.9209 283.396 32.0429 283.396 32.104V58.5316C283.396 58.5927 283.396 58.6537 283.456 58.7147C283.456 58.7758 283.516 58.8368 283.577 58.8368C283.637 58.8978 283.757 58.9589 283.817 58.9589H289.833C289.893 58.9589 290.073 58.8978 290.073 58.8368C290.194 58.7758 290.194 58.6537 290.194 58.5316V43.2121C290.194 41.3811 290.735 39.7942 291.698 38.7567C292.72 37.6581 294.104 37.1088 295.909 37.1088C297.533 37.1088 298.736 37.597 299.518 38.5736C300.3 39.5501 300.721 40.9539 300.721 42.7239V58.5316C300.721 58.6537 300.721 58.7758 300.781 58.8368C300.902 58.8978 301.022 58.9589 301.142 58.9589H307.037C307.158 58.9589 307.278 58.8978 307.338 58.8368L307.459 58.7147C307.459 58.6537 307.519 58.5927 307.519 58.5316V41.9304C307.398 38.6956 306.496 36.0712 304.752 34.1181ZM242.67 44.8601C242.67 49.1935 239.903 52.4282 235.812 52.4282C231.842 52.4282 228.955 49.3155 228.955 44.8601C228.955 40.6487 231.421 37.2919 235.812 37.2919C240.023 37.3529 242.67 40.5266 242.67 44.8601ZM248.746 31.7378H243.212C243.152 31.7378 243.091 31.7378 243.031 31.7988C242.971 31.7988 242.911 31.8598 242.911 31.9209C242.851 31.9819 242.791 32.104 242.791 32.165V34.6674L242.61 34.4843C240.745 32.2871 238.038 31.1885 234.549 31.1885C226.97 31.1885 222.157 37.1698 222.157 44.9211C222.157 48.7662 223.3 52.062 225.526 54.6255C227.752 57.2499 230.82 58.5927 234.549 58.5927C237.798 58.5927 240.384 57.5551 242.189 55.541L242.37 55.2968V58.1654C242.37 61.7664 239.482 64.574 236.173 64.574C232.805 64.574 231.18 62.5599 230.398 61.095C230.218 60.7899 230.158 60.7288 229.977 60.7899C229.376 61.095 224.804 63.5364 224.563 63.6585C224.443 63.7195 224.443 63.9026 224.503 64.0247C226.368 68.236 230.519 70.9215 236.234 70.9215C243.392 70.9215 249.167 65.7947 249.167 57.311V32.104C249.167 32.0429 249.167 31.9209 249.047 31.8598C248.927 31.7988 248.866 31.7378 248.746 31.7378ZM212.472 45.3483C212.472 49.9869 209.945 53.4048 205.554 53.4048C201.163 53.4048 198.636 49.8038 198.636 45.3483C198.636 41.0149 201.102 37.3529 205.554 37.3529C209.825 37.3529 212.472 40.5877 212.472 45.3483ZM218.608 31.7988H213.073C213.013 31.7988 212.893 31.8598 212.773 31.9209C212.713 31.9819 212.713 32.104 212.713 32.165V34.6674L212.472 34.4843C210.667 32.2871 207.9 31.1885 204.291 31.1885C196.53 31.1885 191.959 37.2919 191.959 45.3483C191.959 53.4048 196.53 59.5692 204.291 59.5692C207.84 59.5692 210.667 58.4706 212.472 56.2734L212.713 56.0292V58.5316C212.713 58.6537 212.773 58.7147 212.773 58.8368C212.893 58.8978 213.013 58.9589 213.073 58.9589H218.608C218.728 58.9589 218.848 58.8978 218.848 58.8368C218.969 58.7758 218.969 58.6537 218.969 58.5316V32.165C218.969 32.104 218.969 31.9819 218.848 31.9209C218.788 31.9209 218.728 31.7988 218.608 31.7988ZM192.199 32.104C192.199 32.0429 192.139 32.0429 192.139 31.9209C192.079 31.8598 192.019 31.7988 191.959 31.7988C191.898 31.7378 191.838 31.7378 191.778 31.7378H185.702C185.642 31.7378 185.582 31.7378 185.522 31.7988C185.402 31.8598 185.402 31.9209 185.341 32.0429L179.988 49.4376L174.573 32.104C174.513 31.9819 174.513 31.9209 174.393 31.8598C174.333 31.8598 174.273 31.7988 174.152 31.7988H168.438C168.317 31.7988 168.257 31.8598 168.197 31.8598C168.137 31.9209 168.077 31.9819 168.077 32.104L162.482 49.6817L157.008 32.0429C157.008 31.9209 156.948 31.8598 156.887 31.7988C156.827 31.7988 156.707 31.7378 156.647 31.7378H150.451C150.391 31.7378 150.33 31.7378 150.21 31.7988C150.15 31.7988 150.15 31.8598 150.15 31.9209C150.09 31.9819 150.09 32.0429 150.09 32.104V32.3481L159.173 58.7147C159.173 58.7758 159.234 58.8368 159.294 58.8978C159.414 58.9589 159.474 58.9589 159.534 58.9589H165.069H165.189C165.249 58.9589 165.249 58.8978 165.309 58.8978C165.37 58.8978 165.37 58.8368 165.37 58.8368C165.37 58.8368 165.43 58.7758 165.43 58.7147L171.084 41.5032L176.679 58.6537C176.679 58.7147 176.739 58.8368 176.799 58.8978C176.859 58.8978 176.98 58.9589 177.04 58.9589H182.634C182.755 58.9589 182.875 58.8978 182.875 58.8978C182.935 58.8368 182.995 58.7758 183.055 58.6537L192.199 32.3481V32.104Z" fill="#1B1A21"/>
</svg>
