<svg width="99" height="136" viewBox="0 0 99 136" fill="none" xmlns="http://www.w3.org/2000/svg">
<path d="M28.9869 94.3268C14.69 79.3278 0.689716 69.3043 0.0203201 46.6567C-0.730468 21.241 19.4206 3.12849 44.4089 2.6485C70.9595 2.13809 89.8936 21.3764 90.0951 47.6661C90.2488 67.6742 80.8088 82.5979 69.0936 97.8396C65.2202 102.879 61.2754 107.989 56.159 111.761C51.2436 115.384 42.6289 119.38 38.7061 114.647C37.3627 113.026 37.2037 106.256 35.9524 103.745C34.2173 100.262 31.6584 97.1292 28.9869 94.3268Z" fill="#E61854" fill-opacity="0.8"/>
<path d="M44 44H31L41 51L39.5 60.5L51.5 55.5L65 60.5L59 48.5L73.5 42L56 40L49.5 25L44 44Z" fill="#F2F2F2" stroke="black"/>
<path d="M96.9549 33.4924C94.914 24.5119 90.0807 16.1878 82.7318 10.5481C74.6663 4.3585 64.4025 1.73341 54.4719 0.521649C44.402 -0.707605 33.6103 -0.0115857 24.7142 5.3025C20.4308 7.86142 16.7377 11.3309 13.5505 15.1464C10.2294 19.1232 7.21483 23.4469 4.88107 28.0802C2.48494 32.8382 0.927072 37.8861 0.410572 43.1941C-0.0990812 48.442 0.437962 53.8017 1.74252 58.9021C4.2307 68.6319 9.6277 77.6162 16.7933 84.6228C18.5877 86.377 20.5054 87.9911 22.509 89.5011C24.4868 90.9912 26.5543 92.3696 28.3373 94.1001C31.9384 97.5954 33.7313 102.566 34.8099 107.366C35.388 109.939 35.6915 112.544 35.7608 115.179C35.763 115.269 35.7805 115.348 35.7927 115.431C35.4063 116.176 35.1956 117.021 35.2275 117.907C35.2853 119.524 36.1487 120.809 37.3886 121.662C36.2773 122.469 35.868 123.939 36.208 125.254C36.9771 128.223 40.0616 129.082 42.7362 129.55C42.7095 130.167 42.8716 130.85 43.0404 131.369C43.3196 132.227 43.8574 133.013 44.4492 133.683C45.6184 135.007 47.3664 135.78 49.0977 135.965C50.7301 136.14 52.5093 135.639 53.8527 134.704C55.3976 133.627 56.3637 132.199 57.0719 130.478C57.2339 130.085 57.2111 129.656 57.0658 129.258C58.5468 128.856 59.9845 128.309 61.3499 127.593C63.0554 126.697 63.8001 125.159 63.8761 123.281C63.921 122.171 63.7947 120.533 63.1984 119.345C64.1218 118.798 64.881 118.034 65.183 116.947C65.679 115.163 64.7562 113.588 63.3847 112.583C63.5985 107.497 65.5572 102.775 68.4394 98.6284C71.4548 94.2903 75.3228 90.6086 78.9223 86.7687C85.776 79.4586 91.4758 71.0843 94.9095 61.6245C98.1735 52.6303 99.0825 42.8548 96.9549 33.4924ZM60.4348 123.58C60.355 124.723 59.1432 125.069 58.2 125.434C55.6654 126.416 52.9779 126.888 50.2676 126.972C47.5543 127.056 44.7946 126.827 42.1322 126.297C41.1524 126.101 39.7566 125.807 39.2279 124.832C38.8407 124.117 39.3778 123.156 40.1909 123.175C40.4602 123.181 40.6899 123.046 40.8436 122.849C42.2638 123.007 43.7524 122.912 45.1414 122.814C47.0408 122.68 48.9357 122.489 50.8176 122.2C53.7987 121.743 56.7707 121.161 59.7236 120.515C59.8681 120.897 60.0758 121.26 60.2112 121.667C60.4113 122.27 60.479 122.947 60.4348 123.58ZM61.5409 116.186C61.2929 116.368 61.0038 116.482 60.7224 116.578C59.0474 117.146 57.1997 117.364 55.4669 117.696C50.7469 118.598 45.9835 119.3 41.1463 119.111C40.5302 119.087 39.9217 118.884 39.4439 118.494C39.0514 118.173 39.0225 117.934 39.164 117.487C39.1792 117.438 39.3169 117.131 39.3633 117.073C39.5634 116.827 39.6554 116.796 40.0708 116.618C40.5439 116.415 40.836 115.956 40.9577 115.452C44.0902 115.513 47.2158 115.373 50.3581 115.192C52.4416 115.072 54.5259 114.952 56.6094 114.832C58.0486 114.75 59.7997 114.509 61.1065 115.271C61.3005 115.385 61.5203 115.519 61.6443 115.712C61.7189 115.83 61.7447 115.916 61.7531 115.962C61.7303 115.943 61.5918 116.149 61.5409 116.186ZM42.4463 48.5051C40.251 47.819 38.1173 46.9853 36.0475 46.0155C38.6308 45.9455 41.2163 45.9941 43.7988 46.1653C44.135 46.1874 44.4523 46.1006 44.7398 45.9516C45.111 45.9257 45.4526 45.7119 45.5332 45.2631C45.5339 45.2578 45.5355 45.2533 45.5362 45.2479C45.7903 44.8836 45.9455 44.4507 45.9455 44.0179C45.9455 43.8757 45.9295 43.7403 45.9044 43.6087C46.1965 42.4638 46.5335 41.3327 46.7716 40.1689C47.1017 38.5502 47.4273 36.9353 47.8281 35.3317C48.229 33.729 48.6573 32.1316 49.1373 30.5509C49.3799 29.7507 49.637 28.955 49.9033 28.1631C49.9907 28.491 50.0683 28.812 50.1474 29.095C50.5392 30.5014 50.9066 31.9148 51.2854 33.3243C52.0643 36.2233 52.8433 39.1214 53.623 42.0204C53.839 42.8252 54.71 43.5866 55.5863 43.5151C59.5631 43.1911 63.5757 43.1051 67.5692 43.309C64.42 44.6006 61.1126 45.5301 57.8227 46.4445C56.6231 46.7777 55.6753 48.4686 56.5402 49.5967C58.6282 52.3215 60.7817 55.117 62.1874 58.2563C58.718 57.3282 55.5079 55.4098 53.0137 52.7824C52.3998 52.1359 51.1591 51.9137 50.3969 52.4447C47.6851 54.3335 44.9733 56.2222 42.2615 58.111C42.8259 55.7955 43.3911 53.4807 43.9555 51.1652C44.2393 50.0006 43.5896 48.8627 42.4463 48.5051ZM51.2595 57.0924C54.43 59.9457 58.3133 61.8603 62.4765 62.7115C61.5591 64.5509 60.7338 66.4662 60.1359 68.4379C58.7393 71.9583 57.7131 75.6088 57.2453 79.3833C55.8898 85.7509 55.1299 92.2745 54.6126 98.6878C54.4848 100.268 54.4126 101.851 54.3715 103.435C54.3106 105.78 54.2414 108.179 54.3707 110.547C53.2495 111.275 52.9536 111.466 51.8316 112.193C51.471 112 51.5341 111.838 51.5106 111.671C50.3954 103.813 49.0498 95.9775 47.3809 88.217C46.9709 86.3093 46.5441 84.4061 46.1022 82.5051C45.413 79.0144 44.6059 75.548 43.5539 72.1546C43.2063 70.6195 42.8001 69.0967 42.3094 67.6012C41.9329 66.4541 41.4887 65.3374 40.9904 64.2496C44.4135 61.8642 47.8365 59.4779 51.2595 57.0924ZM93.4216 55.8076C91.0909 65.078 86.2758 73.6257 80.1889 80.9465C73.6607 88.7974 65.0559 95.4884 62.1159 105.694C61.5523 107.649 61.2792 109.608 61.3591 111.614C60.1907 111.288 58.9606 111.269 57.7352 111.335C57.7048 109.473 57.634 107.614 57.6439 105.75C58.1011 99.4614 58.4365 93.1645 59.3836 86.9193C60.5527 79.2122 62.4925 71.5499 65.9224 64.5197C66.2875 63.7704 66.6754 63.0417 67.074 62.3206C67.1881 62.1639 67.2825 61.9912 67.3562 61.8101C68.9818 58.9462 70.8462 56.2694 72.808 53.5849C73.9285 52.0522 71.7499 50.276 70.4758 51.684C70.262 51.9206 70.062 52.1648 69.871 52.4143C68.6342 53.4077 67.5837 54.6841 66.6389 55.9286C66.4754 56.1446 66.3194 56.366 66.1597 56.5851C65.0613 54.144 63.5749 51.8902 61.9782 49.7199C66.8443 48.2922 71.6776 46.6088 75.8766 43.7174C76.5848 43.2299 77.0237 42.4867 76.8906 41.6012C76.7787 40.8588 76.1945 39.9483 75.3692 39.8357C69.2861 39.002 63.1771 38.7654 57.0673 39.3048C56.3759 36.9702 55.6844 34.635 54.9929 32.3004C54.2307 29.7278 53.7028 26.8182 52.1701 24.5659C51.3037 23.2925 49.882 22.4946 48.4595 23.4667C47.3634 24.216 47.0735 25.7769 46.6955 26.9628C45.8253 29.6928 45.0897 32.4663 44.5336 35.2777C44.2195 36.866 43.8992 38.4771 43.7304 40.0883C43.6688 40.677 43.6497 41.2681 43.6421 41.8599C38.6491 41.5313 33.643 41.6515 28.672 42.2265C27.7128 42.3376 26.8646 42.8198 26.5923 43.8095C26.3314 44.7588 26.7787 45.7226 27.5835 46.2452C31.2446 48.6223 35.1895 50.5468 39.3025 52.0027C38.7571 54.2384 38.2117 56.4732 37.6663 58.7089C37.2966 58.2289 36.9162 57.7565 36.5115 57.2986C35.935 56.6269 34.7871 56.706 34.1945 57.2986C33.8454 57.6477 33.7092 58.0714 33.7343 58.4944C33.4034 59.2687 33.4194 60.3048 33.9929 60.9567C35.6269 62.815 36.9474 64.8818 38.0413 67.071C38.055 67.1029 38.0686 67.1356 38.0823 67.1676C38.3798 67.9937 38.6544 68.8274 38.9138 69.6649C39.3329 71.1824 39.6767 72.7205 39.9886 74.2632C40.3682 76.1421 40.8063 77.9137 41.4202 79.7287C41.4765 79.8937 41.5571 80.0352 41.6499 80.1615C43.2017 86.6478 44.5892 93.1759 45.7987 99.7329C46.5578 103.845 47.2378 107.972 47.8525 112.108C45.1338 112.352 42.4228 112.652 39.7345 113.115C39.6775 113.071 39.6524 113.051 39.5953 113.007C39.2203 108.287 38.1257 103.634 36.2628 99.2735C35.2648 96.9382 33.996 94.7543 32.3476 92.8146C30.6962 90.8718 28.6271 89.3383 26.5756 87.8474C22.7798 85.0891 19.2738 82.0814 16.203 78.5199C13.1222 74.9486 10.542 70.9444 8.5095 66.6899C4.25504 57.7808 2.59143 47.304 5.12677 37.664C6.4222 32.7371 8.7765 28.1867 11.575 23.9535C14.191 19.9965 17.1599 16.2296 20.6347 12.9884C24.1216 9.73573 28.1738 7.16616 32.7135 5.66078C37.3993 4.10748 42.3239 3.57425 47.2432 3.65031C52.075 3.72486 56.8984 4.3509 61.62 5.36564C66.3673 6.38571 71.0562 7.84697 75.3654 10.1115C83.2833 14.2724 89.1983 21.136 92.2646 29.5346C95.3461 37.9812 95.6047 47.123 93.4216 55.8076Z" fill="#202020"/>
<path d="M29.4061 14.2884C28.542 14.4329 27.8102 14.8908 27.032 15.2849C26.1565 15.7291 25.3281 16.2228 24.5385 16.8085C23.0856 17.8879 21.6982 19.0723 20.4263 20.3616C17.8043 23.021 15.6401 26.2424 14.0518 29.6145C10.6425 36.8561 9.75629 45.0494 11.4153 52.8768C12.3669 57.364 14.1454 61.6154 16.8534 65.3252C17.3935 66.0646 18.3276 66.4305 19.1758 65.9345C19.9722 65.469 20.246 64.4079 19.7851 63.6114C16.0623 57.1883 14.0427 49.8546 14.5379 42.4129C14.992 35.5774 17.7495 28.8082 22.0093 23.4568C23.2363 21.9149 24.5119 20.4217 25.942 19.0624C26.6167 18.4211 27.3036 17.7913 27.9616 17.1341C28.6546 16.4411 29.4533 15.8949 30.039 15.1122C30.3676 14.6748 29.8275 14.2176 29.4061 14.2884Z" fill="#F2F2F2"/>
<path d="M76.5133 23.0909C76.4349 22.5767 75.8477 21.9902 75.3335 21.9111C74.7432 21.8206 74.2229 21.8259 73.7094 22.1644C73.4135 22.3599 73.1678 22.6125 72.9183 22.862C72.5471 23.2324 72.1843 23.6105 71.8229 23.9908C71.0813 24.7705 70.3389 25.5502 69.5972 26.3299C68.873 27.0906 68.1656 27.8665 67.4916 28.672C67.1105 29.1269 66.7081 29.5711 66.3871 30.0709C66.0669 30.5691 65.6858 31.1221 65.6759 31.7299C65.6668 32.27 66.1468 32.75 66.6876 32.7416C67.2771 32.7325 67.7929 32.3765 68.2797 32.0738C68.784 31.7588 69.2283 31.361 69.6839 30.9807C70.5115 30.2892 71.3102 29.5666 72.0922 28.8234C72.8529 28.1007 73.6128 27.3789 74.3735 26.657C74.7538 26.2957 75.1334 25.9343 75.5046 25.5639C75.7693 25.2992 76.0645 25.0367 76.2607 24.715C76.5772 24.1931 76.6038 23.6827 76.5133 23.0909Z" fill="#202020"/>
<path d="M59.167 24.4533C59.1632 25.1577 60.1019 25.3463 60.5225 24.8975C60.9835 24.4061 61.3426 23.8584 61.7457 23.3191C62.1413 22.7904 62.5452 22.2679 62.943 21.7407C63.3462 21.2067 63.776 20.6948 64.2149 20.1905C64.5077 19.8542 64.8234 19.502 65.0159 19.0966C65.2403 18.6235 65.2707 18.1534 65.2669 17.6391C65.2623 16.9667 64.5283 16.3726 63.8764 16.4601C63.3865 16.5255 62.9286 16.6487 62.514 16.9279C62.0287 17.255 61.7176 17.7692 61.4072 18.2492C61.0215 18.8463 60.68 19.4701 60.3643 20.106C59.7109 21.4235 59.1754 22.9745 59.167 24.4533Z" fill="#202020"/>
<path d="M41.8814 21.705C41.7992 20.92 41.6798 20.1441 41.5079 19.3743C41.1968 17.9853 40.7723 16.6678 40.0086 15.4583C39.731 15.0186 39.1566 14.7311 38.6363 14.9C38.1594 15.0544 37.6931 15.5306 37.7441 16.0722C37.773 16.3841 37.7874 16.6982 37.8209 17.0101C37.843 17.1843 37.8665 17.3585 37.8932 17.5327C37.8947 17.541 37.8947 17.5448 37.8962 17.5525C37.8977 17.5639 37.903 17.608 37.9129 17.6879C37.9342 17.8712 37.9601 18.0537 37.9898 18.2355C38.0438 18.5581 38.1252 18.8844 38.1518 19.2107C38.1282 18.9194 38.151 19.2062 38.1662 19.3347C38.1853 19.496 38.2028 19.658 38.218 19.82C38.2781 20.4461 38.3146 21.0767 38.3404 21.705C38.3587 22.1462 38.3891 22.5767 38.4644 23.0134C38.5184 23.3252 38.6234 23.628 38.7056 23.9345C39.095 25.3912 41.2302 25.3669 41.6326 23.9345C41.8418 23.1875 41.9628 22.4801 41.8814 21.705Z" fill="#202020"/>
<path d="M32.2737 31.0613C31.5275 30.2451 30.7394 29.4684 29.9422 28.7024C29.0948 27.8885 28.2368 27.1065 27.2897 26.409C26.8638 26.0948 26.4249 25.8149 25.9669 25.5494C25.2549 25.1364 24.1961 24.9873 23.8774 25.9785C23.6666 26.6334 24.0934 27.1841 24.4349 27.6999C24.7111 28.1175 25.0138 28.5108 25.315 28.9101C25.9913 29.8069 26.7573 30.6323 27.4822 31.4903C28.1326 32.2601 28.7624 33.0459 29.4014 33.8248C30.1917 34.7871 31.1236 36.4355 32.5491 36.3305C33.3782 36.2697 34.0887 35.798 34.3283 34.9757C34.7801 33.4262 33.2215 32.0966 32.2737 31.0613Z" fill="#202020"/>
<path d="M29.0798 54.0132C28.17 54.4544 27.207 54.8089 26.2683 55.1885C25.3243 55.5703 24.3856 56.0054 23.4736 56.3744C22.5281 56.757 21.565 57.0863 20.6058 57.434C19.4496 57.8531 18.2668 58.1315 17.3273 58.969C16.8519 59.3935 16.7484 60.177 16.9934 60.7345C17.268 61.3591 17.802 61.6679 18.4699 61.728C19.6983 61.8375 20.8926 61.1894 21.9895 60.7155C22.9845 60.2858 23.9475 59.7639 24.8923 59.2337C25.8401 58.702 26.7643 58.1444 27.6231 57.4758C28.488 56.8034 29.295 56.0739 30.1158 55.3566C30.8887 54.6826 29.9059 53.6123 29.0798 54.0132Z" fill="#202020"/>
<path d="M33.8303 67.7936C33.4378 67.433 32.7996 67.3882 32.4124 67.7936C32.3181 67.8925 32.223 67.9921 32.1287 68.091C32.0868 68.1351 32.0442 68.1793 32.0024 68.2234C31.9666 68.2607 31.9256 68.3177 31.9324 68.3208C31.7658 68.4737 31.5597 68.6014 31.3809 68.7361C30.9595 69.0563 30.5373 69.3751 30.1159 69.6961C29.6169 70.0756 29.1651 70.5069 28.7026 70.9291C28.5132 71.1018 28.304 71.2669 28.1366 71.4608C27.9807 71.6411 27.8133 71.8358 27.7069 72.0465C27.5973 72.2633 27.5205 72.4984 27.436 72.7266C27.3562 72.9434 27.376 73.2667 27.436 73.4857C27.519 73.7862 27.7038 74.0395 27.948 74.2274C28.1534 74.3864 28.3664 74.4739 28.6235 74.5089C28.9635 74.5545 29.2206 74.48 29.534 74.3392C29.8702 74.1886 30.1593 74.0129 30.4263 73.7505C30.6202 73.5595 30.7807 73.3245 30.9504 73.1123C31.3398 72.6247 31.7658 72.1477 32.1089 71.6267C32.3873 71.2045 32.6649 70.7815 32.9426 70.3594C33.081 70.1487 33.2142 69.9326 33.3594 69.7265C33.3686 69.7166 33.38 69.7029 33.3982 69.6839C33.4401 69.6398 33.4804 69.5941 33.5215 69.5492C33.6242 69.4374 33.7276 69.3248 33.8303 69.2123C34.1855 68.8251 34.2418 68.1709 33.8303 67.7936Z" fill="#202020"/>
<path d="M82.4954 60.7604C82.1591 60.4729 81.8168 60.2006 81.3909 60.0606C80.9557 59.9176 80.5214 59.7906 80.0749 59.6894C79.3926 59.5342 78.7102 59.4072 78.0211 59.2878C77.3547 59.1721 76.6899 59.0504 76.0243 58.928C75.628 58.8549 75.2248 58.861 74.8239 58.88C74.4672 58.8968 74.2831 58.8671 73.9294 58.7728C73.476 58.6518 72.9861 59.02 72.8659 59.4391C72.7465 59.856 72.9223 60.4326 73.3794 60.584C73.6966 60.6889 73.8784 60.7582 74.1416 60.9483C74.4634 61.1811 74.7905 61.4154 75.1556 61.5744C75.7938 61.8528 76.4404 62.1137 77.0793 62.3898C77.7016 62.6583 78.3215 62.9192 78.9567 63.155C79.385 63.314 79.8155 63.4555 80.2575 63.5749C80.7184 63.6997 81.1665 63.6746 81.6343 63.6137C82.2831 63.5301 82.8179 63.1064 83.0103 62.4758C83.2013 61.849 82.9928 61.1864 82.4954 60.7604Z" fill="#202020"/>
<path d="M75.3883 71.9599C74.9882 71.2266 74.2625 70.7824 73.6137 70.2887L72.2429 69.2458C71.3332 68.5536 70.3253 68.0051 69.4049 67.3251C68.9743 67.0071 68.3133 67.2178 68.0166 67.6027C67.6766 68.0424 67.7428 68.6083 68.1011 69.0161C68.1916 69.1195 68.2821 69.2222 68.3726 69.3257C68.4183 69.3774 68.4631 69.4291 68.5088 69.4808C68.5073 69.4793 68.5643 69.544 68.6039 69.5881C68.6274 69.6178 68.6655 69.6657 68.6731 69.6756C68.7126 69.7281 68.753 69.7805 68.7925 69.8338C68.8724 69.9388 68.9523 70.0445 69.0321 70.1495C69.4353 70.6812 69.8293 71.2167 70.2758 71.7127C70.6554 72.1333 71.0342 72.554 71.4138 72.9746C71.8755 73.4866 72.3266 74.0928 72.9709 74.3788C73.3459 74.5454 73.6783 74.6451 74.0975 74.5888C74.4679 74.5386 74.8513 74.3864 75.1122 74.1027C75.6553 73.5086 75.777 72.6734 75.3883 71.9599Z" fill="#202020"/>
<path d="M14.7388 44.0796C15.142 44.183 15.603 44.1822 16.0206 44.2119C16.6687 44.2576 17.3183 44.2865 17.9687 44.2986C18.6221 44.3108 19.2809 44.3671 19.9335 44.3564C20.2659 44.3511 20.5869 44.2986 20.9201 44.3199C21.2502 44.3412 21.5804 44.358 21.9105 44.3709C22.4209 44.3914 22.8499 43.9016 22.8423 43.4117C22.834 42.8602 22.3935 42.5202 21.8831 42.4798C21.556 42.454 21.216 42.4464 20.8927 42.3901C20.6721 42.3521 20.4287 42.2532 20.1853 42.1954C19.5623 42.047 18.9408 41.9352 18.327 41.7466C17.7336 41.564 17.1441 41.367 16.5592 41.157C15.7125 40.852 14.7252 40.4108 13.9021 41.0779C13.4457 41.4476 12.9999 42.098 13.2669 42.7293C13.5514 43.4025 14.004 43.8917 14.7388 44.0796Z" fill="#202020"/>
<path d="M84.2952 40.6664C84.2017 40.5454 84.1089 40.4252 84.0153 40.3043C83.8533 40.1301 83.6616 40.0069 83.4395 39.9346C83.0827 39.784 82.6544 39.7239 82.2756 39.8448C81.7127 40.0244 81.1278 40.1514 80.558 40.3058C80.2773 40.3819 79.9974 40.4587 79.7167 40.5348C79.3501 40.6344 79.0154 40.7645 78.6776 40.941C78.3041 41.1357 78.1178 41.599 78.1718 41.9968C78.2296 42.4251 78.524 42.7438 78.9309 42.8784C79.1135 42.9385 79.2831 42.9948 79.4748 43.0207C79.6581 43.045 79.8422 43.0633 80.0263 43.0823C80.3214 43.1127 80.6158 43.1431 80.911 43.1736C81.4184 43.2261 81.9272 43.2671 82.4346 43.3219C82.6195 43.3577 82.8043 43.3668 82.9891 43.3257C83.2272 43.3151 83.4486 43.2443 83.654 43.1135C84.0549 42.8549 84.3295 42.5034 84.4755 42.0447C84.6246 41.5769 84.5105 41.0886 84.2952 40.6664Z" fill="#202020"/>
</svg>
