<svg width="93" height="167" viewBox="0 0 93 167" fill="none" xmlns="http://www.w3.org/2000/svg">
<path d="M31.8709 47.8581C32.6338 44.7704 33.6683 41.7694 35.1163 38.9304C40.4736 28.4312 52.942 21.7836 62.5109 31.6626C66.3432 35.6184 68.4114 40.9363 70.003 46.2096C75.4365 64.2113 76.2696 83.5402 72.6615 101.98C70.7064 111.972 62.0756 144.911 45.1705 136.989C34.5995 132.036 32.3457 112.806 30.7759 102.777C28.6369 89.113 28.6675 75.1748 29.8527 61.4223C30.2451 56.8761 30.7786 52.2791 31.8709 47.8581Z" fill="#F5C607"/>
<path d="M69.8212 42.1302C66.2875 34.2098 60.7007 25.4424 52.0305 22.6025C47.8715 21.2396 43.3542 21.5961 39.5525 23.7991C36.1293 25.7831 33.5207 28.9769 31.5419 32.3493C29.2592 36.2403 27.6474 40.5693 26.33 44.8702C24.9048 49.5207 23.9071 54.3007 23.2107 59.1124C21.9537 67.7905 21.69 76.5886 22.4565 85.3245C23.9929 102.828 29.3976 120.383 38.8763 135.247C39.4272 136.111 40.0098 136.954 40.6081 137.787C39.8136 138.066 39.1872 138.753 38.9674 139.639C38.6844 140.78 38.8693 142.186 39.132 143.313C39.2941 144.007 39.6007 144.676 40.0378 145.239C38.857 147.024 38.3603 149.414 38.8395 151.486C39.0383 152.346 39.4229 153.059 39.9283 153.647C39.5359 154.097 39.2582 154.687 39.09 155.197C38.7563 156.206 38.7361 157.279 38.9104 158.319C39.2424 160.295 40.7123 161.821 42.494 162.6C42.4011 163.654 43.1641 164.918 43.857 165.576C44.8126 166.483 46.1371 167.091 47.4755 166.989C48.8271 166.886 50.1481 166.294 51.038 165.248C51.554 164.642 51.9122 164.037 52.1777 163.285C52.2688 163.026 52.3152 162.757 52.352 162.486C53.7859 161.879 54.9895 160.857 55.6797 159.352C56.6731 157.185 56.8325 154.361 56.2841 152.051C56.1843 151.631 55.9706 151.331 55.7016 151.13C56.4847 149.195 56.3393 146.952 56.0862 144.921C56.0634 144.738 56.017 144.563 55.9583 144.394C56.038 144.321 56.1265 144.264 56.2018 144.185C57.8328 142.495 58.0387 139.677 56.4085 138.028C59.1039 134.808 61.1466 130.875 62.9808 127.158C67.2099 118.588 70.0787 109.416 72.237 100.125C76.6816 80.999 78.0035 60.4684 69.8212 42.1302ZM52.9135 155.989C52.9056 156.082 52.8968 156.175 52.8872 156.268C52.8959 156.188 52.9415 155.975 52.8758 156.341C52.8381 156.55 52.7978 156.758 52.747 156.965C52.7041 157.138 52.6524 157.309 52.5981 157.48C52.5745 157.554 52.5482 157.627 52.5202 157.699C52.5193 157.702 52.5193 157.701 52.5184 157.704C52.4422 157.861 52.3581 158.011 52.2723 158.162C52.2293 158.237 52.1803 158.309 52.1321 158.381C52.2346 158.227 52.1663 158.351 52.0936 158.431C51.5864 158.988 51.1642 159.22 50.4503 159.413C48.9033 159.83 47.0481 159.919 45.3399 159.806C44.718 159.765 43.9156 159.596 43.355 159.275C42.7988 158.957 42.5544 158.685 42.2583 158.066C42.2653 158.067 42.1427 157.764 42.1226 157.702C42.0507 157.484 41.9886 157.265 41.9448 157.039C41.9386 157.008 41.936 156.998 41.9334 156.983C41.9229 156.886 41.9158 156.788 41.9123 156.69C41.9053 156.492 41.9071 156.29 41.929 156.092C41.9561 155.847 42.0709 155.53 42.1804 155.186C42.7068 155.383 43.2701 155.521 43.8561 155.595C46.7756 155.964 50.3443 155.902 52.945 154.323C52.952 154.5 52.9573 154.677 52.9573 154.855C52.9573 155.234 52.945 155.612 52.9135 155.989ZM42.07 146.635C42.9635 146.916 43.9244 146.94 44.8599 146.853C46.2141 146.728 47.5666 146.564 48.9191 146.418C50.0946 146.291 51.3788 146.209 52.6042 145.956C52.8092 147.61 52.903 149.368 51.9298 150.623C51.5908 151.06 50.812 151.537 50.191 151.743C49.2353 152.059 48.4794 152.154 47.5719 152.222C46.5628 152.297 45.5353 152.328 44.5236 152.285C43.7037 152.25 42.8295 152.131 42.2662 151.459C41.1222 150.093 41.7441 148.285 42.07 146.635ZM53.9892 141.132C53.9821 141.151 53.8779 141.407 53.8761 141.435C53.8341 141.503 53.7824 141.587 53.7675 141.62C53.5441 141.876 53.2682 142.058 52.9415 142.207C52.281 142.508 51.3753 142.641 50.6631 142.728C49.4832 142.87 48.3007 142.993 47.1199 143.126C46.0793 143.244 45.0246 143.419 43.9761 143.433C43.5881 143.438 43.2254 143.48 42.8496 143.273C42.7261 143.206 42.6254 143.043 42.5395 142.862C42.2802 142.316 42.176 141.407 42.1856 140.695C42.1926 140.222 42.2259 140.71 42.2233 140.422C42.2575 140.433 42.2916 140.447 42.3267 140.454C42.4799 140.894 42.7787 141.303 43.2718 141.619C45.4503 143.011 47.9188 143.108 50.2138 142.404C50.3443 142.434 50.4766 142.453 50.6079 142.453C51.3096 142.453 51.8588 142.101 52.1917 141.582C52.7865 141.267 53.3593 140.905 53.8972 140.499C53.9042 140.506 53.9278 140.524 53.9532 140.541C53.934 140.528 53.9173 140.512 53.898 140.499C53.8998 140.498 53.9007 140.497 53.9024 140.496C53.9103 140.498 53.9199 140.502 53.9453 140.513C53.955 140.532 53.9611 140.54 53.9681 140.551C53.9707 140.553 53.9716 140.553 53.9734 140.554L53.9742 140.556C53.9725 140.555 53.9708 140.554 53.9699 140.553C53.9716 140.556 53.976 140.562 53.9778 140.565C53.9856 140.589 53.9926 140.613 53.9988 140.638C53.9813 140.603 54.0207 140.832 54.0242 140.931C54.0259 140.982 54.0294 141.01 54.0338 141.028C54.0233 141.048 54.0102 141.076 53.9892 141.132ZM32.1428 68.0629C32.9855 69.0457 33.5443 70.2598 33.942 71.5536C33.6144 71.2785 33.3183 70.972 33.0678 70.6303C32.5641 69.9418 32.1332 68.9695 32.1428 68.0629ZM45.5922 67.4445C45.5808 67.1624 45.5879 66.8812 45.6325 66.6027C45.6562 66.4555 45.7394 66.2716 45.8174 66.0911C45.8489 66.29 45.8962 66.4984 45.8822 66.6903C45.8533 67.0941 45.7727 67.5032 45.6562 67.9026C45.6334 67.7493 45.5983 67.5969 45.5922 67.4445ZM45.4959 73.8714C46.9202 75.046 48.694 75.7547 50.5799 75.6399C52.1277 75.5453 53.503 74.9742 54.647 74.1079C55.5028 74.8358 56.5241 75.3798 57.6375 75.6496C57.9931 75.7363 58.3461 75.7958 58.6956 75.8344C57.5858 80.6486 56.5452 85.4795 55.5956 90.3279C53.5126 100.967 51.8247 111.683 50.5107 122.445C49.873 127.669 49.3466 132.906 48.8928 138.15C47.7786 138.415 46.6337 138.258 45.6404 137.571C45.4214 137.419 45.2024 137.317 44.9869 137.251C44.5148 127.37 43.4847 117.512 42.3389 107.69C41.1187 97.2322 39.6927 86.7978 38.066 76.395C40.7894 76.5421 43.454 75.6137 45.4959 73.8714ZM69.9193 89.9232C68.3539 98.9009 66.0738 107.847 62.8626 116.382C61.3007 120.532 59.4612 124.575 57.2994 128.447C56.2447 130.336 55.1279 132.204 53.8902 133.98C53.6204 134.367 53.3357 134.754 53.0335 135.129C54.7871 116.54 57.6979 98.0705 61.7799 79.8489C62.1303 78.2835 62.4666 76.7068 62.831 75.1389C66.0493 73.6375 68.2024 70.0373 67.7723 66.1875C67.6286 64.9025 66.6958 64.1482 65.3985 64.3795C61.6616 65.0443 60.3433 68.8863 59.5103 72.2868C59.3036 72.2832 59.0907 72.2657 58.8726 72.2333C58.1236 72.1194 57.4868 71.8059 56.9875 71.3714C58.2034 69.1272 58.4723 66.3513 57.3642 63.9301C56.8491 62.8036 55.4257 62.9657 54.64 63.5789C52.6095 65.1626 51.886 67.9464 52.3949 70.4043C52.4624 70.7284 52.5543 71.0429 52.6682 71.3469C52.4028 71.558 52.1207 71.7428 51.8255 71.8873C50.3627 72.603 48.8333 72.2307 47.6569 71.3162C47.9065 70.9045 48.1395 70.4788 48.334 70.0268C49.3063 67.7712 49.8941 64.2534 47.324 62.7853C46.0959 62.0836 44.5288 62.2404 43.5574 63.2951C42.7226 64.2008 42.3784 65.6067 42.2916 66.8015C42.176 68.3914 42.6087 69.9944 43.4111 71.395C41.8466 72.772 39.7478 73.4676 37.5781 73.1382C37.5518 73.1338 37.5256 73.1268 37.4993 73.1224C36.7775 69.6055 35.5371 66.1726 32.367 64.1228C31.8003 63.7567 30.9103 63.875 30.4522 64.3699C28.6179 66.3495 28.6758 69.0957 29.8364 71.4126C30.8429 73.4229 32.7341 74.8805 34.8127 75.6907C34.8679 76.0455 34.9222 76.3959 34.9765 76.734C35.7824 81.7725 36.5401 86.8189 37.2487 91.8723C38.6687 101.989 39.7986 112.132 40.926 122.284C41.4524 127.026 41.9194 131.773 42.4432 136.515C38.8299 130.402 35.5538 124.046 32.9776 117.44C29.9529 109.684 27.7639 101.587 26.4526 93.3666C23.8011 76.7462 24.656 58.8531 30.3059 42.9133C32.6421 36.3226 36.5095 27.6367 43.9761 25.6763C52.4019 23.4636 59.1731 31.1677 63.0124 37.5797C72.3763 53.2198 72.9755 72.3998 69.9193 89.9232Z" fill="#202020"/>
<path d="M53.9581 140.544L53.9541 140.541L53.9581 140.544Z" fill="#202020"/>
<path d="M53.9714 140.554L53.9696 140.551C53.964 140.548 53.9631 140.547 53.9575 140.544C53.964 140.548 53.964 140.549 53.9714 140.554Z" fill="#202020"/>
<path d="M12.9496 50.6735C11.9273 50.3704 10.8902 50.4667 9.84167 50.4799C8.886 50.4913 7.93035 50.4641 6.97731 50.3984C6.52006 50.3668 6.06281 50.3266 5.60732 50.2766C5.06597 50.218 5.04407 50.2153 4.53777 50.1374C3.50239 49.9779 2.48976 49.9271 1.45439 49.8352C-0.00232924 49.7064 -0.56556 51.9462 0.70808 52.5892C1.66988 53.0744 2.58876 53.5212 3.63903 53.7945C4.56229 54.0345 5.49517 54.2377 6.43507 54.4015C7.49235 54.5872 8.56014 54.7309 9.6288 54.8369C10.7316 54.9455 11.8826 55.069 12.9487 54.6853C13.7861 54.384 14.5193 53.635 14.4764 52.6794C14.4361 51.7491 13.8588 50.9433 12.9496 50.6735Z" fill="#202020"/>
<path d="M22.7715 32.189C20.7087 30.8899 18.2455 30.4012 15.9163 29.7784C14.8284 29.4876 13.7369 29.2405 12.6358 29.004C11.4393 28.7465 10.234 28.6379 9.02865 28.4399C8.47855 28.3497 7.92933 28.5363 7.70772 29.0881C7.508 29.5839 7.6648 30.2207 8.16585 30.4861C9.21787 31.045 10.2173 31.6739 11.2965 32.1794C12.4239 32.7076 13.5521 33.2139 14.704 33.6851C15.7902 34.1292 16.8772 34.5707 17.9713 34.9956C19.2292 35.4835 20.4135 35.7848 21.7642 35.9048C22.5937 35.9784 23.5065 35.2356 23.6878 34.4402C23.8893 33.5555 23.5468 32.6769 22.7715 32.189Z" fill="#202020"/>
<path d="M35.9685 14.3458C35.4684 13.6625 34.977 13.0222 34.3638 12.4379C33.8391 11.9378 33.3056 11.4481 32.802 10.9252C32.3158 10.4197 31.7867 9.96072 31.319 9.4369C31.093 9.18463 30.8723 8.92798 30.655 8.66782C30.5376 8.52679 30.429 8.36212 30.2959 8.23511C30.1855 8.12999 30.0488 8.04413 29.9271 7.95215C29.9026 7.93376 29.6319 7.72705 29.8491 7.89436C29.433 7.57288 28.8716 7.39068 28.3836 7.70515C27.8984 8.01786 27.7363 8.51715 27.8283 9.07075C27.9036 9.52625 28.0307 9.90204 28.2348 10.3216C28.3933 10.6475 28.5588 10.9707 28.7296 11.2913C29.0783 11.9421 29.4006 12.6166 29.822 13.2228C30.3081 13.9227 30.8179 14.6182 31.3689 15.2682C31.9479 15.9505 32.6207 16.4656 33.388 16.9237C34.0791 17.3371 35.1145 17.2364 35.6725 16.6294C35.8932 16.3885 36.057 16.1082 36.1569 15.7972C36.2909 15.3899 36.2287 14.7023 35.9685 14.3458Z" fill="#202020"/>
<path d="M50.2433 5.86389C50.1724 4.96779 50.1014 4.07168 50.0305 3.17558C49.9534 2.20502 49.9332 1.29401 49.5321 0.393523C49.2991 -0.131174 48.3811 -0.131174 48.1472 0.393523C47.7609 1.26335 47.732 2.13581 47.6575 3.07221C47.5839 4.00247 47.5103 4.93275 47.4359 5.86389C47.2896 7.7069 47.1521 9.49733 47.3115 11.343C47.3825 12.1646 47.9623 12.8707 48.8392 12.8707C49.7248 12.8707 50.295 12.1681 50.3668 11.343C50.5263 9.49733 50.3888 7.7069 50.2433 5.86389Z" fill="#202020"/>
<path d="M70.4716 6.60324C69.1551 8.0871 67.9366 9.67872 66.8215 11.3194C66.282 12.113 65.8002 12.9197 65.3745 13.7799C64.883 14.7715 64.5721 15.7333 64.361 16.8151C64.2191 17.5448 64.5046 18.2911 65.2282 18.5819C65.9062 18.8543 66.7225 18.6301 67.0983 17.9688C67.3234 17.5728 67.5792 17.19 67.7921 16.788C68.04 16.3193 68.2274 15.8191 68.4324 15.3304C68.4429 15.3058 68.4701 15.2445 68.4894 15.2007C68.5358 15.0948 68.5822 14.9888 68.6295 14.8828C68.7241 14.6708 68.8231 14.4614 68.9151 14.2486C68.9948 14.0629 69.0719 13.8763 69.1489 13.6897C69.1595 13.6643 69.184 13.6047 69.1989 13.5706C69.297 13.3411 69.3977 13.1133 69.5011 12.8856C70.2807 11.1705 71.2258 9.5622 72.3085 8.02052C73.0697 6.93783 71.3511 5.61253 70.4716 6.60324Z" fill="#202020"/>
<path d="M80.2616 28.8437C79.1561 28.531 78.0025 28.39 76.8585 28.5178C75.7487 28.6414 74.602 28.8428 73.5509 29.2274C72.8948 29.4674 72.3806 30.1471 72.6163 30.8741C72.8247 31.518 73.5588 32.0663 74.2631 31.8088C74.7273 31.6389 75.203 31.504 75.6891 31.412C75.7583 31.3988 75.8284 31.3866 75.8976 31.3752C75.8485 31.3813 75.7995 31.3883 75.7513 31.3945C75.8363 31.3472 76.0736 31.3857 76.1718 31.3857C76.4013 31.3866 76.6299 31.3962 76.8585 31.4138C76.9619 31.4216 77.1353 31.4067 77.229 31.4505C77.0241 31.4216 76.9785 31.4155 77.0924 31.4321C77.1441 31.4392 77.1958 31.4479 77.2466 31.4567C77.4875 31.497 77.7292 31.5408 77.9692 31.5889C78.4545 31.6862 78.9284 31.8254 79.3909 32.0006C80.1933 32.3037 81.2208 31.6651 81.4047 30.8575C81.6027 29.9868 81.1428 29.0933 80.2616 28.8437Z" fill="#202020"/>
<path d="M91.0192 54.0554C87.7142 53.917 84.4364 54.3524 81.134 54.3979C79.5406 54.4198 79.5354 56.8813 81.134 56.876C84.4346 56.8655 87.7177 57.2448 91.0192 57.0512C91.7996 57.0056 92.5547 56.3951 92.517 55.5533C92.4794 54.7141 91.8592 54.0914 91.0192 54.0554Z" fill="#202020"/>
<path d="M88.7782 99.9003C88.4226 99.4834 88.0801 99.1417 87.636 98.8133C87.2742 98.5461 86.901 98.3043 86.5226 98.0625C85.793 97.5965 85.065 97.1288 84.324 96.6794C82.82 95.7667 81.2984 94.8802 79.8417 93.8939C79.3091 93.5338 78.5234 93.7923 78.2142 94.3205C77.862 94.9222 78.1204 95.5687 78.6408 95.948C80.0186 96.9518 81.3256 98.0494 82.6518 99.1198C83.3867 99.7128 84.14 100.283 84.8881 100.859C85.2455 101.135 85.6002 101.404 85.9752 101.655C86.4096 101.945 86.9019 102.104 87.3881 102.288C87.9513 102.5 88.7265 102.152 89.0007 101.632C89.3152 101.036 89.2065 100.403 88.7782 99.9003Z" fill="#202020"/>
<path d="M20.5478 99.966C20.313 99.2416 19.5763 98.7712 18.8151 98.9823C17.3776 99.3818 15.9279 99.7576 14.5159 100.244C13.1012 100.731 11.6927 101.23 10.2596 101.662C8.92905 102.062 9.48003 104.078 10.8343 103.745C12.2875 103.388 13.7547 103.1 15.2202 102.8C16.683 102.5 18.1222 102.086 19.5632 101.698C20.2753 101.507 20.7808 100.687 20.5478 99.966Z" fill="#202020"/>
<path d="M25.5652 111.445C25.1552 110.81 24.4133 110.634 23.7475 110.969C22.3767 111.658 21.075 112.431 19.7847 113.26C19.1532 113.665 18.5242 114.08 17.9137 114.517C17.2777 114.973 16.704 115.515 16.0418 115.927C14.9284 116.619 15.927 118.345 17.0719 117.689C17.749 117.302 18.4953 117.056 19.1969 116.713C19.8706 116.383 20.5337 116.027 21.1898 115.664C22.5326 114.921 23.8308 114.143 25.0878 113.262C25.6571 112.865 25.976 112.082 25.5652 111.445Z" fill="#202020"/>
<path d="M78.2013 114.813C76.8664 114.425 75.5498 113.992 74.2315 113.552C73.5815 113.336 72.773 113.802 72.6215 114.467C72.4568 115.189 72.8396 115.844 73.536 116.077C74.8569 116.517 76.1717 116.961 77.4743 117.452C77.7887 117.57 78.2495 117.477 78.5289 117.313C78.8127 117.147 79.0834 116.822 79.1578 116.495C79.3243 115.764 78.9371 115.026 78.2013 114.813Z" fill="#202020"/>
<path d="M45.6723 30.5904C42.0651 32.93 39.2244 36.5644 37.4917 40.4895C36.6175 42.4709 35.9045 44.5119 35.4411 46.63C34.9383 48.9329 34.5476 51.2323 35.3281 53.5054C35.8309 54.9691 37.7834 54.956 38.2932 53.5054C38.9563 51.6177 39.0133 49.673 39.4022 47.7223C39.778 45.8364 40.3281 43.9662 41.0779 42.1941C42.6301 38.5291 44.7911 35.2618 47.1772 32.0952C47.8499 31.2026 46.5526 30.0192 45.6723 30.5904Z" fill="#F2F2F2"/>
</svg>
