<svg width="75" height="127" viewBox="0 0 75 127" fill="none" xmlns="http://www.w3.org/2000/svg">
<path d="M3.1336 42.0985C2.04632 35.3162 1.88061 28.2233 4.08975 21.7191C7.53965 11.5625 16.7523 3.85139 27.1388 1.1739C37.5252 -1.50358 48.8317 0.557129 58.2174 5.74854C63.2416 8.52763 67.8638 12.2665 70.8533 17.1675C76.7573 26.8464 75.4049 39.2193 72.6452 50.2153C68.5634 66.4791 61.8236 82.0721 52.773 96.1894C49.5912 101.152 42.8391 111.461 35.7347 109.574C29.8227 108.004 26.0767 96.4474 23.5044 91.7308C14.9308 76.0124 6.00635 60.0188 3.1336 42.0985Z" fill="#E34511"/>
<path d="M72.8732 27.9019C72.5799 20.4336 69.8347 12.5727 63.7851 7.83664C60.4628 5.23625 56.4617 3.93137 52.3633 3.14095C47.7923 2.25902 43.1326 1.78419 38.4801 1.67106C30.068 1.46715 21.2797 2.56021 13.8416 6.74793C7.59608 10.2634 2.3463 16.1307 0.667466 23.2171C-0.40252 27.7333 -0.0184813 32.4499 0.653052 36.9943C1.31018 41.4429 2.40538 45.8266 3.71098 50.126C6.3265 58.7406 9.61284 67.1816 13.0858 75.4821C16.6005 83.882 20.4071 92.1696 24.6143 100.247C24.8023 100.608 25.0005 100.962 25.1957 101.318C23.4463 101.549 21.5455 102.266 21.1831 104.164C21.1478 104.349 21.1615 104.517 21.2047 104.666C21.1925 104.758 21.1795 104.849 21.1795 104.937C21.1795 105.936 21.9108 107.011 22.9225 107.226C23.7857 107.41 24.6517 107.498 25.5192 107.531C25.3982 107.591 25.2678 107.641 25.1532 107.707C23.6408 108.572 23.251 110.57 24.7843 111.643C25.012 111.801 25.2563 111.934 25.5077 112.055C25.5063 112.055 25.5048 112.057 25.5034 112.058C23.2525 113.705 23.8836 116.481 25.9062 118C26.8176 118.684 27.8422 119.156 28.9295 119.483C29.9469 120.086 31.4362 120.299 32.6705 120.409C32.2829 122.371 33.1965 124.584 34.9834 125.571C36.3618 126.333 38.0896 126.465 39.5883 125.993C41.1166 125.512 42.3393 124.511 43.2709 123.231C44.026 122.193 44.4728 120.893 44.5823 119.599C44.9714 119.537 45.3612 119.479 45.7467 119.401C48.0942 118.922 50.5346 117.71 51.0289 115.128C51.3005 113.708 50.8062 112.425 49.9099 111.47C51.4079 110.537 52.0477 108.577 51.0411 106.999C50.9936 106.924 50.9309 106.86 50.8776 106.789C51.5347 107.017 52.2696 106.994 52.8619 106.592C54.6092 105.408 54.6683 102.835 52.756 101.716C52.1399 101.356 51.4338 101.284 50.7104 101.314C57.2953 86.2879 63.2346 70.9637 67.8381 55.2093C70.4053 46.4188 73.2363 37.1571 72.8732 27.9019ZM34.2117 101.112C34.0374 99.3194 33.7045 97.5296 33.4054 95.76C33.0473 93.6416 32.6748 91.5261 32.3095 89.4092C31.5688 85.1185 30.8281 80.8277 30.0874 76.537C28.606 67.9562 27.1066 59.379 25.6122 50.8004C25.2037 48.4558 24.7951 46.1112 24.3866 43.7666C24.218 42.8003 24.0256 41.8283 23.8375 40.8535C25.0595 43.1527 26.051 45.5722 26.7722 48.0833C27.2564 49.7693 29.7387 49.061 29.3842 47.3634C28.9648 45.356 28.9338 43.255 29.3272 41.2389C29.5276 40.2108 29.8186 39.1919 30.2157 38.2221C30.4102 37.7472 30.8605 36.3516 31.4586 36.2284C31.5638 36.2068 31.6438 36.2803 31.8095 36.5C32.0278 36.789 32.1611 37.1514 32.2757 37.4908C32.6474 38.5932 32.9659 39.7157 33.2484 40.8441C33.8262 43.1483 34.224 45.4879 34.4409 47.8527C34.5994 49.582 37.1255 49.6425 37.1781 47.8527C37.3021 43.6023 38.7748 39.3894 41.4199 36.0447C41.5366 35.8977 41.6973 35.7492 41.8047 35.5878C41.9661 35.8912 42.2017 36.3718 42.2074 36.3862C42.6167 37.498 42.9683 38.6313 43.2616 39.7792C43.8603 42.123 44.1911 44.5058 44.2782 46.9225C44.333 48.4291 46.5112 48.7836 46.937 47.282C47.6258 44.8495 48.6129 42.5381 49.9164 40.3707C50.5497 39.3173 51.2371 38.2646 52.0369 37.3294C52.5218 36.7623 53.2589 35.9423 54.0717 35.7327C52.444 39.7359 51.0671 43.8271 49.693 47.924C48.2484 52.2321 46.8613 56.5632 45.573 60.9209C43.018 69.568 40.7642 78.3138 39.1351 87.1857C38.2957 91.7553 37.5377 96.4048 37.7755 101.062C36.8503 101.076 35.9251 101.092 35.0007 101.105C34.7377 101.109 34.4747 101.11 34.2117 101.112ZM47.9666 98.5996C47.5746 99.493 47.1748 100.384 46.7756 101.273C45.8533 101.181 44.9289 101.109 43.9994 101.078C42.7903 101.039 41.5806 101.032 40.3708 101.037C40.1431 96.9481 40.695 92.8807 41.3997 88.8522C42.1714 84.4383 43.1002 80.0524 44.1464 75.6954C46.2143 67.0822 48.7527 58.5907 51.3783 50.1332C52.8064 45.5333 54.3188 40.9558 55.5387 36.2947C56.3269 37.4302 56.2765 39.8173 56.2887 40.7274C56.3248 43.3551 55.8665 45.9238 54.9918 48.3989C54.4081 50.0503 57.0388 50.7665 57.6131 49.1215C58.6895 46.0391 59.155 42.7283 58.9187 39.4693C58.7378 36.9785 58.1369 33.5977 55.1712 33.0602C52.0066 32.4867 49.7399 35.7096 48.2361 37.9822C47.5365 39.0399 46.9103 40.1452 46.3519 41.2843C46.1437 40.1675 45.8994 39.0579 45.5845 37.967C45.0146 35.9957 43.7112 31.2214 40.6547 33.0076C39.5725 33.6402 38.7546 35.0222 38.0874 36.0461C37.3374 37.1968 36.717 38.4152 36.1874 39.6812C36.0981 39.8959 36.0167 40.1128 35.9345 40.3296C35.7991 39.7748 35.665 39.2193 35.5087 38.6695C34.9042 36.5375 33.9343 32.9341 30.9549 33.5314C28.4396 34.0351 27.407 37.4965 26.8681 39.63C26.7802 39.978 26.7031 40.3275 26.6375 40.6784C25.4904 38.5312 24.1257 36.4993 22.5579 34.5957C22.145 34.0949 21.369 34.2231 20.9388 34.5957C19.0734 36.2111 18.8853 38.8021 18.7218 41.0992C18.4999 44.2118 18.7211 47.2914 18.8601 50.3997C18.8954 51.1974 20.1261 51.206 20.1073 50.3997C20.0425 47.7014 20.3264 44.9821 20.6153 42.3017C20.7378 41.1669 20.7443 39.5464 21.1601 38.2149C21.4915 39.8541 21.7127 41.5293 21.9995 43.1678C22.3698 45.2833 22.7394 47.3988 23.1098 49.5142C23.8599 53.8028 24.6099 58.0907 25.3607 62.3786C26.8609 70.9543 28.374 79.5279 29.8878 88.1007C30.3014 90.4439 30.715 92.7871 31.1293 95.1302C31.4809 97.1203 31.7915 99.1537 32.2785 101.126C30.7006 101.132 29.1205 101.137 27.5447 101.185C24.2879 94.5869 21.0188 88.002 18.0589 81.2579C14.5672 73.3025 11.3774 65.211 8.49818 57.0135C5.63191 48.8557 3.05674 40.4312 2.62587 31.7388C2.42772 27.7492 2.82401 23.733 4.5994 20.1051C6.10674 17.0256 8.30868 14.3906 10.9199 12.185C16.8592 7.16943 24.7367 5.14762 32.3549 4.69657C36.6377 4.44294 40.9494 4.60578 45.2085 5.11231C49.3061 5.59939 53.6112 6.27382 57.443 7.86907C64.0978 10.6395 67.8756 17.1733 69.0608 24.0449C70.5293 32.5566 68.0334 41.3542 65.7875 49.5013C61.1523 66.3047 54.9608 82.6463 47.9666 98.5996Z" fill="black"/>
<path d="M43.0905 103.684C40.1205 103.746 37.1512 103.96 34.1826 104.097C31.2212 104.232 28.2288 104.463 25.266 104.471C24.8157 104.472 24.8143 105.173 25.266 105.172C28.2404 105.164 31.2053 105.296 34.1826 105.236C37.1497 105.176 40.1377 105.098 43.0905 104.785C43.7786 104.712 43.8146 103.669 43.0905 103.684Z" fill="white"/>
<path d="M43.5773 109.286C38.1935 109.119 32.814 109.636 27.4367 109.703C27.0231 109.708 27.0217 110.351 27.4367 110.346C32.8119 110.279 38.2007 110.663 43.5773 110.362C44.2661 110.323 44.274 109.307 43.5773 109.286Z" fill="white"/>
<path d="M44.9266 114.195C44.2299 114.057 43.5209 114.223 42.8191 114.297C42.1692 114.366 41.5178 114.427 40.8665 114.482C39.4557 114.6 38.0413 114.687 36.6269 114.741C33.8045 114.849 30.9678 114.824 28.1448 114.748C27.693 114.736 27.7211 115.379 28.1448 115.432C31.0204 115.793 33.8924 115.938 36.7904 115.923C38.2048 115.915 39.6178 115.869 41.03 115.785C42.3039 115.709 43.8977 115.819 45.0707 115.291C45.5333 115.082 45.4115 114.291 44.9266 114.195Z" fill="white"/>
<path d="M26.7146 28.175C24.1286 25.5891 21.5823 22.9145 19.2578 20.09C19.0229 19.8039 18.533 19.8465 18.2894 20.09C18.0056 20.3739 18.0553 20.7709 18.2894 21.0584C20.6124 23.9153 22.9253 26.7614 25.3816 29.5073C26.1879 30.4087 27.5771 29.0382 26.7146 28.175Z" fill="black"/>
<path d="M37.1363 23.1919C36.614 20.675 36.0404 18.169 35.4777 15.6609C35.3775 15.2156 34.8638 14.9548 34.4394 15.0715C33.9588 15.2034 33.7787 15.658 33.85 16.1098C34.2513 18.6612 34.6411 21.2133 35.0828 23.7582C35.1815 24.3253 35.8768 24.6437 36.3927 24.5018C36.9771 24.3411 37.2538 23.7567 37.1363 23.1919Z" fill="black"/>
<path d="M46.9127 17.1214C46.0863 19.6223 45.236 22.1146 44.496 24.6422C44.117 25.937 46.1525 26.4969 46.5142 25.1985C47.2211 22.663 47.8155 20.0993 48.4345 17.5407C48.6744 16.5485 47.2312 16.1595 46.9127 17.1214Z" fill="black"/>
<path d="M58.3645 21.6506C58.0208 21.3941 57.4271 21.3545 57.1274 21.7241C56.2505 22.8049 55.3736 23.8857 54.4967 24.9665C53.591 26.0826 52.7624 27.257 51.9151 28.4171C51.6398 28.7939 51.8142 29.3826 52.1593 29.6406C52.5074 29.9007 53.0989 29.9353 53.4044 29.5663C54.3209 28.4589 55.254 27.3659 56.1129 26.213C56.9444 25.0976 57.7759 23.9815 58.6074 22.8654C58.884 22.4944 58.7046 21.905 58.3645 21.6506Z" fill="black"/>
<path d="M11.0203 19.4206C8.92934 21.616 7.89971 24.8808 7.33986 27.7924C6.75767 30.8186 6.57609 34.3175 7.48756 37.294C7.96887 38.8662 10.6406 38.6724 10.4857 36.8884C10.3596 35.4387 10.1218 34.0027 10.0642 32.5465C10.008 31.1371 10.088 29.7328 10.2364 28.3314C10.3819 26.9595 10.6918 25.6164 11.0405 24.2834C11.4051 22.8914 11.9123 21.526 12.233 20.1267C12.3872 19.4472 11.5405 18.8744 11.0203 19.4206Z" fill="white"/>
<path d="M22.2024 76.8922C21.417 74.0086 20.0567 71.241 18.9953 68.4468C17.9635 65.7311 16.9656 63.0011 15.9972 60.2623C15.0288 57.5222 14.1181 54.7625 13.203 52.0044C12.7454 50.6253 12.3239 49.2332 11.8549 47.8577C11.3685 46.4318 10.96 44.8264 10.1811 43.5302C9.66663 42.6742 8.29906 43.0294 8.29689 44.0403C8.29329 45.5549 8.78254 47.1422 9.14064 48.6056C9.48505 50.0142 9.90224 51.4092 10.3029 52.8034C11.1199 55.6473 12.0314 58.4646 12.9703 61.2696C13.9098 64.0768 14.9092 66.861 15.9604 69.6292C17.0261 72.435 17.9736 75.4374 19.473 78.0429C20.3175 79.5098 22.6498 78.5321 22.2024 76.8922Z" fill="white"/>
</svg>
