<svg width="133" height="28" viewBox="0 0 133 28" fill="none" xmlns="http://www.w3.org/2000/svg">
<path d="M132.017 19.0928C131.893 20.404 131.584 21.5977 131.089 22.6738C130.594 23.7376 129.945 24.6468 129.141 25.4014C128.324 26.1683 127.353 26.762 126.228 27.1826C125.114 27.5908 123.877 27.7949 122.517 27.7949C121.403 27.7949 120.377 27.6465 119.437 27.3496C118.509 27.0404 117.68 26.6074 116.95 26.0508C116.245 25.5312 115.627 24.9066 115.095 24.1768C114.575 23.4346 114.136 22.6243 113.777 21.7461C113.419 20.8802 113.146 19.9401 112.961 18.9258C112.788 17.9115 112.701 16.8538 112.701 15.7529V12.0605C112.701 11.0091 112.788 9.99479 112.961 9.01758C113.134 8.04036 113.394 7.11881 113.74 6.25293C114.111 5.28809 114.588 4.41602 115.169 3.63672C115.763 2.84505 116.443 2.1709 117.21 1.61426C117.94 1.1071 118.744 0.711263 119.622 0.426758C120.513 0.142253 121.484 0 122.535 0C123.958 0 125.226 0.210286 126.339 0.630859C127.465 1.05143 128.423 1.64518 129.215 2.41211C130.019 3.19141 130.65 4.13151 131.107 5.23242C131.577 6.33333 131.881 7.55794 132.017 8.90625H127.563C127.489 8.10221 127.335 7.37858 127.1 6.73535C126.877 6.07975 126.568 5.52311 126.172 5.06543C125.764 4.60775 125.263 4.26139 124.669 4.02637C124.075 3.77897 123.364 3.65527 122.535 3.65527C121.954 3.65527 121.428 3.73568 120.958 3.89648C120.5 4.05729 120.092 4.28613 119.733 4.58301C119.239 4.94173 118.824 5.41178 118.49 5.99316C118.169 6.56217 117.903 7.19922 117.692 7.9043C117.532 8.52279 117.408 9.18457 117.321 9.88965C117.247 10.5824 117.21 11.2936 117.21 12.0234V15.7529C117.21 16.6559 117.259 17.5033 117.358 18.2949C117.47 19.0866 117.637 19.8102 117.859 20.4658C118.033 21.0101 118.249 21.5049 118.509 21.9502C118.781 22.3955 119.103 22.779 119.474 23.1006C119.857 23.4469 120.296 23.7129 120.791 23.8984C121.298 24.0716 121.873 24.1582 122.517 24.1582C123.284 24.1582 123.964 24.0469 124.558 23.8242C125.151 23.6016 125.659 23.2738 126.079 22.8408C126.487 22.4202 126.815 21.8945 127.062 21.2637C127.31 20.6328 127.471 19.9092 127.545 19.0928H132.017Z" fill="black"/>
<path d="M108.526 0.389648L108.545 18.4619C108.545 19.8597 108.328 21.1338 107.896 22.2842C107.475 23.4222 106.875 24.3994 106.096 25.2158C105.304 26.0322 104.352 26.6631 103.238 27.1084C102.137 27.5537 100.9 27.7764 99.5273 27.7764C98.179 27.7764 96.9606 27.5599 95.8721 27.127C94.7835 26.6816 93.8558 26.0508 93.0889 25.2344C92.3096 24.418 91.7035 23.4346 91.2705 22.2842C90.8499 21.1338 90.6335 19.8597 90.6211 18.4619L90.6582 0.389648H95.0557L95.0928 18.4619C95.1051 19.3154 95.2103 20.1009 95.4082 20.8184C95.6061 21.5234 95.8968 22.1234 96.2803 22.6182C96.6514 23.0882 97.1029 23.4593 97.6348 23.7314C98.179 23.9912 98.8099 24.1211 99.5273 24.1211C100.257 24.1211 100.9 23.9912 101.457 23.7314C102.026 23.4593 102.502 23.0758 102.886 22.5811C103.269 22.0739 103.56 21.474 103.758 20.7812C103.956 20.0762 104.067 19.3031 104.092 18.4619L104.129 0.389648H108.526Z" fill="black"/>
<path d="M67.9287 27.4053V0.389648H74.6084C75.7712 0.389648 76.8659 0.525716 77.8926 0.797852C78.9193 1.05762 79.8532 1.42253 80.6943 1.89258C81.6097 2.375 82.4199 2.98112 83.125 3.71094C83.8424 4.44076 84.4424 5.25716 84.9248 6.16016C85.4196 7.10026 85.8031 8.13314 86.0752 9.25879C86.3473 10.3844 86.4834 11.5843 86.4834 12.8584V14.9736C86.4834 16.1982 86.3535 17.361 86.0938 18.4619C85.8464 19.5505 85.4876 20.5462 85.0176 21.4492C84.5599 22.3275 84.0033 23.1253 83.3477 23.8428C82.7044 24.5602 81.987 25.1725 81.1953 25.6797C80.3047 26.2363 79.3151 26.6631 78.2266 26.96C77.1504 27.2568 75.9938 27.4053 74.7568 27.4053H67.9287ZM72.4375 4.02637V23.7871H74.7568C75.5485 23.7871 76.2721 23.6943 76.9277 23.5088C77.5957 23.3109 78.1956 23.0326 78.7275 22.6738C79.2718 22.3027 79.7542 21.8389 80.1748 21.2822C80.6077 20.7132 80.9603 20.0638 81.2324 19.334C81.4674 18.7155 81.6468 18.0413 81.7705 17.3115C81.8942 16.5817 81.9561 15.8024 81.9561 14.9736V12.8213C81.9561 12.0049 81.8942 11.2318 81.7705 10.502C81.6468 9.77214 81.4674 9.09798 81.2324 8.47949C80.9355 7.72494 80.5397 7.0446 80.0449 6.43848C79.5501 5.81999 78.9626 5.31901 78.2822 4.93555C77.7874 4.65104 77.2308 4.43457 76.6123 4.28613C75.9938 4.12533 75.3258 4.03874 74.6084 4.02637H72.4375Z" fill="black"/>
<path d="M61.1934 15.2891H50.0234V23.7314H63.0674V27.4053H45.5518V0.389648H62.9746V4.08203H50.0234V11.6895H61.1934V15.2891Z" fill="black"/>
<path d="M23.1562 0.389648H39.0762V4.08203H33.3057V23.7314H39.0762V27.4053H23.1562V23.7314H28.7969V4.08203H23.1562V0.389648Z" fill="black"/>
<path d="M4.45312 17.1074V27.4053H0V0.389648H9.03613C10.3968 0.402018 11.6462 0.60612 12.7842 1.00195C13.9346 1.39779 14.9242 1.96061 15.7529 2.69043C16.5817 3.42025 17.2249 4.30469 17.6826 5.34375C18.1403 6.38281 18.3691 7.55176 18.3691 8.85059C18.3691 10.0999 18.1403 11.2318 17.6826 12.2461C17.2249 13.248 16.5817 14.1077 15.7529 14.8252C14.9242 15.555 13.9346 16.1178 12.7842 16.5137C11.6462 16.9095 10.3968 17.1074 9.03613 17.1074H4.45312ZM4.45312 13.4707H9.03613C9.79069 13.4583 10.4648 13.3408 11.0586 13.1182C11.6647 12.8831 12.1781 12.5615 12.5986 12.1533C13.0192 11.7451 13.3346 11.2627 13.5449 10.7061C13.7676 10.1494 13.8789 9.54329 13.8789 8.8877C13.8789 8.17025 13.7676 7.52083 13.5449 6.93945C13.3346 6.3457 13.0192 5.83236 12.5986 5.39941C12.1781 4.96647 11.6647 4.63249 11.0586 4.39746C10.4648 4.16243 9.79069 4.03874 9.03613 4.02637H4.45312V13.4707Z" fill="black"/>
</svg>
