<svg width="93" height="20" viewBox="0 0 93 20" fill="none" xmlns="http://www.w3.org/2000/svg">
<path d="M88.5935 15.1027H82.7901L81.5329 19.3569H78.3582L84.3775 0.867188H87.0823L93 19.3569H89.838L88.5935 15.1027ZM83.5647 12.4867H87.8443L85.7235 5.17213L83.5647 12.4867Z" fill="black"/>
<path d="M70.2054 12.182H67.0814V19.3569H64.0337V0.867188H69.9006C70.8573 0.875653 71.7377 0.99841 72.542 1.23546C73.3463 1.4725 74.0405 1.81961 74.6246 2.27677C75.2003 2.7424 75.649 3.32232 75.9707 4.01653C76.2924 4.70227 76.4533 5.50654 76.4533 6.42933C76.4533 7.06427 76.3686 7.63996 76.1993 8.15638C76.0384 8.67281 75.8098 9.13844 75.5135 9.55327C75.2172 9.9681 74.8617 10.3321 74.4468 10.6454C74.032 10.9586 73.5706 11.2295 73.0626 11.4581L77.012 19.1918V19.3569H73.7484L70.2054 12.182ZM67.0814 9.69296H69.9387C70.4805 9.68449 70.9673 9.60406 71.3991 9.45168C71.8393 9.29082 72.2118 9.06224 72.5166 8.76593C72.7875 8.51195 72.9991 8.19871 73.1515 7.82621C73.3039 7.45371 73.3801 7.03041 73.3801 6.55632C73.3801 6.02296 73.2955 5.55733 73.1261 5.15943C72.9653 4.75307 72.724 4.41443 72.4023 4.14352C72.106 3.88954 71.7462 3.69905 71.3229 3.57206C70.8996 3.43661 70.4255 3.36465 69.9006 3.35618H67.0814V9.69296Z" fill="black"/>
<path d="M59.2462 11.0644H51.6015V16.8425H60.5288V19.3569H48.541V0.867188H60.4653V3.39428H51.6015V8.60085H59.2462V11.0644Z" fill="black"/>
<path d="M36.0326 12.3089V19.3569H32.9849V0.867188H39.1693C40.1005 0.875653 40.9556 1.01534 41.7344 1.28625C42.5218 1.55716 43.1991 1.94237 43.7663 2.44186C44.3335 2.94135 44.7737 3.54667 45.087 4.25781C45.4002 4.96895 45.5568 5.76898 45.5568 6.65791C45.5568 7.51297 45.4002 8.28761 45.087 8.98182C44.7737 9.66756 44.3335 10.2559 43.7663 10.747C43.1991 11.2465 42.5218 11.6317 41.7344 11.9026C40.9556 12.1735 40.1005 12.3089 39.1693 12.3089H36.0326ZM36.0326 9.81995H39.1693C39.6857 9.81148 40.1471 9.73105 40.5534 9.57867C40.9683 9.41781 41.3196 9.1977 41.6074 8.91832C41.8953 8.63894 42.1112 8.30877 42.2551 7.9278C42.4075 7.54683 42.4837 7.132 42.4837 6.68331C42.4837 6.19228 42.4075 5.74782 42.2551 5.34992C42.1112 4.94355 41.8953 4.59221 41.6074 4.2959C41.3196 3.99959 40.9683 3.77101 40.5534 3.61016C40.1471 3.44931 39.6857 3.36465 39.1693 3.35618H36.0326V9.81995Z" fill="black"/>
<path d="M29.1624 0.867188L29.1751 13.236C29.1751 14.1926 29.027 15.0646 28.7307 15.8519C28.4428 16.6308 28.0322 17.2996 27.4989 17.8584C26.9571 18.4171 26.3052 18.8489 25.5432 19.1537C24.7898 19.4584 23.9432 19.6108 23.0035 19.6108C22.0807 19.6108 21.2468 19.4627 20.5018 19.1664C19.7568 18.8616 19.1218 18.4298 18.5969 17.8711C18.0636 17.3123 17.6487 16.6393 17.3524 15.8519C17.0646 15.0646 16.9164 14.1926 16.908 13.236L16.9334 0.867188H19.943L19.9684 13.236C19.9769 13.8201 20.0488 14.3577 20.1843 14.8487C20.3197 15.3313 20.5187 15.7419 20.7811 16.0805C21.0351 16.4022 21.3441 16.6562 21.7082 16.8425C22.0807 17.0203 22.5124 17.1091 23.0035 17.1091C23.5029 17.1091 23.9432 17.0203 24.3241 16.8425C24.7136 16.6562 25.0395 16.3938 25.302 16.0551C25.5644 15.708 25.7634 15.2974 25.8988 14.8233C26.0343 14.3408 26.1105 13.8116 26.1274 13.236L26.1528 0.867188H29.1624Z" fill="black"/>
<path d="M11.1553 14.5948C11.1553 14.1631 11.0664 13.7821 10.8886 13.4519C10.7108 13.1217 10.4611 12.8254 10.1394 12.563C9.80072 12.3175 9.39859 12.0974 8.93296 11.9026C8.4758 11.6995 7.96361 11.5174 7.39639 11.3566C6.52439 11.1111 5.72013 10.8105 4.98359 10.455C4.25552 10.0909 3.63327 9.68456 3.11684 9.23587C2.60042 8.77871 2.19405 8.26228 1.89774 7.6866C1.6099 7.10244 1.46598 6.44633 1.46598 5.71826C1.46598 4.93092 1.6353 4.22402 1.97394 3.59753C2.31258 2.96259 2.76974 2.42076 3.34542 1.97207C3.92111 1.53184 4.58992 1.19743 5.35186 0.968852C6.12226 0.731805 6.93076 0.613281 7.77736 0.613281C8.67475 0.613281 9.50865 0.75297 10.2791 1.03235C11.0579 1.30326 11.7352 1.68423 12.3109 2.17525C12.8866 2.67474 13.3395 3.27159 13.6697 3.9658C14.0083 4.65155 14.1776 5.41348 14.1776 6.25161H11.1553C11.1129 5.78599 11.0114 5.36269 10.8505 4.98172C10.6981 4.59229 10.4822 4.25788 10.2029 3.9785C9.91501 3.70759 9.56368 3.49594 9.14884 3.34356C8.74248 3.1827 8.27262 3.10228 7.73926 3.10228C7.27363 3.10228 6.84187 3.16577 6.44397 3.29276C6.05453 3.41128 5.71589 3.5806 5.42805 3.80072C5.14021 4.0293 4.91586 4.30444 4.75501 4.62615C4.59415 4.94786 4.51373 5.30766 4.51373 5.70556C4.52219 6.12886 4.63225 6.50136 4.8439 6.82307C5.05555 7.13631 5.33916 7.41145 5.69473 7.6485C6.05877 7.88555 6.4736 8.09296 6.93923 8.27075C7.41332 8.44853 7.90858 8.61362 8.425 8.76601C9.07688 8.95226 9.71183 9.18507 10.3298 9.46445C10.9563 9.73536 11.532 10.0655 12.0569 10.455C12.7088 10.946 13.2294 11.5344 13.6189 12.2201C14.0168 12.8974 14.2157 13.6805 14.2157 14.5694C14.2157 15.3906 14.0422 16.1145 13.6951 16.7409C13.3564 17.3674 12.8993 17.8881 12.3236 18.3029C11.7394 18.7347 11.0622 19.0606 10.2917 19.2807C9.52135 19.4924 8.70861 19.5982 7.85355 19.5982C6.94769 19.5982 6.05453 19.4585 5.17407 19.1791C4.29361 18.8913 3.52744 18.4765 2.87556 17.9346C2.27448 17.4267 1.79615 16.8298 1.44058 16.1441C1.09348 15.4584 0.915693 14.671 0.907227 13.7821H3.95497C3.9973 14.3493 4.11583 14.8446 4.31054 15.2679C4.51373 15.6827 4.78887 16.0256 5.13598 16.2965C5.47461 16.5759 5.87252 16.7833 6.32968 16.9187C6.79531 17.0542 7.30326 17.1219 7.85355 17.1219C8.31918 17.1219 8.75094 17.0669 9.14884 16.9568C9.55521 16.8468 9.90655 16.6817 10.2029 16.4616C10.4907 16.2499 10.7193 15.9875 10.8886 15.6742C11.0664 15.361 11.1553 15.0012 11.1553 14.5948Z" fill="black"/>
</svg>
