<svg width="33" height="30" viewBox="0 0 33 30" fill="none" xmlns="http://www.w3.org/2000/svg">
<path d="M14.0176 3.41523L1.56778 24.1992C1.31109 24.6437 1.17528 25.1477 1.17384 25.661C1.1724 26.1743 1.3054 26.6791 1.55959 27.125C1.81378 27.571 2.18031 27.9426 2.62272 28.2029C3.06512 28.4632 3.56798 28.6032 4.08126 28.6088H28.9809C29.4942 28.6032 29.997 28.4632 30.4394 28.2029C30.8818 27.9426 31.2484 27.571 31.5025 27.125C31.7567 26.6791 31.8897 26.1743 31.8883 25.661C31.8869 25.1477 31.751 24.6437 31.4944 24.1992L19.0445 3.41523C18.7825 2.98325 18.4136 2.62609 17.9733 2.37821C17.533 2.13034 17.0363 2.00012 16.5311 2.00012C16.0258 2.00012 15.5291 2.13034 15.0888 2.37821C14.6486 2.62609 14.2796 2.98325 14.0176 3.41523Z" fill="#1E4798" stroke="#1E4798" stroke-width="2.20481" stroke-linecap="round" stroke-linejoin="round"/>
<path d="M16.5317 10.9703V16.8498" stroke="#F2F2F2" stroke-width="2.20481" stroke-linecap="round" stroke-linejoin="round"/>
<path d="M16.5317 22.7294H16.5459" stroke="#F2F2F2" stroke-width="2.20481" stroke-linecap="round" stroke-linejoin="round"/>
</svg>
