<svg width="85" height="132" viewBox="0 0 85 132" fill="none" xmlns="http://www.w3.org/2000/svg">
<path d="M23.7786 76.2468C24.2061 68.0471 24.6328 59.8473 25.0603 51.6475C25.4121 44.9005 25.7925 38.0137 28.2848 31.7336C30.7765 25.4543 35.8002 19.7755 42.3993 18.3282C50.1184 16.6348 58.1928 21.2194 62.6465 27.7476C67.1002 34.2758 68.57 42.3692 69.219 50.2452C70.0262 60.0402 69.7289 69.9266 68.3348 79.6555C67.0675 88.494 64.2254 99.2946 56.1367 104.4C51.1901 107.522 45.03 107.986 39.1877 107.712C31.0929 107.332 28.2017 105.378 25.5525 97.5439C23.2605 90.7676 23.4112 83.3 23.7786 76.2468Z" fill="#FFDC2B"/>
<path d="M66.4604 58.1553C66.1434 53.81 65.6171 49.4817 64.8876 45.1861C64.1984 41.1265 63.4499 36.9823 62.1403 33.0698C60.9452 29.4997 59.0589 26.2458 56.1595 23.797C53.4674 21.5228 50.2387 19.9603 46.8533 19.0202C40.0824 17.1393 31.8247 17.4277 26.6831 22.8167C21.32 28.4382 20.3117 37.0791 19.8556 44.469C19.3164 53.2087 19.3852 62.02 19.6954 70.7672C19.8536 75.2352 20.1045 79.7005 20.4474 84.1583C20.7453 88.0278 20.988 91.9811 22.0556 95.7312C23.027 99.1446 24.7831 102.351 27.5782 104.6C28.836 105.611 30.2281 106.421 31.7054 107.021C31.5629 107.162 31.4258 107.317 31.3025 107.503C31.0795 107.837 31.0277 108.164 31.0823 108.458C30.8505 109.124 30.7796 109.85 30.7748 110.558C30.7666 111.675 30.9568 112.824 31.9337 113.466C31.4688 114.04 31.4327 114.79 31.5022 115.514C31.6522 117.06 32.216 118.63 33.5194 119.571C33.5583 119.6 33.6012 119.619 33.6415 119.645C33.3231 119.793 33.0184 119.974 32.7641 120.202C31.8574 121.016 31.704 122.366 32.2916 123.419C32.9863 124.664 34.3245 125.163 35.6491 125.424C36.3786 125.568 37.1162 125.677 37.8572 125.761C37.8334 125.822 37.802 125.88 37.7809 125.941C37.6827 126.23 37.667 126.565 37.6739 126.87C37.6882 127.533 37.8313 128.193 38.1217 128.79C38.6542 129.887 39.6481 130.679 40.7668 131.114C43.0227 131.992 45.9323 130.858 47.2419 128.89C47.6407 128.291 47.8486 127.541 47.8684 126.825C47.8779 126.484 47.8316 126.123 47.7422 125.793C47.7095 125.672 47.6645 125.559 47.6154 125.447C48.3299 125.323 49.0334 125.154 49.7049 124.891C50.9252 124.413 52.0269 123.629 52.6411 122.445C53.2799 121.211 53.2594 119.987 52.8661 118.694C52.8661 118.693 52.8647 118.692 52.8647 118.691C53.6985 118.347 54.4334 117.835 54.9004 116.992C55.7177 115.514 55.2221 113.691 54.1648 112.469C54.4552 112.301 54.7279 112.106 54.9644 111.864C55.8875 110.917 55.9373 109.589 55.3114 108.461C55.0094 107.917 54.6188 107.462 54.1709 107.076C55.6018 106.222 56.9217 105.196 58.0676 104.063C63.4478 98.7411 65.2653 90.9142 66.0725 83.6504C67.0112 75.2093 67.0787 66.623 66.4604 58.1553ZM50.2135 121.734C49.6354 122.464 48.6524 122.782 47.7845 122.995C45.6514 123.521 43.3758 123.685 41.1854 123.706C40.0674 123.717 38.948 123.672 37.8354 123.558C36.8299 123.455 35.5169 123.404 34.63 122.864C33.8767 122.404 33.9176 121.78 34.5972 121.33C35.0601 121.023 35.5373 120.726 36.0186 120.44C36.8258 120.534 37.6561 120.524 38.4408 120.528C42.3621 120.545 46.2888 120.159 50.1365 119.403C50.1883 119.652 50.3042 119.887 50.5128 120.067C50.9695 120.463 50.5032 121.367 50.2135 121.734ZM52.2457 116.075C51.2852 116.775 49.6708 116.879 48.544 117.101C45.528 117.697 42.4677 118.032 39.3959 118.122C38.1006 118.16 36.4468 118.395 35.2176 117.887C34.2046 117.467 33.8501 116.288 33.7751 115.28C33.7696 115.201 33.7553 115.092 33.7512 114.991C34.0948 114.958 34.4432 114.953 34.7881 114.933C35.6069 114.888 36.4256 114.842 37.2451 114.796C38.8287 114.707 40.4117 114.618 41.9946 114.53C45.2199 114.349 48.5296 114.332 51.7385 113.871C51.7726 113.907 51.8012 113.945 51.8415 113.98C52.4209 114.486 53.059 115.481 52.2457 116.075ZM50.7323 110.633C46.6004 111.723 42.2796 111.712 38.042 111.479C37.0167 111.422 35.992 111.351 34.9681 111.275C34.5229 111.241 34.0716 111.227 33.6285 111.172C33.6231 111.171 33.5501 111.151 33.4928 111.143C33.4908 111.073 33.4635 110.956 33.4642 110.914C33.4724 110.448 33.3401 109.761 33.5133 109.254C33.5903 109.187 33.6633 109.109 33.7308 109.019C33.7594 109 33.8126 108.975 33.9203 108.972C33.996 108.97 34.1003 108.946 34.1793 108.937C34.6763 108.874 35.1937 108.89 35.6948 108.868C36.8899 108.816 38.0849 108.764 39.2793 108.711C42.6702 108.563 46.205 108.73 49.6647 108.615C50.9525 108.572 52.1789 108.646 52.7822 109.915C52.2205 110.407 51.444 110.447 50.7323 110.633ZM35.0042 83.0859C34.5993 82.9837 34.1637 82.8555 34.1091 82.3865C34.0341 81.7457 34.6238 80.9549 34.9817 80.4695C36.4461 78.4856 38.9487 77.281 41.4002 77.2831C43.7024 77.2844 45.8798 78.4441 47.308 80.2274C45.0133 81.7634 42.1944 82.6319 39.5022 83.013C38.1006 83.2114 36.3943 83.437 35.0042 83.0859ZM38.6733 85.7331C40.7607 85.534 42.8175 85.0957 44.7842 84.3635C46.0938 83.8761 47.4048 83.2543 48.6155 82.4826C48.7969 82.9441 48.9257 83.4227 49.0164 83.9061C47.9999 87.5417 47.2378 91.238 46.7415 94.9814C46.4865 96.9052 46.3236 98.8419 46.2254 100.78C46.175 101.775 46.1354 102.773 46.132 103.769C46.13 104.271 46.1218 104.795 46.1566 105.314C44.1884 105.387 42.2107 105.571 40.2555 105.695C40.2774 104.343 40.0831 102.993 39.8724 101.646C39.5622 99.6607 39.1423 97.6905 38.6685 95.7381C38.2049 93.8285 37.7209 91.9231 37.3078 90.002C37.0964 89.0197 36.9185 88.0318 36.7303 87.0447C36.6608 86.68 36.6213 86.275 36.5701 85.868C37.2982 85.8599 38.0188 85.7958 38.6733 85.7331ZM64.1793 76.7834C63.8003 83.8727 63.2167 91.4439 59.7311 97.788C57.8911 101.137 54.9726 104.066 51.4897 105.704C50.6437 105.464 49.7608 105.337 48.9148 105.305C48.7226 105.297 48.5303 105.297 48.3381 105.292C48.3613 104.887 48.3681 104.482 48.3831 104.084C48.4206 103.088 48.4383 102.091 48.4935 101.095C48.6019 99.1549 48.7921 97.2222 49.0314 95.2943C49.4643 91.8134 50.1658 88.37 51.0704 84.9818C51.2381 84.7862 51.3438 84.5414 51.3281 84.2783C51.324 84.2101 51.3145 84.1433 51.309 84.0751C51.3268 84.0124 51.3411 83.9483 51.3588 83.8856C51.4767 83.4663 51.3629 83.1214 51.1379 82.8787C51.005 82.2399 50.8093 81.6175 50.5564 81.0189C51.7372 79.9664 52.725 78.7195 53.374 77.2483C54.824 73.9617 53.8287 70.6233 51.3172 68.3395C51.7597 67.7812 52.1421 67.1758 52.4441 66.5227C53.9855 63.1843 52.7931 59.8118 50.3212 57.4374C50.7384 56.8702 51.0997 56.2505 51.3922 55.5722C52.1346 53.8488 52.4032 51.8548 51.7876 50.0455C51.2995 48.6098 50.3976 47.4379 49.3184 46.4262C49.9981 45.6763 50.6144 44.8678 51.1325 43.9911C51.9724 42.5704 52.5695 40.986 52.8388 39.3574C52.9908 38.4377 52.5982 37.4976 51.6322 37.2325C50.8114 37.0068 49.6524 37.512 49.5066 38.4391C49.1507 40.7011 48.1015 42.7265 46.6058 44.3469C43.9055 42.629 40.7225 41.558 37.5177 42.0638C35.6396 42.3604 33.8207 43.3359 32.7048 44.895C31.5111 46.5632 31.4879 48.9036 33.1383 50.282C34.5202 51.4362 36.5415 51.653 38.2813 51.6216C40.0122 51.5902 41.7424 51.231 43.3451 50.5827C44.5668 50.0884 45.7291 49.4476 46.7987 48.6806C47.4852 49.2792 48.1077 49.9725 48.4587 50.7804C49.1405 52.3504 48.5944 54.1106 47.6004 55.4781C44.637 53.8706 41.1179 53.3552 37.7918 53.8461C35.9852 54.1126 34.12 54.7242 32.8432 56.0965C31.5043 57.5356 31.2731 59.6844 32.5507 61.2394C34.7888 63.9622 39.4927 62.8442 42.3873 62.1604C44.4222 61.6798 46.4122 60.8767 48.0667 59.6619C48.7771 60.2795 49.3648 61.0096 49.7288 61.8652C50.4651 63.5961 49.8604 65.3093 48.7457 66.6489C47.4709 66.0551 46.087 65.6754 44.7222 65.4102C42.9143 65.0598 41.0463 64.7639 39.2009 64.7455C37.4066 64.7278 35.5039 65.0216 33.9585 65.9883C32.3694 66.9822 30.8096 68.8829 31.8512 70.8203C32.8288 72.6392 35.5067 72.9241 37.32 73.1362C39.4791 73.3898 41.6804 73.2548 43.8005 72.7735C45.7353 72.3344 47.7102 71.4864 49.3504 70.245C50.2387 70.9349 50.9375 71.8232 51.2572 72.9746C51.8544 75.1248 50.6968 77.1713 49.1902 78.6908C48.3197 77.5667 47.2228 76.6123 45.9561 75.9217C42.825 74.214 39.0032 74.4076 35.9436 76.1896C33.3544 77.6976 29.1503 82.5808 32.9829 85.067C33.4376 85.3622 33.953 85.549 34.4936 85.6724C34.5359 86.1891 34.6375 86.7127 34.692 87.1695C34.8106 88.16 34.9865 89.141 35.1787 90.12C35.5578 92.0492 36.0145 93.9622 36.457 95.8771C36.8987 97.7866 37.3575 99.6934 37.7073 101.622C37.9581 103.009 38.0863 104.416 38.2976 105.808C37.6923 105.841 37.0862 105.875 36.4808 105.909C31.8785 105.396 27.6471 102.632 25.5051 98.3661C23.963 95.2936 23.4408 91.7881 23.1081 88.4027C22.708 84.3321 22.4475 80.2438 22.2362 76.1596C21.8047 67.8283 21.6942 59.4805 21.9049 51.141C22.0065 47.1365 22.1374 43.1157 22.6657 39.1406C23.134 35.6175 23.8758 32.003 25.426 28.7804C26.8672 25.7843 29.0023 23.2278 32.038 21.7696C35.0158 20.3393 38.4613 20.0959 41.7069 20.4068C48.0797 21.0176 54.8424 24.0009 58.1379 29.741C59.9969 32.9792 60.7761 36.7321 61.526 40.3507C62.3441 44.2985 62.9808 48.2825 63.439 52.2883C64.3688 60.4179 64.6163 68.6122 64.1793 76.7834ZM43.7623 46.6198C42.5939 47.2968 41.3109 47.7924 39.957 48.0528C38.8812 48.26 37.6766 48.2948 36.5913 48.1053C36.2191 48.0405 35.5605 47.9696 35.3117 47.6465C35.1562 47.4454 35.3015 47.1884 35.4651 46.9238C36.7788 44.7975 40.1022 45.2148 42.071 45.8822C42.6525 46.0799 43.2156 46.3342 43.7623 46.6198ZM35.041 58.6761C35.1576 58.4395 35.3567 58.233 35.5803 58.0632C36.534 57.3372 37.8866 57.0918 39.0496 56.995C40.5098 56.8736 41.9592 56.9711 43.3792 57.3365C43.8469 57.4572 44.3295 57.6078 44.8122 57.7892C42.8018 58.8302 40.3926 59.2603 38.2261 59.5317C37.6854 59.5992 37.1353 59.6203 36.5913 59.5882C36.1645 59.563 35.6573 59.456 35.356 59.2999C35.1228 59.1792 34.981 59.0654 34.9824 58.8445C34.9974 58.8465 35.0472 58.6856 35.041 58.6761ZM46.192 68.6859C43.928 69.9286 41.2577 70.3602 38.693 70.2559C37.8552 70.2218 37.0296 70.1257 36.2088 69.9559C35.84 69.8796 35.4644 69.8012 35.1058 69.6866C34.902 69.6212 34.7213 69.4951 34.5345 69.4105C34.54 69.4037 34.5434 69.3962 34.5502 69.3894C34.7411 69.1897 34.8924 68.9715 35.1133 68.7902C35.5639 68.42 36.1018 68.1705 36.6581 68.0055C39.2152 67.2474 42.266 67.7792 44.8156 68.3266C45.2649 68.4234 45.7284 68.5427 46.192 68.6859Z" fill="#202020"/>
<path d="M51.1999 32.0227C50.3001 30.7643 49.3375 29.5637 48.3108 28.4069C47.3298 27.3011 46.2874 25.8995 44.9063 25.2791C44.4522 25.0753 43.716 25.4264 43.9457 26.0174C44.4188 27.2322 45.3732 28.2051 46.1647 29.2202C46.9637 30.2455 47.6891 31.3267 48.4308 32.3929C49.949 34.5758 51.322 36.8602 52.53 39.2292C54.9256 43.927 56.6312 48.8777 57.7609 54.024C58.403 56.9479 58.7943 59.9107 58.9477 62.9008C59.0336 64.5737 61.6167 64.5948 61.5662 62.9008C61.2383 51.8561 57.6334 41.0188 51.1999 32.0227Z" fill="#F2F2F2"/>
<path d="M60.1427 71.9704C59.9777 71.365 59.0308 71.4796 59.0411 72.1197C59.082 74.7491 59.112 77.3731 58.6893 79.9772C58.2673 82.5773 57.469 85.0677 56.9202 87.6364C56.7034 88.6508 58.0935 89.3298 58.645 88.3638C60.033 85.9328 60.5777 83.0266 60.776 80.2601C60.9758 77.4958 60.8735 74.6496 60.1427 71.9704Z" fill="#F2F2F2"/>
<path d="M11.6205 56.5027C9.79617 56.5757 7.97188 56.6936 6.14622 56.7407C5.25248 56.7632 4.35601 56.7332 3.46295 56.7707C2.53376 56.8102 1.60593 56.92 0.67947 57.0031C-0.0786075 57.0713 -0.287897 58.1259 0.494723 58.3659C4.04446 59.4533 7.93711 59.6203 11.6198 59.2365C12.354 59.1601 12.9866 58.6631 12.9866 57.8696C12.9873 57.1518 12.3615 56.4734 11.6205 56.5027Z" fill="#202020"/>
<path d="M15.4569 32.8374C13.5126 31.9129 11.2507 31.6539 9.13117 31.3696C8.13585 31.236 7.14053 31.1085 6.14385 30.9865C5.05855 30.8535 4.00392 30.8672 2.9193 30.814C1.98602 30.7683 1.82649 32.1754 2.70183 32.4195C3.67669 32.6915 4.60929 33.0419 5.6012 33.2675C6.62243 33.5007 7.64228 33.7413 8.6601 33.9881C9.64178 34.226 10.6344 34.421 11.6208 34.6392C12.6973 34.8771 13.7505 35.0816 14.857 35.0523C15.9573 35.023 16.577 33.3698 15.4569 32.8374Z" fill="#202020"/>
<path d="M38.6646 11.2015C38.5494 10.6813 38.3851 10.1693 38.2623 9.65055C38.0353 8.68727 37.8472 7.71514 37.6992 6.73618C37.3966 4.72782 37.0782 2.71331 36.9603 0.683817C36.9173 -0.0517637 35.7509 -0.311493 35.5975 0.499759C35.1932 2.63833 34.9028 4.8028 35.0405 6.98091C35.1114 8.09893 35.2389 9.21151 35.4005 10.32C35.4775 10.849 35.5498 11.3862 35.6677 11.9084C35.8197 12.5826 36.1197 13.0987 36.5533 13.6284C37.1355 14.3388 38.5459 13.9781 38.6952 13.0626C38.803 12.4109 38.8084 11.8512 38.6646 11.2015Z" fill="#202020"/>
<path d="M50.7136 1.68255C50.2248 1.6246 49.8737 1.90481 49.6978 2.34588C49.0106 4.07065 48.5641 5.85472 48.1721 7.66743C47.9846 8.5339 47.8353 9.40855 47.7092 10.2859C47.5531 11.3746 47.5947 12.372 47.8578 13.4403C47.9751 13.9154 48.4557 14.2617 48.937 14.2617C49.4667 14.2617 49.83 13.9032 50.0162 13.4403C50.3788 12.5363 50.5663 11.6576 50.6583 10.6847C50.7456 9.7685 50.8111 8.84952 50.8969 7.9326C51.0633 6.14648 51.336 4.37537 51.5166 2.59129C51.5623 2.13999 51.1294 1.73232 50.7136 1.68255Z" fill="#202020"/>
<path d="M79.6643 23.3832C79.4066 22.7724 78.746 22.4493 78.0977 22.6143C77.6811 22.7206 77.2953 22.829 76.8985 22.9974C76.7806 23.0472 76.739 23.0649 76.771 23.0519C76.6306 23.1105 76.4902 23.1699 76.3504 23.2292C76.2147 23.2892 76.0811 23.3519 75.9468 23.4153C75.2999 23.7193 74.6447 24.005 73.9964 24.3049C73.3726 24.594 72.7454 24.8735 72.1135 25.1441C71.4597 25.4243 70.8387 25.7365 70.204 26.0576C69.8181 26.2533 69.6784 26.7782 69.844 27.1559C70.0356 27.5915 70.433 27.7258 70.8816 27.6651C71.5797 27.5704 72.2539 27.4647 72.937 27.2875C73.6317 27.1068 74.3229 26.9159 75.0115 26.7141C76.4186 26.3024 77.8911 25.849 79.1209 25.0419C79.6779 24.6765 79.9288 24.0104 79.6643 23.3832Z" fill="#202020"/>
<path d="M84.9485 40.9895C84.6908 40.1925 84.0016 39.8926 83.2196 40.0078C80.203 40.4543 77.3595 41.646 74.4718 42.5758C73.4178 42.9153 73.8684 44.5842 74.9312 44.242C77.8599 43.2991 80.9393 43.1287 83.9675 42.7183C84.6976 42.6188 85.1605 41.6446 84.9485 40.9895Z" fill="#202020"/>
<path d="M17.5468 25.0398C16.7949 24.5653 16.0504 24.144 15.2453 23.7643C14.4197 23.3744 13.5642 23.0396 12.7188 22.694C11.1086 22.0355 9.48678 21.4131 7.91676 20.6645C6.9828 20.2194 6.15996 21.6032 7.09938 22.0627C8.70552 22.8481 10.2414 23.7555 11.8005 24.6315C13.4074 25.5334 14.9903 26.3624 16.7315 26.9725C17.8986 27.3809 18.5264 25.6581 17.5468 25.0398Z" fill="#202020"/>
</svg>
